%TF.GenerationSoftware,Altium Limited,Altium Designer,22.7.1 (60)*%
G04 Layer_Color=0*
%FSLAX45Y45*%
%MOMM*%
%TF.SameCoordinates,7EA997FE-DDDF-495E-A45D-074EEB3093BC*%
%TF.FilePolarity,Positive*%
%TF.FileFunction,Plated,1,2,PTH,Drill*%
%TF.Part,Single*%
G01*
G75*
%TA.AperFunction,ComponentDrill*%
%ADD58C,0.85000*%
%ADD59C,1.20000*%
%ADD60C,1.00000*%
%ADD61C,0.80000*%
%ADD62C,0.90000*%
%ADD63C,0.90000*%
%ADD64C,1.50000*%
%ADD65C,1.70000*%
%ADD66C,0.65000*%
%TA.AperFunction,ViaDrill,NotFilled*%
%ADD67C,0.30000*%
%ADD68C,3.00000*%
%ADD69C,0.50000*%
D58*
X5727700Y4914900D02*
D03*
X6743700D02*
D03*
X3340100Y4797949D02*
D03*
X4356100D02*
D03*
D59*
X4597400Y5364974D02*
D03*
X4851400Y5364974D02*
D03*
X5105400Y5364974D02*
D03*
X5359400D02*
D03*
D60*
X5340299Y6375401D02*
D03*
X4540300Y6375400D02*
D03*
D61*
X5140300Y6375400D02*
D03*
X4940300Y6375400D02*
D03*
X4740300D02*
D03*
D62*
X4943691Y2930484D02*
D03*
Y2680484D02*
D03*
Y2430484D02*
D03*
Y2180484D02*
D03*
Y1930484D02*
D03*
Y1680484D02*
D03*
X4221376D02*
D03*
X4221375Y1930485D02*
D03*
X4221376Y2180484D02*
D03*
Y2430484D02*
D03*
Y2680484D02*
D03*
Y2930484D02*
D03*
D63*
X5756316Y3978491D02*
D03*
X6006316Y3978491D02*
D03*
X6256316D02*
D03*
X6506316D02*
D03*
X6756316Y3978490D02*
D03*
X7006316Y3978491D02*
D03*
Y3256175D02*
D03*
X6756315Y3256175D02*
D03*
X6506316Y3256176D02*
D03*
X6256316Y3256175D02*
D03*
X6006316Y3256176D02*
D03*
X5756316Y3256176D02*
D03*
D64*
X6216614Y1954349D02*
D03*
D65*
X5857403Y1954349D02*
D03*
X6216615Y1595138D02*
D03*
X6575826Y1954347D02*
D03*
X6216615Y2313559D02*
D03*
D66*
X3563379Y5223363D02*
D03*
X3433379Y5223363D02*
D03*
X3303379D02*
D03*
X6303380D02*
D03*
X6433379Y5223363D02*
D03*
X6563379Y5223363D02*
D03*
D67*
X4500083Y838866D02*
D03*
X4623941Y977521D02*
D03*
X4426745Y1371357D02*
D03*
X4598933Y1377286D02*
D03*
X4692546Y1036541D02*
D03*
X4564752Y916140D02*
D03*
X7847934Y3534883D02*
D03*
X7709279Y3658741D02*
D03*
X7315444Y3461545D02*
D03*
X7309514Y3633733D02*
D03*
X7650259Y3727346D02*
D03*
X7770660Y3599552D02*
D03*
X4529407Y1366228D02*
D03*
X4581309Y1515444D02*
D03*
X7320573Y3564207D02*
D03*
X7171356Y3616109D02*
D03*
D68*
X5568379Y2607462D02*
D03*
D69*
X5822379Y2340763D02*
D03*
%TF.MD5,ebd328abff407930a15231fe716b5bf8*%
M02*
