%TF.GenerationSoftware,Altium Limited,Altium Designer,23.3.1 (30)*%
G04 Layer_Color=16711935*
%FSLAX45Y45*%
%MOMM*%
%TF.SameCoordinates,9B08417B-AAB0-44DC-96C9-EC8FD7F4D7BA*%
%TF.FilePolarity,Positive*%
%TF.FileFunction,Other,Mechanical_13*%
%TF.Part,Single*%
G01*
G75*
%TA.AperFunction,NonConductor*%
%ADD40C,0.20000*%
%ADD41C,0.25400*%
D40*
X4447400Y5791575D02*
X4447400Y5141573D01*
X5509400Y5141574D01*
X5509400Y5791574D01*
X4447400Y5791575D02*
X5509400Y5791574D01*
D41*
X7846079Y3725063D02*
G03*
X7846079Y3725063I-2900000J0D01*
G01*
X5521325Y4454525D02*
X5765800Y4699000D01*
X5359400Y3403600D02*
Y4292600D01*
X5521325Y4454525D01*
X5765800Y4699000D02*
Y5092700D01*
X3505200Y4787900D02*
X4241800D01*
X3505200Y3403600D02*
Y4787900D01*
Y3403600D02*
X5359400D01*
X4851400Y596900D02*
X4902200Y647700D01*
X4368800Y596900D02*
X4851400D01*
X4305300Y660400D02*
X4368800Y596900D01*
X4305300Y660400D02*
Y901700D01*
X4902200Y647700D02*
Y812800D01*
X8013700Y3924300D02*
X8089900Y3848100D01*
X7810500Y3314700D02*
X8013700D01*
X8089900Y3725547D02*
Y3848100D01*
X7835900Y3924300D02*
X8013700D01*
X8089900Y3390900D02*
Y3725547D01*
X8013700Y3314700D02*
X8089900Y3390900D01*
%TF.MD5,5d4f28c55ee24ee1420549aca48ab50c*%
M02*
