%TF.GenerationSoftware,Altium Limited,Altium Designer,23.3.1 (30)*%
G04 Layer_Color=65535*
%FSLAX45Y45*%
%MOMM*%
%TF.SameCoordinates,9B08417B-AAB0-44DC-96C9-EC8FD7F4D7BA*%
%TF.FilePolarity,Positive*%
%TF.FileFunction,Legend,Top*%
%TF.Part,Single*%
G01*
G75*
%TA.AperFunction,NonConductor*%
%ADD39C,0.25000*%
%ADD40C,0.20000*%
%ADD41C,0.25400*%
%ADD42C,0.30000*%
%ADD50C,0.10000*%
%ADD51C,0.30480*%
D39*
X4743299Y6764500D02*
G03*
X4743299Y6764500I-12500J0D01*
G01*
X7328816Y3256176D02*
G03*
X7328816Y3256176I-12500J0D01*
G01*
X5458816Y3978490D02*
G03*
X5458816Y3978490I-12500J0D01*
G01*
X4233876Y1370484D02*
G03*
X4233876Y1370484I-12500J0D01*
G01*
X4956191Y3240484D02*
G03*
X4956191Y3240484I-12500J0D01*
G01*
D40*
X5912559Y2258403D02*
G03*
X5919630Y2251332I3535J-3535D01*
G01*
D02*
G03*
X5912559Y2258403I-3535J3535D01*
G01*
D02*
G03*
X5919630Y2251332I3535J-3535D01*
G01*
X6083299Y5067299D02*
X6083300Y4864100D01*
X6083299Y5067299D02*
X6692900Y5067300D01*
X6692901Y4864101D01*
X6083300Y4864100D02*
X6692901Y4864101D01*
X5981699Y4965701D02*
X6083300Y4965700D01*
X6692900D02*
X6794501Y4965699D01*
X4490800Y6361999D02*
X4490800Y6242000D01*
X5370800D01*
X5370800Y6362000D01*
X4490800Y6712000D02*
X4490800Y6592000D01*
X5370799Y6592000D02*
X5370800Y6712000D01*
X4490800Y6712000D02*
X5370800Y6712000D01*
X3289299Y5054599D02*
X3289300Y4851400D01*
X3289299Y5054599D02*
X3898900Y5054600D01*
X3898901Y4851401D01*
X3289300Y4851400D02*
X3898901Y4851401D01*
X3187699Y4953001D02*
X3289300Y4953000D01*
X3898900D02*
X4000501Y4952999D01*
X5506316Y3576176D02*
X7256316Y3576176D01*
X7256315Y2936175D02*
X7256316Y3576176D01*
X5506316Y2936176D02*
X7256315Y2936175D01*
X5506316Y2936176D02*
Y3576176D01*
X5506316Y3658490D02*
X7256316Y3658491D01*
X5506316Y4298491D02*
X5506316Y3658490D01*
X5506316Y4298491D02*
X7256316D01*
X7256316Y3658491D01*
X4541376Y1430484D02*
X4541376Y3180484D01*
X3901375Y1430485D02*
X4541376Y1430484D01*
X3901375Y1430485D02*
Y3180484D01*
X4541376Y3180484D01*
X4623691Y1430484D02*
Y3180484D01*
X5263691D01*
Y1430484D02*
Y3180484D01*
X4623691Y1430484D02*
X5263691D01*
X6855993Y2785448D02*
X6882651D01*
X6895980Y2798777D01*
Y2852093D01*
X6882651Y2865423D01*
X6855993D01*
X6842664Y2852093D01*
Y2798777D01*
X6855993Y2785448D01*
X6762690D02*
X6816006D01*
Y2865423D01*
X6762690D01*
X6816006Y2825435D02*
X6789348D01*
X6682716Y2865423D02*
X6736032D01*
X6682716Y2812106D01*
Y2798777D01*
X6696045Y2785448D01*
X6722703D01*
X6736032Y2798777D01*
X6656058Y2878752D02*
X6602741D01*
X6576083Y2785448D02*
X6522767D01*
X6549425D01*
Y2865423D01*
X6456122Y2785448D02*
X6482780D01*
X6496109Y2798777D01*
Y2852093D01*
X6482780Y2865423D01*
X6456122D01*
X6442793Y2852093D01*
Y2798777D01*
X6456122Y2785448D01*
X6416135Y2865423D02*
Y2785448D01*
X6376148D01*
X6362819Y2798777D01*
Y2825435D01*
X6376148Y2838764D01*
X6416135D01*
X5856707Y4694852D02*
X5830049D01*
X5816719Y4681523D01*
Y4628207D01*
X5830049Y4614877D01*
X5856707D01*
X5870036Y4628207D01*
Y4681523D01*
X5856707Y4694852D01*
X5950010D02*
X5896694D01*
Y4614877D01*
X5950010D01*
X5896694Y4654865D02*
X5923352D01*
X6029984Y4614877D02*
X5976668D01*
X6029984Y4668194D01*
Y4681523D01*
X6016655Y4694852D01*
X5989997D01*
X5976668Y4681523D01*
X6056642Y4601548D02*
X6109958D01*
X6136616Y4694852D02*
Y4614877D01*
X6176603D01*
X6189932Y4628207D01*
Y4641536D01*
X6176603Y4654865D01*
X6136616D01*
X6176603D01*
X6189932Y4668194D01*
Y4681523D01*
X6176603Y4694852D01*
X6136616D01*
X6256578D02*
X6229919D01*
X6216590Y4681523D01*
Y4628207D01*
X6229919Y4614877D01*
X6256578D01*
X6269906Y4628207D01*
Y4681523D01*
X6256578Y4694852D01*
X6296564D02*
X6349881D01*
X6323223D01*
Y4614877D01*
X3382348Y1888271D02*
Y1861613D01*
X3395677Y1848284D01*
X3448993D01*
X3462322Y1861613D01*
Y1888271D01*
X3448993Y1901600D01*
X3395677D01*
X3382348Y1888271D01*
Y1981574D02*
Y1928258D01*
X3462322D01*
Y1981574D01*
X3422335Y1928258D02*
Y1954916D01*
X3462322Y2008232D02*
Y2034891D01*
Y2021562D01*
X3382348D01*
X3395677Y2008232D01*
X3475651Y2074878D02*
Y2128194D01*
X3382348Y2154852D02*
Y2208168D01*
Y2181510D01*
X3462322D01*
X3382348Y2274813D02*
Y2248155D01*
X3395677Y2234826D01*
X3448993D01*
X3462322Y2248155D01*
Y2274813D01*
X3448993Y2288142D01*
X3395677D01*
X3382348Y2274813D01*
X3462322Y2314800D02*
X3382348D01*
Y2354788D01*
X3395677Y2368116D01*
X3422335D01*
X3435664Y2354788D01*
Y2314800D01*
X5338148Y1748571D02*
Y1721913D01*
X5351477Y1708584D01*
X5404793D01*
X5418122Y1721913D01*
Y1748571D01*
X5404793Y1761900D01*
X5351477D01*
X5338148Y1748571D01*
Y1841874D02*
Y1788558D01*
X5418122D01*
Y1841874D01*
X5378135Y1788558D02*
Y1815216D01*
X5418122Y1868532D02*
Y1895191D01*
Y1881862D01*
X5338148D01*
X5351477Y1868532D01*
X5431451Y1935178D02*
Y1988494D01*
X5338148Y2015152D02*
X5418122D01*
Y2055139D01*
X5404793Y2068468D01*
X5391464D01*
X5378135Y2055139D01*
Y2015152D01*
Y2055139D01*
X5364806Y2068468D01*
X5351477D01*
X5338148Y2055139D01*
Y2015152D01*
Y2135113D02*
Y2108455D01*
X5351477Y2095126D01*
X5404793D01*
X5418122Y2108455D01*
Y2135113D01*
X5404793Y2148442D01*
X5351477D01*
X5338148Y2135113D01*
Y2175100D02*
Y2228416D01*
Y2201758D01*
X5418122D01*
D41*
X6901089Y5718963D02*
G03*
X6901089Y5718963I-151610J0D01*
G01*
X3319689Y1756563D02*
G03*
X3319689Y1756563I-151610J0D01*
G01*
X2883379Y2212363D02*
G03*
X2883379Y2212363I-150000J0D01*
G01*
X7283379Y5212363D02*
G03*
X7283379Y5212363I-150000J0D01*
G01*
Y2212363D02*
G03*
X7283379Y2212363I-150000J0D01*
G01*
X7451288Y2967719D02*
Y2916935D01*
X7476680Y2891543D01*
X7578247D01*
X7603639Y2916935D01*
Y2967719D01*
X7578247Y2993111D01*
X7476680D01*
X7451288Y2967719D01*
Y3145461D02*
Y3043894D01*
X7603639D01*
Y3145461D01*
X7527463Y3043894D02*
Y3094678D01*
X7603639Y3297812D02*
Y3196245D01*
X7502072Y3297812D01*
X7476680D01*
X7451288Y3272420D01*
Y3221637D01*
X7476680Y3196245D01*
X3958311Y1235511D02*
X3907528D01*
X3882136Y1210120D01*
Y1108553D01*
X3907528Y1083161D01*
X3958311D01*
X3983703Y1108553D01*
Y1210120D01*
X3958311Y1235511D01*
X4136054D02*
X4034486D01*
Y1083161D01*
X4136054D01*
X4034486Y1159336D02*
X4085270D01*
X4186837Y1083161D02*
X4237621D01*
X4212229D01*
Y1235511D01*
X4186837Y1210120D01*
X5535334Y6357922D02*
X5518672Y6374584D01*
X5485350D01*
X5468689Y6357922D01*
Y6341261D01*
X5485350Y6324600D01*
X5518672D01*
X5535334Y6307938D01*
Y6291277D01*
X5518672Y6274616D01*
X5485350D01*
X5468689Y6291277D01*
X5568656Y6374584D02*
Y6274616D01*
X5601979Y6307938D01*
X5635301Y6274616D01*
Y6374584D01*
X5668624D02*
X5701947D01*
X5685286D01*
Y6274616D01*
X5668624D01*
X5701947D01*
X5751931Y6374584D02*
X5818576D01*
X5785253D01*
Y6274616D01*
X5918543Y6357922D02*
X5901882Y6374584D01*
X5868560D01*
X5851898Y6357922D01*
Y6291277D01*
X5868560Y6274616D01*
X5901882D01*
X5918543Y6291277D01*
X5951866Y6374584D02*
Y6274616D01*
Y6324600D01*
X6018511D01*
Y6374584D01*
Y6274616D01*
X6595176Y2301408D02*
X6651726Y2357958D01*
Y2320258D01*
X6689426D01*
X6632876Y2263708D01*
X6651726Y2244858D02*
X6670576Y2226007D01*
X6661151Y2235432D01*
X6698851Y2273133D01*
X6689426Y2282558D01*
X6698851Y2197732D02*
X6736552Y2235432D01*
X6764827Y2207157D01*
Y2188307D01*
X6736552Y2160032D01*
X6755402Y2141182D02*
X6774252Y2122332D01*
X6764827Y2131757D01*
X6802527Y2169457D01*
X6793102Y2178882D01*
X6887352Y2103482D02*
Y2122332D01*
X6868502Y2141182D01*
X6849652D01*
X6840227Y2131757D01*
X6840227Y2112907D01*
X6859077Y2094057D01*
X6859077Y2075207D01*
X6849652Y2065781D01*
X6830802D01*
X6811952Y2084632D01*
Y2103482D01*
X6934478Y2037506D02*
X6906203Y2065781D01*
X6887352D01*
X6868502Y2046931D01*
Y2028081D01*
X6896777Y1999806D01*
X6925053Y1971531D02*
X6943903Y1952681D01*
X6962753Y1952681D01*
X6981603Y1971531D01*
Y1990381D01*
X6962753Y2009231D01*
X6943903D01*
X6925053Y1990381D01*
Y1971531D01*
X6953328Y1905556D02*
X7009878Y1962106D01*
X7038153Y1933831D01*
Y1914981D01*
X7019303Y1896131D01*
X7000453Y1896131D01*
X6972178Y1924406D01*
X7057003Y1839580D02*
X7038153Y1858430D01*
Y1877281D01*
X7057003Y1896131D01*
X7075854Y1896131D01*
X7094704Y1877280D01*
Y1858431D01*
X7085278Y1849005D01*
X7047578Y1886706D01*
X6139694Y4918877D02*
Y5018845D01*
X6189678D01*
X6206339Y5002184D01*
Y4968861D01*
X6189678Y4952200D01*
X6139694D01*
X6173017D02*
X6206339Y4918877D01*
X6306307D02*
X6239662D01*
X6306307Y4985522D01*
Y5002184D01*
X6289646Y5018845D01*
X6256323D01*
X6239662Y5002184D01*
X3400455Y4890316D02*
Y4990284D01*
X3450439D01*
X3467100Y4973623D01*
Y4940300D01*
X3450439Y4923639D01*
X3400455D01*
X3433777D02*
X3467100Y4890316D01*
X3500423D02*
X3533745D01*
X3517084D01*
Y4990284D01*
X3500423Y4973623D01*
X4703489Y5165347D02*
Y5265315D01*
X4736811Y5231992D01*
X4770134Y5265315D01*
Y5165347D01*
X4870102Y5248653D02*
X4853440Y5265315D01*
X4820118D01*
X4803456Y5248653D01*
Y5182008D01*
X4820118Y5165347D01*
X4853440D01*
X4870102Y5182008D01*
X4903424Y5265315D02*
Y5182008D01*
X4920086Y5165347D01*
X4953408D01*
X4970069Y5182008D01*
Y5265315D01*
X5003392Y5148685D02*
X5070037D01*
X5103360Y5265315D02*
X5136682D01*
X5120021D01*
Y5165347D01*
X5103360D01*
X5136682D01*
X5186666D02*
Y5265315D01*
X5253311Y5165347D01*
Y5265315D01*
D42*
X6752000Y4358270D02*
X6861965D01*
Y4413252D01*
X6843638Y4431579D01*
X6825310D01*
X6806983Y4413252D01*
Y4358270D01*
Y4413252D01*
X6788655Y4431579D01*
X6770328D01*
X6752000Y4413252D01*
Y4358270D01*
X6861965Y4541544D02*
Y4468234D01*
X6788655Y4541544D01*
X6770328D01*
X6752000Y4523217D01*
Y4486562D01*
X6770328Y4468234D01*
X3641532Y2805788D02*
X3714842D01*
X3678187D01*
Y2695823D01*
X3824806Y2805788D02*
X3751497D01*
Y2750806D01*
X3788151Y2769133D01*
X3806479D01*
X3824806Y2750806D01*
Y2714151D01*
X3806479Y2695823D01*
X3769824D01*
X3751497Y2714151D01*
X3641531Y3072489D02*
X3714841D01*
X3678186D01*
Y2962525D01*
X3824805Y3072489D02*
X3788150Y3054162D01*
X3751496Y3017507D01*
Y2980852D01*
X3769823Y2962525D01*
X3806478D01*
X3824805Y2980852D01*
Y2999179D01*
X3806478Y3017507D01*
X3751496D01*
X3641532Y2272388D02*
X3714842D01*
X3678187D01*
Y2162424D01*
X3751496Y2254061D02*
X3769824Y2272388D01*
X3806479D01*
X3824806Y2254061D01*
Y2235734D01*
X3806479Y2217406D01*
X3788151D01*
X3806479D01*
X3824806Y2199079D01*
Y2180751D01*
X3806479Y2162424D01*
X3769824D01*
X3751496Y2180751D01*
X3641532Y2005689D02*
X3714842D01*
X3678187D01*
Y1895724D01*
X3824806D02*
X3751496D01*
X3824806Y1969034D01*
Y1987362D01*
X3806479Y2005689D01*
X3769824D01*
X3751496Y1987362D01*
X3641532Y2539088D02*
X3714841D01*
X3678186D01*
Y2429124D01*
X3806479D02*
Y2539088D01*
X3751496Y2484106D01*
X3824806D01*
X3641530Y1738989D02*
X3714840D01*
X3678185D01*
Y1629025D01*
X3751495D02*
X3788150D01*
X3769822D01*
Y1738989D01*
X3751495Y1720662D01*
X7007687Y4358270D02*
X7117652D01*
Y4413252D01*
X7099324Y4431579D01*
X7080997D01*
X7062669Y4413252D01*
Y4358270D01*
Y4413252D01*
X7044342Y4431579D01*
X7026014D01*
X7007687Y4413252D01*
Y4358270D01*
X7117652Y4468234D02*
Y4504889D01*
Y4486562D01*
X7007687D01*
X7026014Y4468234D01*
X5965429Y4358270D02*
X6075393D01*
Y4413252D01*
X6057066Y4431580D01*
X6038739D01*
X6020411Y4413252D01*
Y4358270D01*
Y4413252D01*
X6002084Y4431580D01*
X5983756D01*
X5965429Y4413252D01*
Y4358270D01*
Y4541544D02*
Y4468234D01*
X6020411D01*
X6002084Y4504889D01*
Y4523217D01*
X6020411Y4541544D01*
X6057066D01*
X6075393Y4523217D01*
Y4486562D01*
X6057066Y4468234D01*
X5711214Y4358270D02*
X5821178D01*
Y4413252D01*
X5802851Y4431579D01*
X5784524D01*
X5766196Y4413252D01*
Y4358270D01*
Y4413252D01*
X5747869Y4431579D01*
X5729541D01*
X5711214Y4413252D01*
Y4358270D01*
Y4541544D02*
X5729541Y4504889D01*
X5766196Y4468234D01*
X5802851D01*
X5821178Y4486562D01*
Y4523217D01*
X5802851Y4541544D01*
X5784524D01*
X5766196Y4523217D01*
Y4468234D01*
X6219644Y4358270D02*
X6329608D01*
Y4413252D01*
X6311281Y4431580D01*
X6292953D01*
X6274626Y4413252D01*
Y4358270D01*
Y4413252D01*
X6256298Y4431580D01*
X6237971D01*
X6219644Y4413252D01*
Y4358270D01*
X6329608Y4523217D02*
X6219644D01*
X6274626Y4468234D01*
Y4541544D01*
X6473858Y4358270D02*
X6583823D01*
Y4413252D01*
X6565495Y4431579D01*
X6547168D01*
X6528840Y4413252D01*
Y4358270D01*
Y4413252D01*
X6510513Y4431579D01*
X6492186D01*
X6473858Y4413252D01*
Y4358270D01*
X6492186Y4468234D02*
X6473858Y4486562D01*
Y4523217D01*
X6492186Y4541544D01*
X6510513D01*
X6528840Y4523217D01*
Y4504889D01*
Y4523217D01*
X6547168Y4541544D01*
X6565495D01*
X6583823Y4523217D01*
Y4486562D01*
X6565495Y4468234D01*
D50*
X4447400Y5791575D02*
X4447400Y5141573D01*
X5509400Y5141574D01*
X5509400Y5791574D01*
X4447400Y5791575D02*
X5509400Y5791574D01*
X6269647Y1406339D02*
X6789372Y886617D01*
X7284347Y1381592D01*
X6764621Y1901316D02*
X7284347Y1381592D01*
D51*
X4513580Y6141720D02*
X4640539D01*
Y6078240D01*
X4619379Y6057080D01*
X4577060D01*
X4555900Y6078240D01*
Y6141720D01*
X4640539Y6014761D02*
X4513580D01*
X4555900Y5972441D01*
X4513580Y5930121D01*
X4640539D01*
X4513580Y5887802D02*
X4640539D01*
Y5824323D01*
X4619379Y5803163D01*
X4577060D01*
X4555900Y5824323D01*
Y5887802D01*
Y5845482D02*
X4513580Y5803163D01*
X5402555Y6141720D02*
X5326380D01*
X5364468D01*
Y6090937D01*
X5402555D01*
X5326380D01*
Y6065545D02*
X5377163D01*
X5402555Y6040153D01*
X5377163Y6014761D01*
X5326380D01*
X5364468D01*
Y6065545D01*
X5326380Y5989369D02*
Y5963977D01*
Y5976673D01*
X5402555D01*
Y5989369D01*
X5326380Y5925890D02*
Y5900498D01*
Y5913194D01*
X5402555D01*
Y5925890D01*
X5364468Y5862410D02*
Y5811627D01*
X5402555Y5786235D02*
X5326380D01*
Y5748147D01*
X5339076Y5735452D01*
X5351772D01*
X5364468Y5748147D01*
Y5786235D01*
Y5748147D01*
X5377163Y5735452D01*
X5389859D01*
X5402555Y5748147D01*
Y5786235D01*
X5127379Y6057080D02*
X5148539Y6078240D01*
Y6120560D01*
X5127379Y6141720D01*
X5042740D01*
X5021580Y6120560D01*
Y6078240D01*
X5042740Y6057080D01*
X5085060D01*
Y6099400D01*
X5021580Y6014761D02*
X5148539D01*
X5021580Y5930121D01*
X5148539D01*
Y5887802D02*
X5021580D01*
Y5824323D01*
X5042740Y5803163D01*
X5127379D01*
X5148539Y5824323D01*
Y5887802D01*
X4831055Y6141720D02*
X4754880D01*
X4792968D01*
Y6090936D01*
X4831055D01*
X4754880D01*
X4805663Y6052848D02*
Y6027457D01*
X4792968Y6014761D01*
X4754880D01*
Y6052848D01*
X4767576Y6065544D01*
X4780272Y6052848D01*
Y6014761D01*
X4754880Y5989369D02*
Y5963977D01*
Y5976673D01*
X4831055D01*
Y5989369D01*
X4754880Y5925890D02*
Y5900498D01*
Y5913194D01*
X4831055D01*
Y5925890D01*
X4792968Y5862410D02*
Y5811627D01*
X4754880Y5786235D02*
X4805663D01*
X4831055Y5760843D01*
X4805663Y5735451D01*
X4754880D01*
X4792968D01*
Y5786235D01*
%TF.MD5,4698b695d391b7c0076c25d65380985c*%
M02*
