%TF.GenerationSoftware,Altium Limited,Altium Designer,22.7.1 (60)*%
G04 Layer_Color=8421504*
%FSLAX45Y45*%
%MOMM*%
%TF.SameCoordinates,2E8CAF61-F9F5-4988-A97D-765C0E49F6B8*%
%TF.FilePolarity,Positive*%
%TF.FileFunction,Paste,Top*%
%TF.Part,Single*%
G01*
G75*
%TA.AperFunction,SMDPad,CuDef*%
%ADD11R,0.38100X0.76200*%
%ADD12R,0.38100X1.01600*%
%ADD13R,0.76200X0.38100*%
%ADD14R,1.01600X0.38100*%
D11*
X-519167Y-2576600D02*
D03*
X-455668D02*
D03*
X-392167Y-2576601D02*
D03*
X-328667Y-2576600D02*
D03*
X-265167D02*
D03*
X-201667D02*
D03*
D12*
X-519167Y-2462300D02*
D03*
X-455667D02*
D03*
X-392167Y-2462300D02*
D03*
X-328667Y-2462300D02*
D03*
X-265168Y-2462300D02*
D03*
X-201667Y-2462300D02*
D03*
D13*
X2589301Y-252467D02*
D03*
X2589300Y-188967D02*
D03*
Y-125467D02*
D03*
X2589301Y-61967D02*
D03*
Y1533D02*
D03*
Y65032D02*
D03*
D14*
X2475000Y-252467D02*
D03*
Y-188967D02*
D03*
X2475000Y-125467D02*
D03*
X2475000Y-61967D02*
D03*
X2475000Y1532D02*
D03*
X2475000Y65033D02*
D03*
%TF.MD5,c24c4244509d57f144fcaaa999be1973*%
M02*
