%TF.GenerationSoftware,Altium Limited,Altium Designer,23.3.1 (30)*%
G04 Layer_Color=16711935*
%FSLAX45Y45*%
%MOMM*%
%TF.SameCoordinates,9B08417B-AAB0-44DC-96C9-EC8FD7F4D7BA*%
%TF.FilePolarity,Positive*%
%TF.FileFunction,Other,Top_Assembly*%
%TF.Part,Single*%
G01*
G75*
%TA.AperFunction,NonConductor*%
%ADD40C,0.20000*%
G36*
X4957526Y6374307D02*
X4958208D01*
X4959866Y6374112D01*
X4961817Y6373819D01*
X4963963Y6373429D01*
X4966109Y6372844D01*
X4968157Y6372064D01*
X4968254D01*
X4968352Y6371966D01*
X4968645Y6371869D01*
X4969035Y6371674D01*
X4970010Y6371088D01*
X4971278Y6370406D01*
X4972644Y6369430D01*
X4974009Y6368260D01*
X4975375Y6366894D01*
X4976545Y6365334D01*
X4976643Y6365139D01*
X4977033Y6364553D01*
X4977520Y6363578D01*
X4978008Y6362408D01*
X4978593Y6360945D01*
X4979179Y6359189D01*
X4979569Y6357336D01*
X4979764Y6355288D01*
X4971668Y6354702D01*
Y6354800D01*
Y6354995D01*
X4971571Y6355288D01*
X4971473Y6355678D01*
X4971278Y6356751D01*
X4970888Y6358116D01*
X4970303Y6359579D01*
X4969522Y6361042D01*
X4968450Y6362505D01*
X4967182Y6363773D01*
X4966987Y6363871D01*
X4966499Y6364261D01*
X4965621Y6364749D01*
X4964451Y6365334D01*
X4962890Y6365919D01*
X4960939Y6366407D01*
X4958696Y6366797D01*
X4956062Y6366894D01*
X4954795D01*
X4954209Y6366797D01*
X4953429D01*
X4951771Y6366504D01*
X4949918Y6366212D01*
X4948065Y6365724D01*
X4946309Y6365041D01*
X4945529Y6364553D01*
X4944846Y6364066D01*
X4944748Y6363968D01*
X4944358Y6363578D01*
X4943773Y6362993D01*
X4943188Y6362115D01*
X4942505Y6361140D01*
X4942017Y6359969D01*
X4941627Y6358701D01*
X4941432Y6357238D01*
Y6357043D01*
Y6356653D01*
X4941530Y6355970D01*
X4941725Y6355190D01*
X4942017Y6354312D01*
X4942505Y6353337D01*
X4943090Y6352459D01*
X4943870Y6351581D01*
X4943968Y6351484D01*
X4944456Y6351191D01*
X4944748Y6350996D01*
X4945138Y6350703D01*
X4945724Y6350508D01*
X4946406Y6350216D01*
X4947187Y6349826D01*
X4948065Y6349435D01*
X4949040Y6349143D01*
X4950210Y6348753D01*
X4951576Y6348265D01*
X4953039Y6347875D01*
X4954697Y6347485D01*
X4956550Y6346997D01*
X4956648D01*
X4957038Y6346899D01*
X4957526Y6346802D01*
X4958208Y6346607D01*
X4959086Y6346412D01*
X4960061Y6346119D01*
X4962207Y6345631D01*
X4964548Y6344949D01*
X4966889Y6344266D01*
X4968059Y6343973D01*
X4969035Y6343583D01*
X4970010Y6343193D01*
X4970790Y6342900D01*
X4970888D01*
X4971083Y6342803D01*
X4971278Y6342608D01*
X4971668Y6342413D01*
X4972644Y6341828D01*
X4973912Y6341145D01*
X4975277Y6340169D01*
X4976643Y6338999D01*
X4977911Y6337731D01*
X4978983Y6336366D01*
X4979081Y6336170D01*
X4979374Y6335683D01*
X4979861Y6334902D01*
X4980349Y6333732D01*
X4980837Y6332464D01*
X4981324Y6330904D01*
X4981617Y6329148D01*
X4981714Y6327295D01*
Y6327197D01*
Y6327100D01*
Y6326807D01*
Y6326417D01*
X4981519Y6325442D01*
X4981324Y6324174D01*
X4981032Y6322710D01*
X4980446Y6321052D01*
X4979764Y6319297D01*
X4978788Y6317639D01*
X4978691Y6317444D01*
X4978203Y6316858D01*
X4977618Y6316078D01*
X4976643Y6315103D01*
X4975472Y6313932D01*
X4974009Y6312762D01*
X4972253Y6311689D01*
X4970303Y6310616D01*
X4970205D01*
X4970010Y6310518D01*
X4969718Y6310421D01*
X4969327Y6310226D01*
X4968840Y6310031D01*
X4968254Y6309836D01*
X4966694Y6309446D01*
X4964938Y6308958D01*
X4962792Y6308568D01*
X4960549Y6308275D01*
X4958013Y6308178D01*
X4956550D01*
X4955867Y6308275D01*
X4954990D01*
X4954014Y6308373D01*
X4952941Y6308470D01*
X4950698Y6308763D01*
X4948260Y6309251D01*
X4945821Y6309836D01*
X4943480Y6310616D01*
X4943383D01*
X4943188Y6310714D01*
X4942895Y6310909D01*
X4942505Y6311104D01*
X4941432Y6311689D01*
X4940164Y6312567D01*
X4938604Y6313640D01*
X4937140Y6314908D01*
X4935580Y6316468D01*
X4934214Y6318224D01*
Y6318321D01*
X4934117Y6318419D01*
X4933922Y6318712D01*
X4933727Y6319102D01*
X4933434Y6319589D01*
X4933142Y6320175D01*
X4932556Y6321638D01*
X4931971Y6323296D01*
X4931386Y6325344D01*
X4930996Y6327490D01*
X4930801Y6329831D01*
X4938799Y6330513D01*
Y6330416D01*
Y6330318D01*
X4938896Y6329733D01*
X4939091Y6328855D01*
X4939286Y6327685D01*
X4939676Y6326417D01*
X4940067Y6325051D01*
X4940652Y6323783D01*
X4941335Y6322515D01*
X4941432Y6322418D01*
X4941725Y6322028D01*
X4942212Y6321443D01*
X4942993Y6320760D01*
X4943870Y6319979D01*
X4944943Y6319102D01*
X4946309Y6318321D01*
X4947772Y6317541D01*
X4947869D01*
X4947967Y6317444D01*
X4948552Y6317248D01*
X4949430Y6316956D01*
X4950698Y6316663D01*
X4952064Y6316273D01*
X4953819Y6315981D01*
X4955672Y6315785D01*
X4957623Y6315688D01*
X4958403D01*
X4959379Y6315785D01*
X4960452Y6315883D01*
X4961817Y6315981D01*
X4963183Y6316273D01*
X4964646Y6316566D01*
X4966109Y6317053D01*
X4966304Y6317151D01*
X4966694Y6317346D01*
X4967377Y6317639D01*
X4968157Y6318126D01*
X4969132Y6318712D01*
X4970010Y6319394D01*
X4970888Y6320175D01*
X4971668Y6321052D01*
X4971766Y6321150D01*
X4971961Y6321540D01*
X4972253Y6322028D01*
X4972644Y6322710D01*
X4972936Y6323491D01*
X4973229Y6324466D01*
X4973424Y6325442D01*
X4973521Y6326514D01*
Y6326612D01*
Y6327002D01*
X4973424Y6327587D01*
X4973326Y6328270D01*
X4973131Y6329148D01*
X4972741Y6330026D01*
X4972351Y6330904D01*
X4971766Y6331781D01*
X4971668Y6331879D01*
X4971473Y6332171D01*
X4970985Y6332562D01*
X4970400Y6333147D01*
X4969620Y6333732D01*
X4968645Y6334317D01*
X4967377Y6335000D01*
X4966011Y6335585D01*
X4965914Y6335683D01*
X4965523Y6335780D01*
X4964743Y6335975D01*
X4964256Y6336170D01*
X4963670Y6336366D01*
X4962890Y6336561D01*
X4962110Y6336756D01*
X4961134Y6337048D01*
X4960159Y6337341D01*
X4958989Y6337634D01*
X4957623Y6337926D01*
X4956160Y6338316D01*
X4954599Y6338706D01*
X4954502D01*
X4954209Y6338804D01*
X4953722Y6338901D01*
X4953136Y6339097D01*
X4952454Y6339292D01*
X4951673Y6339487D01*
X4949820Y6339974D01*
X4947772Y6340657D01*
X4945724Y6341340D01*
X4943870Y6342023D01*
X4942993Y6342315D01*
X4942310Y6342705D01*
X4942212D01*
X4942115Y6342803D01*
X4941530Y6343193D01*
X4940749Y6343681D01*
X4939774Y6344363D01*
X4938604Y6345241D01*
X4937531Y6346217D01*
X4936458Y6347387D01*
X4935482Y6348655D01*
X4935385Y6348850D01*
X4935092Y6349338D01*
X4934800Y6350021D01*
X4934409Y6350996D01*
X4933922Y6352166D01*
X4933629Y6353532D01*
X4933337Y6355092D01*
X4933239Y6356653D01*
Y6356751D01*
Y6356848D01*
Y6357141D01*
Y6357531D01*
X4933434Y6358409D01*
X4933629Y6359579D01*
X4933922Y6361042D01*
X4934409Y6362505D01*
X4935092Y6364163D01*
X4935970Y6365724D01*
Y6365821D01*
X4936068Y6365919D01*
X4936458Y6366407D01*
X4937140Y6367187D01*
X4938018Y6368162D01*
X4939091Y6369138D01*
X4940457Y6370211D01*
X4942115Y6371283D01*
X4943968Y6372161D01*
X4944066D01*
X4944163Y6372259D01*
X4944456Y6372356D01*
X4944943Y6372551D01*
X4945431Y6372649D01*
X4946016Y6372844D01*
X4947382Y6373332D01*
X4949137Y6373722D01*
X4951088Y6374014D01*
X4953331Y6374307D01*
X4955672Y6374405D01*
X4956843D01*
X4957526Y6374307D01*
D02*
G37*
G36*
X5186638D02*
X5187418Y6374210D01*
X5188393Y6374112D01*
X5189466Y6374014D01*
X5190637Y6373819D01*
X5193172Y6373234D01*
X5195904Y6372356D01*
X5197269Y6371771D01*
X5198635Y6371088D01*
X5199902Y6370308D01*
X5201170Y6369430D01*
X5201268Y6369333D01*
X5201463Y6369235D01*
X5201756Y6368943D01*
X5202243Y6368552D01*
X5202731Y6368065D01*
X5203414Y6367382D01*
X5204097Y6366699D01*
X5204779Y6365919D01*
X5205560Y6364944D01*
X5206242Y6363968D01*
X5207023Y6362798D01*
X5207803Y6361530D01*
X5208486Y6360262D01*
X5209168Y6358799D01*
X5210339Y6355678D01*
X5201951Y6353727D01*
Y6353824D01*
X5201853Y6354020D01*
X5201756Y6354410D01*
X5201561Y6354897D01*
X5201268Y6355483D01*
X5200975Y6356165D01*
X5200293Y6357628D01*
X5199415Y6359286D01*
X5198244Y6361042D01*
X5196976Y6362603D01*
X5195416Y6363968D01*
X5195221Y6364066D01*
X5194636Y6364456D01*
X5193758Y6364944D01*
X5192490Y6365626D01*
X5191027Y6366212D01*
X5189174Y6366699D01*
X5187125Y6367089D01*
X5184784Y6367187D01*
X5184102D01*
X5183614Y6367089D01*
X5182931D01*
X5182248Y6366992D01*
X5180493Y6366699D01*
X5178542Y6366309D01*
X5176494Y6365626D01*
X5174446Y6364749D01*
X5172495Y6363578D01*
X5172397D01*
X5172300Y6363383D01*
X5171715Y6362895D01*
X5170837Y6362115D01*
X5169764Y6361042D01*
X5168691Y6359677D01*
X5167521Y6358116D01*
X5166448Y6356165D01*
X5165570Y6354020D01*
Y6353922D01*
X5165472Y6353727D01*
X5165375Y6353434D01*
X5165277Y6352947D01*
X5165082Y6352459D01*
X5164985Y6351776D01*
X5164594Y6350216D01*
X5164204Y6348362D01*
X5163912Y6346314D01*
X5163717Y6344071D01*
X5163619Y6341730D01*
Y6341632D01*
Y6341340D01*
Y6340950D01*
Y6340365D01*
X5163717Y6339682D01*
Y6338804D01*
X5163814Y6337926D01*
X5163912Y6336951D01*
X5164204Y6334707D01*
X5164594Y6332269D01*
X5165180Y6329831D01*
X5165960Y6327490D01*
Y6327392D01*
X5166057Y6327197D01*
X5166253Y6326905D01*
X5166448Y6326514D01*
X5166935Y6325344D01*
X5167716Y6324076D01*
X5168788Y6322515D01*
X5170056Y6321052D01*
X5171520Y6319589D01*
X5173275Y6318321D01*
X5173373D01*
X5173470Y6318224D01*
X5173763Y6318029D01*
X5174153Y6317834D01*
X5175226Y6317444D01*
X5176591Y6316858D01*
X5178152Y6316371D01*
X5180005Y6315883D01*
X5182053Y6315493D01*
X5184199Y6315395D01*
X5184882D01*
X5185370Y6315493D01*
X5185955D01*
X5186735Y6315590D01*
X5188393Y6315883D01*
X5190246Y6316371D01*
X5192295Y6317151D01*
X5194245Y6318126D01*
X5196196Y6319492D01*
X5196294Y6319589D01*
X5196391Y6319687D01*
X5196976Y6320272D01*
X5197854Y6321247D01*
X5198927Y6322515D01*
X5200000Y6324271D01*
X5201170Y6326319D01*
X5202146Y6328855D01*
X5202926Y6331684D01*
X5211412Y6329538D01*
Y6329440D01*
X5211314Y6329050D01*
X5211119Y6328563D01*
X5210924Y6327782D01*
X5210534Y6327002D01*
X5210144Y6325929D01*
X5209754Y6324856D01*
X5209168Y6323686D01*
X5207900Y6321052D01*
X5206145Y6318419D01*
X5204194Y6315883D01*
X5203024Y6314713D01*
X5201756Y6313640D01*
X5201658Y6313542D01*
X5201463Y6313445D01*
X5201073Y6313152D01*
X5200488Y6312762D01*
X5199805Y6312372D01*
X5199025Y6311884D01*
X5198147Y6311396D01*
X5197074Y6310909D01*
X5195904Y6310421D01*
X5194636Y6309933D01*
X5193172Y6309446D01*
X5191709Y6309055D01*
X5188491Y6308373D01*
X5186735Y6308275D01*
X5184882Y6308178D01*
X5183907D01*
X5183126Y6308275D01*
X5182248D01*
X5181273Y6308373D01*
X5180103Y6308568D01*
X5178932Y6308665D01*
X5176201Y6309251D01*
X5173373Y6309933D01*
X5170642Y6311006D01*
X5169276Y6311591D01*
X5168008Y6312372D01*
X5167911Y6312469D01*
X5167716Y6312567D01*
X5167423Y6312859D01*
X5166935Y6313152D01*
X5165765Y6314127D01*
X5164399Y6315493D01*
X5162741Y6317151D01*
X5161181Y6319297D01*
X5159523Y6321735D01*
X5158157Y6324564D01*
Y6324661D01*
X5158060Y6324954D01*
X5157864Y6325344D01*
X5157669Y6325929D01*
X5157377Y6326709D01*
X5157084Y6327587D01*
X5156792Y6328563D01*
X5156499Y6329733D01*
X5156206Y6330904D01*
X5155914Y6332269D01*
X5155329Y6335195D01*
X5154938Y6338316D01*
X5154841Y6341730D01*
Y6341828D01*
Y6342218D01*
Y6342705D01*
X5154938Y6343388D01*
Y6344266D01*
X5155036Y6345339D01*
X5155133Y6346412D01*
X5155329Y6347680D01*
X5155816Y6350411D01*
X5156401Y6353337D01*
X5157377Y6356360D01*
X5158645Y6359189D01*
Y6359286D01*
X5158840Y6359482D01*
X5159035Y6359872D01*
X5159328Y6360457D01*
X5159718Y6361042D01*
X5160205Y6361725D01*
X5161473Y6363383D01*
X5162936Y6365236D01*
X5164790Y6367089D01*
X5167033Y6368943D01*
X5169471Y6370503D01*
X5169569D01*
X5169764Y6370698D01*
X5170154Y6370893D01*
X5170739Y6371088D01*
X5171324Y6371381D01*
X5172105Y6371771D01*
X5173080Y6372064D01*
X5174055Y6372454D01*
X5175128Y6372844D01*
X5176299Y6373137D01*
X5178932Y6373819D01*
X5181858Y6374210D01*
X5184979Y6374405D01*
X5185955D01*
X5186638Y6374307D01*
D02*
G37*
G36*
X5272274Y6309251D02*
X5263789D01*
Y6339487D01*
X5230626D01*
Y6309251D01*
X5222141D01*
Y6373332D01*
X5230626D01*
Y6346997D01*
X5263789D01*
Y6373332D01*
X5272274D01*
Y6309251D01*
D02*
G37*
G36*
X5052331D02*
X5044040D01*
X5030580Y6358019D01*
Y6358116D01*
X5030482Y6358311D01*
X5030385Y6358604D01*
X5030287Y6358994D01*
X5029995Y6360067D01*
X5029702Y6361237D01*
X5029312Y6362603D01*
X5029019Y6363773D01*
X5028727Y6364846D01*
X5028629Y6365236D01*
X5028532Y6365529D01*
Y6365334D01*
X5028337Y6364846D01*
X5028142Y6363968D01*
X5027849Y6362993D01*
X5027556Y6361725D01*
X5027264Y6360554D01*
X5026874Y6359286D01*
X5026581Y6358019D01*
X5013121Y6309251D01*
X5004245D01*
X4987469Y6373332D01*
X4996150D01*
X5005806Y6331196D01*
Y6331099D01*
X5005903Y6330904D01*
X5006001Y6330513D01*
X5006098Y6330123D01*
X5006196Y6329440D01*
X5006391Y6328758D01*
X5006781Y6327100D01*
X5007171Y6325149D01*
X5007659Y6322906D01*
X5008049Y6320565D01*
X5008537Y6318126D01*
Y6318224D01*
X5008634Y6318614D01*
X5008732Y6319102D01*
X5008927Y6319784D01*
X5009122Y6320565D01*
X5009317Y6321443D01*
X5009902Y6323491D01*
X5010390Y6325539D01*
X5010878Y6327490D01*
X5011073Y6328270D01*
X5011268Y6329050D01*
X5011365Y6329636D01*
X5011463Y6330026D01*
X5023655Y6373332D01*
X5033896D01*
X5043065Y6340852D01*
Y6340755D01*
X5043260Y6340267D01*
X5043357Y6339682D01*
X5043650Y6338804D01*
X5043845Y6337731D01*
X5044235Y6336463D01*
X5044528Y6335000D01*
X5044918Y6333439D01*
X5045308Y6331781D01*
X5045698Y6330026D01*
X5046576Y6326124D01*
X5047356Y6322125D01*
X5048039Y6318126D01*
Y6318224D01*
X5048136Y6318419D01*
Y6318712D01*
X5048234Y6319199D01*
X5048429Y6319784D01*
X5048527Y6320467D01*
X5048722Y6321247D01*
X5048917Y6322125D01*
X5049404Y6324174D01*
X5049892Y6326612D01*
X5050575Y6329245D01*
X5051258Y6332074D01*
X5061206Y6373332D01*
X5069789D01*
X5052331Y6309251D01*
D02*
G37*
G36*
X5148501Y6365821D02*
X5127433D01*
Y6309251D01*
X5118948D01*
Y6365821D01*
X5097880D01*
Y6373332D01*
X5148501D01*
Y6365821D01*
D02*
G37*
G36*
X5087736Y6309251D02*
X5079250D01*
Y6373332D01*
X5087736D01*
Y6309251D01*
D02*
G37*
G36*
X6764534Y3337910D02*
X6766094Y3337813D01*
X6767752Y3337715D01*
X6769313Y3337520D01*
X6770678Y3337325D01*
X6770873D01*
X6771459Y3337130D01*
X6772336Y3336935D01*
X6773409Y3336642D01*
X6774677Y3336252D01*
X6775945Y3335764D01*
X6777311Y3335082D01*
X6778579Y3334301D01*
X6778676Y3334204D01*
X6779164Y3333911D01*
X6779749Y3333424D01*
X6780432Y3332741D01*
X6781212Y3331863D01*
X6782090Y3330790D01*
X6782968Y3329620D01*
X6783748Y3328157D01*
X6783846Y3327962D01*
X6784041Y3327474D01*
X6784333Y3326694D01*
X6784724Y3325621D01*
X6785114Y3324353D01*
X6785406Y3322890D01*
X6785601Y3321232D01*
X6785699Y3319476D01*
Y3319378D01*
Y3319086D01*
Y3318696D01*
X6785601Y3318110D01*
X6785504Y3317428D01*
X6785406Y3316550D01*
X6785309Y3315672D01*
X6785016Y3314697D01*
X6784431Y3312453D01*
X6783456Y3310210D01*
X6782870Y3309040D01*
X6782188Y3307869D01*
X6781407Y3306699D01*
X6780432Y3305626D01*
X6780334Y3305528D01*
X6780139Y3305431D01*
X6779847Y3305138D01*
X6779457Y3304748D01*
X6778774Y3304358D01*
X6778091Y3303870D01*
X6777213Y3303383D01*
X6776140Y3302895D01*
X6774970Y3302310D01*
X6773604Y3301822D01*
X6772044Y3301334D01*
X6770386Y3300944D01*
X6768435Y3300554D01*
X6766387Y3300261D01*
X6764143Y3300164D01*
X6761705Y3300066D01*
X6745319D01*
Y3273927D01*
X6736833D01*
Y3338008D01*
X6763071D01*
X6764534Y3337910D01*
D02*
G37*
G36*
X6658512Y3330498D02*
X6637444D01*
Y3273927D01*
X6628959D01*
Y3330498D01*
X6607891D01*
Y3338008D01*
X6658512D01*
Y3330498D01*
D02*
G37*
G36*
X6532691Y3338203D02*
X6533471Y3338105D01*
X6534349Y3338008D01*
X6535324Y3337910D01*
X6536397Y3337618D01*
X6538738Y3337032D01*
X6541176Y3336155D01*
X6542444Y3335569D01*
X6543615Y3334887D01*
X6544687Y3334009D01*
X6545760Y3333131D01*
X6545858Y3333033D01*
X6545955Y3332936D01*
X6546248Y3332643D01*
X6546638Y3332253D01*
X6547028Y3331668D01*
X6547516Y3331083D01*
X6548491Y3329620D01*
X6549467Y3327767D01*
X6550345Y3325621D01*
X6551027Y3323182D01*
X6551125Y3321817D01*
X6551222Y3320451D01*
Y3320256D01*
Y3319769D01*
X6551125Y3318988D01*
X6551027Y3318013D01*
X6550832Y3316842D01*
X6550540Y3315575D01*
X6550149Y3314209D01*
X6549564Y3312844D01*
X6549467Y3312648D01*
X6549272Y3312161D01*
X6548881Y3311478D01*
X6548296Y3310503D01*
X6547614Y3309332D01*
X6546736Y3307967D01*
X6545565Y3306601D01*
X6544297Y3305041D01*
X6544102Y3304846D01*
X6543615Y3304260D01*
X6542737Y3303383D01*
X6542152Y3302797D01*
X6541469Y3302115D01*
X6540688Y3301334D01*
X6539713Y3300456D01*
X6538738Y3299579D01*
X6537665Y3298506D01*
X6536494Y3297433D01*
X6535129Y3296262D01*
X6533763Y3295092D01*
X6532203Y3293726D01*
X6532105Y3293629D01*
X6531910Y3293434D01*
X6531520Y3293141D01*
X6531032Y3292751D01*
X6529862Y3291776D01*
X6528399Y3290508D01*
X6526936Y3289142D01*
X6525375Y3287777D01*
X6524107Y3286606D01*
X6523620Y3286119D01*
X6523132Y3285631D01*
X6523034Y3285533D01*
X6522839Y3285241D01*
X6522449Y3284851D01*
X6521962Y3284265D01*
X6520889Y3282997D01*
X6519816Y3281437D01*
X6551320D01*
Y3273927D01*
X6508892D01*
Y3274024D01*
Y3274414D01*
Y3275000D01*
X6508989Y3275682D01*
X6509087Y3276463D01*
X6509184Y3277340D01*
X6509477Y3278316D01*
X6509770Y3279291D01*
Y3279389D01*
X6509867Y3279486D01*
X6510062Y3280071D01*
X6510452Y3280852D01*
X6511038Y3282022D01*
X6511720Y3283290D01*
X6512696Y3284753D01*
X6513671Y3286216D01*
X6514939Y3287777D01*
Y3287874D01*
X6515134Y3287972D01*
X6515622Y3288557D01*
X6516402Y3289435D01*
X6517572Y3290605D01*
X6519035Y3291971D01*
X6520791Y3293629D01*
X6522937Y3295482D01*
X6525278Y3297530D01*
X6525375Y3297628D01*
X6525765Y3297921D01*
X6526253Y3298311D01*
X6526936Y3298993D01*
X6527814Y3299676D01*
X6528789Y3300554D01*
X6530935Y3302407D01*
X6533276Y3304650D01*
X6535617Y3306894D01*
X6536787Y3307967D01*
X6537762Y3309040D01*
X6538640Y3310113D01*
X6539420Y3311088D01*
Y3311185D01*
X6539616Y3311283D01*
X6539811Y3311576D01*
X6540006Y3311966D01*
X6540591Y3312941D01*
X6541274Y3314209D01*
X6541956Y3315672D01*
X6542542Y3317233D01*
X6542932Y3318988D01*
X6543127Y3320646D01*
Y3320744D01*
Y3320841D01*
X6543029Y3321427D01*
X6542932Y3322305D01*
X6542737Y3323377D01*
X6542249Y3324645D01*
X6541664Y3325913D01*
X6540884Y3327279D01*
X6539713Y3328547D01*
X6539518Y3328644D01*
X6539128Y3329034D01*
X6538348Y3329522D01*
X6537372Y3330205D01*
X6536104Y3330790D01*
X6534641Y3331278D01*
X6532886Y3331668D01*
X6530935Y3331765D01*
X6530350D01*
X6529960Y3331668D01*
X6528984Y3331570D01*
X6527716Y3331375D01*
X6526253Y3330888D01*
X6524693Y3330302D01*
X6523230Y3329425D01*
X6521864Y3328254D01*
X6521766Y3328059D01*
X6521376Y3327669D01*
X6520791Y3326889D01*
X6520206Y3325816D01*
X6519523Y3324450D01*
X6519035Y3322890D01*
X6518645Y3321037D01*
X6518450Y3318891D01*
X6510355Y3319769D01*
Y3319866D01*
Y3320159D01*
X6510452Y3320646D01*
X6510550Y3321232D01*
X6510745Y3322012D01*
X6510842Y3322890D01*
X6511428Y3324840D01*
X6512208Y3327084D01*
X6513281Y3329327D01*
X6514744Y3331570D01*
X6515524Y3332546D01*
X6516500Y3333521D01*
X6516597Y3333619D01*
X6516792Y3333716D01*
X6517085Y3334009D01*
X6517475Y3334301D01*
X6518060Y3334594D01*
X6518743Y3335082D01*
X6519523Y3335472D01*
X6520401Y3335960D01*
X6521376Y3336350D01*
X6522449Y3336837D01*
X6523717Y3337228D01*
X6524985Y3337520D01*
X6527911Y3338105D01*
X6529472Y3338203D01*
X6531130Y3338300D01*
X6532008D01*
X6532691Y3338203D01*
D02*
G37*
G36*
X6500016Y3330498D02*
X6462172D01*
Y3310795D01*
X6497578D01*
Y3303285D01*
X6462172D01*
Y3281437D01*
X6501479D01*
Y3273927D01*
X6453686D01*
Y3338008D01*
X6500016D01*
Y3330498D01*
D02*
G37*
G36*
X6696746Y3338983D02*
X6697526D01*
X6698502Y3338886D01*
X6699477Y3338691D01*
X6700648Y3338593D01*
X6703086Y3338008D01*
X6705817Y3337228D01*
X6708548Y3336252D01*
X6709913Y3335569D01*
X6711279Y3334789D01*
X6711376D01*
X6711572Y3334594D01*
X6711962Y3334399D01*
X6712449Y3334009D01*
X6713035Y3333619D01*
X6713717Y3333033D01*
X6715278Y3331765D01*
X6717034Y3330107D01*
X6718887Y3328059D01*
X6720545Y3325718D01*
X6722105Y3322987D01*
Y3322890D01*
X6722300Y3322597D01*
X6722496Y3322207D01*
X6722691Y3321622D01*
X6722983Y3320939D01*
X6723276Y3320061D01*
X6723666Y3319086D01*
X6724056Y3318013D01*
X6724349Y3316745D01*
X6724739Y3315477D01*
X6725324Y3312551D01*
X6725714Y3309332D01*
X6725909Y3305821D01*
Y3305723D01*
Y3305431D01*
Y3304846D01*
X6725812Y3304163D01*
Y3303285D01*
X6725714Y3302310D01*
X6725617Y3301237D01*
X6725422Y3299969D01*
X6724934Y3297238D01*
X6724251Y3294312D01*
X6723276Y3291288D01*
X6721910Y3288362D01*
Y3288264D01*
X6721715Y3288069D01*
X6721520Y3287679D01*
X6721228Y3287094D01*
X6720740Y3286509D01*
X6720252Y3285729D01*
X6719082Y3284070D01*
X6717521Y3282217D01*
X6715571Y3280266D01*
X6713327Y3278413D01*
X6710791Y3276755D01*
X6710694D01*
X6710499Y3276560D01*
X6710108Y3276365D01*
X6709523Y3276170D01*
X6708841Y3275877D01*
X6708060Y3275487D01*
X6707182Y3275195D01*
X6706110Y3274804D01*
X6703866Y3274122D01*
X6701233Y3273439D01*
X6698307Y3273049D01*
X6695283Y3272854D01*
X6694405D01*
X6693722Y3272951D01*
X6692942D01*
X6692064Y3273049D01*
X6690991Y3273244D01*
X6689821Y3273439D01*
X6687383Y3273927D01*
X6684652Y3274707D01*
X6681823Y3275780D01*
X6680458Y3276365D01*
X6679092Y3277145D01*
X6678995Y3277243D01*
X6678799Y3277340D01*
X6678409Y3277633D01*
X6677922Y3277926D01*
X6677336Y3278413D01*
X6676654Y3278901D01*
X6675093Y3280266D01*
X6673337Y3282022D01*
X6671484Y3283973D01*
X6669826Y3286411D01*
X6668266Y3289045D01*
Y3289142D01*
X6668070Y3289435D01*
X6667973Y3289825D01*
X6667680Y3290410D01*
X6667388Y3291093D01*
X6667095Y3291873D01*
X6666803Y3292849D01*
X6666510Y3293922D01*
X6666120Y3295092D01*
X6665827Y3296262D01*
X6665242Y3298993D01*
X6664852Y3301919D01*
X6664657Y3305041D01*
Y3305236D01*
Y3305723D01*
X6664754Y3306601D01*
Y3307674D01*
X6664949Y3309040D01*
X6665144Y3310600D01*
X6665339Y3312258D01*
X6665730Y3314209D01*
X6666217Y3316160D01*
X6666705Y3318208D01*
X6667388Y3320256D01*
X6668266Y3322305D01*
X6669241Y3324353D01*
X6670314Y3326401D01*
X6671679Y3328254D01*
X6673142Y3330010D01*
X6673240Y3330107D01*
X6673533Y3330400D01*
X6674020Y3330888D01*
X6674703Y3331473D01*
X6675581Y3332156D01*
X6676556Y3332838D01*
X6677727Y3333716D01*
X6679092Y3334594D01*
X6680653Y3335374D01*
X6682311Y3336252D01*
X6684164Y3336935D01*
X6686115Y3337715D01*
X6688163Y3338203D01*
X6690406Y3338691D01*
X6692845Y3338983D01*
X6695283Y3339081D01*
X6696161D01*
X6696746Y3338983D01*
D02*
G37*
G36*
X6413404D02*
X6414184D01*
X6415160Y3338886D01*
X6416135Y3338691D01*
X6417305Y3338593D01*
X6419744Y3338008D01*
X6422475Y3337228D01*
X6425206Y3336252D01*
X6426571Y3335569D01*
X6427937Y3334789D01*
X6428034D01*
X6428229Y3334594D01*
X6428620Y3334399D01*
X6429107Y3334009D01*
X6429693Y3333619D01*
X6430375Y3333033D01*
X6431936Y3331765D01*
X6433691Y3330107D01*
X6435545Y3328059D01*
X6437203Y3325718D01*
X6438763Y3322987D01*
Y3322890D01*
X6438958Y3322597D01*
X6439153Y3322207D01*
X6439349Y3321622D01*
X6439641Y3320939D01*
X6439934Y3320061D01*
X6440324Y3319086D01*
X6440714Y3318013D01*
X6441007Y3316745D01*
X6441397Y3315477D01*
X6441982Y3312551D01*
X6442372Y3309332D01*
X6442567Y3305821D01*
Y3305723D01*
Y3305431D01*
Y3304846D01*
X6442470Y3304163D01*
Y3303285D01*
X6442372Y3302310D01*
X6442275Y3301237D01*
X6442080Y3299969D01*
X6441592Y3297238D01*
X6440909Y3294312D01*
X6439934Y3291288D01*
X6438568Y3288362D01*
Y3288264D01*
X6438373Y3288069D01*
X6438178Y3287679D01*
X6437886Y3287094D01*
X6437398Y3286509D01*
X6436910Y3285729D01*
X6435740Y3284070D01*
X6434179Y3282217D01*
X6432228Y3280266D01*
X6429985Y3278413D01*
X6427449Y3276755D01*
X6427352D01*
X6427157Y3276560D01*
X6426766Y3276365D01*
X6426181Y3276170D01*
X6425498Y3275877D01*
X6424718Y3275487D01*
X6423840Y3275195D01*
X6422767Y3274804D01*
X6420524Y3274122D01*
X6417891Y3273439D01*
X6414965Y3273049D01*
X6411941Y3272854D01*
X6411063D01*
X6410380Y3272951D01*
X6409600D01*
X6408722Y3273049D01*
X6407649Y3273244D01*
X6406479Y3273439D01*
X6404041Y3273927D01*
X6401310Y3274707D01*
X6398481Y3275780D01*
X6397115Y3276365D01*
X6395750Y3277145D01*
X6395652Y3277243D01*
X6395457Y3277340D01*
X6395067Y3277633D01*
X6394580Y3277926D01*
X6393994Y3278413D01*
X6393312Y3278901D01*
X6391751Y3280266D01*
X6389995Y3282022D01*
X6388142Y3283973D01*
X6386484Y3286411D01*
X6384923Y3289045D01*
Y3289142D01*
X6384728Y3289435D01*
X6384631Y3289825D01*
X6384338Y3290410D01*
X6384046Y3291093D01*
X6383753Y3291873D01*
X6383460Y3292849D01*
X6383168Y3293922D01*
X6382778Y3295092D01*
X6382485Y3296262D01*
X6381900Y3298993D01*
X6381510Y3301919D01*
X6381315Y3305041D01*
Y3305236D01*
Y3305723D01*
X6381412Y3306601D01*
Y3307674D01*
X6381607Y3309040D01*
X6381802Y3310600D01*
X6381997Y3312258D01*
X6382388Y3314209D01*
X6382875Y3316160D01*
X6383363Y3318208D01*
X6384046Y3320256D01*
X6384923Y3322305D01*
X6385899Y3324353D01*
X6386972Y3326401D01*
X6388337Y3328254D01*
X6389800Y3330010D01*
X6389898Y3330107D01*
X6390190Y3330400D01*
X6390678Y3330888D01*
X6391361Y3331473D01*
X6392239Y3332156D01*
X6393214Y3332838D01*
X6394384Y3333716D01*
X6395750Y3334594D01*
X6397311Y3335374D01*
X6398969Y3336252D01*
X6400822Y3336935D01*
X6402773Y3337715D01*
X6404821Y3338203D01*
X6407064Y3338691D01*
X6409503Y3338983D01*
X6411941Y3339081D01*
X6412819D01*
X6413404Y3338983D01*
D02*
G37*
G36*
X6606720Y3256175D02*
X6554636D01*
Y3261832D01*
X6606720D01*
Y3256175D01*
D02*
G37*
G36*
X6207995Y3972835D02*
X6155911D01*
Y3978492D01*
X6207995D01*
Y3972835D01*
D02*
G37*
G36*
X6308945Y3896659D02*
X6262616D01*
Y3904169D01*
X6300460D01*
Y3923872D01*
X6265054D01*
Y3931382D01*
X6300460D01*
Y3953230D01*
X6261153D01*
Y3960740D01*
X6308945D01*
Y3896659D01*
D02*
G37*
G36*
X6150352D02*
X6125187D01*
X6124505Y3896757D01*
X6123822D01*
X6122164Y3896854D01*
X6120311Y3897147D01*
X6118360Y3897440D01*
X6116409Y3897927D01*
X6114654Y3898610D01*
X6114556D01*
X6114458Y3898707D01*
X6113873Y3899000D01*
X6113093Y3899488D01*
X6112118Y3900073D01*
X6110947Y3900951D01*
X6109777Y3902024D01*
X6108704Y3903194D01*
X6107631Y3904657D01*
X6107533Y3904852D01*
X6107241Y3905340D01*
X6106851Y3906218D01*
X6106363Y3907291D01*
X6105875Y3908559D01*
X6105485Y3909924D01*
X6105193Y3911485D01*
X6105095Y3913143D01*
Y3913338D01*
Y3913826D01*
X6105193Y3914606D01*
X6105388Y3915679D01*
X6105680Y3916849D01*
X6106070Y3918117D01*
X6106558Y3919580D01*
X6107338Y3920946D01*
X6107436Y3921141D01*
X6107728Y3921531D01*
X6108314Y3922214D01*
X6108996Y3922994D01*
X6109972Y3923969D01*
X6111142Y3924847D01*
X6112508Y3925822D01*
X6114166Y3926700D01*
X6114068D01*
X6113873Y3926798D01*
X6113581Y3926895D01*
X6113190Y3926993D01*
X6112118Y3927481D01*
X6110850Y3928066D01*
X6109387Y3928944D01*
X6107924Y3929919D01*
X6106460Y3931089D01*
X6105193Y3932552D01*
X6105095Y3932748D01*
X6104705Y3933235D01*
X6104217Y3934113D01*
X6103534Y3935283D01*
X6102949Y3936747D01*
X6102462Y3938307D01*
X6102071Y3940160D01*
X6101974Y3942209D01*
Y3942404D01*
Y3942989D01*
X6102071Y3943867D01*
X6102169Y3944940D01*
X6102462Y3946207D01*
X6102754Y3947671D01*
X6103242Y3949134D01*
X6103925Y3950597D01*
X6104022Y3950792D01*
X6104217Y3951279D01*
X6104705Y3951962D01*
X6105193Y3952840D01*
X6105875Y3953815D01*
X6106656Y3954791D01*
X6107631Y3955766D01*
X6108606Y3956644D01*
X6108704Y3956741D01*
X6109094Y3956936D01*
X6109679Y3957327D01*
X6110557Y3957814D01*
X6111532Y3958302D01*
X6112800Y3958790D01*
X6114166Y3959277D01*
X6115629Y3959765D01*
X6115824D01*
X6116409Y3959960D01*
X6117287Y3960058D01*
X6118457Y3960253D01*
X6120018Y3960448D01*
X6121774Y3960545D01*
X6123724Y3960740D01*
X6150352D01*
Y3896659D01*
D02*
G37*
G36*
X6004438Y3904169D02*
X6025506D01*
Y3896659D01*
X5974884D01*
Y3904169D01*
X5995952D01*
Y3960740D01*
X6004438D01*
Y3904169D01*
D02*
G37*
G36*
X6253740Y3960643D02*
Y3960253D01*
Y3959667D01*
X6253642Y3958985D01*
X6253545Y3958204D01*
X6253447Y3957327D01*
X6253155Y3956351D01*
X6252862Y3955376D01*
Y3955278D01*
X6252764Y3955181D01*
X6252569Y3954596D01*
X6252179Y3953815D01*
X6251594Y3952645D01*
X6250911Y3951377D01*
X6249936Y3949914D01*
X6248961Y3948451D01*
X6247693Y3946890D01*
Y3946793D01*
X6247498Y3946695D01*
X6247010Y3946110D01*
X6246230Y3945232D01*
X6245059Y3944062D01*
X6243596Y3942696D01*
X6241840Y3941038D01*
X6239695Y3939185D01*
X6237354Y3937137D01*
X6237256Y3937039D01*
X6236866Y3936747D01*
X6236378Y3936356D01*
X6235696Y3935674D01*
X6234818Y3934991D01*
X6233842Y3934113D01*
X6231697Y3932260D01*
X6229356Y3930017D01*
X6227015Y3927773D01*
X6225845Y3926700D01*
X6224869Y3925627D01*
X6223991Y3924555D01*
X6223211Y3923579D01*
Y3923482D01*
X6223016Y3923384D01*
X6222821Y3923091D01*
X6222626Y3922701D01*
X6222041Y3921726D01*
X6221358Y3920458D01*
X6220675Y3918995D01*
X6220090Y3917434D01*
X6219700Y3915679D01*
X6219505Y3914021D01*
Y3913923D01*
Y3913826D01*
X6219602Y3913240D01*
X6219700Y3912363D01*
X6219895Y3911290D01*
X6220383Y3910022D01*
X6220968Y3908754D01*
X6221748Y3907388D01*
X6222918Y3906120D01*
X6223114Y3906023D01*
X6223504Y3905633D01*
X6224284Y3905145D01*
X6225259Y3904462D01*
X6226527Y3903877D01*
X6227990Y3903389D01*
X6229746Y3902999D01*
X6231697Y3902902D01*
X6232282D01*
X6232672Y3902999D01*
X6233647Y3903097D01*
X6234915Y3903292D01*
X6236378Y3903779D01*
X6237939Y3904365D01*
X6239402Y3905242D01*
X6240768Y3906413D01*
X6240865Y3906608D01*
X6241255Y3906998D01*
X6241840Y3907778D01*
X6242426Y3908851D01*
X6243108Y3910217D01*
X6243596Y3911777D01*
X6243986Y3913630D01*
X6244181Y3915776D01*
X6252277Y3914898D01*
Y3914801D01*
Y3914508D01*
X6252179Y3914021D01*
X6252082Y3913435D01*
X6251887Y3912655D01*
X6251789Y3911777D01*
X6251204Y3909827D01*
X6250424Y3907583D01*
X6249351Y3905340D01*
X6247888Y3903097D01*
X6247107Y3902121D01*
X6246132Y3901146D01*
X6246034Y3901048D01*
X6245839Y3900951D01*
X6245547Y3900658D01*
X6245157Y3900366D01*
X6244571Y3900073D01*
X6243889Y3899585D01*
X6243108Y3899195D01*
X6242231Y3898707D01*
X6241255Y3898317D01*
X6240182Y3897830D01*
X6238914Y3897440D01*
X6237646Y3897147D01*
X6234720Y3896562D01*
X6233160Y3896464D01*
X6231502Y3896367D01*
X6230624D01*
X6229941Y3896464D01*
X6229161Y3896562D01*
X6228283Y3896659D01*
X6227308Y3896757D01*
X6226235Y3897049D01*
X6223894Y3897635D01*
X6221455Y3898512D01*
X6220187Y3899098D01*
X6219017Y3899780D01*
X6217944Y3900658D01*
X6216871Y3901536D01*
X6216774Y3901634D01*
X6216676Y3901731D01*
X6216384Y3902024D01*
X6215993Y3902414D01*
X6215603Y3902999D01*
X6215116Y3903584D01*
X6214140Y3905047D01*
X6213165Y3906900D01*
X6212287Y3909046D01*
X6211604Y3911485D01*
X6211507Y3912850D01*
X6211409Y3914216D01*
Y3914411D01*
Y3914898D01*
X6211507Y3915679D01*
X6211604Y3916654D01*
X6211799Y3917825D01*
X6212092Y3919092D01*
X6212482Y3920458D01*
X6213067Y3921823D01*
X6213165Y3922019D01*
X6213360Y3922506D01*
X6213750Y3923189D01*
X6214335Y3924164D01*
X6215018Y3925335D01*
X6215896Y3926700D01*
X6217066Y3928066D01*
X6218334Y3929626D01*
X6218529Y3929821D01*
X6219017Y3930407D01*
X6219895Y3931284D01*
X6220480Y3931870D01*
X6221163Y3932552D01*
X6221943Y3933333D01*
X6222918Y3934211D01*
X6223894Y3935088D01*
X6224967Y3936161D01*
X6226137Y3937234D01*
X6227503Y3938405D01*
X6228868Y3939575D01*
X6230429Y3940941D01*
X6230526Y3941038D01*
X6230721Y3941233D01*
X6231111Y3941526D01*
X6231599Y3941916D01*
X6232770Y3942891D01*
X6234233Y3944159D01*
X6235696Y3945525D01*
X6237256Y3946890D01*
X6238524Y3948061D01*
X6239012Y3948548D01*
X6239500Y3949036D01*
X6239597Y3949134D01*
X6239792Y3949426D01*
X6240182Y3949816D01*
X6240670Y3950402D01*
X6241743Y3951670D01*
X6242816Y3953230D01*
X6211312D01*
Y3960740D01*
X6253740D01*
Y3960643D01*
D02*
G37*
G36*
X6352251Y3961716D02*
X6353031D01*
X6353909Y3961618D01*
X6354982Y3961423D01*
X6356153Y3961228D01*
X6358591Y3960740D01*
X6361322Y3959960D01*
X6364151Y3958887D01*
X6365516Y3958302D01*
X6366882Y3957522D01*
X6366979Y3957424D01*
X6367174Y3957327D01*
X6367564Y3957034D01*
X6368052Y3956741D01*
X6368637Y3956254D01*
X6369320Y3955766D01*
X6370881Y3954401D01*
X6372636Y3952645D01*
X6374489Y3950694D01*
X6376148Y3948256D01*
X6377708Y3945622D01*
Y3945525D01*
X6377903Y3945232D01*
X6378001Y3944842D01*
X6378293Y3944257D01*
X6378586Y3943574D01*
X6378879Y3942794D01*
X6379171Y3941818D01*
X6379464Y3940745D01*
X6379854Y3939575D01*
X6380146Y3938405D01*
X6380732Y3935674D01*
X6381122Y3932748D01*
X6381317Y3929626D01*
Y3929431D01*
Y3928944D01*
X6381219Y3928066D01*
Y3926993D01*
X6381024Y3925627D01*
X6380829Y3924067D01*
X6380634Y3922409D01*
X6380244Y3920458D01*
X6379756Y3918507D01*
X6379269Y3916459D01*
X6378586Y3914411D01*
X6377708Y3912363D01*
X6376733Y3910314D01*
X6375660Y3908266D01*
X6374294Y3906413D01*
X6372831Y3904657D01*
X6372734Y3904560D01*
X6372441Y3904267D01*
X6371953Y3903779D01*
X6371271Y3903194D01*
X6370393Y3902511D01*
X6369418Y3901829D01*
X6368247Y3900951D01*
X6366882Y3900073D01*
X6365321Y3899293D01*
X6363663Y3898415D01*
X6361810Y3897732D01*
X6359859Y3896952D01*
X6357811Y3896464D01*
X6355567Y3895976D01*
X6353129Y3895684D01*
X6350691Y3895586D01*
X6349813D01*
X6349228Y3895684D01*
X6348447D01*
X6347472Y3895781D01*
X6346497Y3895976D01*
X6345326Y3896074D01*
X6342888Y3896659D01*
X6340157Y3897440D01*
X6337426Y3898415D01*
X6336060Y3899098D01*
X6334695Y3899878D01*
X6334597D01*
X6334402Y3900073D01*
X6334012Y3900268D01*
X6333524Y3900658D01*
X6332939Y3901048D01*
X6332256Y3901634D01*
X6330696Y3902902D01*
X6328940Y3904560D01*
X6327087Y3906608D01*
X6325429Y3908949D01*
X6323868Y3911680D01*
Y3911777D01*
X6323673Y3912070D01*
X6323478Y3912460D01*
X6323283Y3913045D01*
X6322990Y3913728D01*
X6322698Y3914606D01*
X6322308Y3915581D01*
X6321918Y3916654D01*
X6321625Y3917922D01*
X6321235Y3919190D01*
X6320650Y3922116D01*
X6320259Y3925335D01*
X6320064Y3928846D01*
Y3928944D01*
Y3929236D01*
Y3929821D01*
X6320162Y3930504D01*
Y3931382D01*
X6320259Y3932357D01*
X6320357Y3933430D01*
X6320552Y3934698D01*
X6321040Y3937429D01*
X6321722Y3940355D01*
X6322698Y3943379D01*
X6324063Y3946305D01*
Y3946403D01*
X6324258Y3946598D01*
X6324453Y3946988D01*
X6324746Y3947573D01*
X6325234Y3948158D01*
X6325721Y3948939D01*
X6326892Y3950597D01*
X6328452Y3952450D01*
X6330403Y3954401D01*
X6332646Y3956254D01*
X6335182Y3957912D01*
X6335280D01*
X6335475Y3958107D01*
X6335865Y3958302D01*
X6336450Y3958497D01*
X6337133Y3958790D01*
X6337913Y3959180D01*
X6338791Y3959472D01*
X6339864Y3959863D01*
X6342107Y3960545D01*
X6344741Y3961228D01*
X6347667Y3961618D01*
X6350691Y3961813D01*
X6351568D01*
X6352251Y3961716D01*
D02*
G37*
G36*
X6063837D02*
X6064618D01*
X6065495Y3961618D01*
X6066568Y3961423D01*
X6067739Y3961228D01*
X6070177Y3960740D01*
X6072908Y3959960D01*
X6075737Y3958887D01*
X6077102Y3958302D01*
X6078468Y3957522D01*
X6078565Y3957424D01*
X6078760Y3957327D01*
X6079150Y3957034D01*
X6079638Y3956741D01*
X6080223Y3956254D01*
X6080906Y3955766D01*
X6082467Y3954401D01*
X6084222Y3952645D01*
X6086075Y3950694D01*
X6087734Y3948256D01*
X6089294Y3945622D01*
Y3945525D01*
X6089489Y3945232D01*
X6089587Y3944842D01*
X6089879Y3944257D01*
X6090172Y3943574D01*
X6090465Y3942794D01*
X6090757Y3941818D01*
X6091050Y3940745D01*
X6091440Y3939575D01*
X6091733Y3938405D01*
X6092318Y3935674D01*
X6092708Y3932748D01*
X6092903Y3929626D01*
Y3929431D01*
Y3928944D01*
X6092805Y3928066D01*
Y3926993D01*
X6092610Y3925627D01*
X6092415Y3924067D01*
X6092220Y3922409D01*
X6091830Y3920458D01*
X6091342Y3918507D01*
X6090855Y3916459D01*
X6090172Y3914411D01*
X6089294Y3912363D01*
X6088319Y3910314D01*
X6087246Y3908266D01*
X6085880Y3906413D01*
X6084417Y3904657D01*
X6084320Y3904560D01*
X6084027Y3904267D01*
X6083540Y3903779D01*
X6082857Y3903194D01*
X6081979Y3902511D01*
X6081004Y3901829D01*
X6079833Y3900951D01*
X6078468Y3900073D01*
X6076907Y3899293D01*
X6075249Y3898415D01*
X6073396Y3897732D01*
X6071445Y3896952D01*
X6069397Y3896464D01*
X6067153Y3895976D01*
X6064715Y3895684D01*
X6062277Y3895586D01*
X6061399D01*
X6060814Y3895684D01*
X6060033D01*
X6059058Y3895781D01*
X6058083Y3895976D01*
X6056912Y3896074D01*
X6054474Y3896659D01*
X6051743Y3897440D01*
X6049012Y3898415D01*
X6047646Y3899098D01*
X6046281Y3899878D01*
X6046183D01*
X6045988Y3900073D01*
X6045598Y3900268D01*
X6045110Y3900658D01*
X6044525Y3901048D01*
X6043842Y3901634D01*
X6042282Y3902902D01*
X6040526Y3904560D01*
X6038673Y3906608D01*
X6037015Y3908949D01*
X6035454Y3911680D01*
Y3911777D01*
X6035259Y3912070D01*
X6035064Y3912460D01*
X6034869Y3913045D01*
X6034576Y3913728D01*
X6034284Y3914606D01*
X6033894Y3915581D01*
X6033504Y3916654D01*
X6033211Y3917922D01*
X6032821Y3919190D01*
X6032236Y3922116D01*
X6031845Y3925335D01*
X6031650Y3928846D01*
Y3928944D01*
Y3929236D01*
Y3929821D01*
X6031748Y3930504D01*
Y3931382D01*
X6031845Y3932357D01*
X6031943Y3933430D01*
X6032138Y3934698D01*
X6032626Y3937429D01*
X6033308Y3940355D01*
X6034284Y3943379D01*
X6035649Y3946305D01*
Y3946403D01*
X6035844Y3946598D01*
X6036039Y3946988D01*
X6036332Y3947573D01*
X6036820Y3948158D01*
X6037307Y3948939D01*
X6038478Y3950597D01*
X6040038Y3952450D01*
X6041989Y3954401D01*
X6044233Y3956254D01*
X6046768Y3957912D01*
X6046866D01*
X6047061Y3958107D01*
X6047451Y3958302D01*
X6048036Y3958497D01*
X6048719Y3958790D01*
X6049499Y3959180D01*
X6050377Y3959472D01*
X6051450Y3959863D01*
X6053694Y3960545D01*
X6056327Y3961228D01*
X6059253Y3961618D01*
X6062277Y3961813D01*
X6063154D01*
X6063837Y3961716D01*
D02*
G37*
%LPC*%
G36*
X6763558Y3330498D02*
X6745319D01*
Y3307577D01*
X6762583D01*
X6763168Y3307674D01*
X6763851D01*
X6764534Y3307772D01*
X6766289Y3307967D01*
X6768240Y3308357D01*
X6770191Y3308845D01*
X6771946Y3309625D01*
X6772727Y3310113D01*
X6773409Y3310600D01*
X6773604Y3310698D01*
X6773995Y3311185D01*
X6774482Y3311868D01*
X6775165Y3312844D01*
X6775848Y3314014D01*
X6776335Y3315477D01*
X6776726Y3317233D01*
X6776921Y3319183D01*
Y3319378D01*
Y3319866D01*
X6776823Y3320646D01*
X6776628Y3321622D01*
X6776433Y3322695D01*
X6776043Y3323865D01*
X6775555Y3325036D01*
X6774872Y3326108D01*
X6774775Y3326206D01*
X6774482Y3326596D01*
X6774092Y3327084D01*
X6773409Y3327669D01*
X6772629Y3328254D01*
X6771751Y3328937D01*
X6770678Y3329425D01*
X6769508Y3329912D01*
X6769410D01*
X6769118Y3330010D01*
X6768533Y3330107D01*
X6767752Y3330205D01*
X6766679Y3330302D01*
X6765314Y3330400D01*
X6763558Y3330498D01*
D02*
G37*
G36*
X6695283Y3331765D02*
X6694405D01*
X6693820Y3331668D01*
X6693040Y3331570D01*
X6692064Y3331473D01*
X6691089Y3331278D01*
X6690016Y3330985D01*
X6687578Y3330205D01*
X6686310Y3329717D01*
X6685042Y3329132D01*
X6683676Y3328449D01*
X6682408Y3327571D01*
X6681140Y3326596D01*
X6679872Y3325523D01*
X6679775Y3325426D01*
X6679580Y3325231D01*
X6679287Y3324840D01*
X6678897Y3324353D01*
X6678409Y3323670D01*
X6677824Y3322792D01*
X6677239Y3321817D01*
X6676654Y3320646D01*
X6676068Y3319281D01*
X6675483Y3317818D01*
X6674898Y3316160D01*
X6674410Y3314209D01*
X6674020Y3312161D01*
X6673728Y3310015D01*
X6673533Y3307577D01*
X6673435Y3304943D01*
Y3304846D01*
Y3304455D01*
Y3303870D01*
X6673533Y3302992D01*
X6673630Y3302017D01*
X6673728Y3300944D01*
X6673923Y3299676D01*
X6674215Y3298311D01*
X6674898Y3295385D01*
X6675483Y3293922D01*
X6676068Y3292361D01*
X6676751Y3290898D01*
X6677531Y3289435D01*
X6678507Y3287972D01*
X6679580Y3286704D01*
X6679677Y3286606D01*
X6679872Y3286411D01*
X6680262Y3286119D01*
X6680750Y3285631D01*
X6681335Y3285143D01*
X6682018Y3284656D01*
X6682896Y3283973D01*
X6683871Y3283388D01*
X6684944Y3282802D01*
X6686115Y3282217D01*
X6687383Y3281632D01*
X6688846Y3281144D01*
X6690309Y3280657D01*
X6691869Y3280364D01*
X6693430Y3280169D01*
X6695185Y3280071D01*
X6696063D01*
X6696746Y3280169D01*
X6697624Y3280266D01*
X6698502Y3280462D01*
X6699575Y3280657D01*
X6700745Y3280949D01*
X6703183Y3281730D01*
X6704549Y3282217D01*
X6705817Y3282900D01*
X6707182Y3283680D01*
X6708450Y3284558D01*
X6709718Y3285533D01*
X6710889Y3286704D01*
X6710986Y3286801D01*
X6711181Y3286996D01*
X6711474Y3287387D01*
X6711864Y3287972D01*
X6712352Y3288655D01*
X6712840Y3289532D01*
X6713425Y3290508D01*
X6714010Y3291581D01*
X6714595Y3292946D01*
X6715180Y3294312D01*
X6715668Y3295872D01*
X6716156Y3297628D01*
X6716546Y3299481D01*
X6716838Y3301432D01*
X6717034Y3303578D01*
X6717131Y3305821D01*
Y3305918D01*
Y3306211D01*
Y3306601D01*
Y3307089D01*
X6717034Y3307772D01*
Y3308649D01*
X6716838Y3310503D01*
X6716448Y3312551D01*
X6715961Y3314892D01*
X6715278Y3317233D01*
X6714400Y3319476D01*
Y3319573D01*
X6714303Y3319769D01*
X6714107Y3320061D01*
X6713912Y3320451D01*
X6713327Y3321524D01*
X6712449Y3322792D01*
X6711376Y3324255D01*
X6710011Y3325816D01*
X6708450Y3327279D01*
X6706695Y3328547D01*
X6706597D01*
X6706500Y3328644D01*
X6706207Y3328839D01*
X6705817Y3329034D01*
X6704744Y3329522D01*
X6703379Y3330205D01*
X6701720Y3330790D01*
X6699770Y3331278D01*
X6697624Y3331668D01*
X6695283Y3331765D01*
D02*
G37*
G36*
X6411941D02*
X6411063D01*
X6410478Y3331668D01*
X6409698Y3331570D01*
X6408722Y3331473D01*
X6407747Y3331278D01*
X6406674Y3330985D01*
X6404236Y3330205D01*
X6402968Y3329717D01*
X6401700Y3329132D01*
X6400334Y3328449D01*
X6399066Y3327571D01*
X6397798Y3326596D01*
X6396530Y3325523D01*
X6396433Y3325426D01*
X6396238Y3325231D01*
X6395945Y3324840D01*
X6395555Y3324353D01*
X6395067Y3323670D01*
X6394482Y3322792D01*
X6393897Y3321817D01*
X6393312Y3320646D01*
X6392726Y3319281D01*
X6392141Y3317818D01*
X6391556Y3316160D01*
X6391068Y3314209D01*
X6390678Y3312161D01*
X6390385Y3310015D01*
X6390190Y3307577D01*
X6390093Y3304943D01*
Y3304846D01*
Y3304455D01*
Y3303870D01*
X6390190Y3302992D01*
X6390288Y3302017D01*
X6390385Y3300944D01*
X6390581Y3299676D01*
X6390873Y3298311D01*
X6391556Y3295385D01*
X6392141Y3293922D01*
X6392726Y3292361D01*
X6393409Y3290898D01*
X6394189Y3289435D01*
X6395165Y3287972D01*
X6396238Y3286704D01*
X6396335Y3286606D01*
X6396530Y3286411D01*
X6396920Y3286119D01*
X6397408Y3285631D01*
X6397993Y3285143D01*
X6398676Y3284656D01*
X6399554Y3283973D01*
X6400529Y3283388D01*
X6401602Y3282802D01*
X6402773Y3282217D01*
X6404041Y3281632D01*
X6405504Y3281144D01*
X6406967Y3280657D01*
X6408527Y3280364D01*
X6410088Y3280169D01*
X6411843Y3280071D01*
X6412721D01*
X6413404Y3280169D01*
X6414282Y3280266D01*
X6415160Y3280462D01*
X6416233Y3280657D01*
X6417403Y3280949D01*
X6419841Y3281730D01*
X6421207Y3282217D01*
X6422475Y3282900D01*
X6423840Y3283680D01*
X6425108Y3284558D01*
X6426376Y3285533D01*
X6427547Y3286704D01*
X6427644Y3286801D01*
X6427839Y3286996D01*
X6428132Y3287387D01*
X6428522Y3287972D01*
X6429010Y3288655D01*
X6429497Y3289532D01*
X6430083Y3290508D01*
X6430668Y3291581D01*
X6431253Y3292946D01*
X6431838Y3294312D01*
X6432326Y3295872D01*
X6432814Y3297628D01*
X6433204Y3299481D01*
X6433496Y3301432D01*
X6433691Y3303578D01*
X6433789Y3305821D01*
Y3305918D01*
Y3306211D01*
Y3306601D01*
Y3307089D01*
X6433691Y3307772D01*
Y3308649D01*
X6433496Y3310503D01*
X6433106Y3312551D01*
X6432619Y3314892D01*
X6431936Y3317233D01*
X6431058Y3319476D01*
Y3319573D01*
X6430960Y3319769D01*
X6430765Y3320061D01*
X6430570Y3320451D01*
X6429985Y3321524D01*
X6429107Y3322792D01*
X6428034Y3324255D01*
X6426669Y3325816D01*
X6425108Y3327279D01*
X6423353Y3328547D01*
X6423255D01*
X6423158Y3328644D01*
X6422865Y3328839D01*
X6422475Y3329034D01*
X6421402Y3329522D01*
X6420036Y3330205D01*
X6418378Y3330790D01*
X6416428Y3331278D01*
X6414282Y3331668D01*
X6411941Y3331765D01*
D02*
G37*
G36*
X6141866Y3953230D02*
X6123724D01*
X6121774Y3953133D01*
X6120896Y3953035D01*
X6120213Y3952937D01*
X6120116D01*
X6119725Y3952840D01*
X6119140Y3952742D01*
X6118457Y3952547D01*
X6116897Y3952060D01*
X6115336Y3951279D01*
X6115239Y3951182D01*
X6114946Y3951084D01*
X6114654Y3950792D01*
X6114166Y3950304D01*
X6113581Y3949816D01*
X6113093Y3949231D01*
X6112508Y3948451D01*
X6112020Y3947671D01*
X6111922Y3947573D01*
X6111825Y3947280D01*
X6111630Y3946793D01*
X6111337Y3946110D01*
X6111142Y3945330D01*
X6110947Y3944354D01*
X6110850Y3943379D01*
X6110752Y3942209D01*
Y3942013D01*
Y3941623D01*
X6110850Y3940941D01*
X6110947Y3940160D01*
X6111240Y3939185D01*
X6111532Y3938112D01*
X6112020Y3937039D01*
X6112703Y3936064D01*
X6112800Y3935966D01*
X6112995Y3935576D01*
X6113483Y3935186D01*
X6114068Y3934601D01*
X6114751Y3933918D01*
X6115629Y3933333D01*
X6116604Y3932748D01*
X6117775Y3932260D01*
X6117970Y3932162D01*
X6118360Y3932065D01*
X6119140Y3931870D01*
X6120116Y3931675D01*
X6121481Y3931480D01*
X6123042Y3931382D01*
X6124992Y3931187D01*
X6141866D01*
Y3953230D01*
D02*
G37*
G36*
Y3923677D02*
X6126163D01*
X6124992Y3923579D01*
X6123627Y3923482D01*
X6122261Y3923384D01*
X6121091Y3923189D01*
X6120018Y3922994D01*
X6119920Y3922896D01*
X6119530Y3922799D01*
X6118945Y3922604D01*
X6118165Y3922214D01*
X6117385Y3921823D01*
X6116604Y3921238D01*
X6115824Y3920556D01*
X6115141Y3919775D01*
X6115044Y3919678D01*
X6114849Y3919385D01*
X6114654Y3918897D01*
X6114263Y3918215D01*
X6113971Y3917434D01*
X6113776Y3916459D01*
X6113581Y3915386D01*
X6113483Y3914118D01*
Y3914021D01*
Y3913533D01*
X6113581Y3912948D01*
X6113678Y3912167D01*
X6113873Y3911290D01*
X6114166Y3910412D01*
X6114556Y3909436D01*
X6115044Y3908461D01*
X6115141Y3908364D01*
X6115336Y3908071D01*
X6115726Y3907681D01*
X6116214Y3907096D01*
X6116799Y3906608D01*
X6117580Y3906023D01*
X6118457Y3905535D01*
X6119433Y3905145D01*
X6119530D01*
X6120018Y3904950D01*
X6120701Y3904852D01*
X6121676Y3904657D01*
X6123042Y3904462D01*
X6124700Y3904365D01*
X6126748Y3904169D01*
X6141866D01*
Y3923677D01*
D02*
G37*
G36*
X6350788Y3954596D02*
X6349910D01*
X6349228Y3954498D01*
X6348350Y3954401D01*
X6347472Y3954205D01*
X6346399Y3954010D01*
X6345229Y3953718D01*
X6342790Y3952937D01*
X6341425Y3952450D01*
X6340157Y3951767D01*
X6338791Y3950987D01*
X6337523Y3950109D01*
X6336255Y3949134D01*
X6335085Y3947963D01*
X6334987Y3947866D01*
X6334792Y3947671D01*
X6334500Y3947280D01*
X6334110Y3946695D01*
X6333622Y3946012D01*
X6333134Y3945135D01*
X6332549Y3944159D01*
X6331964Y3943086D01*
X6331378Y3941721D01*
X6330793Y3940355D01*
X6330306Y3938795D01*
X6329818Y3937039D01*
X6329428Y3935186D01*
X6329135Y3933235D01*
X6328940Y3931089D01*
X6328843Y3928846D01*
Y3928749D01*
Y3928456D01*
Y3928066D01*
Y3927578D01*
X6328940Y3926895D01*
Y3926018D01*
X6329135Y3924164D01*
X6329525Y3922116D01*
X6330013Y3919775D01*
X6330696Y3917434D01*
X6331574Y3915191D01*
Y3915094D01*
X6331671Y3914898D01*
X6331866Y3914606D01*
X6332061Y3914216D01*
X6332646Y3913143D01*
X6333524Y3911875D01*
X6334597Y3910412D01*
X6335963Y3908851D01*
X6337523Y3907388D01*
X6339279Y3906120D01*
X6339376D01*
X6339474Y3906023D01*
X6339767Y3905828D01*
X6340157Y3905633D01*
X6341230Y3905145D01*
X6342595Y3904462D01*
X6344253Y3903877D01*
X6346204Y3903389D01*
X6348350Y3902999D01*
X6350691Y3902902D01*
X6351568D01*
X6352154Y3902999D01*
X6352934Y3903097D01*
X6353909Y3903194D01*
X6354885Y3903389D01*
X6355958Y3903682D01*
X6358396Y3904462D01*
X6359664Y3904950D01*
X6360932Y3905535D01*
X6362297Y3906218D01*
X6363565Y3907096D01*
X6364833Y3908071D01*
X6366101Y3909144D01*
X6366199Y3909241D01*
X6366394Y3909436D01*
X6366687Y3909827D01*
X6367077Y3910314D01*
X6367564Y3910997D01*
X6368150Y3911875D01*
X6368735Y3912850D01*
X6369320Y3914021D01*
X6369905Y3915386D01*
X6370490Y3916849D01*
X6371076Y3918507D01*
X6371563Y3920458D01*
X6371953Y3922506D01*
X6372246Y3924652D01*
X6372441Y3927090D01*
X6372539Y3929724D01*
Y3929821D01*
Y3930212D01*
Y3930797D01*
X6372441Y3931675D01*
X6372344Y3932650D01*
X6372246Y3933723D01*
X6372051Y3934991D01*
X6371758Y3936356D01*
X6371076Y3939282D01*
X6370490Y3940745D01*
X6369905Y3942306D01*
X6369222Y3943769D01*
X6368442Y3945232D01*
X6367467Y3946695D01*
X6366394Y3947963D01*
X6366296Y3948061D01*
X6366101Y3948256D01*
X6365711Y3948548D01*
X6365223Y3949036D01*
X6364638Y3949524D01*
X6363956Y3950011D01*
X6363078Y3950694D01*
X6362102Y3951279D01*
X6361029Y3951865D01*
X6359859Y3952450D01*
X6358591Y3953035D01*
X6357128Y3953523D01*
X6355665Y3954010D01*
X6354104Y3954303D01*
X6352544Y3954498D01*
X6350788Y3954596D01*
D02*
G37*
G36*
X6062374D02*
X6061496D01*
X6060814Y3954498D01*
X6059936Y3954401D01*
X6059058Y3954205D01*
X6057985Y3954010D01*
X6056815Y3953718D01*
X6054376Y3952937D01*
X6053011Y3952450D01*
X6051743Y3951767D01*
X6050377Y3950987D01*
X6049109Y3950109D01*
X6047841Y3949134D01*
X6046671Y3947963D01*
X6046573Y3947866D01*
X6046378Y3947671D01*
X6046086Y3947280D01*
X6045696Y3946695D01*
X6045208Y3946012D01*
X6044720Y3945135D01*
X6044135Y3944159D01*
X6043550Y3943086D01*
X6042965Y3941721D01*
X6042379Y3940355D01*
X6041892Y3938795D01*
X6041404Y3937039D01*
X6041014Y3935186D01*
X6040721Y3933235D01*
X6040526Y3931089D01*
X6040429Y3928846D01*
Y3928749D01*
Y3928456D01*
Y3928066D01*
Y3927578D01*
X6040526Y3926895D01*
Y3926018D01*
X6040721Y3924164D01*
X6041111Y3922116D01*
X6041599Y3919775D01*
X6042282Y3917434D01*
X6043160Y3915191D01*
Y3915094D01*
X6043257Y3914898D01*
X6043452Y3914606D01*
X6043647Y3914216D01*
X6044233Y3913143D01*
X6045110Y3911875D01*
X6046183Y3910412D01*
X6047549Y3908851D01*
X6049109Y3907388D01*
X6050865Y3906120D01*
X6050962D01*
X6051060Y3906023D01*
X6051353Y3905828D01*
X6051743Y3905633D01*
X6052816Y3905145D01*
X6054181Y3904462D01*
X6055839Y3903877D01*
X6057790Y3903389D01*
X6059936Y3902999D01*
X6062277Y3902902D01*
X6063154D01*
X6063740Y3902999D01*
X6064520Y3903097D01*
X6065495Y3903194D01*
X6066471Y3903389D01*
X6067544Y3903682D01*
X6069982Y3904462D01*
X6071250Y3904950D01*
X6072518Y3905535D01*
X6073883Y3906218D01*
X6075151Y3907096D01*
X6076419Y3908071D01*
X6077687Y3909144D01*
X6077785Y3909241D01*
X6077980Y3909436D01*
X6078273Y3909827D01*
X6078663Y3910314D01*
X6079150Y3910997D01*
X6079736Y3911875D01*
X6080321Y3912850D01*
X6080906Y3914021D01*
X6081491Y3915386D01*
X6082076Y3916849D01*
X6082662Y3918507D01*
X6083149Y3920458D01*
X6083540Y3922506D01*
X6083832Y3924652D01*
X6084027Y3927090D01*
X6084125Y3929724D01*
Y3929821D01*
Y3930212D01*
Y3930797D01*
X6084027Y3931675D01*
X6083930Y3932650D01*
X6083832Y3933723D01*
X6083637Y3934991D01*
X6083344Y3936356D01*
X6082662Y3939282D01*
X6082076Y3940745D01*
X6081491Y3942306D01*
X6080809Y3943769D01*
X6080028Y3945232D01*
X6079053Y3946695D01*
X6077980Y3947963D01*
X6077882Y3948061D01*
X6077687Y3948256D01*
X6077297Y3948548D01*
X6076810Y3949036D01*
X6076224Y3949524D01*
X6075542Y3950011D01*
X6074664Y3950694D01*
X6073688Y3951279D01*
X6072615Y3951865D01*
X6071445Y3952450D01*
X6070177Y3953035D01*
X6068714Y3953523D01*
X6067251Y3954010D01*
X6065690Y3954303D01*
X6064130Y3954498D01*
X6062374Y3954596D01*
D02*
G37*
%LPD*%
D40*
X4443300Y6721999D02*
X4443300Y5932000D01*
X5418300Y5932000D01*
X5418300Y6722000D01*
X4443300Y6721999D02*
X5418300Y6722000D01*
X5496316Y3586176D02*
X7266316Y3586175D01*
X7266316Y2926176D02*
X7266316Y3586175D01*
X5496316Y2926175D02*
X7266316Y2926176D01*
X5496316Y3586176D02*
X5496316Y2926175D01*
X5496316Y3648491D02*
X7266316Y3648490D01*
X5496316Y3648491D02*
Y4308491D01*
X7266316Y4308491D01*
X7266316Y3648490D01*
%TF.MD5,880bfb657476ee67a6cb9cec1cef4486*%
M02*
