%TF.GenerationSoftware,Altium Limited,Altium Designer,23.3.1 (30)*%
G04 Layer_Color=32768*
%FSLAX45Y45*%
%MOMM*%
%TF.SameCoordinates,3FCD108A-851F-4062-9BED-621BEB009867*%
%TF.FilePolarity,Positive*%
%TF.FileFunction,Other,Mechanical_7*%
%TF.Part,Single*%
G01*
G75*
%TA.AperFunction,NonConductor*%
%ADD58C,0.15240*%
D58*
X8042680Y3405133D02*
Y3849632D01*
X7864881Y3405133D02*
X8042680Y3405133D01*
X7610881Y3405132D02*
X7864881Y3405133D01*
X7610881Y3849634D02*
X7864880Y3849633D01*
X8042680Y3849632D01*
X7599450Y3786133D02*
X7610880Y3786133D01*
X7599451Y3722633D02*
X7610881Y3722632D01*
X7599450Y3468633D02*
X7610880Y3468633D01*
X7610880Y3786133D02*
X7610881Y3849634D01*
X7610880Y3786133D02*
X7610881Y3722632D01*
X7610881Y3659133D02*
X7610881Y3722632D01*
X7610880Y3595633D02*
X7610881Y3659133D01*
X7610880Y3595633D02*
X7610880Y3532133D01*
X7610880Y3468633D02*
X7610880Y3532133D01*
X7610880Y3468633D02*
X7610881Y3405132D01*
X7599451Y3659132D02*
X7610881Y3659133D01*
X7599450Y3595632D02*
X7610880Y3595633D01*
X7599450Y3532133D02*
X7610880D01*
X7864880Y3849633D02*
X7864881Y3405133D01*
X4370333Y644120D02*
X4814832D01*
X4370333Y821919D02*
X4370333Y644120D01*
X4370332Y1075919D02*
X4370333Y821919D01*
X4814833Y821920D02*
X4814833Y1075920D01*
X4814832Y644120D02*
X4814833Y821920D01*
X4751333Y1075920D02*
X4751333Y1087350D01*
X4687833Y1075919D02*
X4687833Y1087349D01*
X4433833Y1075920D02*
Y1087350D01*
X4751333Y1075920D02*
X4814833Y1075920D01*
X4687833Y1075919D02*
X4751333Y1075920D01*
X4624333Y1075919D02*
X4687833D01*
X4560833Y1075920D02*
X4624333Y1075919D01*
X4497333Y1075920D02*
X4560833Y1075920D01*
X4433833Y1075920D02*
X4497333Y1075920D01*
X4370332Y1075919D02*
X4433833Y1075920D01*
X4624332Y1087349D02*
X4624333Y1075919D01*
X4560832Y1087350D02*
X4560833Y1075920D01*
X4497333Y1075920D02*
Y1087350D01*
X4370333Y821919D02*
X4814833Y821920D01*
%TF.MD5,068c1b24307076153b196aef3537c9e6*%
M02*
