%TF.GenerationSoftware,Altium Limited,Altium Designer,22.7.1 (60)*%
G04 Layer_Color=16711935*
%FSLAX45Y45*%
%MOMM*%
%TF.SameCoordinates,2E8CAF61-F9F5-4988-A97D-765C0E49F6B8*%
%TF.FilePolarity,Positive*%
%TF.FileFunction,Other,Top_Assembly*%
%TF.Part,Single*%
G01*
G75*
%TA.AperFunction,NonConductor*%
%ADD39C,0.20000*%
G36*
X10826Y2551607D02*
X11508D01*
X13167Y2551412D01*
X15117Y2551120D01*
X17263Y2550729D01*
X19409Y2550144D01*
X21457Y2549364D01*
X21555D01*
X21652Y2549266D01*
X21945Y2549169D01*
X22335Y2548974D01*
X23310Y2548389D01*
X24578Y2547706D01*
X25944Y2546730D01*
X27309Y2545560D01*
X28675Y2544195D01*
X29845Y2542634D01*
X29943Y2542439D01*
X30333Y2541854D01*
X30821Y2540878D01*
X31308Y2539708D01*
X31894Y2538245D01*
X32479Y2536489D01*
X32869Y2534636D01*
X33064Y2532588D01*
X24968Y2532003D01*
Y2532100D01*
Y2532295D01*
X24871Y2532588D01*
X24773Y2532978D01*
X24578Y2534051D01*
X24188Y2535416D01*
X23603Y2536879D01*
X22823Y2538342D01*
X21750Y2539805D01*
X20482Y2541073D01*
X20287Y2541171D01*
X19799Y2541561D01*
X18921Y2542049D01*
X17751Y2542634D01*
X16190Y2543219D01*
X14239Y2543707D01*
X11996Y2544097D01*
X9363Y2544195D01*
X8095D01*
X7510Y2544097D01*
X6729D01*
X5071Y2543804D01*
X3218Y2543512D01*
X1365Y2543024D01*
X-391Y2542341D01*
X-1171Y2541854D01*
X-1854Y2541366D01*
X-1951Y2541268D01*
X-2342Y2540878D01*
X-2927Y2540293D01*
X-3512Y2539415D01*
X-4195Y2538440D01*
X-4682Y2537269D01*
X-5073Y2536002D01*
X-5268Y2534538D01*
Y2534343D01*
Y2533953D01*
X-5170Y2533271D01*
X-4975Y2532490D01*
X-4682Y2531612D01*
X-4195Y2530637D01*
X-3610Y2529759D01*
X-2829Y2528881D01*
X-2732Y2528784D01*
X-2244Y2528491D01*
X-1951Y2528296D01*
X-1561Y2528004D01*
X-976Y2527809D01*
X-293Y2527516D01*
X487Y2527126D01*
X1365Y2526736D01*
X2340Y2526443D01*
X3511Y2526053D01*
X4876Y2525565D01*
X6339Y2525175D01*
X7997Y2524785D01*
X9850Y2524297D01*
X9948D01*
X10338Y2524200D01*
X10826Y2524102D01*
X11508Y2523907D01*
X12386Y2523712D01*
X13362Y2523419D01*
X15507Y2522932D01*
X17848Y2522249D01*
X20189Y2521566D01*
X21360Y2521274D01*
X22335Y2520883D01*
X23310Y2520493D01*
X24091Y2520201D01*
X24188D01*
X24383Y2520103D01*
X24578Y2519908D01*
X24968Y2519713D01*
X25944Y2519128D01*
X27212Y2518445D01*
X28577Y2517470D01*
X29943Y2516299D01*
X31211Y2515031D01*
X32284Y2513666D01*
X32381Y2513471D01*
X32674Y2512983D01*
X33161Y2512203D01*
X33649Y2511032D01*
X34137Y2509764D01*
X34625Y2508204D01*
X34917Y2506448D01*
X35015Y2504595D01*
Y2504497D01*
Y2504400D01*
Y2504107D01*
Y2503717D01*
X34820Y2502742D01*
X34625Y2501474D01*
X34332Y2500011D01*
X33747Y2498353D01*
X33064Y2496597D01*
X32089Y2494939D01*
X31991Y2494744D01*
X31503Y2494159D01*
X30918Y2493378D01*
X29943Y2492403D01*
X28772Y2491233D01*
X27309Y2490062D01*
X25554Y2488989D01*
X23603Y2487916D01*
X23505D01*
X23310Y2487819D01*
X23018Y2487721D01*
X22628Y2487526D01*
X22140Y2487331D01*
X21555Y2487136D01*
X19994Y2486746D01*
X18238Y2486258D01*
X16093Y2485868D01*
X13849Y2485575D01*
X11313Y2485478D01*
X9850D01*
X9168Y2485575D01*
X8290D01*
X7314Y2485673D01*
X6242Y2485770D01*
X3998Y2486063D01*
X1560Y2486551D01*
X-879Y2487136D01*
X-3219Y2487916D01*
X-3317D01*
X-3512Y2488014D01*
X-3805Y2488209D01*
X-4195Y2488404D01*
X-5268Y2488989D01*
X-6536Y2489867D01*
X-8096Y2490940D01*
X-9559Y2492208D01*
X-11120Y2493768D01*
X-12485Y2495524D01*
Y2495622D01*
X-12583Y2495719D01*
X-12778Y2496012D01*
X-12973Y2496402D01*
X-13266Y2496890D01*
X-13558Y2497475D01*
X-14143Y2498938D01*
X-14729Y2500596D01*
X-15314Y2502644D01*
X-15704Y2504790D01*
X-15899Y2507131D01*
X-7901Y2507814D01*
Y2507716D01*
Y2507619D01*
X-7804Y2507033D01*
X-7609Y2506156D01*
X-7413Y2504985D01*
X-7023Y2503717D01*
X-6633Y2502352D01*
X-6048Y2501084D01*
X-5365Y2499816D01*
X-5268Y2499718D01*
X-4975Y2499328D01*
X-4487Y2498743D01*
X-3707Y2498060D01*
X-2829Y2497280D01*
X-1756Y2496402D01*
X-391Y2495622D01*
X1072Y2494841D01*
X1170D01*
X1267Y2494744D01*
X1852Y2494549D01*
X2730Y2494256D01*
X3998Y2493964D01*
X5364Y2493573D01*
X7119Y2493281D01*
X8973Y2493086D01*
X10923Y2492988D01*
X11704D01*
X12679Y2493086D01*
X13752Y2493183D01*
X15117Y2493281D01*
X16483Y2493573D01*
X17946Y2493866D01*
X19409Y2494354D01*
X19604Y2494451D01*
X19994Y2494646D01*
X20677Y2494939D01*
X21457Y2495427D01*
X22433Y2496012D01*
X23310Y2496695D01*
X24188Y2497475D01*
X24968Y2498353D01*
X25066Y2498450D01*
X25261Y2498840D01*
X25554Y2499328D01*
X25944Y2500011D01*
X26236Y2500791D01*
X26529Y2501766D01*
X26724Y2502742D01*
X26822Y2503815D01*
Y2503912D01*
Y2504302D01*
X26724Y2504888D01*
X26627Y2505570D01*
X26431Y2506448D01*
X26041Y2507326D01*
X25651Y2508204D01*
X25066Y2509082D01*
X24968Y2509179D01*
X24773Y2509472D01*
X24286Y2509862D01*
X23700Y2510447D01*
X22920Y2511032D01*
X21945Y2511618D01*
X20677Y2512300D01*
X19311Y2512885D01*
X19214Y2512983D01*
X18824Y2513081D01*
X18043Y2513276D01*
X17556Y2513471D01*
X16971Y2513666D01*
X16190Y2513861D01*
X15410Y2514056D01*
X14435Y2514349D01*
X13459Y2514641D01*
X12289Y2514934D01*
X10923Y2515226D01*
X9460Y2515617D01*
X7900Y2516007D01*
X7802D01*
X7510Y2516104D01*
X7022Y2516202D01*
X6437Y2516397D01*
X5754Y2516592D01*
X4974Y2516787D01*
X3120Y2517275D01*
X1072Y2517957D01*
X-976Y2518640D01*
X-2829Y2519323D01*
X-3707Y2519615D01*
X-4390Y2520006D01*
X-4487D01*
X-4585Y2520103D01*
X-5170Y2520493D01*
X-5950Y2520981D01*
X-6926Y2521664D01*
X-8096Y2522542D01*
X-9169Y2523517D01*
X-10242Y2524687D01*
X-11217Y2525955D01*
X-11315Y2526150D01*
X-11608Y2526638D01*
X-11900Y2527321D01*
X-12290Y2528296D01*
X-12778Y2529467D01*
X-13071Y2530832D01*
X-13363Y2532393D01*
X-13461Y2533953D01*
Y2534051D01*
Y2534148D01*
Y2534441D01*
Y2534831D01*
X-13266Y2535709D01*
X-13071Y2536879D01*
X-12778Y2538342D01*
X-12290Y2539805D01*
X-11608Y2541464D01*
X-10730Y2543024D01*
Y2543122D01*
X-10632Y2543219D01*
X-10242Y2543707D01*
X-9559Y2544487D01*
X-8681Y2545463D01*
X-7609Y2546438D01*
X-6243Y2547511D01*
X-4585Y2548584D01*
X-2732Y2549461D01*
X-2634D01*
X-2537Y2549559D01*
X-2244Y2549657D01*
X-1756Y2549852D01*
X-1269Y2549949D01*
X-684Y2550144D01*
X682Y2550632D01*
X2438Y2551022D01*
X4388Y2551315D01*
X6632Y2551607D01*
X8973Y2551705D01*
X10143D01*
X10826Y2551607D01*
D02*
G37*
G36*
X239938D02*
X240718Y2551510D01*
X241693Y2551412D01*
X242766Y2551315D01*
X243937Y2551120D01*
X246473Y2550534D01*
X249204Y2549657D01*
X250569Y2549071D01*
X251935Y2548389D01*
X253203Y2547608D01*
X254471Y2546730D01*
X254568Y2546633D01*
X254763Y2546535D01*
X255056Y2546243D01*
X255544Y2545853D01*
X256031Y2545365D01*
X256714Y2544682D01*
X257397Y2543999D01*
X258079Y2543219D01*
X258860Y2542244D01*
X259543Y2541268D01*
X260323Y2540098D01*
X261103Y2538830D01*
X261786Y2537562D01*
X262469Y2536099D01*
X263639Y2532978D01*
X255251Y2531027D01*
Y2531125D01*
X255153Y2531320D01*
X255056Y2531710D01*
X254861Y2532198D01*
X254568Y2532783D01*
X254276Y2533466D01*
X253593Y2534929D01*
X252715Y2536587D01*
X251545Y2538342D01*
X250277Y2539903D01*
X248716Y2541268D01*
X248521Y2541366D01*
X247936Y2541756D01*
X247058Y2542244D01*
X245790Y2542927D01*
X244327Y2543512D01*
X242474Y2543999D01*
X240425Y2544390D01*
X238085Y2544487D01*
X237402D01*
X236914Y2544390D01*
X236231D01*
X235549Y2544292D01*
X233793Y2543999D01*
X231842Y2543609D01*
X229794Y2542927D01*
X227746Y2542049D01*
X225795Y2540878D01*
X225698D01*
X225600Y2540683D01*
X225015Y2540196D01*
X224137Y2539415D01*
X223064Y2538342D01*
X221991Y2536977D01*
X220821Y2535416D01*
X219748Y2533466D01*
X218870Y2531320D01*
Y2531222D01*
X218772Y2531027D01*
X218675Y2530735D01*
X218577Y2530247D01*
X218382Y2529759D01*
X218285Y2529076D01*
X217895Y2527516D01*
X217505Y2525663D01*
X217212Y2523614D01*
X217017Y2521371D01*
X216919Y2519030D01*
Y2518933D01*
Y2518640D01*
Y2518250D01*
Y2517665D01*
X217017Y2516982D01*
Y2516104D01*
X217114Y2515226D01*
X217212Y2514251D01*
X217505Y2512008D01*
X217895Y2509569D01*
X218480Y2507131D01*
X219260Y2504790D01*
Y2504692D01*
X219358Y2504497D01*
X219553Y2504205D01*
X219748Y2503815D01*
X220236Y2502644D01*
X221016Y2501376D01*
X222089Y2499816D01*
X223357Y2498353D01*
X224820Y2496890D01*
X226575Y2495622D01*
X226673D01*
X226770Y2495524D01*
X227063Y2495329D01*
X227453Y2495134D01*
X228526Y2494744D01*
X229892Y2494159D01*
X231452Y2493671D01*
X233305Y2493183D01*
X235354Y2492793D01*
X237499Y2492696D01*
X238182D01*
X238670Y2492793D01*
X239255D01*
X240035Y2492891D01*
X241693Y2493183D01*
X243547Y2493671D01*
X245595Y2494451D01*
X247546Y2495427D01*
X249496Y2496792D01*
X249594Y2496890D01*
X249691Y2496987D01*
X250277Y2497572D01*
X251154Y2498548D01*
X252227Y2499816D01*
X253300Y2501571D01*
X254471Y2503620D01*
X255446Y2506156D01*
X256226Y2508984D01*
X264712Y2506838D01*
Y2506741D01*
X264614Y2506351D01*
X264419Y2505863D01*
X264224Y2505083D01*
X263834Y2504302D01*
X263444Y2503229D01*
X263054Y2502157D01*
X262469Y2500986D01*
X261201Y2498353D01*
X259445Y2495719D01*
X257494Y2493183D01*
X256324Y2492013D01*
X255056Y2490940D01*
X254958Y2490842D01*
X254763Y2490745D01*
X254373Y2490452D01*
X253788Y2490062D01*
X253105Y2489672D01*
X252325Y2489184D01*
X251447Y2488697D01*
X250374Y2488209D01*
X249204Y2487721D01*
X247936Y2487234D01*
X246473Y2486746D01*
X245010Y2486356D01*
X241791Y2485673D01*
X240035Y2485575D01*
X238182Y2485478D01*
X237207D01*
X236427Y2485575D01*
X235549D01*
X234573Y2485673D01*
X233403Y2485868D01*
X232232Y2485966D01*
X229501Y2486551D01*
X226673Y2487234D01*
X223942Y2488306D01*
X222576Y2488892D01*
X221308Y2489672D01*
X221211Y2489769D01*
X221016Y2489867D01*
X220723Y2490160D01*
X220236Y2490452D01*
X219065Y2491428D01*
X217700Y2492793D01*
X216041Y2494451D01*
X214481Y2496597D01*
X212823Y2499035D01*
X211457Y2501864D01*
Y2501961D01*
X211360Y2502254D01*
X211165Y2502644D01*
X210970Y2503229D01*
X210677Y2504010D01*
X210384Y2504888D01*
X210092Y2505863D01*
X209799Y2507033D01*
X209507Y2508204D01*
X209214Y2509569D01*
X208629Y2512495D01*
X208239Y2515617D01*
X208141Y2519030D01*
Y2519128D01*
Y2519518D01*
Y2520006D01*
X208239Y2520688D01*
Y2521566D01*
X208336Y2522639D01*
X208434Y2523712D01*
X208629Y2524980D01*
X209116Y2527711D01*
X209702Y2530637D01*
X210677Y2533661D01*
X211945Y2536489D01*
Y2536587D01*
X212140Y2536782D01*
X212335Y2537172D01*
X212628Y2537757D01*
X213018Y2538342D01*
X213506Y2539025D01*
X214774Y2540683D01*
X216237Y2542536D01*
X218090Y2544390D01*
X220333Y2546243D01*
X222771Y2547803D01*
X222869D01*
X223064Y2547998D01*
X223454Y2548194D01*
X224039Y2548389D01*
X224625Y2548681D01*
X225405Y2549071D01*
X226380Y2549364D01*
X227356Y2549754D01*
X228429Y2550144D01*
X229599Y2550437D01*
X232232Y2551120D01*
X235159Y2551510D01*
X238280Y2551705D01*
X239255D01*
X239938Y2551607D01*
D02*
G37*
G36*
X325574Y2486551D02*
X317089D01*
Y2516787D01*
X283927D01*
Y2486551D01*
X275441D01*
Y2550632D01*
X283927D01*
Y2524297D01*
X317089D01*
Y2550632D01*
X325574D01*
Y2486551D01*
D02*
G37*
G36*
X105631D02*
X97340D01*
X83880Y2535319D01*
Y2535416D01*
X83783Y2535611D01*
X83685Y2535904D01*
X83588Y2536294D01*
X83295Y2537367D01*
X83002Y2538537D01*
X82612Y2539903D01*
X82320Y2541073D01*
X82027Y2542146D01*
X81929Y2542536D01*
X81832Y2542829D01*
Y2542634D01*
X81637Y2542146D01*
X81442Y2541268D01*
X81149Y2540293D01*
X80857Y2539025D01*
X80564Y2537855D01*
X80174Y2536587D01*
X79881Y2535319D01*
X66421Y2486551D01*
X57545D01*
X40769Y2550632D01*
X49450D01*
X59106Y2508496D01*
Y2508399D01*
X59204Y2508204D01*
X59301Y2507814D01*
X59399Y2507423D01*
X59496Y2506741D01*
X59691Y2506058D01*
X60081Y2504400D01*
X60472Y2502449D01*
X60959Y2500206D01*
X61349Y2497865D01*
X61837Y2495427D01*
Y2495524D01*
X61935Y2495914D01*
X62032Y2496402D01*
X62227Y2497085D01*
X62422Y2497865D01*
X62617Y2498743D01*
X63203Y2500791D01*
X63690Y2502839D01*
X64178Y2504790D01*
X64373Y2505570D01*
X64568Y2506351D01*
X64666Y2506936D01*
X64763Y2507326D01*
X76955Y2550632D01*
X87196D01*
X96365Y2518152D01*
Y2518055D01*
X96560Y2517567D01*
X96657Y2516982D01*
X96950Y2516104D01*
X97145Y2515031D01*
X97535Y2513763D01*
X97828Y2512300D01*
X98218Y2510740D01*
X98608Y2509082D01*
X98998Y2507326D01*
X99876Y2503425D01*
X100656Y2499426D01*
X101339Y2495427D01*
Y2495524D01*
X101437Y2495719D01*
Y2496012D01*
X101534Y2496499D01*
X101729Y2497085D01*
X101827Y2497767D01*
X102022Y2498548D01*
X102217Y2499426D01*
X102705Y2501474D01*
X103192Y2503912D01*
X103875Y2506546D01*
X104558Y2509374D01*
X114507Y2550632D01*
X123090D01*
X105631Y2486551D01*
D02*
G37*
G36*
X201801Y2543122D02*
X180733D01*
Y2486551D01*
X172248D01*
Y2543122D01*
X151180D01*
Y2550632D01*
X201801D01*
Y2543122D01*
D02*
G37*
G36*
X141036Y2486551D02*
X132551D01*
Y2550632D01*
X141036D01*
Y2486551D01*
D02*
G37*
G36*
X1811534Y-383190D02*
X1813094Y-383287D01*
X1814752Y-383385D01*
X1816313Y-383580D01*
X1817678Y-383775D01*
X1817873D01*
X1818459Y-383970D01*
X1819336Y-384165D01*
X1820409Y-384458D01*
X1821677Y-384848D01*
X1822945Y-385336D01*
X1824311Y-386018D01*
X1825579Y-386799D01*
X1825676Y-386896D01*
X1826164Y-387189D01*
X1826749Y-387676D01*
X1827432Y-388359D01*
X1828212Y-389237D01*
X1829090Y-390310D01*
X1829968Y-391480D01*
X1830748Y-392943D01*
X1830846Y-393138D01*
X1831041Y-393626D01*
X1831333Y-394406D01*
X1831724Y-395479D01*
X1832114Y-396747D01*
X1832406Y-398210D01*
X1832601Y-399868D01*
X1832699Y-401624D01*
Y-401722D01*
Y-402014D01*
Y-402404D01*
X1832601Y-402990D01*
X1832504Y-403672D01*
X1832406Y-404550D01*
X1832309Y-405428D01*
X1832016Y-406403D01*
X1831431Y-408647D01*
X1830456Y-410890D01*
X1829870Y-412060D01*
X1829188Y-413231D01*
X1828407Y-414401D01*
X1827432Y-415474D01*
X1827334Y-415572D01*
X1827139Y-415669D01*
X1826847Y-415962D01*
X1826457Y-416352D01*
X1825774Y-416742D01*
X1825091Y-417230D01*
X1824213Y-417717D01*
X1823140Y-418205D01*
X1821970Y-418790D01*
X1820604Y-419278D01*
X1819044Y-419766D01*
X1817386Y-420156D01*
X1815435Y-420546D01*
X1813387Y-420839D01*
X1811143Y-420936D01*
X1808705Y-421034D01*
X1792319D01*
Y-447173D01*
X1783833D01*
Y-383092D01*
X1810071D01*
X1811534Y-383190D01*
D02*
G37*
G36*
X1705512Y-390602D02*
X1684444D01*
Y-447173D01*
X1675959D01*
Y-390602D01*
X1654891D01*
Y-383092D01*
X1705512D01*
Y-390602D01*
D02*
G37*
G36*
X1579691Y-382897D02*
X1580471Y-382995D01*
X1581349Y-383092D01*
X1582324Y-383190D01*
X1583397Y-383482D01*
X1585738Y-384068D01*
X1588176Y-384945D01*
X1589444Y-385531D01*
X1590615Y-386213D01*
X1591687Y-387091D01*
X1592760Y-387969D01*
X1592858Y-388067D01*
X1592955Y-388164D01*
X1593248Y-388457D01*
X1593638Y-388847D01*
X1594028Y-389432D01*
X1594516Y-390017D01*
X1595491Y-391480D01*
X1596467Y-393333D01*
X1597345Y-395479D01*
X1598027Y-397918D01*
X1598125Y-399283D01*
X1598222Y-400649D01*
Y-400844D01*
Y-401331D01*
X1598125Y-402112D01*
X1598027Y-403087D01*
X1597832Y-404258D01*
X1597540Y-405525D01*
X1597149Y-406891D01*
X1596564Y-408256D01*
X1596467Y-408452D01*
X1596272Y-408939D01*
X1595881Y-409622D01*
X1595296Y-410597D01*
X1594614Y-411768D01*
X1593736Y-413133D01*
X1592565Y-414499D01*
X1591297Y-416059D01*
X1591102Y-416254D01*
X1590615Y-416840D01*
X1589737Y-417717D01*
X1589152Y-418303D01*
X1588469Y-418985D01*
X1587688Y-419766D01*
X1586713Y-420644D01*
X1585738Y-421521D01*
X1584665Y-422594D01*
X1583494Y-423667D01*
X1582129Y-424838D01*
X1580763Y-426008D01*
X1579203Y-427374D01*
X1579105Y-427471D01*
X1578910Y-427666D01*
X1578520Y-427959D01*
X1578032Y-428349D01*
X1576862Y-429324D01*
X1575399Y-430592D01*
X1573936Y-431958D01*
X1572375Y-433323D01*
X1571107Y-434494D01*
X1570620Y-434981D01*
X1570132Y-435469D01*
X1570034Y-435567D01*
X1569839Y-435859D01*
X1569449Y-436249D01*
X1568962Y-436835D01*
X1567889Y-438103D01*
X1566816Y-439663D01*
X1598320D01*
Y-447173D01*
X1555892D01*
Y-447076D01*
Y-446686D01*
Y-446100D01*
X1555989Y-445418D01*
X1556087Y-444637D01*
X1556184Y-443760D01*
X1556477Y-442784D01*
X1556770Y-441809D01*
Y-441711D01*
X1556867Y-441614D01*
X1557062Y-441029D01*
X1557452Y-440248D01*
X1558038Y-439078D01*
X1558720Y-437810D01*
X1559696Y-436347D01*
X1560671Y-434884D01*
X1561939Y-433323D01*
Y-433226D01*
X1562134Y-433128D01*
X1562622Y-432543D01*
X1563402Y-431665D01*
X1564572Y-430495D01*
X1566035Y-429129D01*
X1567791Y-427471D01*
X1569937Y-425618D01*
X1572278Y-423570D01*
X1572375Y-423472D01*
X1572765Y-423179D01*
X1573253Y-422789D01*
X1573936Y-422107D01*
X1574814Y-421424D01*
X1575789Y-420546D01*
X1577935Y-418693D01*
X1580276Y-416450D01*
X1582617Y-414206D01*
X1583787Y-413133D01*
X1584762Y-412060D01*
X1585640Y-410987D01*
X1586420Y-410012D01*
Y-409915D01*
X1586616Y-409817D01*
X1586811Y-409524D01*
X1587006Y-409134D01*
X1587591Y-408159D01*
X1588274Y-406891D01*
X1588956Y-405428D01*
X1589542Y-403867D01*
X1589932Y-402112D01*
X1590127Y-400454D01*
Y-400356D01*
Y-400259D01*
X1590029Y-399673D01*
X1589932Y-398795D01*
X1589737Y-397723D01*
X1589249Y-396455D01*
X1588664Y-395187D01*
X1587884Y-393821D01*
X1586713Y-392553D01*
X1586518Y-392456D01*
X1586128Y-392066D01*
X1585348Y-391578D01*
X1584372Y-390895D01*
X1583104Y-390310D01*
X1581641Y-389822D01*
X1579886Y-389432D01*
X1577935Y-389335D01*
X1577350D01*
X1576960Y-389432D01*
X1575984Y-389530D01*
X1574716Y-389725D01*
X1573253Y-390212D01*
X1571693Y-390798D01*
X1570230Y-391675D01*
X1568864Y-392846D01*
X1568766Y-393041D01*
X1568376Y-393431D01*
X1567791Y-394211D01*
X1567206Y-395284D01*
X1566523Y-396650D01*
X1566035Y-398210D01*
X1565645Y-400063D01*
X1565450Y-402209D01*
X1557355Y-401331D01*
Y-401234D01*
Y-400941D01*
X1557452Y-400454D01*
X1557550Y-399868D01*
X1557745Y-399088D01*
X1557842Y-398210D01*
X1558428Y-396260D01*
X1559208Y-394016D01*
X1560281Y-391773D01*
X1561744Y-389530D01*
X1562524Y-388554D01*
X1563500Y-387579D01*
X1563597Y-387481D01*
X1563792Y-387384D01*
X1564085Y-387091D01*
X1564475Y-386799D01*
X1565060Y-386506D01*
X1565743Y-386018D01*
X1566523Y-385628D01*
X1567401Y-385140D01*
X1568376Y-384750D01*
X1569449Y-384263D01*
X1570717Y-383872D01*
X1571985Y-383580D01*
X1574911Y-382995D01*
X1576472Y-382897D01*
X1578130Y-382800D01*
X1579008D01*
X1579691Y-382897D01*
D02*
G37*
G36*
X1547016Y-390602D02*
X1509172D01*
Y-410305D01*
X1544578D01*
Y-417815D01*
X1509172D01*
Y-439663D01*
X1548479D01*
Y-447173D01*
X1500686D01*
Y-383092D01*
X1547016D01*
Y-390602D01*
D02*
G37*
G36*
X1743746Y-382117D02*
X1744526D01*
X1745502Y-382214D01*
X1746477Y-382409D01*
X1747648Y-382507D01*
X1750086Y-383092D01*
X1752817Y-383872D01*
X1755548Y-384848D01*
X1756913Y-385531D01*
X1758279Y-386311D01*
X1758376D01*
X1758572Y-386506D01*
X1758962Y-386701D01*
X1759449Y-387091D01*
X1760035Y-387481D01*
X1760717Y-388067D01*
X1762278Y-389335D01*
X1764034Y-390993D01*
X1765887Y-393041D01*
X1767545Y-395382D01*
X1769105Y-398113D01*
Y-398210D01*
X1769300Y-398503D01*
X1769496Y-398893D01*
X1769691Y-399478D01*
X1769983Y-400161D01*
X1770276Y-401039D01*
X1770666Y-402014D01*
X1771056Y-403087D01*
X1771349Y-404355D01*
X1771739Y-405623D01*
X1772324Y-408549D01*
X1772714Y-411768D01*
X1772909Y-415279D01*
Y-415377D01*
Y-415669D01*
Y-416254D01*
X1772812Y-416937D01*
Y-417815D01*
X1772714Y-418790D01*
X1772617Y-419863D01*
X1772422Y-421131D01*
X1771934Y-423862D01*
X1771251Y-426788D01*
X1770276Y-429812D01*
X1768910Y-432738D01*
Y-432836D01*
X1768715Y-433031D01*
X1768520Y-433421D01*
X1768228Y-434006D01*
X1767740Y-434591D01*
X1767252Y-435371D01*
X1766082Y-437030D01*
X1764521Y-438883D01*
X1762571Y-440834D01*
X1760327Y-442687D01*
X1757791Y-444345D01*
X1757694D01*
X1757499Y-444540D01*
X1757109Y-444735D01*
X1756523Y-444930D01*
X1755841Y-445223D01*
X1755060Y-445613D01*
X1754182Y-445905D01*
X1753110Y-446296D01*
X1750866Y-446978D01*
X1748233Y-447661D01*
X1745307Y-448051D01*
X1742283Y-448246D01*
X1741405D01*
X1740722Y-448149D01*
X1739942D01*
X1739064Y-448051D01*
X1737991Y-447856D01*
X1736821Y-447661D01*
X1734383Y-447173D01*
X1731652Y-446393D01*
X1728823Y-445320D01*
X1727458Y-444735D01*
X1726092Y-443955D01*
X1725995Y-443857D01*
X1725799Y-443760D01*
X1725409Y-443467D01*
X1724922Y-443174D01*
X1724336Y-442687D01*
X1723654Y-442199D01*
X1722093Y-440834D01*
X1720337Y-439078D01*
X1718484Y-437127D01*
X1716826Y-434689D01*
X1715266Y-432055D01*
Y-431958D01*
X1715070Y-431665D01*
X1714973Y-431275D01*
X1714680Y-430690D01*
X1714388Y-430007D01*
X1714095Y-429227D01*
X1713803Y-428251D01*
X1713510Y-427178D01*
X1713120Y-426008D01*
X1712827Y-424838D01*
X1712242Y-422107D01*
X1711852Y-419181D01*
X1711657Y-416059D01*
Y-415864D01*
Y-415377D01*
X1711754Y-414499D01*
Y-413426D01*
X1711949Y-412060D01*
X1712144Y-410500D01*
X1712339Y-408842D01*
X1712730Y-406891D01*
X1713217Y-404940D01*
X1713705Y-402892D01*
X1714388Y-400844D01*
X1715266Y-398795D01*
X1716241Y-396747D01*
X1717314Y-394699D01*
X1718679Y-392846D01*
X1720142Y-391090D01*
X1720240Y-390993D01*
X1720532Y-390700D01*
X1721020Y-390212D01*
X1721703Y-389627D01*
X1722581Y-388944D01*
X1723556Y-388262D01*
X1724727Y-387384D01*
X1726092Y-386506D01*
X1727653Y-385726D01*
X1729311Y-384848D01*
X1731164Y-384165D01*
X1733115Y-383385D01*
X1735163Y-382897D01*
X1737406Y-382409D01*
X1739845Y-382117D01*
X1742283Y-382019D01*
X1743161D01*
X1743746Y-382117D01*
D02*
G37*
G36*
X1460404D02*
X1461184D01*
X1462160Y-382214D01*
X1463135Y-382409D01*
X1464305Y-382507D01*
X1466744Y-383092D01*
X1469475Y-383872D01*
X1472206Y-384848D01*
X1473571Y-385531D01*
X1474937Y-386311D01*
X1475034D01*
X1475229Y-386506D01*
X1475620Y-386701D01*
X1476107Y-387091D01*
X1476693Y-387481D01*
X1477375Y-388067D01*
X1478936Y-389335D01*
X1480691Y-390993D01*
X1482545Y-393041D01*
X1484203Y-395382D01*
X1485763Y-398113D01*
Y-398210D01*
X1485958Y-398503D01*
X1486153Y-398893D01*
X1486349Y-399478D01*
X1486641Y-400161D01*
X1486934Y-401039D01*
X1487324Y-402014D01*
X1487714Y-403087D01*
X1488007Y-404355D01*
X1488397Y-405623D01*
X1488982Y-408549D01*
X1489372Y-411768D01*
X1489567Y-415279D01*
Y-415377D01*
Y-415669D01*
Y-416254D01*
X1489470Y-416937D01*
Y-417815D01*
X1489372Y-418790D01*
X1489275Y-419863D01*
X1489080Y-421131D01*
X1488592Y-423862D01*
X1487909Y-426788D01*
X1486934Y-429812D01*
X1485568Y-432738D01*
Y-432836D01*
X1485373Y-433031D01*
X1485178Y-433421D01*
X1484886Y-434006D01*
X1484398Y-434591D01*
X1483910Y-435371D01*
X1482740Y-437030D01*
X1481179Y-438883D01*
X1479228Y-440834D01*
X1476985Y-442687D01*
X1474449Y-444345D01*
X1474352D01*
X1474157Y-444540D01*
X1473766Y-444735D01*
X1473181Y-444930D01*
X1472498Y-445223D01*
X1471718Y-445613D01*
X1470840Y-445905D01*
X1469767Y-446296D01*
X1467524Y-446978D01*
X1464891Y-447661D01*
X1461965Y-448051D01*
X1458941Y-448246D01*
X1458063D01*
X1457380Y-448149D01*
X1456600D01*
X1455722Y-448051D01*
X1454649Y-447856D01*
X1453479Y-447661D01*
X1451041Y-447173D01*
X1448310Y-446393D01*
X1445481Y-445320D01*
X1444115Y-444735D01*
X1442750Y-443955D01*
X1442652Y-443857D01*
X1442457Y-443760D01*
X1442067Y-443467D01*
X1441580Y-443174D01*
X1440994Y-442687D01*
X1440312Y-442199D01*
X1438751Y-440834D01*
X1436995Y-439078D01*
X1435142Y-437127D01*
X1433484Y-434689D01*
X1431923Y-432055D01*
Y-431958D01*
X1431728Y-431665D01*
X1431631Y-431275D01*
X1431338Y-430690D01*
X1431046Y-430007D01*
X1430753Y-429227D01*
X1430460Y-428251D01*
X1430168Y-427178D01*
X1429778Y-426008D01*
X1429485Y-424838D01*
X1428900Y-422107D01*
X1428510Y-419181D01*
X1428315Y-416059D01*
Y-415864D01*
Y-415377D01*
X1428412Y-414499D01*
Y-413426D01*
X1428607Y-412060D01*
X1428802Y-410500D01*
X1428997Y-408842D01*
X1429388Y-406891D01*
X1429875Y-404940D01*
X1430363Y-402892D01*
X1431046Y-400844D01*
X1431923Y-398795D01*
X1432899Y-396747D01*
X1433972Y-394699D01*
X1435337Y-392846D01*
X1436800Y-391090D01*
X1436898Y-390993D01*
X1437190Y-390700D01*
X1437678Y-390212D01*
X1438361Y-389627D01*
X1439239Y-388944D01*
X1440214Y-388262D01*
X1441384Y-387384D01*
X1442750Y-386506D01*
X1444311Y-385726D01*
X1445969Y-384848D01*
X1447822Y-384165D01*
X1449773Y-383385D01*
X1451821Y-382897D01*
X1454064Y-382409D01*
X1456503Y-382117D01*
X1458941Y-382019D01*
X1459819D01*
X1460404Y-382117D01*
D02*
G37*
G36*
X1653720Y-464925D02*
X1601636D01*
Y-459268D01*
X1653720D01*
Y-464925D01*
D02*
G37*
G36*
X1254995Y251735D02*
X1202911D01*
Y257392D01*
X1254995D01*
Y251735D01*
D02*
G37*
G36*
X1355945Y175559D02*
X1309616D01*
Y183069D01*
X1347460D01*
Y202772D01*
X1312054D01*
Y210282D01*
X1347460D01*
Y232130D01*
X1308153D01*
Y239640D01*
X1355945D01*
Y175559D01*
D02*
G37*
G36*
X1197352D02*
X1172187D01*
X1171505Y175657D01*
X1170822D01*
X1169164Y175754D01*
X1167311Y176047D01*
X1165360Y176340D01*
X1163409Y176827D01*
X1161654Y177510D01*
X1161556D01*
X1161458Y177607D01*
X1160873Y177900D01*
X1160093Y178388D01*
X1159118Y178973D01*
X1157947Y179851D01*
X1156777Y180924D01*
X1155704Y182094D01*
X1154631Y183557D01*
X1154533Y183752D01*
X1154241Y184240D01*
X1153851Y185118D01*
X1153363Y186191D01*
X1152875Y187459D01*
X1152485Y188824D01*
X1152193Y190385D01*
X1152095Y192043D01*
Y192238D01*
Y192726D01*
X1152193Y193506D01*
X1152388Y194579D01*
X1152680Y195749D01*
X1153070Y197017D01*
X1153558Y198480D01*
X1154338Y199846D01*
X1154436Y200041D01*
X1154728Y200431D01*
X1155314Y201114D01*
X1155996Y201894D01*
X1156972Y202869D01*
X1158142Y203747D01*
X1159508Y204722D01*
X1161166Y205600D01*
X1161068D01*
X1160873Y205698D01*
X1160581Y205795D01*
X1160190Y205893D01*
X1159118Y206381D01*
X1157850Y206966D01*
X1156387Y207844D01*
X1154924Y208819D01*
X1153460Y209989D01*
X1152193Y211452D01*
X1152095Y211648D01*
X1151705Y212135D01*
X1151217Y213013D01*
X1150534Y214183D01*
X1149949Y215647D01*
X1149462Y217207D01*
X1149071Y219060D01*
X1148974Y221109D01*
Y221304D01*
Y221889D01*
X1149071Y222767D01*
X1149169Y223840D01*
X1149462Y225108D01*
X1149754Y226571D01*
X1150242Y228034D01*
X1150925Y229497D01*
X1151022Y229692D01*
X1151217Y230179D01*
X1151705Y230862D01*
X1152193Y231740D01*
X1152875Y232715D01*
X1153656Y233691D01*
X1154631Y234666D01*
X1155606Y235544D01*
X1155704Y235641D01*
X1156094Y235836D01*
X1156679Y236227D01*
X1157557Y236714D01*
X1158532Y237202D01*
X1159800Y237690D01*
X1161166Y238177D01*
X1162629Y238665D01*
X1162824D01*
X1163409Y238860D01*
X1164287Y238958D01*
X1165457Y239153D01*
X1167018Y239348D01*
X1168774Y239445D01*
X1170724Y239640D01*
X1197352D01*
Y175559D01*
D02*
G37*
G36*
X1051438Y183069D02*
X1072506D01*
Y175559D01*
X1021884D01*
Y183069D01*
X1042952D01*
Y239640D01*
X1051438D01*
Y183069D01*
D02*
G37*
G36*
X1300740Y239543D02*
Y239153D01*
Y238567D01*
X1300642Y237885D01*
X1300545Y237104D01*
X1300447Y236227D01*
X1300155Y235251D01*
X1299862Y234276D01*
Y234178D01*
X1299764Y234081D01*
X1299569Y233496D01*
X1299179Y232715D01*
X1298594Y231545D01*
X1297911Y230277D01*
X1296936Y228814D01*
X1295961Y227351D01*
X1294693Y225790D01*
Y225693D01*
X1294498Y225595D01*
X1294010Y225010D01*
X1293230Y224132D01*
X1292059Y222962D01*
X1290596Y221596D01*
X1288840Y219938D01*
X1286695Y218085D01*
X1284354Y216037D01*
X1284256Y215939D01*
X1283866Y215647D01*
X1283378Y215256D01*
X1282696Y214574D01*
X1281818Y213891D01*
X1280842Y213013D01*
X1278697Y211160D01*
X1276356Y208917D01*
X1274015Y206673D01*
X1272845Y205600D01*
X1271869Y204527D01*
X1270991Y203455D01*
X1270211Y202479D01*
Y202382D01*
X1270016Y202284D01*
X1269821Y201991D01*
X1269626Y201601D01*
X1269041Y200626D01*
X1268358Y199358D01*
X1267675Y197895D01*
X1267090Y196334D01*
X1266700Y194579D01*
X1266505Y192921D01*
Y192823D01*
Y192726D01*
X1266602Y192140D01*
X1266700Y191263D01*
X1266895Y190190D01*
X1267383Y188922D01*
X1267968Y187654D01*
X1268748Y186288D01*
X1269918Y185020D01*
X1270114Y184923D01*
X1270504Y184533D01*
X1271284Y184045D01*
X1272259Y183362D01*
X1273527Y182777D01*
X1274990Y182289D01*
X1276746Y181899D01*
X1278697Y181802D01*
X1279282D01*
X1279672Y181899D01*
X1280647Y181997D01*
X1281915Y182192D01*
X1283378Y182679D01*
X1284939Y183265D01*
X1286402Y184142D01*
X1287768Y185313D01*
X1287865Y185508D01*
X1288255Y185898D01*
X1288840Y186678D01*
X1289426Y187751D01*
X1290108Y189117D01*
X1290596Y190677D01*
X1290986Y192530D01*
X1291181Y194676D01*
X1299277Y193798D01*
Y193701D01*
Y193408D01*
X1299179Y192921D01*
X1299082Y192335D01*
X1298887Y191555D01*
X1298789Y190677D01*
X1298204Y188727D01*
X1297424Y186483D01*
X1296351Y184240D01*
X1294888Y181997D01*
X1294107Y181021D01*
X1293132Y180046D01*
X1293034Y179948D01*
X1292839Y179851D01*
X1292547Y179558D01*
X1292157Y179266D01*
X1291571Y178973D01*
X1290889Y178485D01*
X1290108Y178095D01*
X1289231Y177607D01*
X1288255Y177217D01*
X1287182Y176730D01*
X1285914Y176340D01*
X1284646Y176047D01*
X1281720Y175462D01*
X1280160Y175364D01*
X1278502Y175267D01*
X1277624D01*
X1276941Y175364D01*
X1276161Y175462D01*
X1275283Y175559D01*
X1274308Y175657D01*
X1273235Y175949D01*
X1270894Y176535D01*
X1268455Y177412D01*
X1267187Y177998D01*
X1266017Y178680D01*
X1264944Y179558D01*
X1263871Y180436D01*
X1263774Y180534D01*
X1263676Y180631D01*
X1263384Y180924D01*
X1262993Y181314D01*
X1262603Y181899D01*
X1262116Y182484D01*
X1261140Y183947D01*
X1260165Y185800D01*
X1259287Y187946D01*
X1258604Y190385D01*
X1258507Y191750D01*
X1258409Y193116D01*
Y193311D01*
Y193798D01*
X1258507Y194579D01*
X1258604Y195554D01*
X1258799Y196725D01*
X1259092Y197992D01*
X1259482Y199358D01*
X1260067Y200723D01*
X1260165Y200919D01*
X1260360Y201406D01*
X1260750Y202089D01*
X1261335Y203064D01*
X1262018Y204235D01*
X1262896Y205600D01*
X1264066Y206966D01*
X1265334Y208526D01*
X1265529Y208721D01*
X1266017Y209307D01*
X1266895Y210184D01*
X1267480Y210770D01*
X1268163Y211452D01*
X1268943Y212233D01*
X1269918Y213111D01*
X1270894Y213988D01*
X1271967Y215061D01*
X1273137Y216134D01*
X1274503Y217305D01*
X1275868Y218475D01*
X1277429Y219841D01*
X1277526Y219938D01*
X1277721Y220133D01*
X1278111Y220426D01*
X1278599Y220816D01*
X1279770Y221791D01*
X1281233Y223059D01*
X1282696Y224425D01*
X1284256Y225790D01*
X1285524Y226961D01*
X1286012Y227448D01*
X1286500Y227936D01*
X1286597Y228034D01*
X1286792Y228326D01*
X1287182Y228716D01*
X1287670Y229302D01*
X1288743Y230570D01*
X1289816Y232130D01*
X1258312D01*
Y239640D01*
X1300740D01*
Y239543D01*
D02*
G37*
G36*
X1399251Y240616D02*
X1400031D01*
X1400909Y240518D01*
X1401982Y240323D01*
X1403153Y240128D01*
X1405591Y239640D01*
X1408322Y238860D01*
X1411151Y237787D01*
X1412516Y237202D01*
X1413882Y236422D01*
X1413979Y236324D01*
X1414174Y236227D01*
X1414564Y235934D01*
X1415052Y235641D01*
X1415637Y235154D01*
X1416320Y234666D01*
X1417881Y233301D01*
X1419636Y231545D01*
X1421489Y229594D01*
X1423148Y227156D01*
X1424708Y224522D01*
Y224425D01*
X1424903Y224132D01*
X1425001Y223742D01*
X1425293Y223157D01*
X1425586Y222474D01*
X1425879Y221694D01*
X1426171Y220718D01*
X1426464Y219645D01*
X1426854Y218475D01*
X1427146Y217305D01*
X1427732Y214574D01*
X1428122Y211648D01*
X1428317Y208526D01*
Y208331D01*
Y207844D01*
X1428219Y206966D01*
Y205893D01*
X1428024Y204527D01*
X1427829Y202967D01*
X1427634Y201309D01*
X1427244Y199358D01*
X1426756Y197407D01*
X1426269Y195359D01*
X1425586Y193311D01*
X1424708Y191263D01*
X1423733Y189214D01*
X1422660Y187166D01*
X1421294Y185313D01*
X1419831Y183557D01*
X1419734Y183460D01*
X1419441Y183167D01*
X1418953Y182679D01*
X1418271Y182094D01*
X1417393Y181411D01*
X1416418Y180729D01*
X1415247Y179851D01*
X1413882Y178973D01*
X1412321Y178193D01*
X1410663Y177315D01*
X1408810Y176632D01*
X1406859Y175852D01*
X1404811Y175364D01*
X1402567Y174876D01*
X1400129Y174584D01*
X1397691Y174486D01*
X1396813D01*
X1396228Y174584D01*
X1395447D01*
X1394472Y174681D01*
X1393497Y174876D01*
X1392326Y174974D01*
X1389888Y175559D01*
X1387157Y176340D01*
X1384426Y177315D01*
X1383060Y177998D01*
X1381695Y178778D01*
X1381597D01*
X1381402Y178973D01*
X1381012Y179168D01*
X1380524Y179558D01*
X1379939Y179948D01*
X1379256Y180534D01*
X1377696Y181802D01*
X1375940Y183460D01*
X1374087Y185508D01*
X1372429Y187849D01*
X1370868Y190580D01*
Y190677D01*
X1370673Y190970D01*
X1370478Y191360D01*
X1370283Y191945D01*
X1369990Y192628D01*
X1369698Y193506D01*
X1369308Y194481D01*
X1368918Y195554D01*
X1368625Y196822D01*
X1368235Y198090D01*
X1367650Y201016D01*
X1367259Y204235D01*
X1367064Y207746D01*
Y207844D01*
Y208136D01*
Y208721D01*
X1367162Y209404D01*
Y210282D01*
X1367259Y211257D01*
X1367357Y212330D01*
X1367552Y213598D01*
X1368040Y216329D01*
X1368722Y219255D01*
X1369698Y222279D01*
X1371063Y225205D01*
Y225303D01*
X1371258Y225498D01*
X1371453Y225888D01*
X1371746Y226473D01*
X1372234Y227058D01*
X1372721Y227839D01*
X1373892Y229497D01*
X1375452Y231350D01*
X1377403Y233301D01*
X1379646Y235154D01*
X1382182Y236812D01*
X1382280D01*
X1382475Y237007D01*
X1382865Y237202D01*
X1383450Y237397D01*
X1384133Y237690D01*
X1384913Y238080D01*
X1385791Y238372D01*
X1386864Y238763D01*
X1389107Y239445D01*
X1391741Y240128D01*
X1394667Y240518D01*
X1397691Y240713D01*
X1398568D01*
X1399251Y240616D01*
D02*
G37*
G36*
X1110837D02*
X1111618D01*
X1112495Y240518D01*
X1113568Y240323D01*
X1114739Y240128D01*
X1117177Y239640D01*
X1119908Y238860D01*
X1122737Y237787D01*
X1124102Y237202D01*
X1125468Y236422D01*
X1125565Y236324D01*
X1125760Y236227D01*
X1126150Y235934D01*
X1126638Y235641D01*
X1127223Y235154D01*
X1127906Y234666D01*
X1129467Y233301D01*
X1131222Y231545D01*
X1133075Y229594D01*
X1134734Y227156D01*
X1136294Y224522D01*
Y224425D01*
X1136489Y224132D01*
X1136587Y223742D01*
X1136879Y223157D01*
X1137172Y222474D01*
X1137465Y221694D01*
X1137757Y220718D01*
X1138050Y219645D01*
X1138440Y218475D01*
X1138733Y217305D01*
X1139318Y214574D01*
X1139708Y211648D01*
X1139903Y208526D01*
Y208331D01*
Y207844D01*
X1139805Y206966D01*
Y205893D01*
X1139610Y204527D01*
X1139415Y202967D01*
X1139220Y201309D01*
X1138830Y199358D01*
X1138342Y197407D01*
X1137855Y195359D01*
X1137172Y193311D01*
X1136294Y191263D01*
X1135319Y189214D01*
X1134246Y187166D01*
X1132880Y185313D01*
X1131417Y183557D01*
X1131320Y183460D01*
X1131027Y183167D01*
X1130540Y182679D01*
X1129857Y182094D01*
X1128979Y181411D01*
X1128004Y180729D01*
X1126833Y179851D01*
X1125468Y178973D01*
X1123907Y178193D01*
X1122249Y177315D01*
X1120396Y176632D01*
X1118445Y175852D01*
X1116397Y175364D01*
X1114153Y174876D01*
X1111715Y174584D01*
X1109277Y174486D01*
X1108399D01*
X1107814Y174584D01*
X1107033D01*
X1106058Y174681D01*
X1105083Y174876D01*
X1103912Y174974D01*
X1101474Y175559D01*
X1098743Y176340D01*
X1096012Y177315D01*
X1094646Y177998D01*
X1093281Y178778D01*
X1093183D01*
X1092988Y178973D01*
X1092598Y179168D01*
X1092110Y179558D01*
X1091525Y179948D01*
X1090842Y180534D01*
X1089282Y181802D01*
X1087526Y183460D01*
X1085673Y185508D01*
X1084015Y187849D01*
X1082454Y190580D01*
Y190677D01*
X1082259Y190970D01*
X1082064Y191360D01*
X1081869Y191945D01*
X1081576Y192628D01*
X1081284Y193506D01*
X1080894Y194481D01*
X1080504Y195554D01*
X1080211Y196822D01*
X1079821Y198090D01*
X1079236Y201016D01*
X1078845Y204235D01*
X1078650Y207746D01*
Y207844D01*
Y208136D01*
Y208721D01*
X1078748Y209404D01*
Y210282D01*
X1078845Y211257D01*
X1078943Y212330D01*
X1079138Y213598D01*
X1079626Y216329D01*
X1080308Y219255D01*
X1081284Y222279D01*
X1082649Y225205D01*
Y225303D01*
X1082844Y225498D01*
X1083039Y225888D01*
X1083332Y226473D01*
X1083820Y227058D01*
X1084307Y227839D01*
X1085478Y229497D01*
X1087038Y231350D01*
X1088989Y233301D01*
X1091233Y235154D01*
X1093768Y236812D01*
X1093866D01*
X1094061Y237007D01*
X1094451Y237202D01*
X1095036Y237397D01*
X1095719Y237690D01*
X1096499Y238080D01*
X1097377Y238372D01*
X1098450Y238763D01*
X1100694Y239445D01*
X1103327Y240128D01*
X1106253Y240518D01*
X1109277Y240713D01*
X1110154D01*
X1110837Y240616D01*
D02*
G37*
%LPC*%
G36*
X1810558Y-390602D02*
X1792319D01*
Y-413523D01*
X1809583D01*
X1810168Y-413426D01*
X1810851D01*
X1811534Y-413328D01*
X1813289Y-413133D01*
X1815240Y-412743D01*
X1817191Y-412255D01*
X1818946Y-411475D01*
X1819727Y-410987D01*
X1820409Y-410500D01*
X1820604Y-410402D01*
X1820995Y-409915D01*
X1821482Y-409232D01*
X1822165Y-408256D01*
X1822848Y-407086D01*
X1823335Y-405623D01*
X1823726Y-403867D01*
X1823921Y-401917D01*
Y-401722D01*
Y-401234D01*
X1823823Y-400454D01*
X1823628Y-399478D01*
X1823433Y-398405D01*
X1823043Y-397235D01*
X1822555Y-396064D01*
X1821872Y-394992D01*
X1821775Y-394894D01*
X1821482Y-394504D01*
X1821092Y-394016D01*
X1820409Y-393431D01*
X1819629Y-392846D01*
X1818751Y-392163D01*
X1817678Y-391675D01*
X1816508Y-391188D01*
X1816410D01*
X1816118Y-391090D01*
X1815533Y-390993D01*
X1814752Y-390895D01*
X1813679Y-390798D01*
X1812314Y-390700D01*
X1810558Y-390602D01*
D02*
G37*
G36*
X1742283Y-389335D02*
X1741405D01*
X1740820Y-389432D01*
X1740040Y-389530D01*
X1739064Y-389627D01*
X1738089Y-389822D01*
X1737016Y-390115D01*
X1734578Y-390895D01*
X1733310Y-391383D01*
X1732042Y-391968D01*
X1730676Y-392651D01*
X1729408Y-393529D01*
X1728140Y-394504D01*
X1726872Y-395577D01*
X1726775Y-395674D01*
X1726580Y-395869D01*
X1726287Y-396260D01*
X1725897Y-396747D01*
X1725409Y-397430D01*
X1724824Y-398308D01*
X1724239Y-399283D01*
X1723654Y-400454D01*
X1723068Y-401819D01*
X1722483Y-403282D01*
X1721898Y-404940D01*
X1721410Y-406891D01*
X1721020Y-408939D01*
X1720728Y-411085D01*
X1720532Y-413523D01*
X1720435Y-416157D01*
Y-416254D01*
Y-416645D01*
Y-417230D01*
X1720532Y-418108D01*
X1720630Y-419083D01*
X1720728Y-420156D01*
X1720923Y-421424D01*
X1721215Y-422789D01*
X1721898Y-425715D01*
X1722483Y-427178D01*
X1723068Y-428739D01*
X1723751Y-430202D01*
X1724531Y-431665D01*
X1725507Y-433128D01*
X1726580Y-434396D01*
X1726677Y-434494D01*
X1726872Y-434689D01*
X1727262Y-434981D01*
X1727750Y-435469D01*
X1728335Y-435957D01*
X1729018Y-436444D01*
X1729896Y-437127D01*
X1730871Y-437712D01*
X1731944Y-438298D01*
X1733115Y-438883D01*
X1734383Y-439468D01*
X1735846Y-439956D01*
X1737309Y-440443D01*
X1738869Y-440736D01*
X1740430Y-440931D01*
X1742185Y-441029D01*
X1743063D01*
X1743746Y-440931D01*
X1744624Y-440834D01*
X1745502Y-440638D01*
X1746575Y-440443D01*
X1747745Y-440151D01*
X1750183Y-439370D01*
X1751549Y-438883D01*
X1752817Y-438200D01*
X1754182Y-437420D01*
X1755450Y-436542D01*
X1756718Y-435567D01*
X1757889Y-434396D01*
X1757986Y-434299D01*
X1758181Y-434104D01*
X1758474Y-433713D01*
X1758864Y-433128D01*
X1759352Y-432445D01*
X1759840Y-431568D01*
X1760425Y-430592D01*
X1761010Y-429519D01*
X1761595Y-428154D01*
X1762180Y-426788D01*
X1762668Y-425228D01*
X1763156Y-423472D01*
X1763546Y-421619D01*
X1763838Y-419668D01*
X1764034Y-417522D01*
X1764131Y-415279D01*
Y-415182D01*
Y-414889D01*
Y-414499D01*
Y-414011D01*
X1764034Y-413328D01*
Y-412451D01*
X1763838Y-410597D01*
X1763448Y-408549D01*
X1762961Y-406208D01*
X1762278Y-403867D01*
X1761400Y-401624D01*
Y-401527D01*
X1761303Y-401331D01*
X1761107Y-401039D01*
X1760912Y-400649D01*
X1760327Y-399576D01*
X1759449Y-398308D01*
X1758376Y-396845D01*
X1757011Y-395284D01*
X1755450Y-393821D01*
X1753695Y-392553D01*
X1753597D01*
X1753500Y-392456D01*
X1753207Y-392261D01*
X1752817Y-392066D01*
X1751744Y-391578D01*
X1750379Y-390895D01*
X1748720Y-390310D01*
X1746770Y-389822D01*
X1744624Y-389432D01*
X1742283Y-389335D01*
D02*
G37*
G36*
X1458941D02*
X1458063D01*
X1457478Y-389432D01*
X1456698Y-389530D01*
X1455722Y-389627D01*
X1454747Y-389822D01*
X1453674Y-390115D01*
X1451236Y-390895D01*
X1449968Y-391383D01*
X1448700Y-391968D01*
X1447334Y-392651D01*
X1446066Y-393529D01*
X1444798Y-394504D01*
X1443530Y-395577D01*
X1443433Y-395674D01*
X1443238Y-395869D01*
X1442945Y-396260D01*
X1442555Y-396747D01*
X1442067Y-397430D01*
X1441482Y-398308D01*
X1440897Y-399283D01*
X1440312Y-400454D01*
X1439726Y-401819D01*
X1439141Y-403282D01*
X1438556Y-404940D01*
X1438068Y-406891D01*
X1437678Y-408939D01*
X1437385Y-411085D01*
X1437190Y-413523D01*
X1437093Y-416157D01*
Y-416254D01*
Y-416645D01*
Y-417230D01*
X1437190Y-418108D01*
X1437288Y-419083D01*
X1437385Y-420156D01*
X1437581Y-421424D01*
X1437873Y-422789D01*
X1438556Y-425715D01*
X1439141Y-427178D01*
X1439726Y-428739D01*
X1440409Y-430202D01*
X1441189Y-431665D01*
X1442165Y-433128D01*
X1443238Y-434396D01*
X1443335Y-434494D01*
X1443530Y-434689D01*
X1443920Y-434981D01*
X1444408Y-435469D01*
X1444993Y-435957D01*
X1445676Y-436444D01*
X1446554Y-437127D01*
X1447529Y-437712D01*
X1448602Y-438298D01*
X1449773Y-438883D01*
X1451041Y-439468D01*
X1452504Y-439956D01*
X1453967Y-440443D01*
X1455527Y-440736D01*
X1457088Y-440931D01*
X1458843Y-441029D01*
X1459721D01*
X1460404Y-440931D01*
X1461282Y-440834D01*
X1462160Y-440638D01*
X1463233Y-440443D01*
X1464403Y-440151D01*
X1466841Y-439370D01*
X1468207Y-438883D01*
X1469475Y-438200D01*
X1470840Y-437420D01*
X1472108Y-436542D01*
X1473376Y-435567D01*
X1474547Y-434396D01*
X1474644Y-434299D01*
X1474839Y-434104D01*
X1475132Y-433713D01*
X1475522Y-433128D01*
X1476010Y-432445D01*
X1476497Y-431568D01*
X1477083Y-430592D01*
X1477668Y-429519D01*
X1478253Y-428154D01*
X1478838Y-426788D01*
X1479326Y-425228D01*
X1479814Y-423472D01*
X1480204Y-421619D01*
X1480496Y-419668D01*
X1480691Y-417522D01*
X1480789Y-415279D01*
Y-415182D01*
Y-414889D01*
Y-414499D01*
Y-414011D01*
X1480691Y-413328D01*
Y-412451D01*
X1480496Y-410597D01*
X1480106Y-408549D01*
X1479619Y-406208D01*
X1478936Y-403867D01*
X1478058Y-401624D01*
Y-401527D01*
X1477960Y-401331D01*
X1477765Y-401039D01*
X1477570Y-400649D01*
X1476985Y-399576D01*
X1476107Y-398308D01*
X1475034Y-396845D01*
X1473669Y-395284D01*
X1472108Y-393821D01*
X1470353Y-392553D01*
X1470255D01*
X1470158Y-392456D01*
X1469865Y-392261D01*
X1469475Y-392066D01*
X1468402Y-391578D01*
X1467036Y-390895D01*
X1465378Y-390310D01*
X1463428Y-389822D01*
X1461282Y-389432D01*
X1458941Y-389335D01*
D02*
G37*
G36*
X1188866Y232130D02*
X1170724D01*
X1168774Y232033D01*
X1167896Y231935D01*
X1167213Y231837D01*
X1167116D01*
X1166725Y231740D01*
X1166140Y231642D01*
X1165457Y231447D01*
X1163897Y230960D01*
X1162336Y230179D01*
X1162239Y230082D01*
X1161946Y229984D01*
X1161654Y229692D01*
X1161166Y229204D01*
X1160581Y228716D01*
X1160093Y228131D01*
X1159508Y227351D01*
X1159020Y226571D01*
X1158922Y226473D01*
X1158825Y226180D01*
X1158630Y225693D01*
X1158337Y225010D01*
X1158142Y224230D01*
X1157947Y223254D01*
X1157850Y222279D01*
X1157752Y221109D01*
Y220913D01*
Y220523D01*
X1157850Y219841D01*
X1157947Y219060D01*
X1158240Y218085D01*
X1158532Y217012D01*
X1159020Y215939D01*
X1159703Y214964D01*
X1159800Y214866D01*
X1159995Y214476D01*
X1160483Y214086D01*
X1161068Y213501D01*
X1161751Y212818D01*
X1162629Y212233D01*
X1163604Y211648D01*
X1164775Y211160D01*
X1164970Y211062D01*
X1165360Y210965D01*
X1166140Y210770D01*
X1167116Y210575D01*
X1168481Y210380D01*
X1170042Y210282D01*
X1171992Y210087D01*
X1188866D01*
Y232130D01*
D02*
G37*
G36*
Y202577D02*
X1173163D01*
X1171992Y202479D01*
X1170627Y202382D01*
X1169261Y202284D01*
X1168091Y202089D01*
X1167018Y201894D01*
X1166920Y201796D01*
X1166530Y201699D01*
X1165945Y201504D01*
X1165165Y201114D01*
X1164385Y200723D01*
X1163604Y200138D01*
X1162824Y199456D01*
X1162141Y198675D01*
X1162044Y198578D01*
X1161849Y198285D01*
X1161654Y197797D01*
X1161263Y197115D01*
X1160971Y196334D01*
X1160776Y195359D01*
X1160581Y194286D01*
X1160483Y193018D01*
Y192921D01*
Y192433D01*
X1160581Y191848D01*
X1160678Y191067D01*
X1160873Y190190D01*
X1161166Y189312D01*
X1161556Y188336D01*
X1162044Y187361D01*
X1162141Y187264D01*
X1162336Y186971D01*
X1162726Y186581D01*
X1163214Y185996D01*
X1163799Y185508D01*
X1164580Y184923D01*
X1165457Y184435D01*
X1166433Y184045D01*
X1166530D01*
X1167018Y183850D01*
X1167701Y183752D01*
X1168676Y183557D01*
X1170042Y183362D01*
X1171700Y183265D01*
X1173748Y183069D01*
X1188866D01*
Y202577D01*
D02*
G37*
G36*
X1397788Y233496D02*
X1396910D01*
X1396228Y233398D01*
X1395350Y233301D01*
X1394472Y233105D01*
X1393399Y232910D01*
X1392229Y232618D01*
X1389790Y231837D01*
X1388425Y231350D01*
X1387157Y230667D01*
X1385791Y229887D01*
X1384523Y229009D01*
X1383255Y228034D01*
X1382085Y226863D01*
X1381987Y226766D01*
X1381792Y226571D01*
X1381500Y226180D01*
X1381110Y225595D01*
X1380622Y224912D01*
X1380134Y224035D01*
X1379549Y223059D01*
X1378964Y221986D01*
X1378378Y220621D01*
X1377793Y219255D01*
X1377306Y217695D01*
X1376818Y215939D01*
X1376428Y214086D01*
X1376135Y212135D01*
X1375940Y209989D01*
X1375843Y207746D01*
Y207649D01*
Y207356D01*
Y206966D01*
Y206478D01*
X1375940Y205795D01*
Y204918D01*
X1376135Y203064D01*
X1376525Y201016D01*
X1377013Y198675D01*
X1377696Y196334D01*
X1378574Y194091D01*
Y193994D01*
X1378671Y193798D01*
X1378866Y193506D01*
X1379061Y193116D01*
X1379646Y192043D01*
X1380524Y190775D01*
X1381597Y189312D01*
X1382963Y187751D01*
X1384523Y186288D01*
X1386279Y185020D01*
X1386376D01*
X1386474Y184923D01*
X1386767Y184728D01*
X1387157Y184533D01*
X1388230Y184045D01*
X1389595Y183362D01*
X1391253Y182777D01*
X1393204Y182289D01*
X1395350Y181899D01*
X1397691Y181802D01*
X1398568D01*
X1399154Y181899D01*
X1399934Y181997D01*
X1400909Y182094D01*
X1401885Y182289D01*
X1402958Y182582D01*
X1405396Y183362D01*
X1406664Y183850D01*
X1407932Y184435D01*
X1409297Y185118D01*
X1410565Y185996D01*
X1411833Y186971D01*
X1413101Y188044D01*
X1413199Y188141D01*
X1413394Y188336D01*
X1413687Y188727D01*
X1414077Y189214D01*
X1414564Y189897D01*
X1415150Y190775D01*
X1415735Y191750D01*
X1416320Y192921D01*
X1416905Y194286D01*
X1417490Y195749D01*
X1418076Y197407D01*
X1418563Y199358D01*
X1418953Y201406D01*
X1419246Y203552D01*
X1419441Y205990D01*
X1419539Y208624D01*
Y208721D01*
Y209112D01*
Y209697D01*
X1419441Y210575D01*
X1419344Y211550D01*
X1419246Y212623D01*
X1419051Y213891D01*
X1418758Y215256D01*
X1418076Y218182D01*
X1417490Y219645D01*
X1416905Y221206D01*
X1416222Y222669D01*
X1415442Y224132D01*
X1414467Y225595D01*
X1413394Y226863D01*
X1413296Y226961D01*
X1413101Y227156D01*
X1412711Y227448D01*
X1412223Y227936D01*
X1411638Y228424D01*
X1410956Y228911D01*
X1410078Y229594D01*
X1409102Y230179D01*
X1408029Y230765D01*
X1406859Y231350D01*
X1405591Y231935D01*
X1404128Y232423D01*
X1402665Y232910D01*
X1401104Y233203D01*
X1399544Y233398D01*
X1397788Y233496D01*
D02*
G37*
G36*
X1109374D02*
X1108496D01*
X1107814Y233398D01*
X1106936Y233301D01*
X1106058Y233105D01*
X1104985Y232910D01*
X1103815Y232618D01*
X1101376Y231837D01*
X1100011Y231350D01*
X1098743Y230667D01*
X1097377Y229887D01*
X1096109Y229009D01*
X1094841Y228034D01*
X1093671Y226863D01*
X1093573Y226766D01*
X1093378Y226571D01*
X1093086Y226180D01*
X1092696Y225595D01*
X1092208Y224912D01*
X1091720Y224035D01*
X1091135Y223059D01*
X1090550Y221986D01*
X1089965Y220621D01*
X1089379Y219255D01*
X1088892Y217695D01*
X1088404Y215939D01*
X1088014Y214086D01*
X1087721Y212135D01*
X1087526Y209989D01*
X1087429Y207746D01*
Y207649D01*
Y207356D01*
Y206966D01*
Y206478D01*
X1087526Y205795D01*
Y204918D01*
X1087721Y203064D01*
X1088111Y201016D01*
X1088599Y198675D01*
X1089282Y196334D01*
X1090160Y194091D01*
Y193994D01*
X1090257Y193798D01*
X1090452Y193506D01*
X1090647Y193116D01*
X1091233Y192043D01*
X1092110Y190775D01*
X1093183Y189312D01*
X1094549Y187751D01*
X1096109Y186288D01*
X1097865Y185020D01*
X1097962D01*
X1098060Y184923D01*
X1098353Y184728D01*
X1098743Y184533D01*
X1099816Y184045D01*
X1101181Y183362D01*
X1102839Y182777D01*
X1104790Y182289D01*
X1106936Y181899D01*
X1109277Y181802D01*
X1110154D01*
X1110740Y181899D01*
X1111520Y181997D01*
X1112495Y182094D01*
X1113471Y182289D01*
X1114544Y182582D01*
X1116982Y183362D01*
X1118250Y183850D01*
X1119518Y184435D01*
X1120883Y185118D01*
X1122151Y185996D01*
X1123419Y186971D01*
X1124687Y188044D01*
X1124785Y188141D01*
X1124980Y188336D01*
X1125273Y188727D01*
X1125663Y189214D01*
X1126150Y189897D01*
X1126736Y190775D01*
X1127321Y191750D01*
X1127906Y192921D01*
X1128491Y194286D01*
X1129076Y195749D01*
X1129662Y197407D01*
X1130149Y199358D01*
X1130540Y201406D01*
X1130832Y203552D01*
X1131027Y205990D01*
X1131125Y208624D01*
Y208721D01*
Y209112D01*
Y209697D01*
X1131027Y210575D01*
X1130930Y211550D01*
X1130832Y212623D01*
X1130637Y213891D01*
X1130344Y215256D01*
X1129662Y218182D01*
X1129076Y219645D01*
X1128491Y221206D01*
X1127809Y222669D01*
X1127028Y224132D01*
X1126053Y225595D01*
X1124980Y226863D01*
X1124882Y226961D01*
X1124687Y227156D01*
X1124297Y227448D01*
X1123810Y227936D01*
X1123224Y228424D01*
X1122542Y228911D01*
X1121664Y229594D01*
X1120688Y230179D01*
X1119615Y230765D01*
X1118445Y231350D01*
X1117177Y231935D01*
X1115714Y232423D01*
X1114251Y232910D01*
X1112690Y233203D01*
X1111130Y233398D01*
X1109374Y233496D01*
D02*
G37*
%LPD*%
D39*
X-503400Y2899300D02*
X-503400Y2109300D01*
X471600Y2109300D01*
X471600Y2899300D01*
X-503400Y2899300D02*
X471600Y2899300D01*
X543316Y-134924D02*
X2313316Y-134925D01*
X2313316Y-794924D02*
X2313316Y-134925D01*
X543316Y-794925D02*
X2313316Y-794924D01*
X543316Y-134924D02*
X543316Y-794925D01*
X543316Y-72609D02*
X2313316Y-72610D01*
X543316Y-72609D02*
Y587391D01*
X2313316Y587391D01*
X2313316Y-72610D01*
%TF.MD5,05c60c5d9b586ce258e75e98800b386c*%
M02*
