%TF.GenerationSoftware,Altium Limited,Altium Designer,22.7.1 (60)*%
G04 Layer_Color=2752767*
%FSLAX45Y45*%
%MOMM*%
%TF.SameCoordinates,2E8CAF61-F9F5-4988-A97D-765C0E49F6B8*%
%TF.FilePolarity,Positive*%
%TF.FileFunction,Drawing*%
%TF.Part,Single*%
G01*
G75*
%TA.AperFunction,NonConductor*%
%ADD70C,0.12700*%
%ADD71C,0.16933*%
%ADD72C,0.10160*%
D70*
X723900Y1143000D02*
X749300Y1193800D01*
X723900Y1244600D01*
X774700Y1219200D01*
X825500Y1244600D01*
X800100Y1193800D01*
X825500Y1143000D01*
X774700Y1168400D01*
X723900Y1143000D01*
X1739900D02*
X1765300Y1193800D01*
X1739900Y1244600D01*
X1790700Y1219200D01*
X1841500Y1244600D01*
X1816100Y1193800D01*
X1841500Y1143000D01*
X1790700Y1168400D01*
X1739900Y1143000D01*
X-406400Y1643874D02*
X-355600Y1694674D01*
X-304800Y1643874D01*
X-355600Y1593074D01*
X-406400Y1643874D01*
X-152400Y1643874D02*
X-101600Y1694674D01*
X-50800Y1643874D01*
X-101600Y1593074D01*
X-152400Y1643874D01*
X101600Y1643874D02*
X152400Y1694674D01*
X203200Y1643874D01*
X152400Y1593074D01*
X101600Y1643874D01*
X355600D02*
X406400Y1694674D01*
X457200Y1643874D01*
X406400Y1593074D01*
X355600Y1643874D01*
X184100Y2603500D02*
X209500Y2628900D01*
X234900D01*
X209500Y2654300D01*
X234900Y2679700D01*
X209500D01*
X184100Y2705100D01*
X158700Y2679700D01*
X133300D01*
X158700Y2654300D01*
X133300Y2628900D01*
X158700D01*
X184100Y2603500D01*
Y2623820D02*
X199340Y2639060D01*
X214580D01*
X199340Y2654300D01*
X214580Y2669540D01*
X199340D01*
X184100Y2684780D01*
X168860Y2669540D01*
X153620D01*
X168860Y2654300D01*
X153620Y2639060D01*
X168860D01*
X184100Y2623820D01*
X-15900Y2603500D02*
X9500Y2628900D01*
X34900D01*
X9500Y2654300D01*
X34900Y2679700D01*
X9500D01*
X-15900Y2705100D01*
X-41300Y2679700D01*
X-66700D01*
X-41300Y2654300D01*
X-66700Y2628900D01*
X-41300D01*
X-15900Y2603500D01*
Y2623820D02*
X-660Y2639060D01*
X14580D01*
X-660Y2654300D01*
X14580Y2669540D01*
X-660D01*
X-15900Y2684780D01*
X-31140Y2669540D01*
X-46380D01*
X-31140Y2654300D01*
X-46380Y2639060D01*
X-31140D01*
X-15900Y2623820D01*
X-215900Y2603500D02*
X-190500Y2628900D01*
X-165100D01*
X-190500Y2654300D01*
X-165100Y2679700D01*
X-190500D01*
X-215900Y2705100D01*
X-241300Y2679700D01*
X-266700D01*
X-241300Y2654300D01*
X-266700Y2628900D01*
X-241300D01*
X-215900Y2603500D01*
Y2623820D02*
X-200660Y2639060D01*
X-185420D01*
X-200660Y2654300D01*
X-185420Y2669540D01*
X-200660D01*
X-215900Y2684780D01*
X-231140Y2669540D01*
X-246380D01*
X-231140Y2654300D01*
X-246380Y2639060D01*
X-231140D01*
X-215900Y2623820D01*
X-1663700Y1026049D02*
X-1638300Y1076849D01*
X-1663700Y1127649D01*
X-1612900Y1102249D01*
X-1562100Y1127649D01*
X-1587500Y1076849D01*
X-1562100Y1026049D01*
X-1612900Y1051449D01*
X-1663700Y1026049D01*
X-647700D02*
X-622300Y1076849D01*
X-647700Y1127649D01*
X-596900Y1102249D01*
X-546100Y1127649D01*
X-571500Y1076849D01*
X-546100Y1026049D01*
X-596900Y1051449D01*
X-647700Y1026049D01*
X-9309Y-841416D02*
X-60109Y-739816D01*
X41491D01*
X-9309Y-841416D01*
Y-1091416D02*
X-60109Y-989816D01*
X41491D01*
X-9309Y-1091416D01*
Y-1341416D02*
X-60109Y-1239816D01*
X41491D01*
X-9309Y-1341416D01*
Y-1591416D02*
X-60109Y-1489816D01*
X41491D01*
X-9309Y-1591416D01*
Y-1841416D02*
X-60109Y-1739816D01*
X41491D01*
X-9309Y-1841416D01*
Y-2091416D02*
X-60109Y-1989816D01*
X41491D01*
X-9309Y-2091416D01*
X-731624D02*
X-782424Y-1989816D01*
X-680824D01*
X-731624Y-2091416D01*
X-731625Y-1841415D02*
X-782425Y-1739815D01*
X-680825D01*
X-731625Y-1841415D01*
X-731624Y-1591416D02*
X-782424Y-1489816D01*
X-680824D01*
X-731624Y-1591416D01*
Y-1341416D02*
X-782424Y-1239816D01*
X-680824D01*
X-731624Y-1341416D01*
Y-1091416D02*
X-782424Y-989816D01*
X-680824D01*
X-731624Y-1091416D01*
Y-841416D02*
X-782424Y-739816D01*
X-680824D01*
X-731624Y-841416D01*
X803316Y206591D02*
X752516Y308191D01*
X854116D01*
X803316Y206591D01*
X1053316Y206591D02*
X1002516Y308191D01*
X1104116D01*
X1053316Y206591D01*
X1303316D02*
X1252516Y308191D01*
X1354116D01*
X1303316Y206591D01*
X1553316D02*
X1502516Y308191D01*
X1604116D01*
X1553316Y206591D01*
X1803316Y206590D02*
X1752516Y308190D01*
X1854116D01*
X1803316Y206590D01*
X2053316Y206591D02*
X2002516Y308191D01*
X2104116D01*
X2053316Y206591D01*
Y-515725D02*
X2002516Y-414125D01*
X2104116D01*
X2053316Y-515725D01*
X1803315Y-515725D02*
X1752515Y-414125D01*
X1854115D01*
X1803315Y-515725D01*
X1553316Y-515724D02*
X1502516Y-414124D01*
X1604116D01*
X1553316Y-515724D01*
X1303316Y-515725D02*
X1252516Y-414125D01*
X1354116D01*
X1303316Y-515725D01*
X1053316Y-515724D02*
X1002516Y-414124D01*
X1104116D01*
X1053316Y-515724D01*
X803316Y-515724D02*
X752516Y-414124D01*
X854116D01*
X803316Y-515724D01*
X1212814Y-1817551D02*
Y-1715951D01*
X1314414D01*
Y-1817551D01*
X1212814D01*
X-1389621Y1451463D02*
X-1364221Y1476863D01*
X-1338821D01*
X-1364221Y1502263D01*
X-1338821Y1527663D01*
X-1364221D01*
X-1389621Y1553063D01*
X-1415021Y1527663D01*
X-1440421D01*
X-1415021Y1502263D01*
X-1440421Y1476863D01*
X-1415021D01*
X-1389621Y1451463D01*
X-1519621Y1451463D02*
X-1494221Y1476863D01*
X-1468821D01*
X-1494221Y1502263D01*
X-1468821Y1527663D01*
X-1494221D01*
X-1519621Y1553063D01*
X-1545021Y1527663D01*
X-1570421D01*
X-1545021Y1502263D01*
X-1570421Y1476863D01*
X-1545021D01*
X-1519621Y1451463D01*
X-1649621D02*
X-1624221Y1476863D01*
X-1598821D01*
X-1624221Y1502263D01*
X-1598821Y1527663D01*
X-1624221D01*
X-1649621Y1553063D01*
X-1675021Y1527663D01*
X-1700421D01*
X-1675021Y1502263D01*
X-1700421Y1476863D01*
X-1675021D01*
X-1649621Y1451463D01*
X1350380D02*
X1375780Y1476863D01*
X1401180D01*
X1375780Y1502263D01*
X1401180Y1527663D01*
X1375780D01*
X1350380Y1553063D01*
X1324980Y1527663D01*
X1299580D01*
X1324980Y1502263D01*
X1299580Y1476863D01*
X1324980D01*
X1350380Y1451463D01*
X1480379Y1451463D02*
X1505779Y1476863D01*
X1531179D01*
X1505779Y1502263D01*
X1531179Y1527663D01*
X1505779D01*
X1480379Y1553063D01*
X1454979Y1527663D01*
X1429579D01*
X1454979Y1502263D01*
X1429579Y1476863D01*
X1454979D01*
X1480379Y1451463D01*
X1610379Y1451463D02*
X1635779Y1476863D01*
X1661179D01*
X1635779Y1502263D01*
X1661179Y1527663D01*
X1635779D01*
X1610379Y1553063D01*
X1584979Y1527663D01*
X1559579D01*
X1584979Y1502263D01*
X1559579Y1476863D01*
X1584979D01*
X1610379Y1451463D01*
X-452917Y-2933034D02*
X-503717Y-2831434D01*
X-402117D01*
X-452917Y-2933034D01*
Y-2912714D02*
X-483397Y-2851754D01*
X-422437D01*
X-452917Y-2912714D01*
X-329059Y-2794379D02*
X-379859Y-2692779D01*
X-278259D01*
X-329059Y-2794379D01*
Y-2774059D02*
X-359539Y-2713099D01*
X-298579D01*
X-329059Y-2774059D01*
X-526255Y-2400543D02*
X-577055Y-2298943D01*
X-475455D01*
X-526255Y-2400543D01*
Y-2380223D02*
X-556735Y-2319263D01*
X-495775D01*
X-526255Y-2380223D01*
X-354067Y-2394614D02*
X-404867Y-2293014D01*
X-303267D01*
X-354067Y-2394614D01*
Y-2374294D02*
X-384547Y-2313334D01*
X-323587D01*
X-354067Y-2374294D01*
X-260454Y-2735359D02*
X-311254Y-2633759D01*
X-209654D01*
X-260454Y-2735359D01*
Y-2715039D02*
X-290934Y-2654079D01*
X-229974D01*
X-260454Y-2715039D01*
X-388248Y-2855760D02*
X-439048Y-2754160D01*
X-337448D01*
X-388248Y-2855760D01*
Y-2835440D02*
X-418728Y-2774480D01*
X-357768D01*
X-388248Y-2835440D01*
X2894934Y-237017D02*
X2844134Y-135417D01*
X2945734D01*
X2894934Y-237017D01*
Y-216697D02*
X2864454Y-155737D01*
X2925414D01*
X2894934Y-216697D01*
X2756279Y-113159D02*
X2705479Y-11559D01*
X2807079D01*
X2756279Y-113159D01*
Y-92839D02*
X2725799Y-31879D01*
X2786759D01*
X2756279Y-92839D01*
X2362444Y-310355D02*
X2311644Y-208755D01*
X2413244D01*
X2362444Y-310355D01*
Y-290035D02*
X2331964Y-229075D01*
X2392924D01*
X2362444Y-290035D01*
X2356514Y-138167D02*
X2305714Y-36567D01*
X2407314D01*
X2356514Y-138167D01*
Y-117847D02*
X2326034Y-56887D01*
X2386994D01*
X2356514Y-117847D01*
X2697259Y-44554D02*
X2646459Y57046D01*
X2748059D01*
X2697259Y-44554D01*
Y-24234D02*
X2666779Y36726D01*
X2727739D01*
X2697259Y-24234D01*
X2817660Y-172348D02*
X2766860Y-70748D01*
X2868460D01*
X2817660Y-172348D01*
Y-152028D02*
X2787180Y-91068D01*
X2848140D01*
X2817660Y-152028D01*
X-423593Y-2405672D02*
X-474393Y-2304072D01*
X-372793D01*
X-423593Y-2405672D01*
Y-2385352D02*
X-454073Y-2324392D01*
X-393113D01*
X-423593Y-2385352D01*
X-371691Y-2256456D02*
X-422491Y-2154856D01*
X-320891D01*
X-371691Y-2256456D01*
Y-2236136D02*
X-402171Y-2175176D01*
X-341211D01*
X-371691Y-2236136D01*
X2367573Y-207693D02*
X2316773Y-106093D01*
X2418373D01*
X2367573Y-207693D01*
Y-187373D02*
X2337093Y-126413D01*
X2398053D01*
X2367573Y-187373D01*
X2218356Y-155791D02*
X2167556Y-54191D01*
X2269156D01*
X2218356Y-155791D01*
Y-135471D02*
X2187876Y-74511D01*
X2248836D01*
X2218356Y-135471D01*
X564579Y-1164438D02*
X589979D01*
X615379Y-1139038D01*
X640779Y-1164438D01*
X666179D01*
Y-1139038D01*
X640779Y-1113638D01*
X666179Y-1088238D01*
Y-1062838D01*
X640779D01*
X615379Y-1088238D01*
X589979Y-1062838D01*
X564579D01*
Y-1088238D01*
X589979Y-1113638D01*
X564579Y-1139038D01*
Y-1164438D01*
X843979Y-1405737D02*
Y-1431137D01*
X894779D01*
Y-1405737D01*
X920179D01*
Y-1354937D01*
X894779D01*
Y-1329537D01*
X843979D01*
Y-1354937D01*
X818579D01*
Y-1405737D01*
X843979D01*
D71*
X434900Y2654301D02*
G03*
X434900Y2654301I-50800J0D01*
G01*
X-365100Y2654300D02*
G03*
X-365100Y2654300I-50800J0D01*
G01*
X955203Y-1766751D02*
G03*
X955203Y-1766751I-50800J0D01*
G01*
X1314415Y-2125962D02*
G03*
X1314415Y-2125962I-50800J0D01*
G01*
X1673626Y-1766753D02*
G03*
X1673626Y-1766753I-50800J0D01*
G01*
X1314415Y-1407541D02*
G03*
X1314415Y-1407541I-50800J0D01*
G01*
D72*
X414580Y2654301D02*
G03*
X414580Y2654301I-30480J0D01*
G01*
X-385420Y2654300D02*
G03*
X-385420Y2654300I-30480J0D01*
G01*
%TF.MD5,154ec4fadec1295b2980c3bc3a4d3dfd*%
M02*
