%TF.GenerationSoftware,Altium Limited,Altium Designer,23.3.1 (30)*%
G04 Layer_Physical_Order=1*
G04 Layer_Color=255*
%FSLAX45Y45*%
%MOMM*%
%TF.SameCoordinates,9B08417B-AAB0-44DC-96C9-EC8FD7F4D7BA*%
%TF.FilePolarity,Positive*%
%TF.FileFunction,Copper,L1,Top,Signal*%
%TF.Part,Single*%
G01*
G75*
%TA.AperFunction,Conductor*%
%ADD10C,0.25000*%
%TA.AperFunction,SMDPad,CuDef*%
%ADD11R,0.38100X0.76200*%
%ADD12R,0.38100X1.01600*%
%ADD13R,0.76200X0.38100*%
%ADD14R,1.01600X0.38100*%
%TA.AperFunction,Conductor*%
%ADD15C,0.38100*%
%ADD16C,0.76200*%
%ADD17C,0.20320*%
%ADD18C,0.30000*%
%ADD19C,0.63500*%
%ADD20C,0.25400*%
%ADD21C,1.50000*%
%TA.AperFunction,ComponentPad*%
%ADD22C,1.80000*%
%ADD23C,1.40000*%
%ADD24C,1.55000*%
%ADD25C,1.30000*%
%ADD26R,1.30000X1.30000*%
%ADD27R,1.40000X1.40000*%
%ADD28R,1.40000X1.40000*%
%ADD29C,2.25000*%
%ADD30C,2.55000*%
%ADD31R,1.15000X1.15000*%
%ADD32C,1.15000*%
%TA.AperFunction,ViaPad*%
%ADD33C,0.45000*%
%ADD34C,4.00000*%
%ADD35C,0.80000*%
G36*
X4971274Y6425366D02*
X4966778Y6420095D01*
X4962810Y6414766D01*
X4959372Y6409380D01*
X4956462Y6403936D01*
X4954082Y6398434D01*
X4952230Y6392875D01*
X4950908Y6387259D01*
X4950114Y6381585D01*
X4949850Y6375854D01*
X4911750D01*
X4911485Y6381585D01*
X4910692Y6387259D01*
X4909369Y6392875D01*
X4907518Y6398434D01*
X4905138Y6403936D01*
X4902228Y6409380D01*
X4898789Y6414766D01*
X4894822Y6420095D01*
X4890326Y6425366D01*
X4885300Y6430580D01*
X4976300D01*
X4971274Y6425366D01*
D02*
G37*
G36*
X4950119Y6194782D02*
X4950928Y6187497D01*
X4952275Y6180435D01*
X4954161Y6173596D01*
X4956585Y6166981D01*
X4959549Y6160588D01*
X4963051Y6154419D01*
X4967092Y6148473D01*
X4971672Y6142750D01*
X4976791Y6137250D01*
X4957741Y6102419D01*
X4952353Y6107268D01*
X4946964Y6111040D01*
X4941576Y6113734D01*
X4936188Y6115350D01*
X4930800Y6115889D01*
X4925412Y6115350D01*
X4920024Y6113734D01*
X4914635Y6111040D01*
X4909247Y6107268D01*
X4903859Y6102419D01*
X4884809Y6137250D01*
X4889928Y6142750D01*
X4894508Y6148473D01*
X4898549Y6154419D01*
X4902051Y6160588D01*
X4905015Y6166981D01*
X4907439Y6173596D01*
X4909325Y6180435D01*
X4910672Y6187497D01*
X4911480Y6194782D01*
X4911750Y6202291D01*
X4949850D01*
X4950119Y6194782D01*
D02*
G37*
G36*
X5432204Y5521223D02*
X5448758Y5507159D01*
X5456781Y5501446D01*
X5464634Y5496612D01*
X5472318Y5492656D01*
X5479833Y5489580D01*
X5487178Y5487382D01*
X5494354Y5486063D01*
X5501360Y5485624D01*
Y5447524D01*
X5494354Y5447085D01*
X5487178Y5445766D01*
X5479833Y5443568D01*
X5472318Y5440492D01*
X5464634Y5436536D01*
X5456781Y5431702D01*
X5448758Y5425989D01*
X5440565Y5419396D01*
X5423673Y5403574D01*
Y5529574D01*
X5432204Y5521223D01*
D02*
G37*
G36*
X3452641Y5306795D02*
X3453277Y5301597D01*
X3454337Y5296521D01*
X3455821Y5291569D01*
X3457729Y5286738D01*
X3460061Y5282031D01*
X3462817Y5277446D01*
X3465997Y5272983D01*
X3469601Y5268643D01*
X3473629Y5264426D01*
X3393129D01*
X3397157Y5268643D01*
X3400761Y5272983D01*
X3403941Y5277446D01*
X3406697Y5282031D01*
X3409029Y5286738D01*
X3410937Y5291569D01*
X3412421Y5296521D01*
X3413481Y5301597D01*
X3414117Y5306795D01*
X3414329Y5312115D01*
X3452429D01*
X3452641Y5306795D01*
D02*
G37*
G36*
X5924550Y5061776D02*
X5924744Y5056709D01*
X5925324Y5051273D01*
X5926291Y5045468D01*
X5929387Y5032751D01*
X5931516Y5025840D01*
X5938845Y5006523D01*
X5941859Y5003918D01*
X5947763Y4999426D01*
X5953680Y4995532D01*
X5959610Y4992237D01*
X5965554Y4989542D01*
X5971510Y4987445D01*
X5977480Y4985948D01*
X5983462Y4985049D01*
X5989458Y4984750D01*
Y4946650D01*
X5983462Y4946351D01*
X5977480Y4945452D01*
X5971510Y4943955D01*
X5965554Y4941858D01*
X5959610Y4939163D01*
X5953680Y4935868D01*
X5947763Y4931974D01*
X5941859Y4927482D01*
X5935968Y4922390D01*
X5930090Y4916700D01*
Y4999880D01*
X5852579Y5030063D01*
X5859014Y5033143D01*
X5864772Y5036591D01*
X5869853Y5040407D01*
X5874256Y5044591D01*
X5877982Y5049142D01*
X5881031Y5054060D01*
X5883401Y5059346D01*
X5885095Y5065001D01*
X5886111Y5071022D01*
X5886450Y5077411D01*
X5924550Y5061776D01*
D02*
G37*
G36*
X6226958Y5174482D02*
X6230567Y5178390D01*
X6233795Y5182511D01*
X6236641Y5186848D01*
X6239105Y5191399D01*
X6241188Y5196165D01*
X6242890Y5201145D01*
X6244210Y5206340D01*
X6245148Y5211749D01*
X6245705Y5217373D01*
X6245880Y5223212D01*
X6302380Y5165871D01*
X6296559Y5165779D01*
X6290949Y5165295D01*
X6285551Y5164419D01*
X6280364Y5163152D01*
X6275389Y5161494D01*
X6270626Y5159444D01*
X6266074Y5157003D01*
X6261733Y5154170D01*
X6257605Y5150946D01*
X6253688Y5147331D01*
X6226958Y5174482D01*
D02*
G37*
G36*
X6452429Y5312116D02*
X6452641Y5306795D01*
X6453277Y5301597D01*
X6454337Y5296522D01*
X6455821Y5291569D01*
X6457729Y5286739D01*
X6460061Y5282031D01*
X6462817Y5277446D01*
X6465997Y5272984D01*
X6469601Y5268644D01*
X6473629Y5264426D01*
X6393129D01*
X6397157Y5268644D01*
X6400761Y5272984D01*
X6403941Y5277446D01*
X6406697Y5282031D01*
X6409029Y5286739D01*
X6410937Y5291569D01*
X6412421Y5296522D01*
X6413481Y5301597D01*
X6414117Y5306795D01*
X6414329Y5312116D01*
X6452429D01*
D02*
G37*
D10*
X7161049Y3226176D02*
G03*
X7131049Y3256176I-30000J0D01*
G01*
X7161049Y3221881D02*
G03*
X7221049Y3221881I30000J0D01*
G01*
X7281049Y3299304D02*
G03*
X7221049Y3299304I-30000J0D01*
G01*
X7281049Y3221881D02*
G03*
X7341049Y3221881I30000J0D01*
G01*
X7371049Y3256176D02*
G03*
X7341049Y3226176I0J-30000D01*
G01*
X4191376Y1525751D02*
G03*
X4221376Y1555751I0J30000D01*
G01*
X4187081Y1525751D02*
G03*
X4187081Y1465751I0J-30000D01*
G01*
X4264504Y1405751D02*
G03*
X4264504Y1465751I0J30000D01*
G01*
X4187081Y1405751D02*
G03*
X4187081Y1345751I0J-30000D01*
G01*
X4221376Y1315751D02*
G03*
X4191376Y1345751I-30000J0D01*
G01*
X7034178Y3256176D02*
X7131049D01*
X7161049Y3221881D02*
Y3226176D01*
X7221049Y3221881D02*
Y3299304D01*
X7281049Y3221881D02*
Y3299304D01*
X7341049Y3221881D02*
Y3226176D01*
X7371049Y3256176D02*
X7378412D01*
X7383550Y3261313D01*
X7034178Y3256176D02*
X7034178D01*
X4221376Y1555751D02*
Y1652622D01*
X4187081Y1525751D02*
X4191376D01*
X4187081Y1465751D02*
X4264504D01*
X4187081Y1405751D02*
X4264504D01*
X4187081Y1345751D02*
X4191376D01*
X4221376Y1308388D02*
Y1315751D01*
Y1308388D02*
X4226514Y1303250D01*
X4497333Y1144499D02*
X4498708Y1143124D01*
Y840241D02*
Y1143124D01*
Y840241D02*
X4500083Y838866D01*
X4625232Y1075739D02*
Y1143601D01*
X4620537Y980924D02*
Y1071044D01*
X4625232Y1075739D01*
X4620537Y980924D02*
X4623941Y977521D01*
X4490783Y1265350D02*
X4497333Y1258800D01*
X4490783Y1265350D02*
Y1318921D01*
X4445847Y1363857D02*
X4490783Y1318921D01*
X4430804Y1371357D02*
X4438304Y1363857D01*
X4426745Y1371357D02*
X4430804D01*
X4438304Y1363857D02*
X4445847D01*
X4624333Y1258800D02*
Y1353195D01*
X4600243Y1377286D02*
X4624333Y1353195D01*
X4598933Y1377286D02*
X4600243D01*
X4690189Y1038897D02*
X4692546Y1036541D01*
X4690189Y1038897D02*
Y1139602D01*
X4686562Y1143229D02*
X4690189Y1139602D01*
X4562792Y918100D02*
X4564752Y916140D01*
X4562792Y918100D02*
Y1142025D01*
X4563050Y1142282D01*
X4787063Y1680484D02*
X4943691D01*
X4659759Y1807788D02*
X4787063Y1680484D01*
X4121404Y1807788D02*
X4659759D01*
X4030296Y1716681D02*
X4121404Y1807788D01*
X4030296Y1291168D02*
Y1716681D01*
Y1291168D02*
X4150645Y1170819D01*
X4424943D01*
X4433833Y1144500D02*
Y1161929D01*
X4424943Y1170819D02*
X4433833Y1161929D01*
X7542301Y3532133D02*
X7543676Y3533508D01*
X7846559Y3533508D01*
X7847934Y3534883D01*
X7543199Y3660032D02*
X7611061D01*
X7615756Y3655337D02*
X7705876Y3655338D01*
X7611061Y3660032D02*
X7615756Y3655337D01*
X7705876Y3655338D02*
X7709279Y3658741D01*
X7322943Y3480647D02*
X7367879Y3525583D01*
X7421450D01*
X7428000Y3532133D01*
X7315443Y3465604D02*
X7315444Y3461545D01*
X7315443Y3465604D02*
X7322943Y3473104D01*
X7322943Y3480647D01*
X7333605Y3659133D02*
X7428000Y3659133D01*
X7309514Y3635042D02*
X7333605Y3659133D01*
X7309514Y3633733D02*
Y3635042D01*
X7547198Y3724989D02*
X7647903D01*
X7650259Y3727346D01*
X7543571Y3721362D02*
X7547198Y3724989D01*
X7544775Y3597592D02*
X7768700Y3597593D01*
X7770660Y3599552D01*
X7544518Y3597850D02*
X7544775Y3597592D01*
X7006316Y3821863D02*
Y3978491D01*
X6879012Y3694559D02*
X7006316Y3821863D01*
X6879012Y3156204D02*
X6879012Y3694559D01*
X6879012Y3156204D02*
X6970119Y3065096D01*
X7395632Y3065097D01*
X7515981Y3185446D01*
X7515981Y3459743D01*
X7524871Y3468633D01*
X7542300D01*
X4270963Y1258800D02*
X4433833D01*
X4263324Y1266439D02*
X4270963Y1258800D01*
X4226514Y1303250D02*
X4263324Y1266439D01*
X4221376Y1652622D02*
Y1680484D01*
X4554283Y1265350D02*
X4560833Y1258800D01*
X4554283Y1265350D02*
Y1335940D01*
X4529407Y1360816D02*
X4554283Y1335940D01*
X4529407Y1360816D02*
Y1366228D01*
X4687832Y1258800D02*
X4691691Y1262659D01*
Y1407054D01*
X4583301Y1515444D02*
X4691691Y1407054D01*
X7428000Y3305763D02*
Y3468633D01*
X7383550Y3261313D02*
X7420361Y3298124D01*
X7420361Y3298124D02*
X7428000Y3305763D01*
X7006316Y3256175D02*
X7034178Y3256176D01*
X7350860Y3589083D02*
X7421449D01*
X7428000Y3595633D01*
X7325985Y3564207D02*
X7350860Y3589083D01*
X7320573Y3564207D02*
X7325985Y3564207D01*
X7424141Y3726491D02*
X7428000Y3722632D01*
X7279746Y3726491D02*
X7424141D01*
X7171356Y3618101D02*
X7279746Y3726491D01*
D11*
X4433833Y1144500D02*
D03*
X4497332D02*
D03*
X4560833Y1144499D02*
D03*
X4624333Y1144500D02*
D03*
X4687833D02*
D03*
X4751333D02*
D03*
D12*
X4433833Y1258800D02*
D03*
X4497333D02*
D03*
X4560833Y1258800D02*
D03*
X4624333Y1258800D02*
D03*
X4687832Y1258800D02*
D03*
X4751333Y1258800D02*
D03*
D13*
X7542301Y3468633D02*
D03*
X7542300Y3532133D02*
D03*
Y3595633D02*
D03*
X7542301Y3659133D02*
D03*
Y3722633D02*
D03*
Y3786132D02*
D03*
D14*
X7428000Y3468633D02*
D03*
Y3532133D02*
D03*
X7428000Y3595633D02*
D03*
X7428000Y3659133D02*
D03*
X7428000Y3722632D02*
D03*
X7428000Y3786133D02*
D03*
D15*
X3433379Y5223363D02*
Y5376479D01*
X3937000Y5880100D01*
X4654600D01*
X4930800Y6156300D01*
X6433379Y5223363D02*
Y5415721D01*
X5943600Y5905500D02*
X6433379Y5415721D01*
X5181600Y5905500D02*
X5943600D01*
X4930800Y6156300D02*
X5181600Y5905500D01*
X5359400Y5466574D02*
X5671326D01*
X5905500Y5232400D01*
X4930800Y6156300D02*
Y6477000D01*
X5905500Y4965700D02*
Y5232400D01*
X6045116Y4965700D02*
X6303079Y5223663D01*
X5905500Y4965700D02*
X6045116D01*
X6303079Y5223663D02*
X6303380Y5223363D01*
D16*
X5125261Y6471461D02*
X5130800Y6477000D01*
D17*
X4497332Y1144500D02*
X4497333Y1144499D01*
X4624333Y1144500D02*
X4625232Y1143601D01*
X4686562Y1143229D02*
X4687833Y1144500D01*
X4560833Y1144499D02*
X4563050Y1142282D01*
X7542300Y3532133D02*
X7542301Y3532133D01*
X7542300Y3659133D02*
X7543199Y3660032D01*
X7542300Y3722633D02*
X7543571Y3721362D01*
X7542300Y3595633D02*
X7544518Y3597850D01*
D18*
X4751333Y1144500D02*
Y1163265D01*
X4757683Y1169615D01*
X4861199D01*
X5182347Y1490763D01*
Y2838733D01*
X5090596Y2930484D02*
X5182347Y2838733D01*
X4943691Y2930484D02*
X5090596D01*
X4751333Y1258800D02*
Y1286435D01*
X4757683Y1292785D01*
X4790279D01*
X5090938Y1593444D01*
Y2721940D01*
X5016694Y2796184D02*
X5090938Y2721940D01*
X4672676Y2796184D02*
X5016694D01*
X4538376Y2930484D02*
X4672676Y2796184D01*
X4221376Y2930484D02*
X4538376D01*
X7523535Y3786133D02*
X7542301Y3786132D01*
X7517185Y3792483D02*
X7523535Y3786133D01*
X7517185Y3792483D02*
X7517186Y3895998D01*
X7196037Y4217147D02*
X7517186Y3895998D01*
X5848067Y4217147D02*
X7196037Y4217147D01*
X5756316Y4125396D02*
X5848067Y4217147D01*
X5756316Y3978491D02*
Y4125396D01*
X7400365Y3786133D02*
X7428001D01*
X7394015Y3792483D02*
X7400365Y3786133D01*
X7394015Y3792483D02*
Y3825079D01*
X7093355Y4125738D02*
X7394015Y3825079D01*
X5964860Y4125738D02*
X7093355Y4125738D01*
X5890616Y4051494D02*
X5964860Y4125738D01*
X5890616Y3707476D02*
Y4051494D01*
X5756316Y3573176D02*
X5890616Y3707476D01*
X5756316Y3256176D02*
Y3573176D01*
D19*
X5826290Y2340763D02*
X6212704Y1954349D01*
D20*
X6216614D01*
X5822379Y2340763D02*
X5826290D01*
D21*
X5568379Y2607462D02*
X5616215Y2559628D01*
X6211572Y2318604D02*
X6575825Y1954350D01*
X5568379Y2607462D02*
X5616215Y2559628D01*
X5852360Y1959393D02*
X6216614Y1595137D01*
X5616215Y2559628D02*
X5964174Y2559627D01*
X5616214Y2211669D02*
X5616215Y2559628D01*
X5616214Y2211669D02*
X5852360Y1975524D01*
X5852360Y1959393D02*
X5852360Y1975524D01*
X6205197Y2318603D02*
X6211572Y2318604D01*
X5964174Y2559627D02*
X6205197Y2318603D01*
D22*
X5359400Y5466574D02*
D03*
X5105400D02*
D03*
X4851400Y5466574D02*
D03*
X4597400Y5466574D02*
D03*
D23*
X5880100Y4965700D02*
D03*
X6896100D02*
D03*
X3086100Y4953000D02*
D03*
X4102100D02*
D03*
X4943691Y2680484D02*
D03*
Y2430484D02*
D03*
Y2180484D02*
D03*
Y1930484D02*
D03*
Y1680484D02*
D03*
X4221375Y1930485D02*
D03*
X4221376Y2180484D02*
D03*
Y2430484D02*
D03*
Y2680484D02*
D03*
Y2930484D02*
D03*
X6006316Y3978491D02*
D03*
X6256316D02*
D03*
X6506316D02*
D03*
X6756316Y3978490D02*
D03*
X7006316Y3978491D02*
D03*
X6756315Y3256175D02*
D03*
X6506316Y3256176D02*
D03*
X6256316Y3256175D02*
D03*
X6006316Y3256176D02*
D03*
X5756316Y3256176D02*
D03*
D24*
X5330799Y6477001D02*
D03*
X4530800Y6477000D02*
D03*
D25*
X5130800Y6477000D02*
D03*
X4930800Y6477000D02*
D03*
D26*
X4730800D02*
D03*
D27*
X4943691Y2930484D02*
D03*
X4221376Y1680484D02*
D03*
D28*
X5756316Y3978491D02*
D03*
X7006316Y3256175D02*
D03*
D29*
X6216614Y1954349D02*
D03*
D30*
X5857403Y1954349D02*
D03*
X6216615Y1595138D02*
D03*
X6575826Y1954347D02*
D03*
X6216615Y2313559D02*
D03*
D31*
X3563379Y5223363D02*
D03*
X6563379D02*
D03*
D32*
X3433379Y5223363D02*
D03*
X3303379D02*
D03*
X6303380D02*
D03*
X6433379Y5223363D02*
D03*
D33*
X4500083Y838866D02*
D03*
X4623941Y977521D02*
D03*
X4426745Y1371357D02*
D03*
X4598933Y1377286D02*
D03*
X4692546Y1036541D02*
D03*
X4564752Y916140D02*
D03*
X7847934Y3534883D02*
D03*
X7709279Y3658741D02*
D03*
X7315444Y3461545D02*
D03*
X7309514Y3633733D02*
D03*
X7650259Y3727346D02*
D03*
X7770660Y3599552D02*
D03*
X4529407Y1366228D02*
D03*
X4581309Y1515444D02*
D03*
X7320573Y3564207D02*
D03*
X7171356Y3616109D02*
D03*
D34*
X5568379Y2607462D02*
D03*
D35*
X5822379Y2340763D02*
D03*
%TF.MD5,984f38d7efe5343519ecddf226f21083*%
M02*
