%TF.GenerationSoftware,Altium Limited,Altium Designer,23.3.1 (30)*%
G04 Layer_Physical_Order=2*
G04 Layer_Color=16711680*
%FSLAX45Y45*%
%MOMM*%
%TF.SameCoordinates,3FCD108A-851F-4062-9BED-621BEB009867*%
%TF.FilePolarity,Positive*%
%TF.FileFunction,Copper,L2,Bot,Signal*%
%TF.Part,Single*%
G01*
G75*
%TA.AperFunction,Conductor*%
%ADD10C,0.25000*%
%ADD15C,0.38100*%
%ADD16C,0.76200*%
%TA.AperFunction,ComponentPad*%
%ADD22C,1.80000*%
%ADD23C,1.40000*%
%ADD24C,1.55000*%
%ADD25C,1.30000*%
%ADD26R,1.30000X1.30000*%
%ADD27R,1.40000X1.40000*%
%ADD28R,1.40000X1.40000*%
%ADD29C,2.25000*%
%ADD30C,2.55000*%
%ADD31R,1.15000X1.15000*%
%ADD32C,1.15000*%
%TA.AperFunction,ViaPad*%
%ADD33C,3.81000*%
%ADD34C,4.00000*%
%ADD35C,0.45000*%
%ADD36C,0.80000*%
%TA.AperFunction,Conductor*%
%ADD37C,0.28500*%
%ADD38C,0.50000*%
%ADD39C,0.50800*%
G36*
X3220828Y5237484D02*
X3225724Y5237594D01*
X3234306Y5238475D01*
X3237994Y5239245D01*
X3241279Y5240236D01*
X3244160Y5241447D01*
X3246640Y5242879D01*
X3248717Y5244531D01*
X3250391Y5246403D01*
X3251662Y5248495D01*
X3256715Y5189766D01*
X3255110Y5191593D01*
X3253064Y5193228D01*
X3250577Y5194671D01*
X3247650Y5195921D01*
X3244282Y5196979D01*
X3240472Y5197845D01*
X3236223Y5198518D01*
X3231532Y5198999D01*
X3220828Y5199384D01*
Y5237484D01*
D02*
G37*
G36*
X3322429Y5312115D02*
X3322641Y5306795D01*
X3323277Y5301597D01*
X3324337Y5296521D01*
X3325821Y5291569D01*
X3327729Y5286738D01*
X3330061Y5282031D01*
X3332817Y5277446D01*
X3335997Y5272983D01*
X3339601Y5268643D01*
X3343629Y5264426D01*
X3263129D01*
X3267157Y5268643D01*
X3270761Y5272983D01*
X3273941Y5277446D01*
X3276697Y5282031D01*
X3279029Y5286738D01*
X3280937Y5291569D01*
X3282421Y5296521D01*
X3283481Y5301597D01*
X3284117Y5306795D01*
X3284329Y5312115D01*
X3322429D01*
D02*
G37*
G36*
X3671374Y5197963D02*
X3661665Y5197709D01*
X3652977Y5196947D01*
X3645311Y5195677D01*
X3638667Y5193899D01*
X3633046Y5191613D01*
X3628446Y5188819D01*
X3624869Y5185517D01*
X3622314Y5181707D01*
X3620781Y5177389D01*
X3620270Y5172563D01*
Y5274163D01*
X3620781Y5269337D01*
X3622314Y5265019D01*
X3624869Y5261209D01*
X3628446Y5257907D01*
X3633046Y5255113D01*
X3638667Y5252827D01*
X3645311Y5251049D01*
X3652977Y5249779D01*
X3661665Y5249017D01*
X3671374Y5248763D01*
Y5197963D01*
D02*
G37*
G36*
X4687570Y5455289D02*
X4688305Y5445418D01*
X4689602Y5436060D01*
X4691460Y5427215D01*
X4693880Y5418885D01*
X4696860Y5411067D01*
X4700402Y5403763D01*
X4704506Y5396973D01*
X4709170Y5390696D01*
X4714396Y5384933D01*
X4679041Y5349578D01*
X4673278Y5354804D01*
X4667001Y5359468D01*
X4660211Y5363572D01*
X4652907Y5367114D01*
X4645089Y5370094D01*
X4636759Y5372514D01*
X4627914Y5374372D01*
X4618556Y5375669D01*
X4608685Y5376404D01*
X4602573Y5376507D01*
X4595048Y5375536D01*
X4572653Y5371395D01*
X4562703Y5368861D01*
X4553584Y5366018D01*
X4545297Y5362865D01*
X4537842Y5359403D01*
X4531218Y5355631D01*
X4525426Y5351550D01*
X4520465Y5347160D01*
X4490131Y5370708D01*
X4494956Y5376192D01*
X4499111Y5382325D01*
X4502594Y5389104D01*
X4505406Y5396532D01*
X4507547Y5404606D01*
X4509017Y5413329D01*
X4509816Y5422699D01*
X4509944Y5432716D01*
X4509402Y5443382D01*
X4508188Y5454694D01*
X4602647Y5380926D01*
X4687396Y5465674D01*
X4687570Y5455289D01*
D02*
G37*
G36*
X4049151Y5042204D02*
X4054242Y5038114D01*
X4059512Y5034513D01*
X4064960Y5031401D01*
X4070587Y5028778D01*
X4076392Y5026644D01*
X4082376Y5024999D01*
X4088539Y5023842D01*
X4094880Y5023175D01*
X4101400Y5022997D01*
X4032103Y4953700D01*
X4031925Y4960220D01*
X4031258Y4966561D01*
X4030101Y4972724D01*
X4028456Y4978708D01*
X4026322Y4984513D01*
X4023699Y4990140D01*
X4020587Y4995588D01*
X4016986Y5000858D01*
X4012896Y5005949D01*
X4008317Y5010862D01*
X4044238Y5046783D01*
X4049151Y5042204D01*
D02*
G37*
G36*
X4764489Y5580425D02*
X4769754Y5575782D01*
X4775760Y5571640D01*
X4782508Y5568000D01*
X4789997Y5564862D01*
X4798228Y5562226D01*
X4807199Y5560091D01*
X4816913Y5558458D01*
X4827367Y5557326D01*
X4850500Y5556569D01*
X4761404Y5467474D01*
X4761277Y5479411D01*
X4759516Y5501061D01*
X4757883Y5510774D01*
X4755748Y5519746D01*
X4753112Y5527976D01*
X4749973Y5535466D01*
X4746333Y5542213D01*
X4742192Y5548220D01*
X4737548Y5553485D01*
X4764489Y5580425D01*
D02*
G37*
G36*
X5163361Y5589425D02*
X5163538Y5580283D01*
X5164951Y5563157D01*
X5166188Y5555172D01*
X5167778Y5547572D01*
X5169722Y5540358D01*
X5172019Y5533530D01*
X5174669Y5527088D01*
X5177673Y5521031D01*
X5181031Y5515360D01*
X5058137Y5543165D01*
X5063651Y5547044D01*
X5068585Y5551518D01*
X5072939Y5556586D01*
X5076712Y5562249D01*
X5079905Y5568505D01*
X5082517Y5575357D01*
X5084549Y5582803D01*
X5086000Y5590843D01*
X5086871Y5599477D01*
X5087161Y5608706D01*
X5163361Y5589425D01*
D02*
G37*
G36*
X5087161Y6389827D02*
X5087105Y6397156D01*
X5085127Y6424304D01*
X5084392Y6427834D01*
X5083544Y6430731D01*
X5082584Y6432996D01*
X5081510Y6434627D01*
X5172179Y6426872D01*
X5170504Y6425111D01*
X5169004Y6422738D01*
X5167682Y6419753D01*
X5166536Y6416158D01*
X5165565Y6411951D01*
X5164772Y6407132D01*
X5163714Y6395661D01*
X5163361Y6381744D01*
X5087161Y6389827D01*
D02*
G37*
G36*
X6608629Y5165668D02*
X6604379Y5164168D01*
X6600629Y5161668D01*
X6597379Y5158168D01*
X6594629Y5153668D01*
X6592379Y5148168D01*
X6590629Y5141668D01*
X6589379Y5134168D01*
X6588629Y5125668D01*
X6588379Y5116168D01*
X6538379D01*
X6538129Y5125668D01*
X6537379Y5134168D01*
X6536129Y5141668D01*
X6534379Y5148168D01*
X6532129Y5153668D01*
X6529379Y5158168D01*
X6526129Y5161668D01*
X6522379Y5164168D01*
X6518129Y5165668D01*
X6513379Y5166168D01*
X6613379D01*
X6608629Y5165668D01*
D02*
G37*
G36*
X6786742Y4984750D02*
X6792738Y4985049D01*
X6798720Y4985948D01*
X6804690Y4987445D01*
X6810646Y4989542D01*
X6816590Y4992237D01*
X6822520Y4995532D01*
X6828437Y4999426D01*
X6834341Y5003918D01*
X6840232Y5009010D01*
X6846110Y5014700D01*
Y4916700D01*
X6840232Y4922390D01*
X6834341Y4927482D01*
X6828437Y4931974D01*
X6822520Y4935868D01*
X6816590Y4939163D01*
X6810646Y4941858D01*
X6804690Y4943955D01*
X6798720Y4945452D01*
X6792738Y4946351D01*
X6786742Y4946650D01*
Y4984750D01*
D02*
G37*
D10*
X6945578Y2972499D02*
G03*
X6915621Y3002499I-30000J0D01*
G01*
X6945578Y2965584D02*
G03*
X7005578Y2965584I30000J0D01*
G01*
X7065578Y3073690D02*
G03*
X7005578Y3073690I-30000J0D01*
G01*
X7065578Y2965400D02*
G03*
X7125578Y2965400I30000J0D01*
G01*
X7185577Y3073505D02*
G03*
X7125578Y3073505I-30000J0D01*
G01*
X7185577Y2965215D02*
G03*
X7245577Y2965215I30000J0D01*
G01*
X7260456Y3039691D02*
G03*
X7245579Y3003599I36336J-36090D01*
G01*
X6996717Y3448861D02*
G03*
X7024217Y3421361I27500J0D01*
G01*
X6996717Y3450770D02*
G03*
X6969217Y3478270I-27500J0D01*
G01*
X6969217D02*
G03*
X6941717Y3450770I0J-27500D01*
G01*
X6914217Y3364076D02*
G03*
X6941717Y3391575I0J27500D01*
G01*
X6886717D02*
G03*
X6914217Y3364076I27500J0D01*
G01*
X6886717Y3450770D02*
G03*
X6859217Y3478270I-27500J0D01*
G01*
X6859217D02*
G03*
X6831717Y3450770I0J-27500D01*
G01*
X6804218Y3364075D02*
G03*
X6831717Y3391575I0J27500D01*
G01*
X6776717D02*
G03*
X6804217Y3364075I27500J0D01*
G01*
X6776717Y3450770D02*
G03*
X6749218Y3478270I-27500J0D01*
G01*
X6749217D02*
G03*
X6721718Y3450770I0J-27500D01*
G01*
X6694218Y3421361D02*
G03*
X6721718Y3448861I0J27500D01*
G01*
X3937699Y1741222D02*
G03*
X3967699Y1771178I0J30000D01*
G01*
X3930784Y1741222D02*
G03*
X3930784Y1681222I0J-30000D01*
G01*
X4038890Y1621222D02*
G03*
X4038890Y1681222I0J30000D01*
G01*
X3930600Y1621222D02*
G03*
X3930600Y1561222I0J-30000D01*
G01*
X4038705Y1501222D02*
G03*
X4038705Y1561222I0J30000D01*
G01*
X3930415Y1501222D02*
G03*
X3930415Y1441222I0J-30000D01*
G01*
X4005013Y1426221D02*
G03*
X3968799Y1441222I-36214J-36212D01*
G01*
X4414061Y1690083D02*
G03*
X4386561Y1662583I0J-27500D01*
G01*
X4415970Y1690083D02*
G03*
X4443470Y1717583I0J27500D01*
G01*
Y1717583D02*
G03*
X4415970Y1745083I-27500J0D01*
G01*
X4329276Y1772583D02*
G03*
X4356776Y1745083I27500J0D01*
G01*
Y1800083D02*
G03*
X4329276Y1772583I0J-27500D01*
G01*
X4415970Y1800083D02*
G03*
X4443470Y1827583I0J27500D01*
G01*
Y1827583D02*
G03*
X4415970Y1855083I-27500J0D01*
G01*
X4329275Y1882582D02*
G03*
X4356775Y1855083I27500J0D01*
G01*
Y1910083D02*
G03*
X4329275Y1882583I0J-27500D01*
G01*
X4415970Y1910083D02*
G03*
X4443470Y1937582I0J27500D01*
G01*
Y1937583D02*
G03*
X4415970Y1965082I-27500J0D01*
G01*
X4386561Y1992582D02*
G03*
X4414061Y1965082I27500J0D01*
G01*
X6866490Y3002570D02*
X6866490D01*
X6878990Y3002552D01*
X6915621Y3002499D01*
X6915621Y3002499D02*
X6915621Y3002499D01*
X6945578Y2965584D02*
Y2972499D01*
X7005578Y2965584D02*
Y3073690D01*
X7065578Y2965400D02*
Y3073690D01*
X7125578Y2965400D02*
Y3073505D01*
X7185577Y2965215D02*
Y3073505D01*
X7245577Y2965215D02*
X7245579Y3003599D01*
X7260456Y3039691D02*
X7260579Y3039814D01*
X7273098Y3052333D01*
X6833761Y3035300D02*
X6866490Y3002570D01*
X7024217Y3421361D02*
X7092638D01*
X6996717Y3448861D02*
Y3450770D01*
X6969217Y3478270D02*
X6969217D01*
X6941717Y3391575D02*
Y3450770D01*
X6914217Y3364076D02*
X6914217D01*
X6886717Y3391575D02*
Y3450770D01*
X6859217Y3478270D02*
X6859217D01*
X6831717Y3391575D02*
Y3450770D01*
X6804217Y3364075D02*
X6804218D01*
X6776717Y3391575D02*
Y3450770D01*
X6749217Y3478270D02*
X6749218D01*
X6721718Y3448861D02*
Y3450770D01*
X6681716Y3421361D02*
X6694218D01*
X3967752Y1807809D02*
X3967770Y1820310D01*
X3967699Y1771178D02*
X3967752Y1807809D01*
X3967699Y1771178D02*
X3967699D01*
X3930784Y1741222D02*
X3937699D01*
X3930784Y1681222D02*
X4038890D01*
X3930600Y1621222D02*
X4038890D01*
X3930600Y1561222D02*
X4038705D01*
X3930415Y1501222D02*
X4038705D01*
X3930415Y1441222D02*
X3968799D01*
X4005013Y1426221D02*
X4017533Y1413702D01*
X4386561Y1594162D02*
Y1662583D01*
X4414061Y1690083D02*
X4415970D01*
X4443470Y1717583D02*
Y1717583D01*
X4356776Y1745083D02*
X4415970D01*
X4329276Y1772583D02*
Y1772583D01*
X4356776Y1800083D02*
X4415970D01*
X4443470Y1827583D02*
Y1827583D01*
X4356775Y1855083D02*
X4415970D01*
X4329275Y1882582D02*
Y1882583D01*
X4356775Y1910083D02*
X4415970D01*
X4443470Y1937582D02*
Y1937583D01*
X4414061Y1965082D02*
X4415970D01*
X4386561Y1992582D02*
Y2005084D01*
X4500083Y838866D02*
X4743192D01*
X5063662Y1159336D01*
Y1782668D01*
X4943691Y1902639D02*
X5063662Y1782668D01*
X4943691Y1902639D02*
Y1930484D01*
X4625320Y976141D02*
X4732641D01*
X4759307Y1002807D01*
Y2226397D01*
X4943691Y2410781D01*
Y2430484D01*
X4059878Y1371357D02*
X4426745D01*
X4017533Y1413702D02*
X4059878Y1371357D01*
X3967770Y1820310D02*
X4000500Y1853039D01*
X4000985Y1852979D02*
X4038445Y1890439D01*
X4149632D01*
X4189677Y1930485D01*
X4221375D01*
X4921764Y2600951D02*
Y2658558D01*
X4943691Y2680484D01*
X4659333Y2338520D02*
X4921764Y2600951D01*
X4659333Y1075165D02*
Y2338520D01*
Y1075165D02*
X4692546Y1041953D01*
Y1036541D02*
Y1041953D01*
X4824242Y2061035D02*
X4942736Y2179530D01*
X4824242Y1013110D02*
Y2061035D01*
X4727272Y916140D02*
X4824242Y1013110D01*
X4564752Y916140D02*
X4727272D01*
X7847934Y3534883D02*
Y3777993D01*
X7527464Y4098463D02*
X7847934Y3777993D01*
X6904133Y4098463D02*
X7527464D01*
X6784161Y3978491D02*
X6904133Y4098463D01*
X6756315Y3978491D02*
X6784161D01*
X7710659Y3660120D02*
Y3767441D01*
X7683994Y3794107D02*
X7710659Y3767441D01*
X6460403Y3794107D02*
X7683994Y3794107D01*
X6276019Y3978491D02*
X6460403Y3794107D01*
X6256316Y3978491D02*
X6276019Y3978491D01*
X7315443Y3094678D02*
X7315444Y3461545D01*
X7273098Y3052333D02*
X7315443Y3094678D01*
X6796361Y3073245D02*
X6833820Y3035785D01*
X6796361Y3073245D02*
X6796361Y3184432D01*
X6756315Y3224477D02*
X6796361Y3184432D01*
X6756315Y3224477D02*
X6756315Y3256175D01*
X6028242Y3956564D02*
X6085849D01*
X6006316Y3978491D02*
X6028242Y3956564D01*
X6085849D02*
X6348280Y3694133D01*
X7611635D01*
X7644848Y3727345D01*
X7650259Y3727346D01*
X6507270Y3977536D02*
X6625764Y3859042D01*
X7673690Y3859042D01*
X7770660Y3762072D01*
Y3599552D02*
Y3762072D01*
X4529407Y1366228D02*
Y1371092D01*
X4386561Y1513938D02*
X4529407Y1371092D01*
X4386561Y1513938D02*
Y1594162D01*
Y2005084D02*
Y2117432D01*
X4323509Y2180484D02*
X4386561Y2117432D01*
X4221376Y2180484D02*
X4323509D01*
X4581649Y1515784D02*
Y2489425D01*
X4405585Y2665489D02*
X4581649Y2489425D01*
X4236371Y2665489D02*
X4405585D01*
X4221376Y2680484D02*
X4236371Y2665489D01*
X7172862Y3421362D02*
X7315708Y3564207D01*
X7320573Y3564207D01*
X7092638Y3421361D02*
X7172862Y3421362D01*
X6569368Y3421361D02*
X6681716Y3421361D01*
X6506316Y3358309D02*
X6569368Y3421361D01*
X6506316Y3256176D02*
Y3358309D01*
X6197375Y3616449D02*
X7171016D01*
X6021311Y3440385D02*
X6197375Y3616449D01*
X6021311Y3440385D02*
X6021311Y3271171D01*
X6006316Y3256176D02*
X6021311Y3271171D01*
D15*
X4167330Y4992830D02*
Y5020966D01*
X4597400Y5451036D01*
X3657600Y5689600D02*
X4628374D01*
X3303379Y5223363D02*
Y5335379D01*
X3657600Y5689600D01*
X3298450Y5218434D02*
X3303379Y5223363D01*
X4628374Y5689600D02*
X4851400Y5466574D01*
X6563379Y5044421D02*
Y5178670D01*
Y5201263D01*
X6642100Y4965700D02*
X6896100D01*
X6563379Y5044421D02*
X6642100Y4965700D01*
X3191070Y5188675D02*
Y5188675D01*
X3086100Y5083705D02*
X3191070Y5188675D01*
X3086100Y4953000D02*
Y5083705D01*
X3191070Y5188675D02*
X3220828Y5218434D01*
X3298450D01*
D16*
X5125261Y5449672D02*
Y6471461D01*
D22*
X5359400Y5466574D02*
D03*
X5105400D02*
D03*
X4851400Y5466574D02*
D03*
X4597400Y5466574D02*
D03*
D23*
X5880100Y4965700D02*
D03*
X6896100D02*
D03*
X3086100Y4953000D02*
D03*
X4102100D02*
D03*
X4943691Y2680484D02*
D03*
Y2430484D02*
D03*
Y2180484D02*
D03*
Y1930484D02*
D03*
Y1680484D02*
D03*
X4221375Y1930485D02*
D03*
X4221376Y2180484D02*
D03*
Y2430484D02*
D03*
Y2680484D02*
D03*
Y2930484D02*
D03*
X6006316Y3978491D02*
D03*
X6256316D02*
D03*
X6506316D02*
D03*
X6756316Y3978490D02*
D03*
X7006316Y3978491D02*
D03*
X6756315Y3256175D02*
D03*
X6506316Y3256176D02*
D03*
X6256316Y3256175D02*
D03*
X6006316Y3256176D02*
D03*
X5756316Y3256176D02*
D03*
D24*
X5330799Y6477001D02*
D03*
X4530800Y6477000D02*
D03*
D25*
X5130800Y6477000D02*
D03*
X4930800Y6477000D02*
D03*
D26*
X4730800D02*
D03*
D27*
X4943691Y2930484D02*
D03*
X4221376Y1680484D02*
D03*
D28*
X5756316Y3978491D02*
D03*
X7006316Y3256175D02*
D03*
D29*
X6216614Y1954349D02*
D03*
D30*
X5857403Y1954349D02*
D03*
X6216615Y1595138D02*
D03*
X6575826Y1954347D02*
D03*
X6216615Y2313559D02*
D03*
D31*
X3563379Y5223363D02*
D03*
X6563379D02*
D03*
D32*
X3433379Y5223363D02*
D03*
X3303379D02*
D03*
X6303380D02*
D03*
X6433379Y5223363D02*
D03*
D33*
X6746579Y5704863D02*
D03*
X3152479Y1767863D02*
D03*
D34*
X7133379Y2212363D02*
D03*
Y5212363D02*
D03*
X2733379Y2212363D02*
D03*
Y5212363D02*
D03*
X5568379Y2607462D02*
D03*
D35*
X4500083Y838866D02*
D03*
X4623941Y977521D02*
D03*
X4426745Y1371357D02*
D03*
X4598933Y1377286D02*
D03*
X4692546Y1036541D02*
D03*
X4564752Y916140D02*
D03*
X7847934Y3534883D02*
D03*
X7709279Y3658741D02*
D03*
X7315444Y3461545D02*
D03*
X7309514Y3633733D02*
D03*
X7650259Y3727346D02*
D03*
X7770660Y3599552D02*
D03*
X4529407Y1366228D02*
D03*
X4581309Y1515444D02*
D03*
X7320573Y3564207D02*
D03*
X7171356Y3616109D02*
D03*
D36*
X5822379Y2340763D02*
D03*
D37*
X6304946Y3440016D02*
G03*
X6349847Y3440016I22451J22451D01*
G01*
X6275247Y3469715D02*
G03*
X6230345Y3469715I-22451J-22451D01*
G01*
X6230345Y3469715D02*
G03*
X6230345Y3424814I22451J-22450D01*
G01*
X6260045Y3350213D02*
G03*
X6260045Y3395115I-22451J22451D01*
G01*
X4405215Y2381854D02*
G03*
X4405215Y2336953I22451J-22451D01*
G01*
X4434915Y2411554D02*
G03*
X4434915Y2456455I-22451J22451D01*
G01*
X4434915Y2456455D02*
G03*
X4390014Y2456455I-22451J-22451D01*
G01*
X4315413Y2426755D02*
G03*
X4360314Y2426755I22451J22451D01*
G01*
X6416123Y3506291D02*
X6426200Y3516368D01*
X6349847Y3440016D02*
X6416123Y3506291D01*
X6275247Y3469715D02*
X6304946Y3440016D01*
X6230345Y3469715D02*
X6230345Y3469715D01*
X6230345Y3424814D02*
X6260045Y3395115D01*
X6260044Y3395114D02*
X6260045Y3395115D01*
X6260044Y3350213D02*
X6260045Y3350213D01*
X6254584Y3344753D02*
X6260044Y3350213D01*
X6254584Y3335520D02*
Y3344753D01*
X6426199Y3516368D02*
X6426200Y3516368D01*
X6254584Y3335520D02*
X6254584D01*
X4471492Y2270676D02*
X4481568Y2260600D01*
X4405215Y2336953D02*
X4471492Y2270676D01*
X4405215Y2381854D02*
X4434915Y2411554D01*
X4434915D02*
X4434915D01*
X4434915Y2456455D02*
X4434915Y2456455D01*
X4360314Y2426755D02*
X4390014Y2456455D01*
X4315412Y2426756D02*
X4315413Y2426755D01*
X4309953Y2432216D02*
X4315413Y2426756D01*
X4300720Y2432216D02*
X4309953D01*
X4598933Y1377286D02*
X4601802Y1380155D01*
Y1398387D01*
X4500876Y1499313D02*
X4601802Y1398387D01*
X4500876Y1499313D02*
Y2241293D01*
X4481568Y2260600D02*
X4500876Y2241293D01*
X4240930Y2432216D02*
X4300720D01*
X4221376Y2430484D02*
X4232019Y2441127D01*
X4240930Y2432216D01*
X7187487Y3535676D02*
X7288413Y3636602D01*
X7306645D02*
X7309514Y3633733D01*
X7288413Y3636602D02*
X7306645D01*
X6445507Y3535676D02*
X7187487Y3535676D01*
X6426200Y3516368D02*
X6445507Y3535676D01*
X6254584Y3275730D02*
Y3335520D01*
X6245673Y3266818D02*
X6256316Y3256175D01*
X6245673Y3266818D02*
X6254584Y3275730D01*
D38*
X4597400Y5451036D02*
Y5466574D01*
X4614989Y5448985D02*
X4818874Y5245100D01*
X4597400Y5466574D02*
X4614989Y5448985D01*
X4126454Y4953000D02*
X4166284Y4992830D01*
X4102100Y4953000D02*
X4126454D01*
X4166284Y4992830D02*
X4167330D01*
X5880100Y5245100D02*
X6096000Y5029200D01*
X4818874Y5245100D02*
X5880100D01*
X6096000Y5029200D02*
X6548158D01*
X6563379Y5044421D01*
Y5201263D02*
Y5223363D01*
Y5044421D02*
Y5201263D01*
D39*
X3831737Y5223363D02*
X4089400Y4965700D01*
X3563379Y5223363D02*
X3831737D01*
%TF.MD5,70ebf579543e40b5b0a7a475fd0f3a37*%
M02*
