%TF.GenerationSoftware,Altium Limited,Altium Designer,22.7.1 (60)*%
G04 Layer_Color=2752767*
%FSLAX45Y45*%
%MOMM*%
%TF.SameCoordinates,7EA997FE-DDDF-495E-A45D-074EEB3093BC*%
%TF.FilePolarity,Positive*%
%TF.FileFunction,Drawing*%
%TF.Part,Single*%
G01*
G75*
%TA.AperFunction,NonConductor*%
%ADD71C,0.12700*%
%ADD72C,0.16933*%
%ADD73C,0.10160*%
D71*
X5676900Y4864100D02*
X5702300Y4914900D01*
X5676900Y4965700D01*
X5727700Y4940300D01*
X5778500Y4965700D01*
X5753100Y4914900D01*
X5778500Y4864100D01*
X5727700Y4889500D01*
X5676900Y4864100D01*
X6692900D02*
X6718300Y4914900D01*
X6692900Y4965700D01*
X6743700Y4940300D01*
X6794500Y4965700D01*
X6769100Y4914900D01*
X6794500Y4864100D01*
X6743700Y4889500D01*
X6692900Y4864100D01*
X4546600Y5364974D02*
X4597400Y5415774D01*
X4648200Y5364974D01*
X4597400Y5314174D01*
X4546600Y5364974D01*
X4800600Y5364974D02*
X4851400Y5415774D01*
X4902200Y5364974D01*
X4851400Y5314174D01*
X4800600Y5364974D01*
X5054600Y5364974D02*
X5105400Y5415774D01*
X5156200Y5364974D01*
X5105400Y5314174D01*
X5054600Y5364974D01*
X5308600D02*
X5359400Y5415774D01*
X5410200Y5364974D01*
X5359400Y5314174D01*
X5308600Y5364974D01*
X5140300Y6324600D02*
X5165700Y6350000D01*
X5191100D01*
X5165700Y6375400D01*
X5191100Y6400800D01*
X5165700D01*
X5140300Y6426200D01*
X5114900Y6400800D01*
X5089500D01*
X5114900Y6375400D01*
X5089500Y6350000D01*
X5114900D01*
X5140300Y6324600D01*
Y6344920D02*
X5155540Y6360160D01*
X5170780D01*
X5155540Y6375400D01*
X5170780Y6390640D01*
X5155540D01*
X5140300Y6405880D01*
X5125060Y6390640D01*
X5109820D01*
X5125060Y6375400D01*
X5109820Y6360160D01*
X5125060D01*
X5140300Y6344920D01*
X4940300Y6324600D02*
X4965700Y6350000D01*
X4991100D01*
X4965700Y6375400D01*
X4991100Y6400800D01*
X4965700D01*
X4940300Y6426200D01*
X4914900Y6400800D01*
X4889500D01*
X4914900Y6375400D01*
X4889500Y6350000D01*
X4914900D01*
X4940300Y6324600D01*
Y6344920D02*
X4955540Y6360160D01*
X4970780D01*
X4955540Y6375400D01*
X4970780Y6390640D01*
X4955540D01*
X4940300Y6405880D01*
X4925060Y6390640D01*
X4909820D01*
X4925060Y6375400D01*
X4909820Y6360160D01*
X4925060D01*
X4940300Y6344920D01*
X4740300Y6324600D02*
X4765700Y6350000D01*
X4791100D01*
X4765700Y6375400D01*
X4791100Y6400800D01*
X4765700D01*
X4740300Y6426200D01*
X4714900Y6400800D01*
X4689500D01*
X4714900Y6375400D01*
X4689500Y6350000D01*
X4714900D01*
X4740300Y6324600D01*
Y6344920D02*
X4755540Y6360160D01*
X4770780D01*
X4755540Y6375400D01*
X4770780Y6390640D01*
X4755540D01*
X4740300Y6405880D01*
X4725060Y6390640D01*
X4709820D01*
X4725060Y6375400D01*
X4709820Y6360160D01*
X4725060D01*
X4740300Y6344920D01*
X3289300Y4747149D02*
X3314700Y4797949D01*
X3289300Y4848749D01*
X3340100Y4823349D01*
X3390900Y4848749D01*
X3365500Y4797949D01*
X3390900Y4747149D01*
X3340100Y4772549D01*
X3289300Y4747149D01*
X4305300D02*
X4330700Y4797949D01*
X4305300Y4848749D01*
X4356100Y4823349D01*
X4406900Y4848749D01*
X4381500Y4797949D01*
X4406900Y4747149D01*
X4356100Y4772549D01*
X4305300Y4747149D01*
X4943691Y2879684D02*
X4892891Y2981284D01*
X4994491D01*
X4943691Y2879684D01*
Y2629684D02*
X4892891Y2731284D01*
X4994491D01*
X4943691Y2629684D01*
Y2379684D02*
X4892891Y2481284D01*
X4994491D01*
X4943691Y2379684D01*
Y2129684D02*
X4892891Y2231284D01*
X4994491D01*
X4943691Y2129684D01*
Y1879684D02*
X4892891Y1981284D01*
X4994491D01*
X4943691Y1879684D01*
Y1629684D02*
X4892891Y1731284D01*
X4994491D01*
X4943691Y1629684D01*
X4221376D02*
X4170576Y1731284D01*
X4272176D01*
X4221376Y1629684D01*
X4221375Y1879685D02*
X4170575Y1981285D01*
X4272175D01*
X4221375Y1879685D01*
X4221376Y2129684D02*
X4170576Y2231284D01*
X4272176D01*
X4221376Y2129684D01*
Y2379684D02*
X4170576Y2481284D01*
X4272176D01*
X4221376Y2379684D01*
Y2629684D02*
X4170576Y2731284D01*
X4272176D01*
X4221376Y2629684D01*
Y2879684D02*
X4170576Y2981284D01*
X4272176D01*
X4221376Y2879684D01*
X5756316Y3927691D02*
X5705516Y4029291D01*
X5807116D01*
X5756316Y3927691D01*
X6006316Y3927691D02*
X5955516Y4029291D01*
X6057116D01*
X6006316Y3927691D01*
X6256316D02*
X6205516Y4029291D01*
X6307116D01*
X6256316Y3927691D01*
X6506316D02*
X6455516Y4029291D01*
X6557116D01*
X6506316Y3927691D01*
X6756316Y3927690D02*
X6705516Y4029290D01*
X6807116D01*
X6756316Y3927690D01*
X7006316Y3927691D02*
X6955516Y4029291D01*
X7057116D01*
X7006316Y3927691D01*
Y3205375D02*
X6955516Y3306975D01*
X7057116D01*
X7006316Y3205375D01*
X6756315Y3205375D02*
X6705515Y3306975D01*
X6807115D01*
X6756315Y3205375D01*
X6506316Y3205376D02*
X6455516Y3306976D01*
X6557116D01*
X6506316Y3205376D01*
X6256316Y3205375D02*
X6205516Y3306975D01*
X6307116D01*
X6256316Y3205375D01*
X6006316Y3205376D02*
X5955516Y3306976D01*
X6057116D01*
X6006316Y3205376D01*
X5756316Y3205376D02*
X5705516Y3306976D01*
X5807116D01*
X5756316Y3205376D01*
X6165814Y1903549D02*
Y2005149D01*
X6267414D01*
Y1903549D01*
X6165814D01*
X3563379Y5172563D02*
X3588779Y5197963D01*
X3614179D01*
X3588779Y5223363D01*
X3614179Y5248763D01*
X3588779D01*
X3563379Y5274163D01*
X3537979Y5248763D01*
X3512579D01*
X3537979Y5223363D01*
X3512579Y5197963D01*
X3537979D01*
X3563379Y5172563D01*
X3433379Y5172563D02*
X3458779Y5197963D01*
X3484179D01*
X3458779Y5223363D01*
X3484179Y5248763D01*
X3458779D01*
X3433379Y5274163D01*
X3407979Y5248763D01*
X3382579D01*
X3407979Y5223363D01*
X3382579Y5197963D01*
X3407979D01*
X3433379Y5172563D01*
X3303379D02*
X3328779Y5197963D01*
X3354179D01*
X3328779Y5223363D01*
X3354179Y5248763D01*
X3328779D01*
X3303379Y5274163D01*
X3277979Y5248763D01*
X3252579D01*
X3277979Y5223363D01*
X3252579Y5197963D01*
X3277979D01*
X3303379Y5172563D01*
X6303380D02*
X6328780Y5197963D01*
X6354180D01*
X6328780Y5223363D01*
X6354180Y5248763D01*
X6328780D01*
X6303380Y5274163D01*
X6277980Y5248763D01*
X6252580D01*
X6277980Y5223363D01*
X6252580Y5197963D01*
X6277980D01*
X6303380Y5172563D01*
X6433379Y5172563D02*
X6458779Y5197963D01*
X6484179D01*
X6458779Y5223363D01*
X6484179Y5248763D01*
X6458779D01*
X6433379Y5274163D01*
X6407979Y5248763D01*
X6382579D01*
X6407979Y5223363D01*
X6382579Y5197963D01*
X6407979D01*
X6433379Y5172563D01*
X6563379Y5172563D02*
X6588779Y5197963D01*
X6614179D01*
X6588779Y5223363D01*
X6614179Y5248763D01*
X6588779D01*
X6563379Y5274163D01*
X6537979Y5248763D01*
X6512579D01*
X6537979Y5223363D01*
X6512579Y5197963D01*
X6537979D01*
X6563379Y5172563D01*
X4500083Y788066D02*
X4449283Y889666D01*
X4550883D01*
X4500083Y788066D01*
Y808386D02*
X4469603Y869346D01*
X4530563D01*
X4500083Y808386D01*
X4623941Y926721D02*
X4573141Y1028321D01*
X4674741D01*
X4623941Y926721D01*
Y947041D02*
X4593461Y1008001D01*
X4654421D01*
X4623941Y947041D01*
X4426745Y1320557D02*
X4375945Y1422157D01*
X4477545D01*
X4426745Y1320557D01*
Y1340877D02*
X4396265Y1401837D01*
X4457225D01*
X4426745Y1340877D01*
X4598933Y1326486D02*
X4548133Y1428086D01*
X4649733D01*
X4598933Y1326486D01*
Y1346806D02*
X4568453Y1407766D01*
X4629413D01*
X4598933Y1346806D01*
X4692546Y985741D02*
X4641746Y1087341D01*
X4743346D01*
X4692546Y985741D01*
Y1006061D02*
X4662066Y1067021D01*
X4723026D01*
X4692546Y1006061D01*
X4564752Y865340D02*
X4513952Y966940D01*
X4615552D01*
X4564752Y865340D01*
Y885660D02*
X4534272Y946620D01*
X4595232D01*
X4564752Y885660D01*
X7847934Y3484083D02*
X7797134Y3585683D01*
X7898734D01*
X7847934Y3484083D01*
Y3504403D02*
X7817454Y3565363D01*
X7878414D01*
X7847934Y3504403D01*
X7709279Y3607941D02*
X7658479Y3709541D01*
X7760079D01*
X7709279Y3607941D01*
Y3628261D02*
X7678799Y3689221D01*
X7739759D01*
X7709279Y3628261D01*
X7315444Y3410745D02*
X7264644Y3512345D01*
X7366244D01*
X7315444Y3410745D01*
Y3431065D02*
X7284964Y3492025D01*
X7345924D01*
X7315444Y3431065D01*
X7309514Y3582933D02*
X7258714Y3684533D01*
X7360314D01*
X7309514Y3582933D01*
Y3603253D02*
X7279034Y3664213D01*
X7339994D01*
X7309514Y3603253D01*
X7650259Y3676546D02*
X7599459Y3778146D01*
X7701059D01*
X7650259Y3676546D01*
Y3696866D02*
X7619779Y3757826D01*
X7680739D01*
X7650259Y3696866D01*
X7770660Y3548752D02*
X7719860Y3650352D01*
X7821460D01*
X7770660Y3548752D01*
Y3569072D02*
X7740180Y3630032D01*
X7801140D01*
X7770660Y3569072D01*
X4529407Y1315428D02*
X4478607Y1417028D01*
X4580207D01*
X4529407Y1315428D01*
Y1335748D02*
X4498927Y1396708D01*
X4559887D01*
X4529407Y1335748D01*
X4581309Y1464644D02*
X4530509Y1566244D01*
X4632109D01*
X4581309Y1464644D01*
Y1484964D02*
X4550829Y1545924D01*
X4611789D01*
X4581309Y1484964D01*
X7320573Y3513407D02*
X7269773Y3615007D01*
X7371373D01*
X7320573Y3513407D01*
Y3533727D02*
X7290093Y3594687D01*
X7351053D01*
X7320573Y3533727D01*
X7171356Y3565309D02*
X7120556Y3666909D01*
X7222156D01*
X7171356Y3565309D01*
Y3585629D02*
X7140876Y3646589D01*
X7201836D01*
X7171356Y3585629D01*
X5517579Y2556662D02*
X5542979D01*
X5568379Y2582062D01*
X5593779Y2556662D01*
X5619179D01*
Y2582062D01*
X5593779Y2607462D01*
X5619179Y2632862D01*
Y2658262D01*
X5593779D01*
X5568379Y2632862D01*
X5542979Y2658262D01*
X5517579D01*
Y2632862D01*
X5542979Y2607462D01*
X5517579Y2582062D01*
Y2556662D01*
X5796979Y2315363D02*
Y2289963D01*
X5847779D01*
Y2315363D01*
X5873179D01*
Y2366163D01*
X5847779D01*
Y2391563D01*
X5796979D01*
Y2366163D01*
X5771579D01*
Y2315363D01*
X5796979D01*
D72*
X5391099Y6375401D02*
G03*
X5391099Y6375401I-50800J0D01*
G01*
X4591100Y6375400D02*
G03*
X4591100Y6375400I-50800J0D01*
G01*
X5908203Y1954349D02*
G03*
X5908203Y1954349I-50800J0D01*
G01*
X6267415Y1595138D02*
G03*
X6267415Y1595138I-50800J0D01*
G01*
X6626626Y1954347D02*
G03*
X6626626Y1954347I-50800J0D01*
G01*
X6267415Y2313559D02*
G03*
X6267415Y2313559I-50800J0D01*
G01*
D73*
X5370779Y6375401D02*
G03*
X5370779Y6375401I-30480J0D01*
G01*
X4570780Y6375400D02*
G03*
X4570780Y6375400I-30480J0D01*
G01*
%TF.MD5,db62c4e96591ebef68644ed04e4b9cd5*%
M02*
