%TF.GenerationSoftware,Altium Limited,Altium Designer,22.7.1 (60)*%
G04 Layer_Color=65535*
%FSLAX45Y45*%
%MOMM*%
%TF.SameCoordinates,2E8CAF61-F9F5-4988-A97D-765C0E49F6B8*%
%TF.FilePolarity,Positive*%
%TF.FileFunction,Legend,Top*%
%TF.Part,Single*%
G01*
G75*
%TA.AperFunction,NonConductor*%
%ADD38C,0.25000*%
%ADD39C,0.20000*%
%ADD40C,0.30000*%
%ADD48C,0.25400*%
%ADD49C,0.10000*%
%ADD50C,0.30480*%
D38*
X-203401Y2941800D02*
G03*
X-203401Y2941800I-12500J0D01*
G01*
X2375816Y-464924D02*
G03*
X2375816Y-464924I-12500J0D01*
G01*
X505816Y257390D02*
G03*
X505816Y257390I-12500J0D01*
G01*
X-719124Y-2350616D02*
G03*
X-719124Y-2350616I-12500J0D01*
G01*
X3191Y-480616D02*
G03*
X3191Y-480616I-12500J0D01*
G01*
D39*
X959559Y-1462697D02*
G03*
X966630Y-1469768I3535J-3535D01*
G01*
D02*
G03*
X959559Y-1462697I-3535J3535D01*
G01*
D02*
G03*
X966630Y-1469768I3535J-3535D01*
G01*
X977900Y1092200D02*
Y1295400D01*
X1587500D01*
Y1092200D02*
Y1295400D01*
X977900Y1092200D02*
X1587500D01*
X876300Y1193800D02*
X977900D01*
X1587500D02*
X1689100D01*
X-455900Y2539300D02*
X-455900Y2419300D01*
X424100D01*
X424100Y2539300D01*
X-455900Y2889300D02*
X-455900Y2769300D01*
X424099Y2769300D02*
X424100Y2889300D01*
X-455900Y2889300D02*
X424100Y2889300D01*
X-1409700Y975249D02*
Y1178449D01*
X-800100D01*
Y975249D02*
Y1178449D01*
X-1409700Y975249D02*
X-800100D01*
X-1511300Y1076849D02*
X-1409700D01*
X-800100D02*
X-698500D01*
X553316Y-144924D02*
X2303316Y-144924D01*
X2303315Y-784925D02*
X2303316Y-144924D01*
X553316Y-784924D02*
X2303315Y-784925D01*
X553316Y-784924D02*
Y-144924D01*
X553316Y-62610D02*
X2303316Y-62609D01*
X553316Y577391D02*
X553316Y-62610D01*
X553316Y577391D02*
X2303316D01*
X2303316Y-62609D01*
X-411624Y-2290616D02*
X-411624Y-540616D01*
X-1051625Y-2290615D02*
X-411624Y-2290616D01*
X-1051625Y-2290615D02*
Y-540616D01*
X-411624Y-540616D01*
X-329309Y-2290616D02*
Y-540616D01*
X310691D01*
Y-2290616D02*
Y-540616D01*
X-329309Y-2290616D02*
X310691D01*
X1902993Y-935652D02*
X1929651D01*
X1942980Y-922323D01*
Y-869007D01*
X1929651Y-855677D01*
X1902993D01*
X1889664Y-869007D01*
Y-922323D01*
X1902993Y-935652D01*
X1809690D02*
X1863006D01*
Y-855677D01*
X1809690D01*
X1863006Y-895665D02*
X1836348D01*
X1729716Y-855677D02*
X1783032D01*
X1729716Y-908994D01*
Y-922323D01*
X1743045Y-935652D01*
X1769703D01*
X1783032Y-922323D01*
X1703058Y-842348D02*
X1649741D01*
X1623083Y-935652D02*
X1569767D01*
X1596425D01*
Y-855677D01*
X1503122Y-935652D02*
X1529780D01*
X1543109Y-922323D01*
Y-869007D01*
X1529780Y-855677D01*
X1503122D01*
X1489793Y-869007D01*
Y-922323D01*
X1503122Y-935652D01*
X1463135Y-855677D02*
Y-935652D01*
X1423148D01*
X1409819Y-922323D01*
Y-895665D01*
X1423148Y-882336D01*
X1463135D01*
X903707Y973752D02*
X877049D01*
X863719Y960423D01*
Y907107D01*
X877049Y893777D01*
X903707D01*
X917036Y907107D01*
Y960423D01*
X903707Y973752D01*
X997010D02*
X943694D01*
Y893777D01*
X997010D01*
X943694Y933765D02*
X970352D01*
X1076984Y893777D02*
X1023668D01*
X1076984Y947094D01*
Y960423D01*
X1063655Y973752D01*
X1036997D01*
X1023668Y960423D01*
X1103642Y880448D02*
X1156958D01*
X1183616Y973752D02*
Y893777D01*
X1223603D01*
X1236932Y907107D01*
Y920436D01*
X1223603Y933765D01*
X1183616D01*
X1223603D01*
X1236932Y947094D01*
Y960423D01*
X1223603Y973752D01*
X1183616D01*
X1303578D02*
X1276919D01*
X1263590Y960423D01*
Y907107D01*
X1276919Y893777D01*
X1303578D01*
X1316906Y907107D01*
Y960423D01*
X1303578Y973752D01*
X1343564D02*
X1396881D01*
X1370223D01*
Y893777D01*
X-1570652Y-1832829D02*
Y-1859487D01*
X-1557323Y-1872816D01*
X-1504007D01*
X-1490678Y-1859487D01*
Y-1832829D01*
X-1504007Y-1819500D01*
X-1557323D01*
X-1570652Y-1832829D01*
Y-1739526D02*
Y-1792842D01*
X-1490678D01*
Y-1739526D01*
X-1530665Y-1792842D02*
Y-1766184D01*
X-1490678Y-1712868D02*
Y-1686209D01*
Y-1699538D01*
X-1570652D01*
X-1557323Y-1712868D01*
X-1477349Y-1646222D02*
Y-1592906D01*
X-1570652Y-1566248D02*
Y-1512932D01*
Y-1539590D01*
X-1490678D01*
X-1570652Y-1446287D02*
Y-1472945D01*
X-1557323Y-1486274D01*
X-1504007D01*
X-1490678Y-1472945D01*
Y-1446287D01*
X-1504007Y-1432958D01*
X-1557323D01*
X-1570652Y-1446287D01*
X-1490678Y-1406300D02*
X-1570652D01*
Y-1366312D01*
X-1557323Y-1352984D01*
X-1530665D01*
X-1517336Y-1366312D01*
Y-1406300D01*
X385148Y-1972529D02*
Y-1999187D01*
X398477Y-2012516D01*
X451793D01*
X465122Y-1999187D01*
Y-1972529D01*
X451793Y-1959200D01*
X398477D01*
X385148Y-1972529D01*
Y-1879226D02*
Y-1932542D01*
X465122D01*
Y-1879226D01*
X425135Y-1932542D02*
Y-1905884D01*
X465122Y-1852568D02*
Y-1825909D01*
Y-1839238D01*
X385148D01*
X398477Y-1852568D01*
X478451Y-1785922D02*
Y-1732606D01*
X385148Y-1705948D02*
X465122D01*
Y-1665961D01*
X451793Y-1652632D01*
X438464D01*
X425135Y-1665961D01*
Y-1705948D01*
Y-1665961D01*
X411806Y-1652632D01*
X398477D01*
X385148Y-1665961D01*
Y-1705948D01*
Y-1585987D02*
Y-1612645D01*
X398477Y-1625974D01*
X451793D01*
X465122Y-1612645D01*
Y-1585987D01*
X451793Y-1572658D01*
X398477D01*
X385148Y-1585987D01*
Y-1546000D02*
Y-1492684D01*
Y-1519342D01*
X465122D01*
D40*
X1799000Y637170D02*
X1908965D01*
Y692152D01*
X1890638Y710479D01*
X1872310D01*
X1853983Y692152D01*
Y637170D01*
Y692152D01*
X1835655Y710479D01*
X1817328D01*
X1799000Y692152D01*
Y637170D01*
X1908965Y820444D02*
Y747134D01*
X1835655Y820444D01*
X1817328D01*
X1799000Y802117D01*
Y765462D01*
X1817328Y747134D01*
X-1311468Y-915312D02*
X-1238158D01*
X-1274813D01*
Y-1025277D01*
X-1128194Y-915312D02*
X-1201503D01*
Y-970294D01*
X-1164849Y-951967D01*
X-1146521D01*
X-1128194Y-970294D01*
Y-1006949D01*
X-1146521Y-1025277D01*
X-1183176D01*
X-1201503Y-1006949D01*
X-1311469Y-648611D02*
X-1238159D01*
X-1274814D01*
Y-758575D01*
X-1128195Y-648611D02*
X-1164850Y-666938D01*
X-1201504Y-703593D01*
Y-740248D01*
X-1183177Y-758575D01*
X-1146522D01*
X-1128195Y-740248D01*
Y-721921D01*
X-1146522Y-703593D01*
X-1201504D01*
X-1311468Y-1448712D02*
X-1238158D01*
X-1274813D01*
Y-1558676D01*
X-1201504Y-1467039D02*
X-1183176Y-1448712D01*
X-1146521D01*
X-1128194Y-1467039D01*
Y-1485366D01*
X-1146521Y-1503694D01*
X-1164849D01*
X-1146521D01*
X-1128194Y-1522021D01*
Y-1540349D01*
X-1146521Y-1558676D01*
X-1183176D01*
X-1201504Y-1540349D01*
X-1311468Y-1715411D02*
X-1238158D01*
X-1274813D01*
Y-1825376D01*
X-1128194D02*
X-1201504D01*
X-1128194Y-1752066D01*
Y-1733738D01*
X-1146521Y-1715411D01*
X-1183176D01*
X-1201504Y-1733738D01*
X-1311468Y-1182012D02*
X-1238159D01*
X-1274814D01*
Y-1291976D01*
X-1146521D02*
Y-1182012D01*
X-1201504Y-1236994D01*
X-1128194D01*
X-1311470Y-1982111D02*
X-1238160D01*
X-1274815D01*
Y-2092075D01*
X-1201505D02*
X-1164850D01*
X-1183178D01*
Y-1982111D01*
X-1201505Y-2000438D01*
X2054687Y637170D02*
X2164652D01*
Y692152D01*
X2146324Y710479D01*
X2127997D01*
X2109669Y692152D01*
Y637170D01*
Y692152D01*
X2091342Y710479D01*
X2073014D01*
X2054687Y692152D01*
Y637170D01*
X2164652Y747134D02*
Y783789D01*
Y765462D01*
X2054687D01*
X2073014Y747134D01*
X1012429Y637170D02*
X1122393D01*
Y692152D01*
X1104066Y710480D01*
X1085739D01*
X1067411Y692152D01*
Y637170D01*
Y692152D01*
X1049084Y710480D01*
X1030756D01*
X1012429Y692152D01*
Y637170D01*
Y820444D02*
Y747134D01*
X1067411D01*
X1049084Y783789D01*
Y802117D01*
X1067411Y820444D01*
X1104066D01*
X1122393Y802117D01*
Y765462D01*
X1104066Y747134D01*
X758214Y637170D02*
X868178D01*
Y692152D01*
X849851Y710479D01*
X831524D01*
X813196Y692152D01*
Y637170D01*
Y692152D01*
X794869Y710479D01*
X776541D01*
X758214Y692152D01*
Y637170D01*
Y820444D02*
X776541Y783789D01*
X813196Y747134D01*
X849851D01*
X868178Y765462D01*
Y802117D01*
X849851Y820444D01*
X831524D01*
X813196Y802117D01*
Y747134D01*
X1266644Y637170D02*
X1376608D01*
Y692152D01*
X1358281Y710480D01*
X1339953D01*
X1321626Y692152D01*
Y637170D01*
Y692152D01*
X1303298Y710480D01*
X1284971D01*
X1266644Y692152D01*
Y637170D01*
X1376608Y802117D02*
X1266644D01*
X1321626Y747134D01*
Y820444D01*
X1520858Y637170D02*
X1630823D01*
Y692152D01*
X1612495Y710479D01*
X1594168D01*
X1575840Y692152D01*
Y637170D01*
Y692152D01*
X1557513Y710479D01*
X1539186D01*
X1520858Y692152D01*
Y637170D01*
X1539186Y747134D02*
X1520858Y765462D01*
Y802117D01*
X1539186Y820444D01*
X1557513D01*
X1575840Y802117D01*
Y783789D01*
Y802117D01*
X1594168Y820444D01*
X1612495D01*
X1630823Y802117D01*
Y765462D01*
X1612495Y747134D01*
D48*
X1948089Y1997863D02*
G03*
X1948089Y1997863I-151610J0D01*
G01*
X-1633311Y-1964537D02*
G03*
X-1633311Y-1964537I-151610J0D01*
G01*
X-2069621Y-1508737D02*
G03*
X-2069621Y-1508737I-150000J0D01*
G01*
X2330379Y1491263D02*
G03*
X2330379Y1491263I-150000J0D01*
G01*
Y-1508737D02*
G03*
X2330379Y-1508737I-150000J0D01*
G01*
X2498288Y-753381D02*
Y-804165D01*
X2523680Y-829557D01*
X2625247D01*
X2650639Y-804165D01*
Y-753381D01*
X2625247Y-727989D01*
X2523680D01*
X2498288Y-753381D01*
Y-575639D02*
Y-677206D01*
X2650639D01*
Y-575639D01*
X2574463Y-677206D02*
Y-626422D01*
X2650639Y-423288D02*
Y-524855D01*
X2549072Y-423288D01*
X2523680D01*
X2498288Y-448680D01*
Y-499463D01*
X2523680Y-524855D01*
X-994689Y-2485589D02*
X-1045472D01*
X-1070864Y-2510980D01*
Y-2612547D01*
X-1045472Y-2637939D01*
X-994689D01*
X-969297Y-2612547D01*
Y-2510980D01*
X-994689Y-2485589D01*
X-816946D02*
X-918514D01*
Y-2637939D01*
X-816946D01*
X-918514Y-2561764D02*
X-867730D01*
X-766163Y-2637939D02*
X-715379D01*
X-740771D01*
Y-2485589D01*
X-766163Y-2510980D01*
X-271766Y2293923D02*
X-288427Y2310584D01*
X-321750D01*
X-338411Y2293923D01*
Y2277261D01*
X-321750Y2260600D01*
X-288427D01*
X-271766Y2243939D01*
Y2227277D01*
X-288427Y2210616D01*
X-321750D01*
X-338411Y2227277D01*
X-238444Y2310584D02*
Y2210616D01*
X-205121Y2243939D01*
X-171798Y2210616D01*
Y2310584D01*
X-138476D02*
X-105153D01*
X-121814D01*
Y2210616D01*
X-138476D01*
X-105153D01*
X-55169Y2310584D02*
X11476D01*
X-21847D01*
Y2210616D01*
X111444Y2293923D02*
X94782Y2310584D01*
X61460D01*
X44798Y2293923D01*
Y2227277D01*
X61460Y2210616D01*
X94782D01*
X111444Y2227277D01*
X144766Y2310584D02*
Y2210616D01*
Y2260600D01*
X211411D01*
Y2310584D01*
Y2210616D01*
X1642176Y-1419692D02*
X1698726Y-1363142D01*
Y-1400842D01*
X1736426D01*
X1679876Y-1457392D01*
X1698726Y-1476242D02*
X1717576Y-1495093D01*
X1708151Y-1485668D01*
X1745851Y-1447967D01*
X1736426Y-1438542D01*
X1745851Y-1523368D02*
X1783552Y-1485668D01*
X1811827Y-1513943D01*
Y-1532793D01*
X1783552Y-1561068D01*
X1802402Y-1579918D02*
X1821252Y-1598768D01*
X1811827Y-1589343D01*
X1849527Y-1551643D01*
X1840102Y-1542218D01*
X1934352Y-1617618D02*
Y-1598768D01*
X1915502Y-1579918D01*
X1896652D01*
X1887227Y-1589343D01*
X1887227Y-1608193D01*
X1906077Y-1627043D01*
X1906077Y-1645893D01*
X1896652Y-1655319D01*
X1877802D01*
X1858952Y-1636468D01*
Y-1617618D01*
X1981478Y-1683594D02*
X1953203Y-1655319D01*
X1934352D01*
X1915502Y-1674169D01*
Y-1693019D01*
X1943777Y-1721294D01*
X1972053Y-1749569D02*
X1990903Y-1768419D01*
X2009753Y-1768419D01*
X2028603Y-1749569D01*
Y-1730719D01*
X2009753Y-1711869D01*
X1990903D01*
X1972053Y-1730719D01*
Y-1749569D01*
X2000328Y-1815544D02*
X2056878Y-1758994D01*
X2085153Y-1787269D01*
Y-1806119D01*
X2066303Y-1824969D01*
X2047453Y-1824969D01*
X2019178Y-1796694D01*
X2104003Y-1881520D02*
X2085153Y-1862670D01*
Y-1843819D01*
X2104003Y-1824969D01*
X2122854Y-1824969D01*
X2141704Y-1843820D01*
Y-1862669D01*
X2132278Y-1872095D01*
X2094578Y-1834394D01*
X1034294Y1146978D02*
Y1246946D01*
X1084277D01*
X1100939Y1230285D01*
Y1196962D01*
X1084277Y1180301D01*
X1034294D01*
X1067616D02*
X1100939Y1146978D01*
X1200906D02*
X1134261D01*
X1200906Y1213623D01*
Y1230285D01*
X1184245Y1246946D01*
X1150923D01*
X1134261Y1230285D01*
X-1298545Y1014165D02*
Y1114133D01*
X-1248561D01*
X-1231900Y1097472D01*
Y1064149D01*
X-1248561Y1047488D01*
X-1298545D01*
X-1265223D02*
X-1231900Y1014165D01*
X-1198577D02*
X-1165255D01*
X-1181916D01*
Y1114133D01*
X-1198577Y1097472D01*
X-1113111Y1583947D02*
Y1683915D01*
X-1079789Y1650592D01*
X-1046466Y1683915D01*
Y1583947D01*
X-946498Y1667253D02*
X-963160Y1683915D01*
X-996482D01*
X-1013144Y1667253D01*
Y1600608D01*
X-996482Y1583947D01*
X-963160D01*
X-946498Y1600608D01*
X-913176Y1683915D02*
Y1600608D01*
X-896514Y1583947D01*
X-863192D01*
X-846531Y1600608D01*
Y1683915D01*
X-813208Y1567285D02*
X-746563D01*
X-713240Y1683915D02*
X-679918D01*
X-696579D01*
Y1583947D01*
X-713240D01*
X-679918D01*
X-629934D02*
Y1683915D01*
X-563289Y1583947D01*
Y1683915D01*
D49*
X-505600Y1968875D02*
X556400Y1968874D01*
X556400Y1318874D02*
X556400Y1968874D01*
X-505600Y1318874D02*
X556400Y1318874D01*
X-505600Y1968875D02*
X-505600Y1318874D01*
X1316647Y-2314761D02*
X1836372Y-2834483D01*
X2331347Y-2339508D01*
X1811621Y-1819784D02*
X2331347Y-2339508D01*
D50*
X-426720Y1239520D02*
X-299761D01*
Y1176040D01*
X-320921Y1154880D01*
X-363240D01*
X-384400Y1176040D01*
Y1239520D01*
X-299761Y1112561D02*
X-426720D01*
X-384400Y1070241D01*
X-426720Y1027921D01*
X-299761D01*
X-426720Y985602D02*
X-299761D01*
Y922123D01*
X-320921Y900963D01*
X-363240D01*
X-384400Y922123D01*
Y985602D01*
Y943282D02*
X-426720Y900963D01*
X462255Y1239520D02*
X386080D01*
X424168D01*
Y1188737D01*
X462255D01*
X386080D01*
Y1163345D02*
X436863D01*
X462255Y1137953D01*
X436863Y1112561D01*
X386080D01*
X424168D01*
Y1163345D01*
X386080Y1087169D02*
Y1061777D01*
Y1074473D01*
X462255D01*
Y1087169D01*
X386080Y1023690D02*
Y998298D01*
Y1010994D01*
X462255D01*
Y1023690D01*
X424168Y960210D02*
Y909427D01*
X462255Y884035D02*
X386080D01*
Y845947D01*
X398776Y833252D01*
X411472D01*
X424168Y845947D01*
Y884035D01*
Y845947D01*
X436863Y833252D01*
X449559D01*
X462255Y845947D01*
Y884035D01*
X187079Y1154880D02*
X208239Y1176040D01*
Y1218360D01*
X187079Y1239520D01*
X102440D01*
X81280Y1218360D01*
Y1176040D01*
X102440Y1154880D01*
X144760D01*
Y1197200D01*
X81280Y1112561D02*
X208239D01*
X81280Y1027921D01*
X208239D01*
Y985602D02*
X81280D01*
Y922123D01*
X102440Y900963D01*
X187079D01*
X208239Y922123D01*
Y985602D01*
X-109245Y1239520D02*
X-185420D01*
X-147332D01*
Y1188736D01*
X-109245D01*
X-185420D01*
X-134637Y1150648D02*
Y1125257D01*
X-147332Y1112561D01*
X-185420D01*
Y1150648D01*
X-172724Y1163344D01*
X-160028Y1150648D01*
Y1112561D01*
X-185420Y1087169D02*
Y1061777D01*
Y1074473D01*
X-109245D01*
Y1087169D01*
X-185420Y1023690D02*
Y998298D01*
Y1010994D01*
X-109245D01*
Y1023690D01*
X-147332Y960210D02*
Y909427D01*
X-185420Y884035D02*
X-134637D01*
X-109245Y858643D01*
X-134637Y833251D01*
X-185420D01*
X-147332D01*
Y884035D01*
%TF.MD5,b0ae6b08ecf7901f9c508801262f54a9*%
M02*
