%TF.GenerationSoftware,Altium Limited,Altium Designer,22.7.1 (60)*%
G04 Layer_Color=255*
%FSLAX45Y45*%
%MOMM*%
%TF.SameCoordinates,2E8CAF61-F9F5-4988-A97D-765C0E49F6B8*%
%TF.FilePolarity,Positive*%
%TF.FileFunction,Pads,Top*%
%TF.Part,Single*%
G01*
G75*
%TA.AperFunction,SMDPad,CuDef*%
%ADD11R,0.38100X0.76200*%
%ADD12R,0.38100X1.01600*%
%ADD13R,0.76200X0.38100*%
%ADD14R,1.01600X0.38100*%
%TA.AperFunction,ComponentPad*%
%ADD23C,1.40000*%
%ADD24C,1.80000*%
%ADD25C,1.55000*%
%ADD26C,1.30000*%
%ADD27R,1.30000X1.30000*%
%ADD28R,1.40000X1.40000*%
%ADD29R,1.40000X1.40000*%
%ADD30C,2.25000*%
%ADD31C,2.55000*%
%ADD32R,1.15000X1.15000*%
%ADD33C,1.15000*%
D11*
X-519167Y-2576600D02*
D03*
X-455668D02*
D03*
X-392167Y-2576601D02*
D03*
X-328667Y-2576600D02*
D03*
X-265167D02*
D03*
X-201667D02*
D03*
D12*
X-519167Y-2462300D02*
D03*
X-455667D02*
D03*
X-392167Y-2462300D02*
D03*
X-328667Y-2462300D02*
D03*
X-265168Y-2462300D02*
D03*
X-201667Y-2462300D02*
D03*
D13*
X2589301Y-252467D02*
D03*
X2589300Y-188967D02*
D03*
Y-125467D02*
D03*
X2589301Y-61967D02*
D03*
Y1533D02*
D03*
Y65032D02*
D03*
D14*
X2475000Y-252467D02*
D03*
Y-188967D02*
D03*
X2475000Y-125467D02*
D03*
X2475000Y-61967D02*
D03*
X2475000Y1532D02*
D03*
X2475000Y65033D02*
D03*
D23*
X774700Y1193800D02*
D03*
X1790700D02*
D03*
X-1612900Y1076849D02*
D03*
X-596900D02*
D03*
X-9309Y-1040616D02*
D03*
Y-1290616D02*
D03*
Y-1540616D02*
D03*
Y-1790616D02*
D03*
Y-2040616D02*
D03*
X-731625Y-1790615D02*
D03*
X-731624Y-1540616D02*
D03*
Y-1290616D02*
D03*
Y-1040616D02*
D03*
Y-790616D02*
D03*
X1053316Y257391D02*
D03*
X1303316D02*
D03*
X1553316D02*
D03*
X1803316Y257390D02*
D03*
X2053316Y257391D02*
D03*
X1803315Y-464925D02*
D03*
X1553316Y-464924D02*
D03*
X1303316Y-464925D02*
D03*
X1053316Y-464924D02*
D03*
X803316Y-464924D02*
D03*
D24*
X-355600Y1643874D02*
D03*
X-101600Y1643874D02*
D03*
X152400Y1643874D02*
D03*
X406400D02*
D03*
D25*
X384100Y2654301D02*
D03*
X-415900Y2654300D02*
D03*
D26*
X184100Y2654300D02*
D03*
X-15900Y2654300D02*
D03*
D27*
X-215900D02*
D03*
D28*
X-9309Y-790616D02*
D03*
X-731624Y-2040616D02*
D03*
D29*
X803316Y257391D02*
D03*
X2053316Y-464925D02*
D03*
D30*
X1263614Y-1766751D02*
D03*
D31*
X904403Y-1766751D02*
D03*
X1263615Y-2125962D02*
D03*
X1622826Y-1766753D02*
D03*
X1263615Y-1407541D02*
D03*
D32*
X-1389621Y1502263D02*
D03*
X1610379D02*
D03*
D33*
X-1519621Y1502263D02*
D03*
X-1649621D02*
D03*
X1350380D02*
D03*
X1480379Y1502263D02*
D03*
%TF.MD5,d0219a69859ff65660ee9525f1ece0ac*%
M02*
