%TF.GenerationSoftware,Altium Limited,Altium Designer,22.7.1 (60)*%
G04 Layer_Color=32768*
%FSLAX45Y45*%
%MOMM*%
%TF.SameCoordinates,2E8CAF61-F9F5-4988-A97D-765C0E49F6B8*%
%TF.FilePolarity,Positive*%
%TF.FileFunction,Other,Mechanical_7*%
%TF.Part,Single*%
G01*
G75*
%TA.AperFunction,NonConductor*%
%ADD55C,0.15240*%
D55*
X3089680Y-315967D02*
Y128532D01*
X2911881Y-315967D02*
X3089680Y-315967D01*
X2657881Y-315968D02*
X2911881Y-315967D01*
X2657881Y128534D02*
X2911880Y128533D01*
X3089680Y128532D01*
X2646450Y65033D02*
X2657880Y65033D01*
X2646451Y1533D02*
X2657881Y1532D01*
X2646450Y-252467D02*
X2657880Y-252467D01*
X2657880Y65033D02*
X2657881Y128534D01*
X2657880Y65033D02*
X2657881Y1532D01*
X2657881Y-61967D02*
X2657881Y1532D01*
X2657880Y-125467D02*
X2657881Y-61967D01*
X2657880Y-125467D02*
X2657880Y-188967D01*
X2657880Y-252467D02*
X2657880Y-188967D01*
X2657880Y-252467D02*
X2657881Y-315968D01*
X2646451Y-61968D02*
X2657881Y-61967D01*
X2646450Y-125468D02*
X2657880Y-125467D01*
X2646450Y-188967D02*
X2657880D01*
X2911880Y128533D02*
X2911881Y-315967D01*
X-582667Y-3076980D02*
X-138168D01*
X-582667Y-2899181D02*
X-582667Y-3076980D01*
X-582668Y-2645181D02*
X-582667Y-2899181D01*
X-138167Y-2899180D02*
X-138167Y-2645180D01*
X-138168Y-3076980D02*
X-138167Y-2899180D01*
X-201667Y-2645180D02*
X-201667Y-2633750D01*
X-265167Y-2645181D02*
X-265167Y-2633751D01*
X-519167Y-2645180D02*
Y-2633750D01*
X-201667Y-2645180D02*
X-138167Y-2645180D01*
X-265167Y-2645181D02*
X-201667Y-2645180D01*
X-328667Y-2645181D02*
X-265167D01*
X-392167Y-2645180D02*
X-328667Y-2645181D01*
X-455667Y-2645180D02*
X-392167Y-2645180D01*
X-519167Y-2645180D02*
X-455667Y-2645180D01*
X-582668Y-2645181D02*
X-519167Y-2645180D01*
X-328668Y-2633751D02*
X-328667Y-2645181D01*
X-392168Y-2633750D02*
X-392167Y-2645180D01*
X-455667Y-2645180D02*
Y-2633750D01*
X-582667Y-2899181D02*
X-138167Y-2899180D01*
%TF.MD5,cdae4c74f7f12338ce325291ef14af0a*%
M02*
