%TF.GenerationSoftware,Altium Limited,Altium Designer,22.7.1 (60)*%
G04 Layer_Physical_Order=2*
G04 Layer_Color=16711680*
%FSLAX45Y45*%
%MOMM*%
%TF.SameCoordinates,2E8CAF61-F9F5-4988-A97D-765C0E49F6B8*%
%TF.FilePolarity,Positive*%
%TF.FileFunction,Copper,L2,Bot,Signal*%
%TF.Part,Single*%
G01*
G75*
%TA.AperFunction,Conductor*%
%ADD10C,0.25000*%
%ADD15C,0.50000*%
%ADD17C,0.25400*%
%ADD18C,0.50800*%
%TA.AperFunction,ComponentPad*%
%ADD23C,1.40000*%
%ADD24C,1.80000*%
%ADD25C,1.55000*%
%ADD26C,1.30000*%
%ADD27R,1.30000X1.30000*%
%ADD28R,1.40000X1.40000*%
%ADD29R,1.40000X1.40000*%
%ADD30C,2.25000*%
%ADD31C,2.55000*%
%ADD32R,1.15000X1.15000*%
%ADD33C,1.15000*%
%TA.AperFunction,ViaPad*%
%ADD34C,0.45000*%
%ADD35C,4.00000*%
%ADD36C,0.80000*%
%TA.AperFunction,Conductor*%
%ADD37C,0.28500*%
G36*
X450279Y2823363D02*
X1047179Y2658263D01*
X1704404Y2293138D01*
X1772569Y2224973D01*
X1772800Y2212710D01*
X1750418Y2157321D01*
X1744773Y2156198D01*
X1742417Y2155222D01*
X1739915Y2154725D01*
X1712617Y2143417D01*
X1710496Y2142000D01*
X1708140Y2141024D01*
X1683572Y2124608D01*
X1681769Y2122805D01*
X1679647Y2121388D01*
X1658754Y2100495D01*
X1657337Y2098374D01*
X1655534Y2096570D01*
X1639118Y2072002D01*
X1638142Y2069646D01*
X1636725Y2067525D01*
X1625417Y2040227D01*
X1624920Y2037725D01*
X1623944Y2035369D01*
X1618179Y2006389D01*
Y2003838D01*
X1617682Y2001337D01*
Y1971789D01*
X1618179Y1969287D01*
Y1966737D01*
X1623944Y1937757D01*
X1624920Y1935401D01*
X1625417Y1932899D01*
X1636725Y1905601D01*
X1638142Y1903480D01*
X1639118Y1901123D01*
X1655534Y1876556D01*
X1657337Y1874752D01*
X1658754Y1872631D01*
X1679647Y1851738D01*
X1681769Y1850321D01*
X1683572Y1848517D01*
X1708140Y1832101D01*
X1710496Y1831125D01*
X1712617Y1829708D01*
X1739915Y1818401D01*
X1742417Y1817903D01*
X1744773Y1816927D01*
X1773753Y1811163D01*
X1776304D01*
X1778805Y1810665D01*
X1808353D01*
X1810855Y1811163D01*
X1813405D01*
X1842385Y1816927D01*
X1844741Y1817903D01*
X1847243Y1818401D01*
X1874541Y1829708D01*
X1876662Y1831125D01*
X1879019Y1832101D01*
X1903586Y1848517D01*
X1905390Y1850321D01*
X1907511Y1851738D01*
X1928404Y1872631D01*
X1929821Y1874752D01*
X1931625Y1876556D01*
X1936179Y1883372D01*
X1999679Y1864109D01*
Y1337463D01*
X1930930Y1268714D01*
X1867039Y1252377D01*
X1849277Y1270139D01*
X1827523Y1282698D01*
X1803260Y1289200D01*
X1778140D01*
X1760560Y1284489D01*
X1689187Y1355863D01*
X1693279Y1419363D01*
X1693279D01*
Y1585163D01*
X1527479D01*
X1527479Y1585163D01*
X1493080D01*
Y1502263D01*
Y1419363D01*
X1497676D01*
X1541245Y1395870D01*
X1558584Y1378367D01*
Y1361421D01*
X1562526Y1341600D01*
X1573754Y1324796D01*
X1695300Y1203251D01*
Y1181240D01*
X1701802Y1156977D01*
X1714361Y1135223D01*
X1728021Y1121563D01*
X1726347Y1103237D01*
X1708004Y1058063D01*
X857396D01*
X839053Y1103237D01*
X837379Y1121563D01*
X851039Y1135223D01*
X863598Y1156977D01*
X870100Y1181240D01*
Y1206360D01*
X868073Y1213924D01*
X948554Y1294405D01*
X1193716D01*
X1213538Y1298347D01*
X1230341Y1309575D01*
X1340129Y1419363D01*
X1361293D01*
X1382378Y1425012D01*
X1401281Y1435926D01*
X1415379Y1450024D01*
X1429477Y1435927D01*
X1448381Y1425013D01*
X1467680Y1419841D01*
Y1502263D01*
Y1584685D01*
X1448381Y1579514D01*
X1429477Y1568600D01*
X1415379Y1554502D01*
X1401281Y1568599D01*
X1382378Y1579513D01*
X1361293Y1585163D01*
X1339466D01*
X1318381Y1579513D01*
X1299478Y1568599D01*
X1284043Y1553165D01*
X1273129Y1534261D01*
X1267480Y1513177D01*
Y1493213D01*
X1172262Y1397995D01*
X927100D01*
X907279Y1394053D01*
X890475Y1382825D01*
X794824Y1287173D01*
X787260Y1289200D01*
X762140D01*
X737877Y1282698D01*
X716123Y1270139D01*
X698361Y1252377D01*
X640779Y1223163D01*
X-95821D01*
X-146621Y1273963D01*
X-756221D01*
X-886188Y1143995D01*
X-958103D01*
X-1306721Y1492612D01*
Y1512492D01*
X-952915Y1866307D01*
X-486420Y1866313D01*
X-467698Y1866313D01*
X-459568Y1867930D01*
X-451347Y1868984D01*
X-449792Y1869875D01*
X-448033Y1870225D01*
X-441143Y1874830D01*
X-433949Y1878950D01*
X-60507Y2204206D01*
X-59411Y2205624D01*
X-57921Y2206620D01*
X-45339Y2219202D01*
X-42063Y2224105D01*
X-38033Y2228409D01*
X-36546Y2232362D01*
X-34199Y2235873D01*
X-33049Y2241656D01*
X-30973Y2247175D01*
X22633Y2572162D01*
X39607Y2581962D01*
X45027Y2587382D01*
X84100Y2594063D01*
X123173Y2587382D01*
X128593Y2581962D01*
X149207Y2570061D01*
X171400Y2564114D01*
Y2654300D01*
Y2744486D01*
X149207Y2738540D01*
X128593Y2726638D01*
X123173Y2721218D01*
X84100Y2714537D01*
X45027Y2721218D01*
X39607Y2726638D01*
X18993Y2738539D01*
X-3998Y2744700D01*
X-27801D01*
X-50793Y2738539D01*
X-62000Y2732069D01*
X-125500Y2744700D01*
X-139135Y2744700D01*
X-275950D01*
X-306300Y2744700D01*
X-314378Y2744887D01*
X-322430Y2754928D01*
X-295385Y2822704D01*
X-11154Y2861463D01*
X450279Y2823363D01*
D02*
G37*
G36*
X-483212Y2739802D02*
X-482641Y2733081D01*
X-498240Y2717482D01*
X-511787Y2694018D01*
X-518800Y2667847D01*
Y2667000D01*
X-415900D01*
Y2654300D01*
X-403200D01*
Y2551400D01*
X-402353D01*
X-376182Y2558412D01*
X-369197Y2562445D01*
X-306300Y2563900D01*
X-275950Y2563900D01*
X-147251D01*
X-91011Y2514686D01*
X-129681Y2280249D01*
X-486940Y1969088D01*
X-974202Y1969081D01*
X-993867Y1965169D01*
X-1010538Y1954030D01*
X-1379394Y1585163D01*
X-1472521D01*
X-1472521Y1585163D01*
X-1506921Y1585163D01*
Y1502262D01*
Y1419362D01*
X-1472520Y1419362D01*
Y1419363D01*
X-1379970D01*
X-1115437Y1154829D01*
X-1139737Y1096163D01*
X-1519310D01*
X-1524002Y1113672D01*
X-1536561Y1135426D01*
X-1554323Y1153188D01*
X-1576077Y1165747D01*
X-1600340Y1172249D01*
X-1625460D01*
X-1649723Y1165747D01*
X-1671477Y1153188D01*
X-1689239Y1135426D01*
X-1707016Y1131621D01*
X-1886521Y1261263D01*
X-1962721Y1312063D01*
X-2064321Y1642263D01*
X-2143550Y1834676D01*
X-2127821Y1858163D01*
X-1975421Y2010563D01*
Y2048663D01*
X-1772221Y2251863D01*
X-1746821Y2277263D01*
X-1585954Y2400029D01*
X-1448371Y2455063D01*
X-1416621Y2480463D01*
X-1264221Y2594763D01*
X-756221Y2759863D01*
X-523809Y2791555D01*
X-483212Y2739802D01*
D02*
G37*
%LPC*%
G36*
X371400Y2757201D02*
X370552D01*
X344382Y2750189D01*
X320918Y2736641D01*
X316702Y2732426D01*
X283899Y2720114D01*
X239608Y2726638D01*
X239607Y2726638D01*
X235193Y2729187D01*
X218993Y2738540D01*
X196800Y2744486D01*
Y2654300D01*
Y2564114D01*
X218993Y2570061D01*
X235193Y2579414D01*
X239607Y2581962D01*
X239608Y2581962D01*
X283898Y2588487D01*
X316703Y2576175D01*
X320918Y2571961D01*
X344382Y2558413D01*
X370552Y2551401D01*
X371400D01*
Y2654301D01*
Y2757201D01*
D02*
G37*
G36*
X397647D02*
X396800D01*
Y2667001D01*
X487000D01*
Y2667848D01*
X479987Y2694019D01*
X466440Y2717483D01*
X447282Y2736641D01*
X423818Y2750189D01*
X397647Y2757201D01*
D02*
G37*
G36*
X487000Y2641601D02*
X396800D01*
Y2551401D01*
X397647D01*
X423818Y2558413D01*
X447282Y2571961D01*
X466440Y2591119D01*
X479987Y2614583D01*
X487000Y2640754D01*
Y2641601D01*
D02*
G37*
G36*
X421593Y1759274D02*
X391207D01*
X361857Y1751410D01*
X335543Y1736217D01*
X314057Y1714731D01*
X244743D01*
X223257Y1736217D01*
X196943Y1751410D01*
X167593Y1759274D01*
X165100D01*
Y1643874D01*
Y1528474D01*
X167593D01*
X196943Y1536339D01*
X223257Y1551532D01*
X244742Y1573017D01*
X314057D01*
X335543Y1551532D01*
X361857Y1536339D01*
X391207Y1528474D01*
X421593D01*
X450942Y1536339D01*
X477257Y1551532D01*
X498742Y1573017D01*
X513935Y1599332D01*
X521800Y1628682D01*
Y1659067D01*
X513935Y1688417D01*
X498742Y1714731D01*
X477257Y1736217D01*
X450942Y1751410D01*
X421593Y1759274D01*
D02*
G37*
G36*
X139700D02*
X137207D01*
X107857Y1751410D01*
X81543Y1736217D01*
X60057Y1714731D01*
X-9257Y1714731D01*
X-30743Y1736217D01*
X-57057Y1751410D01*
X-86407Y1759274D01*
X-116793D01*
X-146143Y1751410D01*
X-172457Y1736217D01*
X-193942Y1714731D01*
X-263258Y1714732D01*
X-284743Y1736217D01*
X-311057Y1751410D01*
X-340407Y1759274D01*
X-370793D01*
X-400143Y1751410D01*
X-426457Y1736217D01*
X-447943Y1714731D01*
X-463135Y1688417D01*
X-471000Y1659067D01*
Y1628682D01*
X-463135Y1599332D01*
X-447943Y1573017D01*
X-426457Y1551532D01*
X-400143Y1536339D01*
X-370793Y1528474D01*
X-340407D01*
X-311057Y1536339D01*
X-284743Y1551532D01*
X-263257Y1573017D01*
X-193943Y1573017D01*
X-172457Y1551531D01*
X-146143Y1536339D01*
X-116793Y1528474D01*
X-86407D01*
X-57057Y1536339D01*
X-30743Y1551531D01*
X-9258Y1573017D01*
X60058Y1573017D01*
X81543Y1551532D01*
X107857Y1536339D01*
X137207Y1528474D01*
X139700D01*
Y1643874D01*
Y1759274D01*
D02*
G37*
G36*
X-428600Y2641600D02*
X-518800D01*
Y2640753D01*
X-511787Y2614582D01*
X-498240Y2591118D01*
X-479082Y2571960D01*
X-455618Y2558412D01*
X-429447Y2551400D01*
X-428600D01*
Y2641600D01*
D02*
G37*
G36*
X-1638707Y1585163D02*
X-1660535D01*
X-1681619Y1579513D01*
X-1700523Y1568599D01*
X-1715957Y1553165D01*
X-1726871Y1534261D01*
X-1732521Y1513177D01*
Y1491349D01*
X-1726871Y1470265D01*
X-1715957Y1451361D01*
X-1700523Y1435926D01*
X-1681619Y1425012D01*
X-1660535Y1419363D01*
X-1638707D01*
X-1617623Y1425012D01*
X-1598719Y1435926D01*
X-1584621Y1450024D01*
X-1570523Y1435926D01*
X-1551619Y1425012D01*
X-1535473Y1420686D01*
X-1532321Y1419841D01*
Y1502262D01*
Y1584684D01*
X-1551619Y1579513D01*
X-1570523Y1568599D01*
X-1584621Y1554501D01*
X-1598719Y1568599D01*
X-1617623Y1579513D01*
X-1638707Y1585163D01*
D02*
G37*
%LPD*%
D10*
X1992578Y-748601D02*
G03*
X1962621Y-718601I-30000J0D01*
G01*
X1992578Y-755516D02*
G03*
X2052578Y-755516I30000J0D01*
G01*
X2112578Y-647410D02*
G03*
X2052578Y-647410I-30000J0D01*
G01*
X2112578Y-755700D02*
G03*
X2172578Y-755700I30000J0D01*
G01*
X2232577Y-647595D02*
G03*
X2172578Y-647595I-30000J0D01*
G01*
X2232577Y-755885D02*
G03*
X2292577Y-755885I30000J0D01*
G01*
X2307456Y-681409D02*
G03*
X2292579Y-717501I36336J-36090D01*
G01*
X2043717Y-272239D02*
G03*
X2071217Y-299739I27500J0D01*
G01*
X2043717Y-270330D02*
G03*
X2016217Y-242830I-27500J0D01*
G01*
X2016217D02*
G03*
X1988717Y-270330I0J-27500D01*
G01*
X1961217Y-357024D02*
G03*
X1988717Y-329525I0J27500D01*
G01*
X1933717D02*
G03*
X1961217Y-357024I27500J0D01*
G01*
X1933717Y-270330D02*
G03*
X1906217Y-242830I-27500J0D01*
G01*
X1906217D02*
G03*
X1878717Y-270330I0J-27500D01*
G01*
X1851218Y-357025D02*
G03*
X1878717Y-329525I0J27500D01*
G01*
X1823717D02*
G03*
X1851217Y-357025I27500J0D01*
G01*
X1823717Y-270330D02*
G03*
X1796218Y-242830I-27500J0D01*
G01*
X1796217D02*
G03*
X1768718Y-270330I0J-27500D01*
G01*
X1741218Y-299739D02*
G03*
X1768718Y-272239I0J27500D01*
G01*
X-1015301Y-1979878D02*
G03*
X-985301Y-1949922I0J30000D01*
G01*
X-1022216Y-1979878D02*
G03*
X-1022216Y-2039878I0J-30000D01*
G01*
X-914110Y-2099878D02*
G03*
X-914110Y-2039878I0J30000D01*
G01*
X-1022400Y-2099878D02*
G03*
X-1022400Y-2159878I0J-30000D01*
G01*
X-914295Y-2219878D02*
G03*
X-914295Y-2159878I0J30000D01*
G01*
X-1022585Y-2219878D02*
G03*
X-1022585Y-2279878I0J-30000D01*
G01*
X-947987Y-2294879D02*
G03*
X-984201Y-2279878I-36214J-36212D01*
G01*
X-538939Y-2031017D02*
G03*
X-566439Y-2058517I0J-27500D01*
G01*
X-537030Y-2031017D02*
G03*
X-509530Y-2003517I0J27500D01*
G01*
Y-2003517D02*
G03*
X-537030Y-1976017I-27500J0D01*
G01*
X-623724Y-1948517D02*
G03*
X-596224Y-1976017I27500J0D01*
G01*
Y-1921017D02*
G03*
X-623724Y-1948517I0J-27500D01*
G01*
X-537030Y-1921017D02*
G03*
X-509530Y-1893517I0J27500D01*
G01*
Y-1893517D02*
G03*
X-537030Y-1866017I-27500J0D01*
G01*
X-623725Y-1838518D02*
G03*
X-596225Y-1866017I27500J0D01*
G01*
Y-1811017D02*
G03*
X-623725Y-1838517I0J-27500D01*
G01*
X-537030Y-1811017D02*
G03*
X-509530Y-1783518I0J27500D01*
G01*
Y-1783517D02*
G03*
X-537030Y-1756018I-27500J0D01*
G01*
X-566439Y-1728518D02*
G03*
X-538939Y-1756018I27500J0D01*
G01*
X1913490Y-718530D02*
X1913490D01*
X1925990Y-718548D01*
X1962621Y-718601D01*
X1962621Y-718601D02*
X1962621Y-718601D01*
X1992578Y-755516D02*
Y-748601D01*
X2052578Y-755516D02*
Y-647410D01*
X2112578Y-755700D02*
Y-647410D01*
X2172578Y-755700D02*
Y-647595D01*
X2232577Y-755885D02*
Y-647595D01*
X2292577Y-755885D02*
X2292579Y-717501D01*
X2307456Y-681409D02*
X2307579Y-681286D01*
X2320098Y-668767D01*
X1880761Y-685800D02*
X1913490Y-718530D01*
X2071217Y-299739D02*
X2139638D01*
X2043717Y-272239D02*
Y-270330D01*
X2016217Y-242830D02*
X2016217D01*
X1988717Y-329525D02*
Y-270330D01*
X1961217Y-357024D02*
X1961217D01*
X1933717Y-329525D02*
Y-270330D01*
X1906217Y-242830D02*
X1906217D01*
X1878717Y-329525D02*
Y-270330D01*
X1851217Y-357025D02*
X1851218D01*
X1823717Y-329525D02*
Y-270330D01*
X1796217Y-242830D02*
X1796218D01*
X1768718Y-272239D02*
Y-270330D01*
X1728716Y-299739D02*
X1741218D01*
X-985248Y-1913291D02*
X-985230Y-1900790D01*
X-985301Y-1949922D02*
X-985248Y-1913291D01*
X-985301Y-1949922D02*
X-985301D01*
X-1022216Y-1979878D02*
X-1015301D01*
X-1022216Y-2039878D02*
X-914110D01*
X-1022400Y-2099878D02*
X-914110D01*
X-1022400Y-2159878D02*
X-914295D01*
X-1022585Y-2219878D02*
X-914295D01*
X-1022585Y-2279878D02*
X-984201D01*
X-947987Y-2294879D02*
X-935467Y-2307398D01*
X-566439Y-2126938D02*
Y-2058517D01*
X-538939Y-2031017D02*
X-537030D01*
X-509530Y-2003517D02*
Y-2003517D01*
X-596224Y-1976017D02*
X-537030D01*
X-623724Y-1948517D02*
Y-1948517D01*
X-596224Y-1921017D02*
X-537030D01*
X-509530Y-1893517D02*
Y-1893517D01*
X-596225Y-1866017D02*
X-537030D01*
X-623725Y-1838518D02*
Y-1838517D01*
X-596225Y-1811017D02*
X-537030D01*
X-509530Y-1783518D02*
Y-1783517D01*
X-538939Y-1756018D02*
X-537030D01*
X-566439Y-1728518D02*
Y-1716016D01*
X-452917Y-2882234D02*
X-209808D01*
X110662Y-2561764D01*
Y-1938432D01*
X-9309Y-1818461D02*
X110662Y-1938432D01*
X-9309Y-1818461D02*
Y-1790616D01*
X-327680Y-2744959D02*
X-220359D01*
X-193693Y-2718293D01*
Y-1494703D01*
X-9309Y-1310319D01*
Y-1290616D01*
X-893122Y-2349743D02*
X-526255D01*
X-935467Y-2307398D02*
X-893122Y-2349743D01*
X-985230Y-1900790D02*
X-952500Y-1868061D01*
X-952015Y-1868121D02*
X-914555Y-1830661D01*
X-803368D01*
X-763323Y-1790615D01*
X-731625D01*
X-31236Y-1120149D02*
Y-1062542D01*
X-9309Y-1040616D01*
X-293667Y-1382580D02*
X-31236Y-1120149D01*
X-293667Y-2645935D02*
Y-1382580D01*
Y-2645935D02*
X-260454Y-2679147D01*
Y-2684559D02*
Y-2679147D01*
X-128758Y-1660065D02*
X-10264Y-1541570D01*
X-128758Y-2707990D02*
Y-1660065D01*
X-225728Y-2804960D02*
X-128758Y-2707990D01*
X-388248Y-2804960D02*
X-225728D01*
X2894934Y-186217D02*
Y56893D01*
X2574464Y377363D02*
X2894934Y56893D01*
X1951133Y377363D02*
X2574464D01*
X1831161Y257391D02*
X1951133Y377363D01*
X1803315Y257391D02*
X1831161D01*
X2757659Y-60980D02*
Y46341D01*
X2730994Y73007D02*
X2757659Y46341D01*
X1507403Y73007D02*
X2730994Y73007D01*
X1323019Y257391D02*
X1507403Y73007D01*
X1303316Y257391D02*
X1323019Y257391D01*
X2362443Y-626422D02*
X2362444Y-259555D01*
X2320098Y-668767D02*
X2362443Y-626422D01*
X1843361Y-647855D02*
X1880820Y-685315D01*
X1843361Y-647855D02*
X1843361Y-536668D01*
X1803315Y-496623D02*
X1843361Y-536668D01*
X1803315Y-496623D02*
X1803315Y-464925D01*
X1075242Y235464D02*
X1132849D01*
X1053316Y257391D02*
X1075242Y235464D01*
X1132849D02*
X1395280Y-26967D01*
X2658635D01*
X2691848Y6245D01*
X2697259Y6246D01*
X1554270Y256436D02*
X1672764Y137942D01*
X2720690Y137942D01*
X2817660Y40972D01*
Y-121548D02*
Y40972D01*
X-423593Y-2354872D02*
Y-2350008D01*
X-566439Y-2207162D02*
X-423593Y-2350008D01*
X-566439Y-2207162D02*
Y-2126938D01*
Y-1716016D02*
Y-1603668D01*
X-629491Y-1540616D02*
X-566439Y-1603668D01*
X-731624Y-1540616D02*
X-629491D01*
X-371351Y-2205316D02*
Y-1231675D01*
X-547415Y-1055611D02*
X-371351Y-1231675D01*
X-716629Y-1055611D02*
X-547415D01*
X-731624Y-1040616D02*
X-716629Y-1055611D01*
X2219862Y-299738D02*
X2362708Y-156893D01*
X2367573Y-156893D01*
X2139638Y-299739D02*
X2219862Y-299738D01*
X1616368Y-299739D02*
X1728716Y-299739D01*
X1553316Y-362791D02*
X1616368Y-299739D01*
X1553316Y-464924D02*
Y-362791D01*
X1244375Y-104651D02*
X2218016D01*
X1068311Y-280715D02*
X1244375Y-104651D01*
X1068311Y-280715D02*
X1068311Y-449929D01*
X1053316Y-464924D02*
X1068311Y-449929D01*
D15*
X-81675Y2255538D02*
X-15900Y2654300D01*
Y2654299D02*
Y2654300D01*
X-486420Y1917700D02*
X-467699Y1917701D01*
X-94257Y2242956D02*
X-81675Y2255538D01*
X-974201Y1917694D02*
X-486420Y1917700D01*
X-467699Y1917701D02*
X-94257Y2242956D01*
X-1389621Y1502263D02*
X-974201Y1917694D01*
D17*
X-622300Y1092200D02*
X-601924Y1071824D01*
D18*
X1193716Y1346200D02*
X1350079Y1502563D01*
X927100Y1346200D02*
X1193716D01*
X774700Y1193800D02*
X927100Y1346200D01*
X1610379Y1361421D02*
Y1502263D01*
Y1361421D02*
X1790700Y1181100D01*
X-979558Y1092200D02*
X-622300D01*
X-1389621Y1502263D02*
X-979558Y1092200D01*
D23*
X774700Y1193800D02*
D03*
X1790700D02*
D03*
X-1612900Y1076849D02*
D03*
X-596900D02*
D03*
X-9309Y-1040616D02*
D03*
Y-1290616D02*
D03*
Y-1540616D02*
D03*
Y-1790616D02*
D03*
Y-2040616D02*
D03*
X-731625Y-1790615D02*
D03*
X-731624Y-1540616D02*
D03*
Y-1290616D02*
D03*
Y-1040616D02*
D03*
Y-790616D02*
D03*
X1053316Y257391D02*
D03*
X1303316D02*
D03*
X1553316D02*
D03*
X1803316Y257390D02*
D03*
X2053316Y257391D02*
D03*
X1803315Y-464925D02*
D03*
X1553316Y-464924D02*
D03*
X1303316Y-464925D02*
D03*
X1053316Y-464924D02*
D03*
X803316Y-464924D02*
D03*
D24*
X-355600Y1643874D02*
D03*
X-101600Y1643874D02*
D03*
X152400Y1643874D02*
D03*
X406400D02*
D03*
D25*
X384100Y2654301D02*
D03*
X-415900Y2654300D02*
D03*
D26*
X184100Y2654300D02*
D03*
X-15900Y2654300D02*
D03*
D27*
X-215900D02*
D03*
D28*
X-9309Y-790616D02*
D03*
X-731624Y-2040616D02*
D03*
D29*
X803316Y257391D02*
D03*
X2053316Y-464925D02*
D03*
D30*
X1263614Y-1766751D02*
D03*
D31*
X904403Y-1766751D02*
D03*
X1263615Y-2125962D02*
D03*
X1622826Y-1766753D02*
D03*
X1263615Y-1407541D02*
D03*
D32*
X-1389621Y1502263D02*
D03*
X1610379D02*
D03*
D33*
X-1519621Y1502263D02*
D03*
X-1649621D02*
D03*
X1350380D02*
D03*
X1480379Y1502263D02*
D03*
D34*
X-452917Y-2882234D02*
D03*
X-329059Y-2743579D02*
D03*
X-526255Y-2349743D02*
D03*
X-354067Y-2343814D02*
D03*
X-260454Y-2684559D02*
D03*
X-388248Y-2804960D02*
D03*
X2894934Y-186217D02*
D03*
X2756279Y-62359D02*
D03*
X2362444Y-259555D02*
D03*
X2356514Y-87367D02*
D03*
X2697259Y6246D02*
D03*
X2817660Y-121548D02*
D03*
X-423593Y-2354872D02*
D03*
X-371691Y-2205656D02*
D03*
X2367573Y-156893D02*
D03*
X2218356Y-104991D02*
D03*
D35*
X615379Y-1113638D02*
D03*
D36*
X869379Y-1380337D02*
D03*
D37*
X1351946Y-281084D02*
G03*
X1396847Y-281084I22451J22451D01*
G01*
X1322247Y-251385D02*
G03*
X1277345Y-251385I-22451J-22451D01*
G01*
X1277345Y-251385D02*
G03*
X1277345Y-296286I22451J-22450D01*
G01*
X1307045Y-370887D02*
G03*
X1307045Y-325985I-22451J22451D01*
G01*
X-547785Y-1339246D02*
G03*
X-547785Y-1384147I22451J-22451D01*
G01*
X-518085Y-1309546D02*
G03*
X-518085Y-1264645I-22451J22451D01*
G01*
X-518085Y-1264645D02*
G03*
X-562986Y-1264645I-22451J-22451D01*
G01*
X-637587Y-1294345D02*
G03*
X-592686Y-1294345I22451J22451D01*
G01*
X1463123Y-214809D02*
X1473200Y-204732D01*
X1396847Y-281084D02*
X1463123Y-214809D01*
X1322247Y-251385D02*
X1351946Y-281084D01*
X1277345Y-251385D02*
X1277345Y-251385D01*
X1277345Y-296286D02*
X1307045Y-325985D01*
X1307044Y-325986D02*
X1307045Y-325985D01*
X1307044Y-370887D02*
X1307045Y-370887D01*
X1301584Y-376347D02*
X1307044Y-370887D01*
X1301584Y-385580D02*
Y-376347D01*
X1473199Y-204732D02*
X1473200Y-204732D01*
X1301584Y-385580D02*
X1301584D01*
X-481508Y-1450424D02*
X-471432Y-1460500D01*
X-547785Y-1384147D02*
X-481508Y-1450424D01*
X-547785Y-1339246D02*
X-518085Y-1309546D01*
X-518085D02*
X-518085D01*
X-518085Y-1264645D02*
X-518085Y-1264645D01*
X-592686Y-1294345D02*
X-562986Y-1264645D01*
X-637588Y-1294344D02*
X-637587Y-1294345D01*
X-643047Y-1288884D02*
X-637587Y-1294344D01*
X-652280Y-1288884D02*
X-643047D01*
X-354067Y-2343814D02*
X-351198Y-2340945D01*
Y-2322713D01*
X-452124Y-2221787D02*
X-351198Y-2322713D01*
X-452124Y-2221787D02*
Y-1479807D01*
X-471432Y-1460500D02*
X-452124Y-1479807D01*
X-712070Y-1288884D02*
X-652280D01*
X-731624Y-1290616D02*
X-720981Y-1279973D01*
X-712070Y-1288884D01*
X2234487Y-185424D02*
X2335413Y-84498D01*
X2353645D02*
X2356514Y-87367D01*
X2335413Y-84498D02*
X2353645D01*
X1492507Y-185424D02*
X2234487Y-185424D01*
X1473200Y-204732D02*
X1492507Y-185424D01*
X1301584Y-445370D02*
Y-385580D01*
X1292673Y-454282D02*
X1303316Y-464925D01*
X1292673Y-454282D02*
X1301584Y-445370D01*
%TF.MD5,d9d7fc425c0bee092a2a7fbbf193a6e5*%
M02*
