%TF.GenerationSoftware,Altium Limited,Altium Designer,22.7.1 (60)*%
G04 Layer_Color=65535*
%FSLAX45Y45*%
%MOMM*%
%TF.SameCoordinates,7EA997FE-DDDF-495E-A45D-074EEB3093BC*%
%TF.FilePolarity,Positive*%
%TF.FileFunction,Legend,Top*%
%TF.Part,Single*%
G01*
G75*
%TA.AperFunction,NonConductor*%
%ADD39C,0.25000*%
%ADD40C,0.20000*%
%ADD41C,0.30000*%
%ADD49C,0.25400*%
%ADD50C,0.10000*%
%ADD51C,0.30480*%
D39*
X4752799Y6662900D02*
G03*
X4752799Y6662900I-12500J0D01*
G01*
X7328816Y3256176D02*
G03*
X7328816Y3256176I-12500J0D01*
G01*
X5458816Y3978490D02*
G03*
X5458816Y3978490I-12500J0D01*
G01*
X4233876Y1370484D02*
G03*
X4233876Y1370484I-12500J0D01*
G01*
X4956191Y3240484D02*
G03*
X4956191Y3240484I-12500J0D01*
G01*
D40*
X5912559Y2258403D02*
G03*
X5919630Y2251332I3535J-3535D01*
G01*
D02*
G03*
X5912559Y2258403I-3535J3535D01*
G01*
D02*
G03*
X5919630Y2251332I3535J-3535D01*
G01*
X5930900Y4813300D02*
Y5016500D01*
X6540500D01*
Y4813300D02*
Y5016500D01*
X5930900Y4813300D02*
X6540500D01*
X5829300Y4914900D02*
X5930900D01*
X6540500D02*
X6642100D01*
X4500300Y6260400D02*
X4500300Y6140400D01*
X5380300D01*
X5380300Y6260400D01*
X4500300Y6610400D02*
X4500300Y6490400D01*
X5380299Y6490400D02*
X5380300Y6610400D01*
X4500300Y6610400D02*
X5380300Y6610400D01*
X3543300Y4696349D02*
Y4899549D01*
X4152900D01*
Y4696349D02*
Y4899549D01*
X3543300Y4696349D02*
X4152900D01*
X3441700Y4797949D02*
X3543300D01*
X4152900D02*
X4254500D01*
X5506316Y3576176D02*
X7256316Y3576176D01*
X7256315Y2936175D02*
X7256316Y3576176D01*
X5506316Y2936176D02*
X7256315Y2936175D01*
X5506316Y2936176D02*
Y3576176D01*
X5506316Y3658490D02*
X7256316Y3658491D01*
X5506316Y4298491D02*
X5506316Y3658490D01*
X5506316Y4298491D02*
X7256316D01*
X7256316Y3658491D01*
X4541376Y1430484D02*
X4541376Y3180484D01*
X3901375Y1430485D02*
X4541376Y1430484D01*
X3901375Y1430485D02*
Y3180484D01*
X4541376Y3180484D01*
X4623691Y1430484D02*
Y3180484D01*
X5263691D01*
Y1430484D02*
Y3180484D01*
X4623691Y1430484D02*
X5263691D01*
X6855993Y2785448D02*
X6882651D01*
X6895980Y2798777D01*
Y2852093D01*
X6882651Y2865423D01*
X6855993D01*
X6842664Y2852093D01*
Y2798777D01*
X6855993Y2785448D01*
X6762690D02*
X6816006D01*
Y2865423D01*
X6762690D01*
X6816006Y2825435D02*
X6789348D01*
X6682716Y2865423D02*
X6736032D01*
X6682716Y2812106D01*
Y2798777D01*
X6696045Y2785448D01*
X6722703D01*
X6736032Y2798777D01*
X6656058Y2878752D02*
X6602741D01*
X6576083Y2785448D02*
X6522767D01*
X6549425D01*
Y2865423D01*
X6456122Y2785448D02*
X6482780D01*
X6496109Y2798777D01*
Y2852093D01*
X6482780Y2865423D01*
X6456122D01*
X6442793Y2852093D01*
Y2798777D01*
X6456122Y2785448D01*
X6416135Y2865423D02*
Y2785448D01*
X6376148D01*
X6362819Y2798777D01*
Y2825435D01*
X6376148Y2838764D01*
X6416135D01*
X5856707Y4694852D02*
X5830049D01*
X5816719Y4681523D01*
Y4628207D01*
X5830049Y4614877D01*
X5856707D01*
X5870036Y4628207D01*
Y4681523D01*
X5856707Y4694852D01*
X5950010D02*
X5896694D01*
Y4614877D01*
X5950010D01*
X5896694Y4654865D02*
X5923352D01*
X6029984Y4614877D02*
X5976668D01*
X6029984Y4668194D01*
Y4681523D01*
X6016655Y4694852D01*
X5989997D01*
X5976668Y4681523D01*
X6056642Y4601548D02*
X6109958D01*
X6136616Y4694852D02*
Y4614877D01*
X6176603D01*
X6189932Y4628207D01*
Y4641536D01*
X6176603Y4654865D01*
X6136616D01*
X6176603D01*
X6189932Y4668194D01*
Y4681523D01*
X6176603Y4694852D01*
X6136616D01*
X6256578D02*
X6229919D01*
X6216590Y4681523D01*
Y4628207D01*
X6229919Y4614877D01*
X6256578D01*
X6269906Y4628207D01*
Y4681523D01*
X6256578Y4694852D01*
X6296564D02*
X6349881D01*
X6323223D01*
Y4614877D01*
X3382348Y1888271D02*
Y1861613D01*
X3395677Y1848284D01*
X3448993D01*
X3462322Y1861613D01*
Y1888271D01*
X3448993Y1901600D01*
X3395677D01*
X3382348Y1888271D01*
Y1981574D02*
Y1928258D01*
X3462322D01*
Y1981574D01*
X3422335Y1928258D02*
Y1954916D01*
X3462322Y2008232D02*
Y2034891D01*
Y2021562D01*
X3382348D01*
X3395677Y2008232D01*
X3475651Y2074878D02*
Y2128194D01*
X3382348Y2154852D02*
Y2208168D01*
Y2181510D01*
X3462322D01*
X3382348Y2274813D02*
Y2248155D01*
X3395677Y2234826D01*
X3448993D01*
X3462322Y2248155D01*
Y2274813D01*
X3448993Y2288142D01*
X3395677D01*
X3382348Y2274813D01*
X3462322Y2314800D02*
X3382348D01*
Y2354788D01*
X3395677Y2368116D01*
X3422335D01*
X3435664Y2354788D01*
Y2314800D01*
X5338148Y1748571D02*
Y1721913D01*
X5351477Y1708584D01*
X5404793D01*
X5418122Y1721913D01*
Y1748571D01*
X5404793Y1761900D01*
X5351477D01*
X5338148Y1748571D01*
Y1841874D02*
Y1788558D01*
X5418122D01*
Y1841874D01*
X5378135Y1788558D02*
Y1815216D01*
X5418122Y1868532D02*
Y1895191D01*
Y1881862D01*
X5338148D01*
X5351477Y1868532D01*
X5431451Y1935178D02*
Y1988494D01*
X5338148Y2015152D02*
X5418122D01*
Y2055139D01*
X5404793Y2068468D01*
X5391464D01*
X5378135Y2055139D01*
Y2015152D01*
Y2055139D01*
X5364806Y2068468D01*
X5351477D01*
X5338148Y2055139D01*
Y2015152D01*
Y2135113D02*
Y2108455D01*
X5351477Y2095126D01*
X5404793D01*
X5418122Y2108455D01*
Y2135113D01*
X5404793Y2148442D01*
X5351477D01*
X5338148Y2135113D01*
Y2175100D02*
Y2228416D01*
Y2201758D01*
X5418122D01*
D41*
X6752000Y4358270D02*
X6861965D01*
Y4413252D01*
X6843638Y4431579D01*
X6825310D01*
X6806983Y4413252D01*
Y4358270D01*
Y4413252D01*
X6788655Y4431579D01*
X6770328D01*
X6752000Y4413252D01*
Y4358270D01*
X6861965Y4541544D02*
Y4468234D01*
X6788655Y4541544D01*
X6770328D01*
X6752000Y4523217D01*
Y4486562D01*
X6770328Y4468234D01*
X3641532Y2805788D02*
X3714842D01*
X3678187D01*
Y2695823D01*
X3824806Y2805788D02*
X3751497D01*
Y2750806D01*
X3788151Y2769133D01*
X3806479D01*
X3824806Y2750806D01*
Y2714151D01*
X3806479Y2695823D01*
X3769824D01*
X3751497Y2714151D01*
X3641531Y3072489D02*
X3714841D01*
X3678186D01*
Y2962525D01*
X3824805Y3072489D02*
X3788150Y3054162D01*
X3751496Y3017507D01*
Y2980852D01*
X3769823Y2962525D01*
X3806478D01*
X3824805Y2980852D01*
Y2999179D01*
X3806478Y3017507D01*
X3751496D01*
X3641532Y2272388D02*
X3714842D01*
X3678187D01*
Y2162424D01*
X3751496Y2254061D02*
X3769824Y2272388D01*
X3806479D01*
X3824806Y2254061D01*
Y2235734D01*
X3806479Y2217406D01*
X3788151D01*
X3806479D01*
X3824806Y2199079D01*
Y2180751D01*
X3806479Y2162424D01*
X3769824D01*
X3751496Y2180751D01*
X3641532Y2005689D02*
X3714842D01*
X3678187D01*
Y1895724D01*
X3824806D02*
X3751496D01*
X3824806Y1969034D01*
Y1987362D01*
X3806479Y2005689D01*
X3769824D01*
X3751496Y1987362D01*
X3641532Y2539088D02*
X3714841D01*
X3678186D01*
Y2429124D01*
X3806479D02*
Y2539088D01*
X3751496Y2484106D01*
X3824806D01*
X3641530Y1738989D02*
X3714840D01*
X3678185D01*
Y1629025D01*
X3751495D02*
X3788150D01*
X3769822D01*
Y1738989D01*
X3751495Y1720662D01*
X7007687Y4358270D02*
X7117652D01*
Y4413252D01*
X7099324Y4431579D01*
X7080997D01*
X7062669Y4413252D01*
Y4358270D01*
Y4413252D01*
X7044342Y4431579D01*
X7026014D01*
X7007687Y4413252D01*
Y4358270D01*
X7117652Y4468234D02*
Y4504889D01*
Y4486562D01*
X7007687D01*
X7026014Y4468234D01*
X5965429Y4358270D02*
X6075393D01*
Y4413252D01*
X6057066Y4431580D01*
X6038739D01*
X6020411Y4413252D01*
Y4358270D01*
Y4413252D01*
X6002084Y4431580D01*
X5983756D01*
X5965429Y4413252D01*
Y4358270D01*
Y4541544D02*
Y4468234D01*
X6020411D01*
X6002084Y4504889D01*
Y4523217D01*
X6020411Y4541544D01*
X6057066D01*
X6075393Y4523217D01*
Y4486562D01*
X6057066Y4468234D01*
X5711214Y4358270D02*
X5821178D01*
Y4413252D01*
X5802851Y4431579D01*
X5784524D01*
X5766196Y4413252D01*
Y4358270D01*
Y4413252D01*
X5747869Y4431579D01*
X5729541D01*
X5711214Y4413252D01*
Y4358270D01*
Y4541544D02*
X5729541Y4504889D01*
X5766196Y4468234D01*
X5802851D01*
X5821178Y4486562D01*
Y4523217D01*
X5802851Y4541544D01*
X5784524D01*
X5766196Y4523217D01*
Y4468234D01*
X6219644Y4358270D02*
X6329608D01*
Y4413252D01*
X6311281Y4431580D01*
X6292953D01*
X6274626Y4413252D01*
Y4358270D01*
Y4413252D01*
X6256298Y4431580D01*
X6237971D01*
X6219644Y4413252D01*
Y4358270D01*
X6329608Y4523217D02*
X6219644D01*
X6274626Y4468234D01*
Y4541544D01*
X6473858Y4358270D02*
X6583823D01*
Y4413252D01*
X6565495Y4431579D01*
X6547168D01*
X6528840Y4413252D01*
Y4358270D01*
Y4413252D01*
X6510513Y4431579D01*
X6492186D01*
X6473858Y4413252D01*
Y4358270D01*
X6492186Y4468234D02*
X6473858Y4486562D01*
Y4523217D01*
X6492186Y4541544D01*
X6510513D01*
X6528840Y4523217D01*
Y4504889D01*
Y4523217D01*
X6547168Y4541544D01*
X6565495D01*
X6583823Y4523217D01*
Y4486562D01*
X6565495Y4468234D01*
D49*
X6901089Y5718963D02*
G03*
X6901089Y5718963I-151610J0D01*
G01*
X3319689Y1756563D02*
G03*
X3319689Y1756563I-151610J0D01*
G01*
X2883379Y2212363D02*
G03*
X2883379Y2212363I-150000J0D01*
G01*
X7283379Y5212363D02*
G03*
X7283379Y5212363I-150000J0D01*
G01*
Y2212363D02*
G03*
X7283379Y2212363I-150000J0D01*
G01*
X7451288Y2967719D02*
Y2916935D01*
X7476680Y2891543D01*
X7578247D01*
X7603639Y2916935D01*
Y2967719D01*
X7578247Y2993111D01*
X7476680D01*
X7451288Y2967719D01*
Y3145461D02*
Y3043894D01*
X7603639D01*
Y3145461D01*
X7527463Y3043894D02*
Y3094678D01*
X7603639Y3297812D02*
Y3196245D01*
X7502072Y3297812D01*
X7476680D01*
X7451288Y3272420D01*
Y3221637D01*
X7476680Y3196245D01*
X3958311Y1235511D02*
X3907528D01*
X3882136Y1210120D01*
Y1108553D01*
X3907528Y1083161D01*
X3958311D01*
X3983703Y1108553D01*
Y1210120D01*
X3958311Y1235511D01*
X4136054D02*
X4034486D01*
Y1083161D01*
X4136054D01*
X4034486Y1159336D02*
X4085270D01*
X4186837Y1083161D02*
X4237621D01*
X4212229D01*
Y1235511D01*
X4186837Y1210120D01*
X4684434Y6015023D02*
X4667772Y6031684D01*
X4634450D01*
X4617789Y6015023D01*
Y5998361D01*
X4634450Y5981700D01*
X4667772D01*
X4684434Y5965039D01*
Y5948377D01*
X4667772Y5931716D01*
X4634450D01*
X4617789Y5948377D01*
X4717756Y6031684D02*
Y5931716D01*
X4751079Y5965039D01*
X4784401Y5931716D01*
Y6031684D01*
X4817724D02*
X4851047D01*
X4834386D01*
Y5931716D01*
X4817724D01*
X4851047D01*
X4901031Y6031684D02*
X4967676D01*
X4934353D01*
Y5931716D01*
X5067643Y6015023D02*
X5050982Y6031684D01*
X5017660D01*
X5000998Y6015023D01*
Y5948377D01*
X5017660Y5931716D01*
X5050982D01*
X5067643Y5948377D01*
X5100966Y6031684D02*
Y5931716D01*
Y5981700D01*
X5167611D01*
Y6031684D01*
Y5931716D01*
X6595176Y2301408D02*
X6651726Y2357958D01*
Y2320258D01*
X6689426D01*
X6632876Y2263708D01*
X6651726Y2244858D02*
X6670576Y2226007D01*
X6661151Y2235432D01*
X6698851Y2273133D01*
X6689426Y2282558D01*
X6698851Y2197732D02*
X6736552Y2235432D01*
X6764827Y2207157D01*
Y2188307D01*
X6736552Y2160032D01*
X6755402Y2141182D02*
X6774252Y2122332D01*
X6764827Y2131757D01*
X6802527Y2169457D01*
X6793102Y2178882D01*
X6887352Y2103482D02*
Y2122332D01*
X6868502Y2141182D01*
X6849652D01*
X6840227Y2131757D01*
X6840227Y2112907D01*
X6859077Y2094057D01*
X6859077Y2075207D01*
X6849652Y2065781D01*
X6830802D01*
X6811952Y2084632D01*
Y2103482D01*
X6934478Y2037506D02*
X6906203Y2065781D01*
X6887352D01*
X6868502Y2046931D01*
Y2028081D01*
X6896777Y1999806D01*
X6925053Y1971531D02*
X6943903Y1952681D01*
X6962753Y1952681D01*
X6981603Y1971531D01*
Y1990381D01*
X6962753Y2009231D01*
X6943903D01*
X6925053Y1990381D01*
Y1971531D01*
X6953328Y1905556D02*
X7009878Y1962106D01*
X7038153Y1933831D01*
Y1914981D01*
X7019303Y1896131D01*
X7000453Y1896131D01*
X6972178Y1924406D01*
X7057003Y1839580D02*
X7038153Y1858430D01*
Y1877281D01*
X7057003Y1896131D01*
X7075854Y1896131D01*
X7094704Y1877280D01*
Y1858431D01*
X7085278Y1849005D01*
X7047578Y1886706D01*
X5987294Y4868078D02*
Y4968046D01*
X6037277D01*
X6053939Y4951385D01*
Y4918062D01*
X6037277Y4901401D01*
X5987294D01*
X6020616D02*
X6053939Y4868078D01*
X6153906D02*
X6087261D01*
X6153906Y4934723D01*
Y4951385D01*
X6137245Y4968046D01*
X6103923D01*
X6087261Y4951385D01*
X3654455Y4735265D02*
Y4835233D01*
X3704439D01*
X3721100Y4818572D01*
Y4785249D01*
X3704439Y4768588D01*
X3654455D01*
X3687777D02*
X3721100Y4735265D01*
X3754423D02*
X3787745D01*
X3771084D01*
Y4835233D01*
X3754423Y4818572D01*
X3839889Y5305047D02*
Y5405015D01*
X3873211Y5371692D01*
X3906534Y5405015D01*
Y5305047D01*
X4006502Y5388353D02*
X3989840Y5405015D01*
X3956518D01*
X3939856Y5388353D01*
Y5321708D01*
X3956518Y5305047D01*
X3989840D01*
X4006502Y5321708D01*
X4039824Y5405015D02*
Y5321708D01*
X4056486Y5305047D01*
X4089808D01*
X4106469Y5321708D01*
Y5405015D01*
X4139792Y5288385D02*
X4206437D01*
X4239760Y5405015D02*
X4273082D01*
X4256421D01*
Y5305047D01*
X4239760D01*
X4273082D01*
X4323066D02*
Y5405015D01*
X4389711Y5305047D01*
Y5405015D01*
D50*
X4447400Y5689975D02*
X5509400Y5689974D01*
X5509400Y5039974D02*
X5509400Y5689974D01*
X4447400Y5039974D02*
X5509400Y5039974D01*
X4447400Y5689975D02*
X4447400Y5039974D01*
X6269647Y1406339D02*
X6789372Y886617D01*
X7284347Y1381592D01*
X6764621Y1901316D02*
X7284347Y1381592D01*
D51*
X4526280Y4960620D02*
X4653239D01*
Y4897140D01*
X4632079Y4875980D01*
X4589760D01*
X4568600Y4897140D01*
Y4960620D01*
X4653239Y4833661D02*
X4526280D01*
X4568600Y4791341D01*
X4526280Y4749021D01*
X4653239D01*
X4526280Y4706702D02*
X4653239D01*
Y4643223D01*
X4632079Y4622063D01*
X4589760D01*
X4568600Y4643223D01*
Y4706702D01*
Y4664382D02*
X4526280Y4622063D01*
X5415255Y4960620D02*
X5339080D01*
X5377168D01*
Y4909837D01*
X5415255D01*
X5339080D01*
Y4884445D02*
X5389863D01*
X5415255Y4859053D01*
X5389863Y4833661D01*
X5339080D01*
X5377168D01*
Y4884445D01*
X5339080Y4808269D02*
Y4782877D01*
Y4795573D01*
X5415255D01*
Y4808269D01*
X5339080Y4744790D02*
Y4719398D01*
Y4732094D01*
X5415255D01*
Y4744790D01*
X5377168Y4681310D02*
Y4630527D01*
X5415255Y4605135D02*
X5339080D01*
Y4567047D01*
X5351776Y4554352D01*
X5364472D01*
X5377168Y4567047D01*
Y4605135D01*
Y4567047D01*
X5389863Y4554352D01*
X5402559D01*
X5415255Y4567047D01*
Y4605135D01*
X5140079Y4875980D02*
X5161239Y4897140D01*
Y4939460D01*
X5140079Y4960620D01*
X5055440D01*
X5034280Y4939460D01*
Y4897140D01*
X5055440Y4875980D01*
X5097760D01*
Y4918300D01*
X5034280Y4833661D02*
X5161239D01*
X5034280Y4749021D01*
X5161239D01*
Y4706702D02*
X5034280D01*
Y4643223D01*
X5055440Y4622063D01*
X5140079D01*
X5161239Y4643223D01*
Y4706702D01*
X4843755Y4960620D02*
X4767580D01*
X4805668D01*
Y4909836D01*
X4843755D01*
X4767580D01*
X4818363Y4871748D02*
Y4846357D01*
X4805668Y4833661D01*
X4767580D01*
Y4871748D01*
X4780276Y4884444D01*
X4792972Y4871748D01*
Y4833661D01*
X4767580Y4808269D02*
Y4782877D01*
Y4795573D01*
X4843755D01*
Y4808269D01*
X4767580Y4744790D02*
Y4719398D01*
Y4732094D01*
X4843755D01*
Y4744790D01*
X4805668Y4681310D02*
Y4630527D01*
X4767580Y4605135D02*
X4818363D01*
X4843755Y4579743D01*
X4818363Y4554351D01*
X4767580D01*
X4805668D01*
Y4605135D01*
%TF.MD5,2a7d40901c6b85fe4c2d7125a3cdb5cf*%
M02*
