%TF.GenerationSoftware,Altium Limited,Altium Designer,22.7.1 (60)*%
G04 Layer_Color=16711935*
%FSLAX45Y45*%
%MOMM*%
%TF.SameCoordinates,2E8CAF61-F9F5-4988-A97D-765C0E49F6B8*%
%TF.FilePolarity,Negative*%
%TF.FileFunction,Soldermask,Bot*%
%TF.Part,Single*%
G01*
G75*
%TA.AperFunction,ComponentPad*%
%ADD23C,1.40000*%
%ADD25C,1.55000*%
%ADD26C,1.30000*%
%ADD27R,1.30000X1.30000*%
%ADD28R,1.40000X1.40000*%
%ADD29R,1.40000X1.40000*%
%ADD32R,1.15000X1.15000*%
%ADD33C,1.15000*%
%ADD41C,1.60320*%
%ADD42C,2.00320*%
%ADD43C,2.45320*%
%ADD44C,2.75320*%
%TA.AperFunction,ViaPad*%
%ADD45C,0.65320*%
%ADD46C,4.20320*%
%ADD47C,1.00320*%
D23*
X-9309Y-1040616D02*
D03*
Y-1290616D02*
D03*
Y-1540616D02*
D03*
Y-1790616D02*
D03*
Y-2040616D02*
D03*
X-731625Y-1790615D02*
D03*
X-731624Y-1540616D02*
D03*
Y-1290616D02*
D03*
Y-1040616D02*
D03*
Y-790616D02*
D03*
X1053316Y257391D02*
D03*
X1303316D02*
D03*
X1553316D02*
D03*
X1803316Y257390D02*
D03*
X2053316Y257391D02*
D03*
X1803315Y-464925D02*
D03*
X1553316Y-464924D02*
D03*
X1303316Y-464925D02*
D03*
X1053316Y-464924D02*
D03*
X803316Y-464924D02*
D03*
D25*
X384100Y2654301D02*
D03*
X-415900Y2654300D02*
D03*
D26*
X184100Y2654300D02*
D03*
X-15900Y2654300D02*
D03*
D27*
X-215900D02*
D03*
D28*
X-9309Y-790616D02*
D03*
X-731624Y-2040616D02*
D03*
D29*
X803316Y257391D02*
D03*
X2053316Y-464925D02*
D03*
D32*
X-1389621Y1502263D02*
D03*
X1610379D02*
D03*
D33*
X-1519621Y1502263D02*
D03*
X-1649621D02*
D03*
X1350380D02*
D03*
X1480379Y1502263D02*
D03*
D41*
X774700Y1193800D02*
D03*
X1790700D02*
D03*
X-1612900Y1076849D02*
D03*
X-596900D02*
D03*
D42*
X-355600Y1643874D02*
D03*
X-101600Y1643874D02*
D03*
X152400Y1643874D02*
D03*
X406400D02*
D03*
D43*
X1263614Y-1766751D02*
D03*
D44*
X904403Y-1766751D02*
D03*
X1263615Y-2125962D02*
D03*
X1622826Y-1766753D02*
D03*
X1263615Y-1407541D02*
D03*
D45*
X-452917Y-2882234D02*
D03*
X-329059Y-2743579D02*
D03*
X-526255Y-2349743D02*
D03*
X-354067Y-2343814D02*
D03*
X-260454Y-2684559D02*
D03*
X-388248Y-2804960D02*
D03*
X2894934Y-186217D02*
D03*
X2756279Y-62359D02*
D03*
X2362444Y-259555D02*
D03*
X2356514Y-87367D02*
D03*
X2697259Y6246D02*
D03*
X2817660Y-121548D02*
D03*
X-423593Y-2354872D02*
D03*
X-371691Y-2205656D02*
D03*
X2367573Y-156893D02*
D03*
X2218356Y-104991D02*
D03*
D46*
X615379Y-1113638D02*
D03*
D47*
X869379Y-1380337D02*
D03*
%TF.MD5,e73824094296b38e67050d2638177307*%
M02*
