%TF.GenerationSoftware,Altium Limited,Altium Designer,22.7.1 (60)*%
G04 Layer_Color=32896*
%FSLAX45Y45*%
%MOMM*%
%TF.SameCoordinates,2E8CAF61-F9F5-4988-A97D-765C0E49F6B8*%
%TF.FilePolarity,Positive*%
%TF.FileFunction,Other,Bottom_Assembly*%
%TF.Part,Single*%
G01*
G75*
%TA.AperFunction,NonConductor*%
%ADD39C,0.20000*%
G36*
X-1519621Y1490190D02*
X-1528106D01*
Y1520426D01*
X-1561269D01*
Y1490190D01*
X-1569754D01*
Y1554271D01*
X-1561269D01*
Y1527936D01*
X-1528106D01*
Y1554271D01*
X-1519621D01*
Y1490190D01*
D02*
G37*
G36*
X-1576874D02*
X-1585848D01*
X-1592773Y1509599D01*
X-1619693D01*
X-1627105Y1490190D01*
X-1636664D01*
X-1610622Y1554271D01*
X-1601356D01*
X-1576874Y1490190D01*
D02*
G37*
G36*
X-1643199D02*
X-1683189D01*
Y1497700D01*
X-1651685D01*
Y1554271D01*
X-1643199D01*
Y1490190D01*
D02*
G37*
G36*
X-1692942D02*
X-1732932D01*
Y1497700D01*
X-1701428D01*
Y1554271D01*
X-1692942D01*
Y1490190D01*
D02*
G37*
G36*
X-1785797D02*
X-1794770D01*
X-1801695Y1509599D01*
X-1828615D01*
X-1836028Y1490190D01*
X-1845586D01*
X-1819544Y1554271D01*
X-1810278D01*
X-1785797Y1490190D01*
D02*
G37*
G36*
X-1734785Y1472438D02*
X-1786869D01*
Y1478095D01*
X-1734785D01*
Y1472438D01*
D02*
G37*
G36*
X1480379Y1490191D02*
X1471894D01*
Y1520427D01*
X1438731D01*
Y1490191D01*
X1430246D01*
Y1554272D01*
X1438731D01*
Y1527937D01*
X1471894D01*
Y1554272D01*
X1480379D01*
Y1490191D01*
D02*
G37*
G36*
X1423126D02*
X1414152D01*
X1407227Y1509600D01*
X1380307D01*
X1372895Y1490191D01*
X1363336D01*
X1389378Y1554272D01*
X1398644D01*
X1423126Y1490191D01*
D02*
G37*
G36*
X1356801D02*
X1316811D01*
Y1497701D01*
X1348316D01*
Y1554272D01*
X1356801D01*
Y1490191D01*
D02*
G37*
G36*
X1307058D02*
X1267068D01*
Y1497701D01*
X1298572D01*
Y1554272D01*
X1307058D01*
Y1490191D01*
D02*
G37*
G36*
X1207571D02*
X1180944D01*
X1178993Y1490386D01*
X1177237Y1490483D01*
X1175677Y1490678D01*
X1174506Y1490873D01*
X1173629Y1490971D01*
X1173043Y1491166D01*
X1172848D01*
X1171385Y1491654D01*
X1170020Y1492141D01*
X1168752Y1492629D01*
X1167776Y1493117D01*
X1166899Y1493604D01*
X1166313Y1493994D01*
X1165923Y1494190D01*
X1165826Y1494287D01*
X1164850Y1495165D01*
X1163875Y1496140D01*
X1163095Y1497116D01*
X1162412Y1498091D01*
X1161924Y1498969D01*
X1161437Y1499652D01*
X1161242Y1500139D01*
X1161144Y1500334D01*
X1160461Y1501797D01*
X1159974Y1503260D01*
X1159681Y1504723D01*
X1159388Y1505991D01*
X1159291Y1507064D01*
X1159193Y1507942D01*
Y1508527D01*
Y1508722D01*
X1159291Y1510771D01*
X1159681Y1512624D01*
X1160169Y1514184D01*
X1160754Y1515647D01*
X1161437Y1516818D01*
X1161924Y1517696D01*
X1162314Y1518183D01*
X1162412Y1518378D01*
X1163680Y1519842D01*
X1165143Y1521012D01*
X1166606Y1521987D01*
X1168069Y1522865D01*
X1169337Y1523450D01*
X1170410Y1523938D01*
X1170800Y1524036D01*
X1171093Y1524133D01*
X1171288Y1524231D01*
X1171385D01*
X1169727Y1525108D01*
X1168362Y1526084D01*
X1167191Y1526962D01*
X1166216Y1527937D01*
X1165533Y1528717D01*
X1164948Y1529400D01*
X1164655Y1529790D01*
X1164558Y1529985D01*
X1163777Y1531351D01*
X1163290Y1532814D01*
X1162900Y1534082D01*
X1162607Y1535252D01*
X1162412Y1536325D01*
X1162314Y1537105D01*
Y1537593D01*
Y1537788D01*
X1162412Y1539446D01*
X1162705Y1541007D01*
X1163095Y1542372D01*
X1163582Y1543640D01*
X1164070Y1544713D01*
X1164460Y1545591D01*
X1164753Y1546079D01*
X1164850Y1546274D01*
X1165923Y1547737D01*
X1166996Y1548907D01*
X1168167Y1549980D01*
X1169337Y1550858D01*
X1170312Y1551443D01*
X1171093Y1551931D01*
X1171678Y1552223D01*
X1171775Y1552321D01*
X1171873D01*
X1173629Y1553004D01*
X1175579Y1553491D01*
X1177530Y1553784D01*
X1179383Y1554077D01*
X1181041Y1554174D01*
X1181724D01*
X1182407Y1554272D01*
X1207571D01*
Y1490191D01*
D02*
G37*
G36*
X1265215Y1472439D02*
X1213131D01*
Y1478096D01*
X1265215D01*
Y1472439D01*
D02*
G37*
%LPC*%
G36*
X-1605745Y1547639D02*
X-1606428Y1545493D01*
X-1607111Y1543249D01*
X-1607891Y1541006D01*
X-1608671Y1538860D01*
X-1609256Y1537007D01*
X-1609549Y1536227D01*
X-1609842Y1535544D01*
X-1610037Y1534959D01*
X-1610232Y1534569D01*
X-1610329Y1534276D01*
Y1534179D01*
X-1616962Y1516525D01*
X-1595211D01*
X-1602234Y1535251D01*
X-1603014Y1537495D01*
X-1603697Y1539738D01*
X-1604282Y1541786D01*
X-1604770Y1543737D01*
X-1605160Y1545298D01*
X-1605355Y1545980D01*
X-1605550Y1546566D01*
X-1605648Y1547053D01*
Y1547346D01*
X-1605745Y1547541D01*
Y1547639D01*
D02*
G37*
G36*
X-1814667D02*
X-1815350Y1545493D01*
X-1816033Y1543249D01*
X-1816813Y1541006D01*
X-1817593Y1538860D01*
X-1818178Y1537007D01*
X-1818471Y1536227D01*
X-1818764Y1535544D01*
X-1818959Y1534959D01*
X-1819154Y1534569D01*
X-1819251Y1534276D01*
Y1534179D01*
X-1825884Y1516525D01*
X-1804133D01*
X-1811156Y1535251D01*
X-1811936Y1537495D01*
X-1812619Y1539738D01*
X-1813204Y1541786D01*
X-1813692Y1543737D01*
X-1814082Y1545298D01*
X-1814277Y1545980D01*
X-1814472Y1546566D01*
X-1814570Y1547053D01*
Y1547346D01*
X-1814667Y1547541D01*
Y1547639D01*
D02*
G37*
G36*
X1394255Y1547639D02*
X1393572Y1545493D01*
X1392890Y1543250D01*
X1392109Y1541007D01*
X1391329Y1538861D01*
X1390744Y1537008D01*
X1390451Y1536228D01*
X1390159Y1535545D01*
X1389963Y1534960D01*
X1389768Y1534569D01*
X1389671Y1534277D01*
Y1534179D01*
X1383038Y1516525D01*
X1404789D01*
X1397766Y1535252D01*
X1396986Y1537496D01*
X1396303Y1539739D01*
X1395718Y1541787D01*
X1395230Y1543738D01*
X1394840Y1545298D01*
X1394645Y1545981D01*
X1394450Y1546566D01*
X1394353Y1547054D01*
Y1547347D01*
X1394255Y1547542D01*
Y1547639D01*
D02*
G37*
G36*
X1199085Y1546761D02*
X1183967D01*
X1181919Y1546566D01*
X1180261Y1546469D01*
X1178896Y1546274D01*
X1177920Y1546079D01*
X1177237Y1545981D01*
X1176750Y1545786D01*
X1176652D01*
X1175677Y1545396D01*
X1174799Y1544908D01*
X1174019Y1544323D01*
X1173434Y1543835D01*
X1172946Y1543250D01*
X1172556Y1542860D01*
X1172361Y1542567D01*
X1172263Y1542470D01*
X1171775Y1541495D01*
X1171385Y1540519D01*
X1171093Y1539641D01*
X1170898Y1538763D01*
X1170800Y1537983D01*
X1170703Y1537398D01*
Y1536910D01*
Y1536813D01*
X1170800Y1535545D01*
X1170995Y1534472D01*
X1171190Y1533497D01*
X1171483Y1532716D01*
X1171873Y1532034D01*
X1172068Y1531546D01*
X1172263Y1531253D01*
X1172361Y1531156D01*
X1173043Y1530375D01*
X1173824Y1529693D01*
X1174604Y1529107D01*
X1175384Y1528717D01*
X1176165Y1528327D01*
X1176750Y1528132D01*
X1177140Y1528035D01*
X1177237Y1527937D01*
X1178310Y1527742D01*
X1179481Y1527547D01*
X1180846Y1527449D01*
X1182212Y1527352D01*
X1183382Y1527254D01*
X1199085D01*
Y1546761D01*
D02*
G37*
G36*
Y1519744D02*
X1182212D01*
X1180261Y1519549D01*
X1178700Y1519451D01*
X1177335Y1519256D01*
X1176360Y1519061D01*
X1175579Y1518866D01*
X1175189Y1518769D01*
X1174994Y1518671D01*
X1173824Y1518183D01*
X1172848Y1517598D01*
X1171970Y1517013D01*
X1171288Y1516330D01*
X1170703Y1515745D01*
X1170215Y1515355D01*
X1170020Y1514965D01*
X1169922Y1514867D01*
X1169239Y1513892D01*
X1168752Y1512819D01*
X1168459Y1511746D01*
X1168167Y1510771D01*
X1168069Y1509990D01*
X1167972Y1509308D01*
Y1508917D01*
Y1508722D01*
X1168069Y1507552D01*
X1168167Y1506577D01*
X1168362Y1505601D01*
X1168557Y1504821D01*
X1168849Y1504138D01*
X1169044Y1503651D01*
X1169142Y1503358D01*
X1169239Y1503260D01*
X1169727Y1502480D01*
X1170312Y1501700D01*
X1170800Y1501115D01*
X1171385Y1500627D01*
X1171873Y1500139D01*
X1172166Y1499847D01*
X1172458Y1499749D01*
X1172556Y1499652D01*
X1174116Y1498871D01*
X1175677Y1498384D01*
X1176360Y1498189D01*
X1176945Y1498091D01*
X1177335Y1497993D01*
X1177432D01*
X1178115Y1497896D01*
X1178993Y1497798D01*
X1180944Y1497701D01*
X1199085D01*
Y1519744D01*
D02*
G37*
%LPD*%
D39*
X-1734621Y1581263D02*
X-1304621Y1581263D01*
X-1734621Y1401263D02*
Y1581263D01*
Y1401263D02*
X-1304621D01*
Y1581263D01*
X1695379Y1401263D02*
X1695379Y1581263D01*
X1265379Y1401263D02*
X1695379Y1401263D01*
X1265379Y1401263D02*
Y1581263D01*
X1695379Y1581263D01*
%TF.MD5,e3bd8dd2e5a7ac1c68fe445949f10003*%
M02*
