%TF.GenerationSoftware,Altium Limited,Altium Designer,22.7.1 (60)*%
G04 Layer_Color=32896*
%FSLAX45Y45*%
%MOMM*%
%TF.SameCoordinates,7EA997FE-DDDF-495E-A45D-074EEB3093BC*%
%TF.FilePolarity,Positive*%
%TF.FileFunction,Other,Top_Value*%
%TF.Part,Single*%
G01*
G75*
%TA.AperFunction,NonConductor*%
%ADD40C,0.20000*%
G36*
X4271370Y2305416D02*
X4271786D01*
X4272896Y2305347D01*
X4274213Y2305208D01*
X4275808Y2305000D01*
X4277472Y2304792D01*
X4279345Y2304445D01*
X4281355Y2303960D01*
X4283366Y2303405D01*
X4285447Y2302712D01*
X4287527Y2301880D01*
X4289607Y2300909D01*
X4291549Y2299799D01*
X4293490Y2298482D01*
X4295224Y2296956D01*
X4295293Y2296887D01*
X4295640Y2296540D01*
X4296056Y2296055D01*
X4296611Y2295431D01*
X4297304Y2294529D01*
X4298067Y2293559D01*
X4298899Y2292380D01*
X4299731Y2290993D01*
X4300563Y2289467D01*
X4301395Y2287803D01*
X4302158Y2286000D01*
X4302851Y2283989D01*
X4303406Y2281909D01*
X4303822Y2279690D01*
X4304169Y2277333D01*
X4304238Y2274836D01*
Y2274004D01*
X4304169Y2273380D01*
X4304100Y2272548D01*
X4304030Y2271646D01*
X4303892Y2270676D01*
X4303684Y2269566D01*
X4303476Y2268318D01*
X4303198Y2267070D01*
X4302851Y2265752D01*
X4302435Y2264366D01*
X4301950Y2262979D01*
X4301395Y2261592D01*
X4300771Y2260274D01*
X4300008Y2258888D01*
X4299939Y2258818D01*
X4299800Y2258541D01*
X4299592Y2258194D01*
X4299246Y2257709D01*
X4298830Y2257085D01*
X4298275Y2256461D01*
X4297651Y2255698D01*
X4296957Y2254866D01*
X4296125Y2253964D01*
X4295224Y2253063D01*
X4294253Y2252161D01*
X4293213Y2251260D01*
X4292103Y2250428D01*
X4290855Y2249526D01*
X4289538Y2248764D01*
X4288151Y2248001D01*
X4288082Y2247931D01*
X4287804Y2247862D01*
X4287388Y2247654D01*
X4286833Y2247446D01*
X4286140Y2247099D01*
X4285239Y2246822D01*
X4284268Y2246475D01*
X4283158Y2246129D01*
X4281979Y2245782D01*
X4280662Y2245435D01*
X4279206Y2245088D01*
X4277750Y2244811D01*
X4276155Y2244603D01*
X4274491Y2244395D01*
X4272826Y2244326D01*
X4271023Y2244256D01*
X4270885D01*
X4270607D01*
X4270053D01*
X4269359Y2244326D01*
X4268527Y2244395D01*
X4267556Y2244464D01*
X4266447Y2244603D01*
X4265199Y2244742D01*
X4263881Y2244950D01*
X4262494Y2245227D01*
X4261038Y2245505D01*
X4259582Y2245921D01*
X4258057Y2246406D01*
X4256600Y2246891D01*
X4255075Y2247515D01*
X4253619Y2248209D01*
X4253549Y2248278D01*
X4253272Y2248417D01*
X4252856Y2248625D01*
X4252370Y2248902D01*
X4251746Y2249318D01*
X4250984Y2249804D01*
X4250152Y2250428D01*
X4249250Y2251052D01*
X4248349Y2251815D01*
X4247378Y2252647D01*
X4246407Y2253618D01*
X4245436Y2254588D01*
X4244535Y2255628D01*
X4243633Y2256807D01*
X4242732Y2258055D01*
X4241969Y2259373D01*
X4241900Y2259442D01*
X4241830Y2259720D01*
X4241622Y2260066D01*
X4241345Y2260621D01*
X4241068Y2261315D01*
X4240721Y2262077D01*
X4240374Y2262979D01*
X4240028Y2264019D01*
X4239681Y2265128D01*
X4239334Y2266307D01*
X4238987Y2267625D01*
X4238710Y2268942D01*
X4238225Y2271854D01*
X4238155Y2273380D01*
X4238086Y2274906D01*
Y2275807D01*
X4238155Y2276431D01*
X4238225Y2277194D01*
X4238294Y2278165D01*
X4238433Y2279135D01*
X4238641Y2280314D01*
X4238849Y2281493D01*
X4239126Y2282811D01*
X4239473Y2284128D01*
X4239889Y2285515D01*
X4240374Y2286902D01*
X4240998Y2288289D01*
X4241622Y2289675D01*
X4242385Y2291062D01*
X4242455Y2291132D01*
X4242593Y2291340D01*
X4242871Y2291756D01*
X4243217Y2292241D01*
X4243633Y2292796D01*
X4244188Y2293489D01*
X4244812Y2294252D01*
X4245506Y2295084D01*
X4246338Y2295986D01*
X4247239Y2296818D01*
X4248210Y2297719D01*
X4249250Y2298620D01*
X4250429Y2299522D01*
X4251608Y2300354D01*
X4252925Y2301117D01*
X4254312Y2301880D01*
X4254381Y2301949D01*
X4254659Y2302018D01*
X4255075Y2302226D01*
X4255630Y2302434D01*
X4256323Y2302712D01*
X4257155Y2302989D01*
X4258057Y2303336D01*
X4259166Y2303682D01*
X4260275Y2304029D01*
X4261524Y2304376D01*
X4262841Y2304653D01*
X4264228Y2304931D01*
X4267140Y2305347D01*
X4268735Y2305416D01*
X4270261Y2305485D01*
X4270330D01*
X4270469D01*
X4270677D01*
X4270954D01*
X4271370Y2305416D01*
D02*
G37*
G36*
X4303129Y2186841D02*
X4295571D01*
Y2224702D01*
X4276016D01*
Y2189268D01*
X4268458D01*
Y2224702D01*
X4246684D01*
Y2185385D01*
X4239126D01*
Y2233162D01*
X4303129D01*
Y2186841D01*
D02*
G37*
G36*
X4287319Y2170823D02*
X4287388Y2170615D01*
X4287596Y2170268D01*
X4287804Y2169783D01*
X4288082Y2169228D01*
X4288498Y2168535D01*
X4288914Y2167772D01*
X4289330Y2167009D01*
X4290439Y2165206D01*
X4291757Y2163265D01*
X4293144Y2161254D01*
X4294738Y2159382D01*
X4294808Y2159312D01*
X4294946Y2159174D01*
X4295154Y2158896D01*
X4295501Y2158550D01*
X4295917Y2158203D01*
X4296333Y2157718D01*
X4297512Y2156677D01*
X4298760Y2155499D01*
X4300216Y2154320D01*
X4301742Y2153280D01*
X4303337Y2152378D01*
Y2147316D01*
X4239126D01*
Y2155152D01*
X4289122D01*
X4288983Y2155291D01*
X4288636Y2155637D01*
X4288151Y2156261D01*
X4287458Y2157163D01*
X4286625Y2158203D01*
X4285724Y2159520D01*
X4284753Y2160977D01*
X4283713Y2162641D01*
Y2162710D01*
X4283574Y2162849D01*
X4283436Y2163057D01*
X4283297Y2163404D01*
X4283020Y2163820D01*
X4282812Y2164305D01*
X4282188Y2165415D01*
X4281563Y2166663D01*
X4280870Y2168050D01*
X4280246Y2169506D01*
X4279691Y2170893D01*
X4287249D01*
X4287319Y2170823D01*
D02*
G37*
G36*
X4227061Y2080193D02*
X4221375D01*
Y2132269D01*
X4227061D01*
Y2080193D01*
D02*
G37*
G36*
X4303129Y2028464D02*
X4295571D01*
Y2049544D01*
X4239126D01*
Y2058004D01*
X4295571D01*
Y2079084D01*
X4303129D01*
Y2028464D01*
D02*
G37*
G36*
X4271370Y2022223D02*
X4271786D01*
X4272896Y2022154D01*
X4274213Y2022015D01*
X4275808Y2021807D01*
X4277472Y2021599D01*
X4279345Y2021252D01*
X4281355Y2020767D01*
X4283366Y2020212D01*
X4285447Y2019519D01*
X4287527Y2018687D01*
X4289607Y2017716D01*
X4291549Y2016607D01*
X4293490Y2015289D01*
X4295224Y2013764D01*
X4295293Y2013694D01*
X4295640Y2013348D01*
X4296056Y2012862D01*
X4296611Y2012238D01*
X4297304Y2011337D01*
X4298067Y2010366D01*
X4298899Y2009187D01*
X4299731Y2007800D01*
X4300563Y2006275D01*
X4301395Y2004610D01*
X4302158Y2002808D01*
X4302851Y2000797D01*
X4303406Y1998716D01*
X4303822Y1996497D01*
X4304169Y1994140D01*
X4304238Y1991643D01*
Y1990811D01*
X4304169Y1990187D01*
X4304100Y1989355D01*
X4304030Y1988454D01*
X4303892Y1987483D01*
X4303684Y1986373D01*
X4303476Y1985125D01*
X4303198Y1983877D01*
X4302851Y1982560D01*
X4302435Y1981173D01*
X4301950Y1979786D01*
X4301395Y1978399D01*
X4300771Y1977082D01*
X4300008Y1975695D01*
X4299939Y1975625D01*
X4299800Y1975348D01*
X4299592Y1975001D01*
X4299246Y1974516D01*
X4298830Y1973892D01*
X4298275Y1973268D01*
X4297651Y1972505D01*
X4296957Y1971673D01*
X4296125Y1970772D01*
X4295224Y1969870D01*
X4294253Y1968969D01*
X4293213Y1968067D01*
X4292103Y1967235D01*
X4290855Y1966334D01*
X4289538Y1965571D01*
X4288151Y1964808D01*
X4288082Y1964739D01*
X4287804Y1964669D01*
X4287388Y1964461D01*
X4286833Y1964253D01*
X4286140Y1963907D01*
X4285239Y1963629D01*
X4284268Y1963283D01*
X4283158Y1962936D01*
X4281979Y1962589D01*
X4280662Y1962242D01*
X4279206Y1961896D01*
X4277750Y1961618D01*
X4276155Y1961410D01*
X4274491Y1961202D01*
X4272826Y1961133D01*
X4271023Y1961064D01*
X4270885D01*
X4270607D01*
X4270053D01*
X4269359Y1961133D01*
X4268527Y1961202D01*
X4267556Y1961272D01*
X4266447Y1961410D01*
X4265199Y1961549D01*
X4263881Y1961757D01*
X4262494Y1962034D01*
X4261038Y1962312D01*
X4259582Y1962728D01*
X4258057Y1963213D01*
X4256600Y1963699D01*
X4255075Y1964323D01*
X4253619Y1965016D01*
X4253549Y1965085D01*
X4253272Y1965224D01*
X4252856Y1965432D01*
X4252370Y1965710D01*
X4251746Y1966126D01*
X4250984Y1966611D01*
X4250152Y1967235D01*
X4249250Y1967859D01*
X4248349Y1968622D01*
X4247378Y1969454D01*
X4246407Y1970425D01*
X4245436Y1971396D01*
X4244535Y1972436D01*
X4243633Y1973615D01*
X4242732Y1974863D01*
X4241969Y1976180D01*
X4241900Y1976250D01*
X4241830Y1976527D01*
X4241622Y1976874D01*
X4241345Y1977428D01*
X4241068Y1978122D01*
X4240721Y1978885D01*
X4240374Y1979786D01*
X4240028Y1980826D01*
X4239681Y1981936D01*
X4239334Y1983114D01*
X4238987Y1984432D01*
X4238710Y1985749D01*
X4238225Y1988662D01*
X4238155Y1990187D01*
X4238086Y1991713D01*
Y1992614D01*
X4238155Y1993238D01*
X4238225Y1994001D01*
X4238294Y1994972D01*
X4238433Y1995943D01*
X4238641Y1997121D01*
X4238849Y1998300D01*
X4239126Y1999618D01*
X4239473Y2000935D01*
X4239889Y2002322D01*
X4240374Y2003709D01*
X4240998Y2005096D01*
X4241622Y2006483D01*
X4242385Y2007869D01*
X4242455Y2007939D01*
X4242593Y2008147D01*
X4242871Y2008563D01*
X4243217Y2009048D01*
X4243633Y2009603D01*
X4244188Y2010296D01*
X4244812Y2011059D01*
X4245506Y2011891D01*
X4246338Y2012793D01*
X4247239Y2013625D01*
X4248210Y2014526D01*
X4249250Y2015428D01*
X4250429Y2016329D01*
X4251608Y2017161D01*
X4252925Y2017924D01*
X4254312Y2018687D01*
X4254381Y2018756D01*
X4254659Y2018826D01*
X4255075Y2019034D01*
X4255630Y2019242D01*
X4256323Y2019519D01*
X4257155Y2019796D01*
X4258057Y2020143D01*
X4259166Y2020490D01*
X4260275Y2020836D01*
X4261524Y2021183D01*
X4262841Y2021461D01*
X4264228Y2021738D01*
X4267140Y2022154D01*
X4268735Y2022223D01*
X4270261Y2022293D01*
X4270330D01*
X4270469D01*
X4270677D01*
X4270954D01*
X4271370Y2022223D01*
D02*
G37*
G36*
X4303129Y1923827D02*
X4303059Y1922440D01*
X4302990Y1920845D01*
X4302851Y1919250D01*
X4302713Y1917725D01*
X4302643Y1916962D01*
X4302505Y1916338D01*
Y1916269D01*
X4302435Y1916130D01*
Y1915853D01*
X4302366Y1915575D01*
X4302227Y1915159D01*
X4302158Y1914674D01*
X4301811Y1913564D01*
X4301395Y1912316D01*
X4300841Y1910999D01*
X4300216Y1909681D01*
X4299454Y1908433D01*
Y1908364D01*
X4299384Y1908294D01*
X4299038Y1907878D01*
X4298552Y1907324D01*
X4297859Y1906561D01*
X4297027Y1905798D01*
X4295917Y1904897D01*
X4294738Y1904065D01*
X4293282Y1903302D01*
X4293213D01*
X4293074Y1903232D01*
X4292866Y1903094D01*
X4292589Y1902955D01*
X4292242Y1902816D01*
X4291757Y1902678D01*
X4290717Y1902262D01*
X4289399Y1901915D01*
X4287943Y1901568D01*
X4286279Y1901360D01*
X4284545Y1901291D01*
X4284476D01*
X4284198D01*
X4283782D01*
X4283158Y1901360D01*
X4282465Y1901430D01*
X4281702Y1901568D01*
X4280801Y1901707D01*
X4279761Y1901915D01*
X4278720Y1902192D01*
X4277611Y1902539D01*
X4276501Y1902955D01*
X4275323Y1903510D01*
X4274144Y1904065D01*
X4272965Y1904758D01*
X4271856Y1905590D01*
X4270746Y1906491D01*
X4270677Y1906561D01*
X4270538Y1906769D01*
X4270261Y1907046D01*
X4269845Y1907532D01*
X4269429Y1908086D01*
X4268943Y1908849D01*
X4268458Y1909751D01*
X4267972Y1910791D01*
X4267418Y1912039D01*
X4266932Y1913356D01*
X4266447Y1914951D01*
X4266031Y1916615D01*
X4265684Y1918557D01*
X4265407Y1920637D01*
X4265199Y1922856D01*
X4265129Y1925353D01*
Y1941717D01*
X4239126D01*
Y1950177D01*
X4303129D01*
Y1923827D01*
D02*
G37*
G36*
X4869496Y2690609D02*
X4925940D01*
Y2682149D01*
X4869496D01*
Y2661069D01*
X4861938D01*
Y2711689D01*
X4869496D01*
Y2690609D01*
D02*
G37*
G36*
X4895707Y2654897D02*
X4896539Y2654828D01*
X4897510Y2654759D01*
X4898620Y2654620D01*
X4899868Y2654481D01*
X4901185Y2654273D01*
X4902572Y2653996D01*
X4904028Y2653719D01*
X4905484Y2653303D01*
X4907010Y2652817D01*
X4908466Y2652332D01*
X4909992Y2651708D01*
X4911448Y2651014D01*
X4911517Y2650945D01*
X4911795Y2650806D01*
X4912211Y2650598D01*
X4912696Y2650321D01*
X4913320Y2649905D01*
X4914083Y2649419D01*
X4914915Y2648795D01*
X4915816Y2648171D01*
X4916718Y2647408D01*
X4917689Y2646576D01*
X4918659Y2645606D01*
X4919630Y2644635D01*
X4920532Y2643595D01*
X4921433Y2642416D01*
X4922335Y2641168D01*
X4923097Y2639850D01*
X4923167Y2639781D01*
X4923236Y2639503D01*
X4923444Y2639157D01*
X4923721Y2638602D01*
X4923999Y2637909D01*
X4924345Y2637146D01*
X4924692Y2636244D01*
X4925039Y2635204D01*
X4925386Y2634095D01*
X4925732Y2632916D01*
X4926079Y2631598D01*
X4926356Y2630281D01*
X4926842Y2627369D01*
X4926911Y2625843D01*
X4926980Y2624318D01*
Y2623416D01*
X4926911Y2622792D01*
X4926842Y2622029D01*
X4926772Y2621059D01*
X4926634Y2620088D01*
X4926426Y2618909D01*
X4926218Y2617730D01*
X4925940Y2616413D01*
X4925594Y2615095D01*
X4925178Y2613708D01*
X4924692Y2612321D01*
X4924068Y2610935D01*
X4923444Y2609548D01*
X4922681Y2608161D01*
X4922612Y2608092D01*
X4922473Y2607884D01*
X4922196Y2607467D01*
X4921849Y2606982D01*
X4921433Y2606427D01*
X4920878Y2605734D01*
X4920254Y2604971D01*
X4919561Y2604139D01*
X4918729Y2603238D01*
X4917827Y2602406D01*
X4916857Y2601504D01*
X4915816Y2600603D01*
X4914638Y2599701D01*
X4913459Y2598869D01*
X4912141Y2598106D01*
X4910754Y2597344D01*
X4910685Y2597274D01*
X4910408Y2597205D01*
X4909992Y2596997D01*
X4909437Y2596789D01*
X4908744Y2596511D01*
X4907911Y2596234D01*
X4907010Y2595887D01*
X4905901Y2595541D01*
X4904791Y2595194D01*
X4903543Y2594847D01*
X4902225Y2594570D01*
X4900839Y2594292D01*
X4897926Y2593876D01*
X4896331Y2593807D01*
X4894806Y2593738D01*
X4894736D01*
X4894598D01*
X4894390D01*
X4894112D01*
X4893696Y2593807D01*
X4893280D01*
X4892171Y2593876D01*
X4890853Y2594015D01*
X4889258Y2594223D01*
X4887594Y2594431D01*
X4885722Y2594778D01*
X4883711Y2595263D01*
X4881700Y2595818D01*
X4879620Y2596511D01*
X4877540Y2597344D01*
X4875459Y2598314D01*
X4873518Y2599424D01*
X4871576Y2600741D01*
X4869843Y2602267D01*
X4869773Y2602336D01*
X4869427Y2602683D01*
X4869011Y2603168D01*
X4868456Y2603792D01*
X4867762Y2604694D01*
X4867000Y2605665D01*
X4866168Y2606843D01*
X4865335Y2608230D01*
X4864503Y2609756D01*
X4863671Y2611420D01*
X4862908Y2613223D01*
X4862215Y2615234D01*
X4861660Y2617314D01*
X4861244Y2619533D01*
X4860898Y2621891D01*
X4860828Y2624387D01*
Y2625219D01*
X4860898Y2625843D01*
X4860967Y2626675D01*
X4861036Y2627577D01*
X4861175Y2628547D01*
X4861383Y2629657D01*
X4861591Y2630905D01*
X4861868Y2632153D01*
X4862215Y2633471D01*
X4862631Y2634858D01*
X4863117Y2636244D01*
X4863671Y2637631D01*
X4864295Y2638949D01*
X4865058Y2640336D01*
X4865127Y2640405D01*
X4865266Y2640682D01*
X4865474Y2641029D01*
X4865821Y2641514D01*
X4866237Y2642138D01*
X4866792Y2642763D01*
X4867416Y2643525D01*
X4868109Y2644357D01*
X4868941Y2645259D01*
X4869843Y2646160D01*
X4870813Y2647062D01*
X4871854Y2647963D01*
X4872963Y2648795D01*
X4874211Y2649697D01*
X4875529Y2650460D01*
X4876916Y2651222D01*
X4876985Y2651292D01*
X4877262Y2651361D01*
X4877678Y2651569D01*
X4878233Y2651777D01*
X4878926Y2652124D01*
X4879828Y2652401D01*
X4880799Y2652748D01*
X4881908Y2653095D01*
X4883087Y2653441D01*
X4884405Y2653788D01*
X4885861Y2654135D01*
X4887317Y2654412D01*
X4888912Y2654620D01*
X4890576Y2654828D01*
X4892240Y2654897D01*
X4894043Y2654967D01*
X4894182D01*
X4894459D01*
X4895014D01*
X4895707Y2654897D01*
D02*
G37*
G36*
X4908605Y2584585D02*
X4909021D01*
X4910130Y2584446D01*
X4911448Y2584169D01*
X4912835Y2583822D01*
X4914360Y2583336D01*
X4915816Y2582712D01*
X4915886D01*
X4915955Y2582643D01*
X4916163Y2582504D01*
X4916441Y2582366D01*
X4917134Y2581950D01*
X4917966Y2581395D01*
X4918937Y2580771D01*
X4919908Y2579939D01*
X4920878Y2579037D01*
X4921780Y2577997D01*
X4921849Y2577858D01*
X4922127Y2577512D01*
X4922473Y2576888D01*
X4922959Y2576056D01*
X4923444Y2575085D01*
X4923999Y2573906D01*
X4924484Y2572519D01*
X4924900Y2570994D01*
Y2570924D01*
X4924970Y2570786D01*
Y2570578D01*
X4925039Y2570231D01*
X4925108Y2569815D01*
X4925247Y2569329D01*
X4925316Y2568775D01*
X4925386Y2568151D01*
X4925524Y2567457D01*
X4925594Y2566625D01*
X4925802Y2564891D01*
X4925871Y2562881D01*
X4925940Y2560662D01*
Y2536323D01*
X4861938D01*
Y2561494D01*
X4862007Y2562118D01*
Y2562881D01*
X4862076Y2563643D01*
X4862215Y2564545D01*
X4862423Y2566348D01*
X4862770Y2568359D01*
X4863255Y2570231D01*
X4863949Y2572034D01*
Y2572103D01*
X4864018Y2572242D01*
X4864157Y2572450D01*
X4864295Y2572796D01*
X4864781Y2573559D01*
X4865405Y2574599D01*
X4866237Y2575709D01*
X4867277Y2576818D01*
X4868525Y2577928D01*
X4869912Y2578968D01*
X4869981D01*
X4870120Y2579107D01*
X4870328Y2579176D01*
X4870605Y2579384D01*
X4870952Y2579592D01*
X4871438Y2579800D01*
X4872478Y2580285D01*
X4873726Y2580701D01*
X4875182Y2581118D01*
X4876708Y2581395D01*
X4878372Y2581534D01*
X4878441D01*
X4878580D01*
X4878788D01*
X4879065D01*
X4879828Y2581395D01*
X4880868Y2581256D01*
X4882047Y2580979D01*
X4883364Y2580563D01*
X4884682Y2580008D01*
X4886069Y2579245D01*
X4886138D01*
X4886207Y2579176D01*
X4886415Y2579037D01*
X4886693Y2578829D01*
X4887317Y2578344D01*
X4888149Y2577581D01*
X4889050Y2576680D01*
X4890021Y2575501D01*
X4890992Y2574183D01*
X4891893Y2572588D01*
Y2572658D01*
X4891963Y2572866D01*
X4892101Y2573143D01*
X4892240Y2573559D01*
X4892448Y2574045D01*
X4892656Y2574599D01*
X4893280Y2575848D01*
X4894043Y2577304D01*
X4895083Y2578760D01*
X4896262Y2580216D01*
X4897718Y2581464D01*
X4897788Y2581534D01*
X4897926Y2581603D01*
X4898134Y2581742D01*
X4898412Y2581950D01*
X4898828Y2582227D01*
X4899313Y2582504D01*
X4899868Y2582782D01*
X4900492Y2583059D01*
X4901879Y2583614D01*
X4903543Y2584169D01*
X4905415Y2584515D01*
X4906386Y2584654D01*
X4907426D01*
X4907495D01*
X4907634D01*
X4907842D01*
X4908189D01*
X4908605Y2584585D01*
D02*
G37*
G36*
X4943692Y2478699D02*
X4938006D01*
Y2530775D01*
X4943692D01*
Y2478699D01*
D02*
G37*
G36*
X4925940Y2455817D02*
X4875945D01*
X4876083Y2455678D01*
X4876430Y2455331D01*
X4876916Y2454707D01*
X4877609Y2453806D01*
X4878441Y2452765D01*
X4879343Y2451448D01*
X4880313Y2449992D01*
X4881353Y2448328D01*
Y2448258D01*
X4881492Y2448120D01*
X4881631Y2447912D01*
X4881770Y2447565D01*
X4882047Y2447149D01*
X4882255Y2446663D01*
X4882879Y2445554D01*
X4883503Y2444306D01*
X4884196Y2442919D01*
X4884821Y2441463D01*
X4885375Y2440076D01*
X4877817D01*
X4877748Y2440145D01*
X4877678Y2440353D01*
X4877470Y2440700D01*
X4877262Y2441185D01*
X4876985Y2441740D01*
X4876569Y2442434D01*
X4876153Y2443196D01*
X4875737Y2443959D01*
X4874627Y2445762D01*
X4873310Y2447704D01*
X4871923Y2449714D01*
X4870328Y2451587D01*
X4870259Y2451656D01*
X4870120Y2451795D01*
X4869912Y2452072D01*
X4869565Y2452419D01*
X4869149Y2452765D01*
X4868733Y2453251D01*
X4867554Y2454291D01*
X4866306Y2455470D01*
X4864850Y2456649D01*
X4863325Y2457689D01*
X4861730Y2458590D01*
Y2463652D01*
X4925940D01*
Y2455817D01*
D02*
G37*
G36*
Y2377807D02*
X4861938D01*
Y2424127D01*
X4869496D01*
Y2386266D01*
X4889050D01*
Y2421700D01*
X4896609D01*
Y2386266D01*
X4918382D01*
Y2425583D01*
X4925940D01*
Y2377807D01*
D02*
G37*
G36*
X4895707Y2366643D02*
X4896539Y2366573D01*
X4897510Y2366504D01*
X4898620Y2366365D01*
X4899868Y2366227D01*
X4901185Y2366019D01*
X4902572Y2365741D01*
X4904028Y2365464D01*
X4905484Y2365048D01*
X4907010Y2364562D01*
X4908466Y2364077D01*
X4909992Y2363453D01*
X4911448Y2362760D01*
X4911517Y2362690D01*
X4911795Y2362552D01*
X4912211Y2362344D01*
X4912696Y2362066D01*
X4913320Y2361650D01*
X4914083Y2361165D01*
X4914915Y2360541D01*
X4915816Y2359917D01*
X4916718Y2359154D01*
X4917689Y2358322D01*
X4918659Y2357351D01*
X4919630Y2356380D01*
X4920532Y2355340D01*
X4921433Y2354161D01*
X4922335Y2352913D01*
X4923097Y2351595D01*
X4923167Y2351526D01*
X4923236Y2351249D01*
X4923444Y2350902D01*
X4923721Y2350347D01*
X4923999Y2349654D01*
X4924345Y2348891D01*
X4924692Y2347990D01*
X4925039Y2346950D01*
X4925386Y2345840D01*
X4925732Y2344661D01*
X4926079Y2343344D01*
X4926356Y2342026D01*
X4926842Y2339114D01*
X4926911Y2337588D01*
X4926980Y2336063D01*
Y2335161D01*
X4926911Y2334537D01*
X4926842Y2333775D01*
X4926772Y2332804D01*
X4926634Y2331833D01*
X4926426Y2330654D01*
X4926218Y2329475D01*
X4925940Y2328158D01*
X4925594Y2326840D01*
X4925178Y2325454D01*
X4924692Y2324067D01*
X4924068Y2322680D01*
X4923444Y2321293D01*
X4922681Y2319906D01*
X4922612Y2319837D01*
X4922473Y2319629D01*
X4922196Y2319213D01*
X4921849Y2318727D01*
X4921433Y2318173D01*
X4920878Y2317479D01*
X4920254Y2316716D01*
X4919561Y2315884D01*
X4918729Y2314983D01*
X4917827Y2314151D01*
X4916857Y2313249D01*
X4915816Y2312348D01*
X4914638Y2311446D01*
X4913459Y2310614D01*
X4912141Y2309852D01*
X4910754Y2309089D01*
X4910685Y2309020D01*
X4910408Y2308950D01*
X4909992Y2308742D01*
X4909437Y2308534D01*
X4908744Y2308257D01*
X4907911Y2307979D01*
X4907010Y2307633D01*
X4905901Y2307286D01*
X4904791Y2306939D01*
X4903543Y2306593D01*
X4902225Y2306315D01*
X4900839Y2306038D01*
X4897926Y2305622D01*
X4896331Y2305552D01*
X4894806Y2305483D01*
X4894736D01*
X4894598D01*
X4894390D01*
X4894112D01*
X4893696Y2305552D01*
X4893280D01*
X4892171Y2305622D01*
X4890853Y2305760D01*
X4889258Y2305968D01*
X4887594Y2306176D01*
X4885722Y2306523D01*
X4883711Y2307009D01*
X4881700Y2307563D01*
X4879620Y2308257D01*
X4877540Y2309089D01*
X4875459Y2310060D01*
X4873518Y2311169D01*
X4871576Y2312487D01*
X4869843Y2314012D01*
X4869773Y2314081D01*
X4869427Y2314428D01*
X4869011Y2314914D01*
X4868456Y2315538D01*
X4867762Y2316439D01*
X4867000Y2317410D01*
X4866168Y2318589D01*
X4865335Y2319976D01*
X4864503Y2321501D01*
X4863671Y2323165D01*
X4862908Y2324968D01*
X4862215Y2326979D01*
X4861660Y2329059D01*
X4861244Y2331278D01*
X4860898Y2333636D01*
X4860828Y2336132D01*
Y2336964D01*
X4860898Y2337588D01*
X4860967Y2338421D01*
X4861036Y2339322D01*
X4861175Y2340293D01*
X4861383Y2341402D01*
X4861591Y2342650D01*
X4861868Y2343899D01*
X4862215Y2345216D01*
X4862631Y2346603D01*
X4863117Y2347990D01*
X4863671Y2349377D01*
X4864295Y2350694D01*
X4865058Y2352081D01*
X4865127Y2352150D01*
X4865266Y2352428D01*
X4865474Y2352774D01*
X4865821Y2353260D01*
X4866237Y2353884D01*
X4866792Y2354508D01*
X4867416Y2355271D01*
X4868109Y2356103D01*
X4868941Y2357004D01*
X4869843Y2357906D01*
X4870813Y2358807D01*
X4871854Y2359709D01*
X4872963Y2360541D01*
X4874211Y2361442D01*
X4875529Y2362205D01*
X4876916Y2362968D01*
X4876985Y2363037D01*
X4877262Y2363106D01*
X4877678Y2363314D01*
X4878233Y2363522D01*
X4878926Y2363869D01*
X4879828Y2364146D01*
X4880799Y2364493D01*
X4881908Y2364840D01*
X4883087Y2365187D01*
X4884405Y2365533D01*
X4885861Y2365880D01*
X4887317Y2366157D01*
X4888912Y2366365D01*
X4890576Y2366573D01*
X4892240Y2366643D01*
X4894043Y2366712D01*
X4894182D01*
X4894459D01*
X4895014D01*
X4895707Y2366643D01*
D02*
G37*
%LPC*%
G36*
X4270122Y2296748D02*
X4269983D01*
X4269637D01*
X4269013Y2296679D01*
X4268180D01*
X4267210Y2296540D01*
X4266100Y2296402D01*
X4264852Y2296263D01*
X4263535Y2295986D01*
X4262078Y2295639D01*
X4260553Y2295223D01*
X4259097Y2294737D01*
X4257571Y2294113D01*
X4256046Y2293420D01*
X4254589Y2292588D01*
X4253203Y2291686D01*
X4251885Y2290577D01*
X4251816Y2290507D01*
X4251608Y2290299D01*
X4251261Y2289953D01*
X4250845Y2289467D01*
X4250360Y2288843D01*
X4249805Y2288081D01*
X4249181Y2287248D01*
X4248626Y2286278D01*
X4248002Y2285237D01*
X4247378Y2283989D01*
X4246823Y2282741D01*
X4246338Y2281354D01*
X4245922Y2279898D01*
X4245575Y2278303D01*
X4245367Y2276708D01*
X4245298Y2274975D01*
Y2274559D01*
X4245367Y2274073D01*
X4245436Y2273380D01*
X4245506Y2272548D01*
X4245644Y2271646D01*
X4245852Y2270537D01*
X4246130Y2269428D01*
X4246476Y2268179D01*
X4246892Y2266931D01*
X4247447Y2265614D01*
X4248141Y2264296D01*
X4248903Y2262979D01*
X4249735Y2261661D01*
X4250776Y2260413D01*
X4251954Y2259234D01*
X4252024Y2259165D01*
X4252301Y2258957D01*
X4252648Y2258680D01*
X4253203Y2258263D01*
X4253896Y2257778D01*
X4254728Y2257223D01*
X4255699Y2256669D01*
X4256878Y2256114D01*
X4258126Y2255559D01*
X4259582Y2254935D01*
X4261108Y2254450D01*
X4262841Y2253964D01*
X4264713Y2253548D01*
X4266655Y2253271D01*
X4268805Y2253063D01*
X4271023Y2252993D01*
X4271093D01*
X4271370D01*
X4271786D01*
X4272341Y2253063D01*
X4273034D01*
X4273797Y2253132D01*
X4274699Y2253201D01*
X4275669Y2253340D01*
X4277819Y2253618D01*
X4280107Y2254103D01*
X4282396Y2254796D01*
X4284684Y2255698D01*
X4284753D01*
X4284961Y2255836D01*
X4285239Y2255975D01*
X4285655Y2256183D01*
X4286140Y2256461D01*
X4286695Y2256807D01*
X4288012Y2257639D01*
X4289468Y2258749D01*
X4290925Y2260066D01*
X4292381Y2261592D01*
X4293698Y2263395D01*
X4293768Y2263464D01*
X4293837Y2263603D01*
X4293976Y2263880D01*
X4294184Y2264296D01*
X4294461Y2264782D01*
X4294738Y2265336D01*
X4295016Y2265960D01*
X4295363Y2266723D01*
X4295640Y2267555D01*
X4295917Y2268387D01*
X4296472Y2270329D01*
X4296819Y2272479D01*
X4296957Y2273657D01*
Y2275252D01*
X4296888Y2275668D01*
Y2276362D01*
X4296749Y2277124D01*
X4296611Y2278026D01*
X4296403Y2278997D01*
X4296195Y2280106D01*
X4295848Y2281285D01*
X4295432Y2282533D01*
X4294946Y2283851D01*
X4294322Y2285099D01*
X4293629Y2286416D01*
X4292797Y2287734D01*
X4291826Y2289051D01*
X4290717Y2290299D01*
X4290647Y2290369D01*
X4290439Y2290577D01*
X4290023Y2290924D01*
X4289538Y2291270D01*
X4288844Y2291825D01*
X4288012Y2292310D01*
X4286972Y2292934D01*
X4285863Y2293489D01*
X4284476Y2294113D01*
X4282950Y2294737D01*
X4281286Y2295223D01*
X4279414Y2295708D01*
X4277403Y2296124D01*
X4275184Y2296471D01*
X4272757Y2296679D01*
X4270122Y2296748D01*
D02*
G37*
G36*
Y2013556D02*
X4269983D01*
X4269637D01*
X4269013Y2013486D01*
X4268180D01*
X4267210Y2013348D01*
X4266100Y2013209D01*
X4264852Y2013070D01*
X4263535Y2012793D01*
X4262078Y2012446D01*
X4260553Y2012030D01*
X4259097Y2011545D01*
X4257571Y2010921D01*
X4256046Y2010227D01*
X4254589Y2009395D01*
X4253203Y2008494D01*
X4251885Y2007384D01*
X4251816Y2007315D01*
X4251608Y2007107D01*
X4251261Y2006760D01*
X4250845Y2006275D01*
X4250360Y2005651D01*
X4249805Y2004888D01*
X4249181Y2004056D01*
X4248626Y2003085D01*
X4248002Y2002045D01*
X4247378Y2000797D01*
X4246823Y1999548D01*
X4246338Y1998162D01*
X4245922Y1996705D01*
X4245575Y1995111D01*
X4245367Y1993516D01*
X4245298Y1991782D01*
Y1991366D01*
X4245367Y1990881D01*
X4245436Y1990187D01*
X4245506Y1989355D01*
X4245644Y1988454D01*
X4245852Y1987344D01*
X4246130Y1986235D01*
X4246476Y1984987D01*
X4246892Y1983738D01*
X4247447Y1982421D01*
X4248141Y1981103D01*
X4248903Y1979786D01*
X4249735Y1978468D01*
X4250776Y1977220D01*
X4251954Y1976042D01*
X4252024Y1975972D01*
X4252301Y1975764D01*
X4252648Y1975487D01*
X4253203Y1975071D01*
X4253896Y1974585D01*
X4254728Y1974031D01*
X4255699Y1973476D01*
X4256878Y1972921D01*
X4258126Y1972366D01*
X4259582Y1971742D01*
X4261108Y1971257D01*
X4262841Y1970772D01*
X4264713Y1970355D01*
X4266655Y1970078D01*
X4268805Y1969870D01*
X4271023Y1969801D01*
X4271093D01*
X4271370D01*
X4271786D01*
X4272341Y1969870D01*
X4273034D01*
X4273797Y1969939D01*
X4274699Y1970009D01*
X4275669Y1970147D01*
X4277819Y1970425D01*
X4280107Y1970910D01*
X4282396Y1971604D01*
X4284684Y1972505D01*
X4284753D01*
X4284961Y1972644D01*
X4285239Y1972782D01*
X4285655Y1972990D01*
X4286140Y1973268D01*
X4286695Y1973615D01*
X4288012Y1974447D01*
X4289468Y1975556D01*
X4290925Y1976874D01*
X4292381Y1978399D01*
X4293698Y1980202D01*
X4293768Y1980271D01*
X4293837Y1980410D01*
X4293976Y1980687D01*
X4294184Y1981103D01*
X4294461Y1981589D01*
X4294738Y1982144D01*
X4295016Y1982768D01*
X4295363Y1983530D01*
X4295640Y1984363D01*
X4295917Y1985195D01*
X4296472Y1987136D01*
X4296819Y1989286D01*
X4296957Y1990465D01*
Y1992060D01*
X4296888Y1992476D01*
Y1993169D01*
X4296749Y1993932D01*
X4296611Y1994833D01*
X4296403Y1995804D01*
X4296195Y1996913D01*
X4295848Y1998092D01*
X4295432Y1999340D01*
X4294946Y2000658D01*
X4294322Y2001906D01*
X4293629Y2003224D01*
X4292797Y2004541D01*
X4291826Y2005859D01*
X4290717Y2007107D01*
X4290647Y2007176D01*
X4290439Y2007384D01*
X4290023Y2007731D01*
X4289538Y2008078D01*
X4288844Y2008632D01*
X4288012Y2009118D01*
X4286972Y2009742D01*
X4285863Y2010296D01*
X4284476Y2010921D01*
X4282950Y2011545D01*
X4281286Y2012030D01*
X4279414Y2012515D01*
X4277403Y2012931D01*
X4275184Y2013278D01*
X4272757Y2013486D01*
X4270122Y2013556D01*
D02*
G37*
G36*
X4295571Y1941717D02*
X4272688D01*
Y1924451D01*
X4272757Y1923896D01*
Y1923203D01*
X4272826Y1922440D01*
X4272965Y1921539D01*
X4273104Y1920637D01*
X4273450Y1918696D01*
X4274005Y1916754D01*
X4274352Y1915853D01*
X4274768Y1915021D01*
X4275184Y1914188D01*
X4275739Y1913495D01*
X4275808Y1913426D01*
X4275877Y1913356D01*
X4276085Y1913148D01*
X4276293Y1912940D01*
X4276987Y1912386D01*
X4277958Y1911761D01*
X4279206Y1911137D01*
X4280662Y1910583D01*
X4282396Y1910167D01*
X4283297Y1910097D01*
X4284337Y1910028D01*
X4284406D01*
X4284545D01*
X4284753D01*
X4285031D01*
X4285793Y1910167D01*
X4286695Y1910305D01*
X4287804Y1910513D01*
X4288914Y1910929D01*
X4290093Y1911415D01*
X4291202Y1912108D01*
X4291341Y1912178D01*
X4291687Y1912455D01*
X4292173Y1912940D01*
X4292728Y1913495D01*
X4293352Y1914327D01*
X4293976Y1915229D01*
X4294530Y1916269D01*
X4294946Y1917448D01*
Y1917517D01*
X4295016Y1917864D01*
X4295154Y1918418D01*
X4295293Y1919250D01*
Y1919736D01*
X4295363Y1920291D01*
X4295432Y1920984D01*
X4295501Y1921677D01*
Y1922509D01*
X4295571Y1923342D01*
Y1941717D01*
D02*
G37*
G36*
X4894043Y2646230D02*
X4893974D01*
X4893696D01*
X4893280D01*
X4892726Y2646160D01*
X4892032D01*
X4891269Y2646091D01*
X4890368Y2646022D01*
X4889397Y2645883D01*
X4887248Y2645606D01*
X4884959Y2645120D01*
X4882671Y2644427D01*
X4880383Y2643525D01*
X4880313D01*
X4880105Y2643387D01*
X4879828Y2643248D01*
X4879412Y2643040D01*
X4878926Y2642763D01*
X4878372Y2642416D01*
X4877054Y2641584D01*
X4875598Y2640474D01*
X4874142Y2639157D01*
X4872686Y2637631D01*
X4871368Y2635828D01*
X4871299Y2635759D01*
X4871230Y2635620D01*
X4871091Y2635343D01*
X4870883Y2634927D01*
X4870605Y2634442D01*
X4870328Y2633887D01*
X4870051Y2633263D01*
X4869704Y2632500D01*
X4869427Y2631668D01*
X4869149Y2630836D01*
X4868595Y2628894D01*
X4868248Y2626745D01*
X4868109Y2625566D01*
Y2623971D01*
X4868178Y2623555D01*
Y2622861D01*
X4868317Y2622099D01*
X4868456Y2621197D01*
X4868664Y2620226D01*
X4868872Y2619117D01*
X4869219Y2617938D01*
X4869635Y2616690D01*
X4870120Y2615372D01*
X4870744Y2614124D01*
X4871438Y2612807D01*
X4872270Y2611489D01*
X4873240Y2610172D01*
X4874350Y2608924D01*
X4874419Y2608854D01*
X4874627Y2608646D01*
X4875043Y2608300D01*
X4875529Y2607953D01*
X4876222Y2607398D01*
X4877054Y2606913D01*
X4878094Y2606289D01*
X4879204Y2605734D01*
X4880591Y2605110D01*
X4882116Y2604486D01*
X4883780Y2604000D01*
X4885653Y2603515D01*
X4887664Y2603099D01*
X4889883Y2602752D01*
X4892309Y2602544D01*
X4894944Y2602475D01*
X4895083D01*
X4895430D01*
X4896054Y2602544D01*
X4896886D01*
X4897857Y2602683D01*
X4898966Y2602822D01*
X4900214Y2602960D01*
X4901532Y2603238D01*
X4902988Y2603584D01*
X4904514Y2604000D01*
X4905970Y2604486D01*
X4907495Y2605110D01*
X4909021Y2605803D01*
X4910477Y2606635D01*
X4911864Y2607537D01*
X4913181Y2608646D01*
X4913251Y2608716D01*
X4913459Y2608924D01*
X4913806Y2609270D01*
X4914222Y2609756D01*
X4914707Y2610380D01*
X4915262Y2611143D01*
X4915886Y2611975D01*
X4916441Y2612945D01*
X4917065Y2613986D01*
X4917689Y2615234D01*
X4918243Y2616482D01*
X4918729Y2617869D01*
X4919145Y2619325D01*
X4919492Y2620920D01*
X4919700Y2622515D01*
X4919769Y2624248D01*
Y2624664D01*
X4919700Y2625150D01*
X4919630Y2625843D01*
X4919561Y2626675D01*
X4919422Y2627577D01*
X4919214Y2628686D01*
X4918937Y2629796D01*
X4918590Y2631044D01*
X4918174Y2632292D01*
X4917619Y2633609D01*
X4916926Y2634927D01*
X4916163Y2636244D01*
X4915331Y2637562D01*
X4914291Y2638810D01*
X4913112Y2639989D01*
X4913043Y2640058D01*
X4912765Y2640266D01*
X4912419Y2640544D01*
X4911864Y2640960D01*
X4911171Y2641445D01*
X4910338Y2642000D01*
X4909368Y2642555D01*
X4908189Y2643109D01*
X4906941Y2643664D01*
X4905484Y2644288D01*
X4903959Y2644773D01*
X4902225Y2645259D01*
X4900353Y2645675D01*
X4898412Y2645952D01*
X4896262Y2646160D01*
X4894043Y2646230D01*
D02*
G37*
G36*
X4907426Y2575917D02*
X4907357D01*
X4907287D01*
X4907079D01*
X4906802D01*
X4906178Y2575848D01*
X4905276Y2575709D01*
X4904306Y2575431D01*
X4903266Y2575154D01*
X4902225Y2574669D01*
X4901185Y2574045D01*
X4901047Y2573975D01*
X4900769Y2573698D01*
X4900284Y2573282D01*
X4899729Y2572727D01*
X4899105Y2571964D01*
X4898550Y2571063D01*
X4897996Y2570092D01*
X4897510Y2568913D01*
Y2568844D01*
X4897441Y2568775D01*
X4897371Y2568567D01*
X4897302Y2568289D01*
X4897233Y2567943D01*
X4897163Y2567596D01*
X4897025Y2567110D01*
X4896955Y2566556D01*
X4896817Y2565862D01*
X4896747Y2565169D01*
X4896678Y2564406D01*
X4896539Y2563574D01*
X4896470Y2561702D01*
X4896401Y2559552D01*
Y2544782D01*
X4918382D01*
Y2562118D01*
X4918313Y2563019D01*
Y2563921D01*
X4918243Y2564891D01*
X4918174Y2565793D01*
X4918105Y2566486D01*
Y2566625D01*
X4918035Y2566972D01*
X4917897Y2567526D01*
X4917689Y2568220D01*
X4917481Y2568983D01*
X4917134Y2569745D01*
X4916787Y2570578D01*
X4916371Y2571340D01*
X4916302Y2571410D01*
X4916163Y2571687D01*
X4915886Y2572034D01*
X4915470Y2572519D01*
X4914984Y2573005D01*
X4914360Y2573559D01*
X4913667Y2574114D01*
X4912835Y2574599D01*
X4912696Y2574669D01*
X4912419Y2574807D01*
X4911933Y2575015D01*
X4911240Y2575293D01*
X4910477Y2575501D01*
X4909576Y2575709D01*
X4908536Y2575848D01*
X4907426Y2575917D01*
D02*
G37*
G36*
X4879343Y2573213D02*
X4879273D01*
X4879204D01*
X4878788D01*
X4878233Y2573143D01*
X4877470Y2573005D01*
X4876569Y2572796D01*
X4875598Y2572519D01*
X4874627Y2572172D01*
X4873726Y2571618D01*
X4873587Y2571548D01*
X4873310Y2571340D01*
X4872894Y2570994D01*
X4872408Y2570508D01*
X4871854Y2569884D01*
X4871299Y2569121D01*
X4870813Y2568289D01*
X4870397Y2567249D01*
X4870328Y2567110D01*
Y2566972D01*
X4870259Y2566694D01*
X4870189Y2566417D01*
X4870120Y2566001D01*
X4870051Y2565516D01*
X4869912Y2565030D01*
X4869843Y2564406D01*
X4869773Y2563643D01*
X4869704Y2562881D01*
X4869635Y2561979D01*
X4869565Y2561008D01*
Y2559968D01*
X4869496Y2558789D01*
Y2544782D01*
X4888842D01*
Y2559968D01*
X4888773Y2560523D01*
Y2561702D01*
X4888704Y2563019D01*
X4888565Y2564406D01*
X4888357Y2565654D01*
X4888288Y2566209D01*
X4888149Y2566694D01*
Y2566764D01*
X4888080Y2566833D01*
X4887941Y2567249D01*
X4887733Y2567804D01*
X4887386Y2568497D01*
X4886970Y2569260D01*
X4886415Y2570092D01*
X4885722Y2570855D01*
X4884959Y2571548D01*
X4884821Y2571618D01*
X4884543Y2571826D01*
X4884058Y2572103D01*
X4883434Y2572380D01*
X4882602Y2572658D01*
X4881631Y2572935D01*
X4880591Y2573143D01*
X4879343Y2573213D01*
D02*
G37*
G36*
X4894043Y2357975D02*
X4893974D01*
X4893696D01*
X4893280D01*
X4892726Y2357906D01*
X4892032D01*
X4891269Y2357836D01*
X4890368Y2357767D01*
X4889397Y2357628D01*
X4887248Y2357351D01*
X4884959Y2356865D01*
X4882671Y2356172D01*
X4880383Y2355271D01*
X4880313D01*
X4880105Y2355132D01*
X4879828Y2354993D01*
X4879412Y2354785D01*
X4878926Y2354508D01*
X4878372Y2354161D01*
X4877054Y2353329D01*
X4875598Y2352220D01*
X4874142Y2350902D01*
X4872686Y2349377D01*
X4871368Y2347574D01*
X4871299Y2347504D01*
X4871230Y2347366D01*
X4871091Y2347088D01*
X4870883Y2346672D01*
X4870605Y2346187D01*
X4870328Y2345632D01*
X4870051Y2345008D01*
X4869704Y2344245D01*
X4869427Y2343413D01*
X4869149Y2342581D01*
X4868595Y2340639D01*
X4868248Y2338490D01*
X4868109Y2337311D01*
Y2335716D01*
X4868178Y2335300D01*
Y2334607D01*
X4868317Y2333844D01*
X4868456Y2332943D01*
X4868664Y2331972D01*
X4868872Y2330862D01*
X4869219Y2329683D01*
X4869635Y2328435D01*
X4870120Y2327118D01*
X4870744Y2325870D01*
X4871438Y2324552D01*
X4872270Y2323235D01*
X4873240Y2321917D01*
X4874350Y2320669D01*
X4874419Y2320600D01*
X4874627Y2320392D01*
X4875043Y2320045D01*
X4875529Y2319698D01*
X4876222Y2319143D01*
X4877054Y2318658D01*
X4878094Y2318034D01*
X4879204Y2317479D01*
X4880591Y2316855D01*
X4882116Y2316231D01*
X4883780Y2315746D01*
X4885653Y2315260D01*
X4887664Y2314844D01*
X4889883Y2314498D01*
X4892309Y2314290D01*
X4894944Y2314220D01*
X4895083D01*
X4895430D01*
X4896054Y2314290D01*
X4896886D01*
X4897857Y2314428D01*
X4898966Y2314567D01*
X4900214Y2314706D01*
X4901532Y2314983D01*
X4902988Y2315330D01*
X4904514Y2315746D01*
X4905970Y2316231D01*
X4907495Y2316855D01*
X4909021Y2317549D01*
X4910477Y2318381D01*
X4911864Y2319282D01*
X4913181Y2320392D01*
X4913251Y2320461D01*
X4913459Y2320669D01*
X4913806Y2321016D01*
X4914222Y2321501D01*
X4914707Y2322125D01*
X4915262Y2322888D01*
X4915886Y2323720D01*
X4916441Y2324691D01*
X4917065Y2325731D01*
X4917689Y2326979D01*
X4918243Y2328227D01*
X4918729Y2329614D01*
X4919145Y2331070D01*
X4919492Y2332665D01*
X4919700Y2334260D01*
X4919769Y2335994D01*
Y2336410D01*
X4919700Y2336895D01*
X4919630Y2337588D01*
X4919561Y2338421D01*
X4919422Y2339322D01*
X4919214Y2340431D01*
X4918937Y2341541D01*
X4918590Y2342789D01*
X4918174Y2344037D01*
X4917619Y2345355D01*
X4916926Y2346672D01*
X4916163Y2347990D01*
X4915331Y2349307D01*
X4914291Y2350555D01*
X4913112Y2351734D01*
X4913043Y2351804D01*
X4912765Y2352012D01*
X4912419Y2352289D01*
X4911864Y2352705D01*
X4911171Y2353190D01*
X4910338Y2353745D01*
X4909368Y2354300D01*
X4908189Y2354855D01*
X4906941Y2355409D01*
X4905484Y2356033D01*
X4903959Y2356519D01*
X4902225Y2357004D01*
X4900353Y2357420D01*
X4898412Y2357698D01*
X4896262Y2357906D01*
X4894043Y2357975D01*
D02*
G37*
%LPD*%
D40*
X4551375Y1420484D02*
X4551376Y3190484D01*
X3891376Y1420484D02*
X4551375Y1420484D01*
X3891375Y3190484D02*
X3891376Y1420484D01*
X3891375Y3190484D02*
X4551376Y3190484D01*
X4613691Y1420484D02*
Y3190484D01*
X5273691D01*
Y1420484D02*
Y3190484D01*
X4613691Y1420484D02*
X5273691D01*
%TF.MD5,243b5256dc9ad66b95e14c60df3e9049*%
M02*
