%TF.GenerationSoftware,Altium Limited,Altium Designer,23.3.1 (30)*%
G04 Layer_Color=32896*
%FSLAX45Y45*%
%MOMM*%
%TF.SameCoordinates,9B08417B-AAB0-44DC-96C9-EC8FD7F4D7BA*%
%TF.FilePolarity,Positive*%
%TF.FileFunction,Other,Top_Value*%
%TF.Part,Single*%
G01*
G75*
%TA.AperFunction,NonConductor*%
%ADD40C,0.20000*%
G36*
X4271801Y2305388D02*
X4272874D01*
X4274239Y2305193D01*
X4275800Y2304998D01*
X4277458Y2304803D01*
X4279409Y2304412D01*
X4281359Y2303925D01*
X4283407Y2303437D01*
X4285456Y2302754D01*
X4287504Y2301877D01*
X4289552Y2300901D01*
X4291601Y2299828D01*
X4293454Y2298463D01*
X4295209Y2297000D01*
X4295307Y2296902D01*
X4295599Y2296610D01*
X4296087Y2296122D01*
X4296672Y2295439D01*
X4297355Y2294561D01*
X4298038Y2293586D01*
X4298916Y2292416D01*
X4299794Y2291050D01*
X4300574Y2289489D01*
X4301452Y2287831D01*
X4302134Y2285978D01*
X4302915Y2284027D01*
X4303402Y2281979D01*
X4303890Y2279736D01*
X4304183Y2277297D01*
X4304280Y2274859D01*
Y2273981D01*
X4304183Y2273396D01*
Y2272616D01*
X4304085Y2271640D01*
X4303890Y2270665D01*
X4303793Y2269495D01*
X4303207Y2267056D01*
X4302427Y2264325D01*
X4301452Y2261594D01*
X4300769Y2260229D01*
X4299989Y2258863D01*
Y2258766D01*
X4299794Y2258571D01*
X4299598Y2258180D01*
X4299208Y2257693D01*
X4298818Y2257108D01*
X4298233Y2256425D01*
X4296965Y2254864D01*
X4295307Y2253109D01*
X4293259Y2251255D01*
X4290918Y2249597D01*
X4288187Y2248037D01*
X4288089D01*
X4287797Y2247842D01*
X4287406Y2247647D01*
X4286821Y2247451D01*
X4286138Y2247159D01*
X4285261Y2246866D01*
X4284285Y2246476D01*
X4283212Y2246086D01*
X4281944Y2245793D01*
X4280676Y2245403D01*
X4277750Y2244818D01*
X4274532Y2244428D01*
X4271020Y2244233D01*
X4270923D01*
X4270630D01*
X4270045D01*
X4269362Y2244330D01*
X4268484D01*
X4267509Y2244428D01*
X4266436Y2244525D01*
X4265168Y2244720D01*
X4262437Y2245208D01*
X4259511Y2245891D01*
X4256488Y2246866D01*
X4253561Y2248232D01*
X4253464D01*
X4253269Y2248427D01*
X4252879Y2248622D01*
X4252294Y2248914D01*
X4251708Y2249402D01*
X4250928Y2249890D01*
X4249270Y2251060D01*
X4247417Y2252621D01*
X4245466Y2254572D01*
X4243613Y2256815D01*
X4241955Y2259351D01*
Y2259448D01*
X4241760Y2259643D01*
X4241565Y2260034D01*
X4241369Y2260619D01*
X4241077Y2261302D01*
X4240687Y2262082D01*
X4240394Y2262960D01*
X4240004Y2264033D01*
X4239321Y2266276D01*
X4238638Y2268909D01*
X4238248Y2271835D01*
X4238053Y2274859D01*
Y2275737D01*
X4238151Y2276420D01*
Y2277200D01*
X4238248Y2278078D01*
X4238443Y2279151D01*
X4238638Y2280321D01*
X4239126Y2282759D01*
X4239906Y2285490D01*
X4240979Y2288319D01*
X4241565Y2289685D01*
X4242345Y2291050D01*
X4242442Y2291148D01*
X4242540Y2291343D01*
X4242833Y2291733D01*
X4243125Y2292220D01*
X4243613Y2292806D01*
X4244100Y2293488D01*
X4245466Y2295049D01*
X4247222Y2296805D01*
X4249172Y2298658D01*
X4251611Y2300316D01*
X4254244Y2301877D01*
X4254342D01*
X4254634Y2302072D01*
X4255025Y2302169D01*
X4255610Y2302462D01*
X4256292Y2302754D01*
X4257073Y2303047D01*
X4258048Y2303340D01*
X4259121Y2303632D01*
X4260291Y2304022D01*
X4261462Y2304315D01*
X4264193Y2304900D01*
X4267119Y2305290D01*
X4270240Y2305485D01*
X4270435D01*
X4270923D01*
X4271801Y2305388D01*
D02*
G37*
G36*
X4303207Y2186784D02*
X4295697D01*
Y2224628D01*
X4275995D01*
Y2189222D01*
X4268484D01*
Y2224628D01*
X4246636D01*
Y2185321D01*
X4239126D01*
Y2233114D01*
X4303207D01*
Y2186784D01*
D02*
G37*
G36*
X4287406Y2170691D02*
X4287504Y2170496D01*
X4287699Y2170105D01*
X4287992Y2169715D01*
X4288284Y2169130D01*
X4288577Y2168447D01*
X4289455Y2166887D01*
X4290528Y2165131D01*
X4291796Y2163180D01*
X4293259Y2161230D01*
X4294819Y2159376D01*
X4294917Y2159279D01*
X4295014Y2159181D01*
X4295599Y2158596D01*
X4296477Y2157718D01*
X4297550Y2156645D01*
X4298916Y2155475D01*
X4300379Y2154305D01*
X4301939Y2153232D01*
X4303500Y2152354D01*
Y2147184D01*
X4239126D01*
Y2155085D01*
X4289260D01*
X4289162Y2155182D01*
X4288772Y2155573D01*
X4288284Y2156255D01*
X4287602Y2157133D01*
X4286724Y2158206D01*
X4285846Y2159474D01*
X4284773Y2160937D01*
X4283798Y2162595D01*
Y2162693D01*
X4283700Y2162790D01*
X4283310Y2163375D01*
X4282822Y2164253D01*
X4282237Y2165326D01*
X4281554Y2166594D01*
X4280969Y2167960D01*
X4280286Y2169423D01*
X4279701Y2170788D01*
X4287406D01*
Y2170691D01*
D02*
G37*
G36*
X4227032Y2080080D02*
X4221375D01*
Y2132164D01*
X4227032D01*
Y2080080D01*
D02*
G37*
G36*
X4303207Y2028288D02*
X4295697D01*
Y2049356D01*
X4239126D01*
Y2057841D01*
X4295697D01*
Y2078909D01*
X4303207D01*
Y2028288D01*
D02*
G37*
G36*
X4271801Y2022046D02*
X4272874D01*
X4274239Y2021851D01*
X4275800Y2021656D01*
X4277458Y2021461D01*
X4279409Y2021070D01*
X4281359Y2020583D01*
X4283407Y2020095D01*
X4285456Y2019412D01*
X4287504Y2018534D01*
X4289552Y2017559D01*
X4291601Y2016486D01*
X4293454Y2015121D01*
X4295209Y2013658D01*
X4295307Y2013560D01*
X4295599Y2013267D01*
X4296087Y2012780D01*
X4296672Y2012097D01*
X4297355Y2011219D01*
X4298038Y2010244D01*
X4298916Y2009073D01*
X4299794Y2007708D01*
X4300574Y2006147D01*
X4301452Y2004489D01*
X4302134Y2002636D01*
X4302915Y2000685D01*
X4303402Y1998637D01*
X4303890Y1996394D01*
X4304183Y1993955D01*
X4304280Y1991517D01*
Y1990639D01*
X4304183Y1990054D01*
Y1989274D01*
X4304085Y1988298D01*
X4303890Y1987323D01*
X4303793Y1986152D01*
X4303207Y1983714D01*
X4302427Y1980983D01*
X4301452Y1978252D01*
X4300769Y1976887D01*
X4299989Y1975521D01*
Y1975424D01*
X4299794Y1975228D01*
X4299598Y1974838D01*
X4299208Y1974351D01*
X4298818Y1973765D01*
X4298233Y1973083D01*
X4296965Y1971522D01*
X4295307Y1969766D01*
X4293259Y1967913D01*
X4290918Y1966255D01*
X4288187Y1964695D01*
X4288089D01*
X4287797Y1964499D01*
X4287406Y1964304D01*
X4286821Y1964109D01*
X4286138Y1963817D01*
X4285261Y1963524D01*
X4284285Y1963134D01*
X4283212Y1962744D01*
X4281944Y1962451D01*
X4280676Y1962061D01*
X4277750Y1961476D01*
X4274532Y1961086D01*
X4271020Y1960891D01*
X4270923D01*
X4270630D01*
X4270045D01*
X4269362Y1960988D01*
X4268484D01*
X4267509Y1961086D01*
X4266436Y1961183D01*
X4265168Y1961378D01*
X4262437Y1961866D01*
X4259511Y1962549D01*
X4256488Y1963524D01*
X4253561Y1964890D01*
X4253464D01*
X4253269Y1965085D01*
X4252879Y1965280D01*
X4252294Y1965572D01*
X4251708Y1966060D01*
X4250928Y1966548D01*
X4249270Y1967718D01*
X4247417Y1969279D01*
X4245466Y1971229D01*
X4243613Y1973473D01*
X4241955Y1976009D01*
Y1976106D01*
X4241760Y1976301D01*
X4241565Y1976692D01*
X4241369Y1977277D01*
X4241077Y1977959D01*
X4240687Y1978740D01*
X4240394Y1979618D01*
X4240004Y1980690D01*
X4239321Y1982934D01*
X4238638Y1985567D01*
X4238248Y1988493D01*
X4238053Y1991517D01*
Y1992395D01*
X4238151Y1993078D01*
Y1993858D01*
X4238248Y1994736D01*
X4238443Y1995809D01*
X4238638Y1996979D01*
X4239126Y1999417D01*
X4239906Y2002148D01*
X4240979Y2004977D01*
X4241565Y2006342D01*
X4242345Y2007708D01*
X4242442Y2007805D01*
X4242540Y2008001D01*
X4242833Y2008391D01*
X4243125Y2008878D01*
X4243613Y2009464D01*
X4244100Y2010146D01*
X4245466Y2011707D01*
X4247222Y2013463D01*
X4249172Y2015316D01*
X4251611Y2016974D01*
X4254244Y2018534D01*
X4254342D01*
X4254634Y2018730D01*
X4255025Y2018827D01*
X4255610Y2019120D01*
X4256292Y2019412D01*
X4257073Y2019705D01*
X4258048Y2019997D01*
X4259121Y2020290D01*
X4260291Y2020680D01*
X4261462Y2020973D01*
X4264193Y2021558D01*
X4267119Y2021948D01*
X4270240Y2022143D01*
X4270435D01*
X4270923D01*
X4271801Y2022046D01*
D02*
G37*
G36*
X4303207Y1923729D02*
X4303110Y1922266D01*
X4303012Y1920706D01*
X4302915Y1919048D01*
X4302720Y1917487D01*
X4302525Y1916122D01*
Y1915927D01*
X4302329Y1915341D01*
X4302134Y1914464D01*
X4301842Y1913391D01*
X4301452Y1912123D01*
X4300964Y1910855D01*
X4300281Y1909489D01*
X4299501Y1908221D01*
X4299403Y1908124D01*
X4299111Y1907636D01*
X4298623Y1907051D01*
X4297940Y1906368D01*
X4297063Y1905588D01*
X4295990Y1904710D01*
X4294819Y1903832D01*
X4293356Y1903052D01*
X4293161Y1902954D01*
X4292673Y1902759D01*
X4291893Y1902467D01*
X4290820Y1902076D01*
X4289552Y1901686D01*
X4288089Y1901394D01*
X4286431Y1901199D01*
X4284675Y1901101D01*
X4284578D01*
X4284285D01*
X4283895D01*
X4283310Y1901199D01*
X4282627Y1901296D01*
X4281749Y1901394D01*
X4280872Y1901491D01*
X4279896Y1901784D01*
X4277653Y1902369D01*
X4275410Y1903344D01*
X4274239Y1903930D01*
X4273069Y1904612D01*
X4271898Y1905393D01*
X4270825Y1906368D01*
X4270728Y1906466D01*
X4270630Y1906661D01*
X4270338Y1906953D01*
X4269948Y1907343D01*
X4269557Y1908026D01*
X4269070Y1908709D01*
X4268582Y1909587D01*
X4268094Y1910660D01*
X4267509Y1911830D01*
X4267021Y1913196D01*
X4266534Y1914756D01*
X4266144Y1916414D01*
X4265753Y1918365D01*
X4265461Y1920413D01*
X4265363Y1922657D01*
X4265266Y1925095D01*
Y1941481D01*
X4239126D01*
Y1949967D01*
X4303207D01*
Y1923729D01*
D02*
G37*
G36*
X4869369Y2690848D02*
X4925940D01*
Y2682362D01*
X4869369D01*
Y2661294D01*
X4861859D01*
Y2711916D01*
X4869369D01*
Y2690848D01*
D02*
G37*
G36*
X4895704Y2655052D02*
X4896582D01*
X4897557Y2654955D01*
X4898630Y2654857D01*
X4899898Y2654662D01*
X4902629Y2654174D01*
X4905555Y2653492D01*
X4908578Y2652516D01*
X4911505Y2651151D01*
X4911602D01*
X4911797Y2650956D01*
X4912187Y2650761D01*
X4912772Y2650468D01*
X4913358Y2649980D01*
X4914138Y2649493D01*
X4915796Y2648322D01*
X4917649Y2646762D01*
X4919600Y2644811D01*
X4921453Y2642567D01*
X4923111Y2640032D01*
Y2639934D01*
X4923306Y2639739D01*
X4923501Y2639349D01*
X4923697Y2638764D01*
X4923989Y2638081D01*
X4924379Y2637301D01*
X4924672Y2636423D01*
X4925062Y2635350D01*
X4925745Y2633106D01*
X4926428Y2630473D01*
X4926818Y2627547D01*
X4927013Y2624523D01*
Y2623646D01*
X4926915Y2622963D01*
Y2622182D01*
X4926818Y2621305D01*
X4926623Y2620232D01*
X4926428Y2619061D01*
X4925940Y2616623D01*
X4925160Y2613892D01*
X4924087Y2611063D01*
X4923501Y2609698D01*
X4922721Y2608332D01*
X4922624Y2608235D01*
X4922526Y2608040D01*
X4922233Y2607650D01*
X4921941Y2607162D01*
X4921453Y2606577D01*
X4920966Y2605894D01*
X4919600Y2604333D01*
X4917844Y2602578D01*
X4915894Y2600725D01*
X4913455Y2599066D01*
X4910822Y2597506D01*
X4910724D01*
X4910432Y2597311D01*
X4910041Y2597213D01*
X4909456Y2596921D01*
X4908774Y2596628D01*
X4907993Y2596335D01*
X4907018Y2596043D01*
X4905945Y2595750D01*
X4904775Y2595360D01*
X4903604Y2595067D01*
X4900873Y2594482D01*
X4897947Y2594092D01*
X4894826Y2593897D01*
X4894631D01*
X4894143D01*
X4893265Y2593995D01*
X4892192D01*
X4890827Y2594190D01*
X4889266Y2594385D01*
X4887608Y2594580D01*
X4885657Y2594970D01*
X4883707Y2595458D01*
X4881659Y2595945D01*
X4879610Y2596628D01*
X4877562Y2597506D01*
X4875514Y2598481D01*
X4873465Y2599554D01*
X4871612Y2600920D01*
X4869857Y2602383D01*
X4869759Y2602480D01*
X4869467Y2602773D01*
X4868979Y2603260D01*
X4868394Y2603943D01*
X4867711Y2604821D01*
X4867028Y2605796D01*
X4866150Y2606967D01*
X4865272Y2608332D01*
X4864492Y2609893D01*
X4863614Y2611551D01*
X4862932Y2613404D01*
X4862151Y2615355D01*
X4861664Y2617403D01*
X4861176Y2619647D01*
X4860883Y2622085D01*
X4860786Y2624523D01*
Y2625401D01*
X4860883Y2625986D01*
Y2626767D01*
X4860981Y2627742D01*
X4861176Y2628717D01*
X4861273Y2629888D01*
X4861859Y2632326D01*
X4862639Y2635057D01*
X4863614Y2637788D01*
X4864297Y2639154D01*
X4865077Y2640519D01*
Y2640617D01*
X4865272Y2640812D01*
X4865468Y2641202D01*
X4865858Y2641690D01*
X4866248Y2642275D01*
X4866833Y2642958D01*
X4868101Y2644518D01*
X4869759Y2646274D01*
X4871807Y2648127D01*
X4874148Y2649785D01*
X4876879Y2651346D01*
X4876977D01*
X4877269Y2651541D01*
X4877660Y2651736D01*
X4878245Y2651931D01*
X4878928Y2652224D01*
X4879805Y2652516D01*
X4880781Y2652906D01*
X4881854Y2653296D01*
X4883122Y2653589D01*
X4884390Y2653979D01*
X4887316Y2654564D01*
X4890534Y2654955D01*
X4894046Y2655150D01*
X4894143D01*
X4894436D01*
X4895021D01*
X4895704Y2655052D01*
D02*
G37*
G36*
X4909066Y2584729D02*
X4910139Y2584631D01*
X4911407Y2584338D01*
X4912870Y2584046D01*
X4914333Y2583558D01*
X4915796Y2582875D01*
X4915991Y2582778D01*
X4916479Y2582583D01*
X4917162Y2582095D01*
X4918039Y2581607D01*
X4919015Y2580925D01*
X4919990Y2580144D01*
X4920966Y2579169D01*
X4921843Y2578194D01*
X4921941Y2578096D01*
X4922136Y2577706D01*
X4922526Y2577121D01*
X4923014Y2576243D01*
X4923501Y2575268D01*
X4923989Y2574000D01*
X4924477Y2572634D01*
X4924964Y2571171D01*
Y2570976D01*
X4925160Y2570391D01*
X4925257Y2569513D01*
X4925452Y2568343D01*
X4925647Y2566782D01*
X4925745Y2565026D01*
X4925940Y2563076D01*
Y2536448D01*
X4861859D01*
Y2561613D01*
X4861956Y2562295D01*
Y2562978D01*
X4862054Y2564636D01*
X4862346Y2566489D01*
X4862639Y2568440D01*
X4863127Y2570391D01*
X4863809Y2572146D01*
Y2572244D01*
X4863907Y2572342D01*
X4864200Y2572927D01*
X4864687Y2573707D01*
X4865272Y2574682D01*
X4866150Y2575853D01*
X4867223Y2577023D01*
X4868394Y2578096D01*
X4869857Y2579169D01*
X4870052Y2579267D01*
X4870539Y2579559D01*
X4871417Y2579949D01*
X4872490Y2580437D01*
X4873758Y2580925D01*
X4875124Y2581315D01*
X4876684Y2581607D01*
X4878342Y2581705D01*
X4878537D01*
X4879025D01*
X4879805Y2581607D01*
X4880878Y2581412D01*
X4882049Y2581120D01*
X4883317Y2580730D01*
X4884780Y2580242D01*
X4886145Y2579462D01*
X4886340Y2579364D01*
X4886730Y2579072D01*
X4887413Y2578486D01*
X4888193Y2577804D01*
X4889169Y2576828D01*
X4890047Y2575658D01*
X4891022Y2574292D01*
X4891900Y2572634D01*
Y2572732D01*
X4891997Y2572927D01*
X4892095Y2573219D01*
X4892192Y2573610D01*
X4892680Y2574682D01*
X4893265Y2575950D01*
X4894143Y2577413D01*
X4895118Y2578876D01*
X4896289Y2580340D01*
X4897752Y2581607D01*
X4897947Y2581705D01*
X4898435Y2582095D01*
X4899313Y2582583D01*
X4900483Y2583266D01*
X4901946Y2583851D01*
X4903507Y2584338D01*
X4905360Y2584729D01*
X4907408Y2584826D01*
X4907603D01*
X4908188D01*
X4909066Y2584729D01*
D02*
G37*
G36*
X4943691Y2478805D02*
X4938034D01*
Y2530889D01*
X4943691D01*
Y2478805D01*
D02*
G37*
G36*
X4925940Y2455884D02*
X4875806D01*
X4875904Y2455786D01*
X4876294Y2455396D01*
X4876782Y2454713D01*
X4877464Y2453835D01*
X4878342Y2452762D01*
X4879220Y2451494D01*
X4880293Y2450031D01*
X4881268Y2448373D01*
Y2448276D01*
X4881366Y2448178D01*
X4881756Y2447593D01*
X4882244Y2446715D01*
X4882829Y2445642D01*
X4883512Y2444374D01*
X4884097Y2443009D01*
X4884780Y2441546D01*
X4885365Y2440180D01*
X4877660D01*
Y2440278D01*
X4877562Y2440473D01*
X4877367Y2440863D01*
X4877074Y2441253D01*
X4876782Y2441838D01*
X4876489Y2442521D01*
X4875611Y2444082D01*
X4874538Y2445837D01*
X4873270Y2447788D01*
X4871807Y2449739D01*
X4870247Y2451592D01*
X4870149Y2451690D01*
X4870052Y2451787D01*
X4869467Y2452372D01*
X4868589Y2453250D01*
X4867516Y2454323D01*
X4866150Y2455493D01*
X4864687Y2456664D01*
X4863127Y2457737D01*
X4861566Y2458615D01*
Y2463784D01*
X4925940D01*
Y2455884D01*
D02*
G37*
G36*
Y2377855D02*
X4861859D01*
Y2424184D01*
X4869369D01*
Y2386340D01*
X4889071D01*
Y2421746D01*
X4896582D01*
Y2386340D01*
X4918430D01*
Y2425647D01*
X4925940D01*
Y2377855D01*
D02*
G37*
G36*
X4895704Y2366638D02*
X4896582D01*
X4897557Y2366541D01*
X4898630Y2366443D01*
X4899898Y2366248D01*
X4902629Y2365760D01*
X4905555Y2365078D01*
X4908578Y2364102D01*
X4911505Y2362737D01*
X4911602D01*
X4911797Y2362542D01*
X4912187Y2362347D01*
X4912772Y2362054D01*
X4913358Y2361566D01*
X4914138Y2361079D01*
X4915796Y2359908D01*
X4917649Y2358348D01*
X4919600Y2356397D01*
X4921453Y2354154D01*
X4923111Y2351618D01*
Y2351520D01*
X4923306Y2351325D01*
X4923501Y2350935D01*
X4923697Y2350350D01*
X4923989Y2349667D01*
X4924379Y2348887D01*
X4924672Y2348009D01*
X4925062Y2346936D01*
X4925745Y2344693D01*
X4926428Y2342059D01*
X4926818Y2339133D01*
X4927013Y2336109D01*
Y2335232D01*
X4926915Y2334549D01*
Y2333769D01*
X4926818Y2332891D01*
X4926623Y2331818D01*
X4926428Y2330647D01*
X4925940Y2328209D01*
X4925160Y2325478D01*
X4924087Y2322649D01*
X4923501Y2321284D01*
X4922721Y2319918D01*
X4922624Y2319821D01*
X4922526Y2319626D01*
X4922233Y2319236D01*
X4921941Y2318748D01*
X4921453Y2318163D01*
X4920966Y2317480D01*
X4919600Y2315919D01*
X4917844Y2314164D01*
X4915894Y2312311D01*
X4913455Y2310652D01*
X4910822Y2309092D01*
X4910724D01*
X4910432Y2308897D01*
X4910041Y2308799D01*
X4909456Y2308507D01*
X4908774Y2308214D01*
X4907993Y2307921D01*
X4907018Y2307629D01*
X4905945Y2307336D01*
X4904775Y2306946D01*
X4903604Y2306654D01*
X4900873Y2306068D01*
X4897947Y2305678D01*
X4894826Y2305483D01*
X4894631D01*
X4894143D01*
X4893265Y2305581D01*
X4892192D01*
X4890827Y2305776D01*
X4889266Y2305971D01*
X4887608Y2306166D01*
X4885657Y2306556D01*
X4883707Y2307044D01*
X4881659Y2307531D01*
X4879610Y2308214D01*
X4877562Y2309092D01*
X4875514Y2310067D01*
X4873465Y2311140D01*
X4871612Y2312506D01*
X4869857Y2313969D01*
X4869759Y2314066D01*
X4869467Y2314359D01*
X4868979Y2314847D01*
X4868394Y2315529D01*
X4867711Y2316407D01*
X4867028Y2317382D01*
X4866150Y2318553D01*
X4865272Y2319918D01*
X4864492Y2321479D01*
X4863614Y2323137D01*
X4862932Y2324990D01*
X4862151Y2326941D01*
X4861664Y2328989D01*
X4861176Y2331233D01*
X4860883Y2333671D01*
X4860786Y2336109D01*
Y2336987D01*
X4860883Y2337572D01*
Y2338353D01*
X4860981Y2339328D01*
X4861176Y2340303D01*
X4861273Y2341474D01*
X4861859Y2343912D01*
X4862639Y2346643D01*
X4863614Y2349374D01*
X4864297Y2350740D01*
X4865077Y2352105D01*
Y2352203D01*
X4865272Y2352398D01*
X4865468Y2352788D01*
X4865858Y2353276D01*
X4866248Y2353861D01*
X4866833Y2354544D01*
X4868101Y2356104D01*
X4869759Y2357860D01*
X4871807Y2359713D01*
X4874148Y2361371D01*
X4876879Y2362932D01*
X4876977D01*
X4877269Y2363127D01*
X4877660Y2363322D01*
X4878245Y2363517D01*
X4878928Y2363810D01*
X4879805Y2364102D01*
X4880781Y2364492D01*
X4881854Y2364882D01*
X4883122Y2365175D01*
X4884390Y2365565D01*
X4887316Y2366150D01*
X4890534Y2366541D01*
X4894046Y2366736D01*
X4894143D01*
X4894436D01*
X4895021D01*
X4895704Y2366638D01*
D02*
G37*
%LPC*%
G36*
X4270143Y2296707D02*
X4270045D01*
X4269655D01*
X4269070D01*
X4268192Y2296610D01*
X4267217Y2296512D01*
X4266144Y2296415D01*
X4264876Y2296219D01*
X4263510Y2295927D01*
X4260584Y2295244D01*
X4259121Y2294659D01*
X4257560Y2294074D01*
X4256097Y2293391D01*
X4254634Y2292611D01*
X4253171Y2291635D01*
X4251903Y2290562D01*
X4251806Y2290465D01*
X4251611Y2290270D01*
X4251318Y2289880D01*
X4250830Y2289392D01*
X4250343Y2288807D01*
X4249855Y2288124D01*
X4249172Y2287246D01*
X4248587Y2286271D01*
X4248002Y2285198D01*
X4247417Y2284027D01*
X4246831Y2282759D01*
X4246344Y2281296D01*
X4245856Y2279833D01*
X4245564Y2278273D01*
X4245368Y2276712D01*
X4245271Y2274957D01*
Y2274079D01*
X4245368Y2273396D01*
X4245466Y2272518D01*
X4245661Y2271640D01*
X4245856Y2270567D01*
X4246149Y2269397D01*
X4246929Y2266959D01*
X4247417Y2265593D01*
X4248099Y2264325D01*
X4248880Y2262960D01*
X4249758Y2261692D01*
X4250733Y2260424D01*
X4251903Y2259253D01*
X4252001Y2259156D01*
X4252196Y2258961D01*
X4252586Y2258668D01*
X4253171Y2258278D01*
X4253854Y2257790D01*
X4254732Y2257303D01*
X4255707Y2256717D01*
X4256780Y2256132D01*
X4258146Y2255547D01*
X4259511Y2254962D01*
X4261072Y2254474D01*
X4262827Y2253986D01*
X4264681Y2253596D01*
X4266631Y2253304D01*
X4268777Y2253109D01*
X4271020Y2253011D01*
X4271118D01*
X4271411D01*
X4271801D01*
X4272288D01*
X4272971Y2253109D01*
X4273849D01*
X4275702Y2253304D01*
X4277750Y2253694D01*
X4280091Y2254181D01*
X4282432Y2254864D01*
X4284675Y2255742D01*
X4284773D01*
X4284968Y2255840D01*
X4285261Y2256035D01*
X4285651Y2256230D01*
X4286724Y2256815D01*
X4287992Y2257693D01*
X4289455Y2258766D01*
X4291015Y2260131D01*
X4292478Y2261692D01*
X4293746Y2263447D01*
Y2263545D01*
X4293844Y2263642D01*
X4294039Y2263935D01*
X4294234Y2264325D01*
X4294722Y2265398D01*
X4295404Y2266764D01*
X4295990Y2268422D01*
X4296477Y2270372D01*
X4296867Y2272518D01*
X4296965Y2274859D01*
Y2275737D01*
X4296867Y2276322D01*
X4296770Y2277102D01*
X4296672Y2278078D01*
X4296477Y2279053D01*
X4296185Y2280126D01*
X4295404Y2282564D01*
X4294917Y2283832D01*
X4294332Y2285100D01*
X4293649Y2286466D01*
X4292771Y2287734D01*
X4291796Y2289002D01*
X4290723Y2290270D01*
X4290625Y2290367D01*
X4290430Y2290562D01*
X4290040Y2290855D01*
X4289552Y2291245D01*
X4288870Y2291733D01*
X4287992Y2292318D01*
X4287016Y2292903D01*
X4285846Y2293488D01*
X4284480Y2294074D01*
X4283017Y2294659D01*
X4281359Y2295244D01*
X4279409Y2295732D01*
X4277360Y2296122D01*
X4275214Y2296415D01*
X4272776Y2296610D01*
X4270143Y2296707D01*
D02*
G37*
G36*
Y2013365D02*
X4270045D01*
X4269655D01*
X4269070D01*
X4268192Y2013267D01*
X4267217Y2013170D01*
X4266144Y2013072D01*
X4264876Y2012877D01*
X4263510Y2012585D01*
X4260584Y2011902D01*
X4259121Y2011317D01*
X4257560Y2010732D01*
X4256097Y2010049D01*
X4254634Y2009269D01*
X4253171Y2008293D01*
X4251903Y2007220D01*
X4251806Y2007123D01*
X4251611Y2006928D01*
X4251318Y2006538D01*
X4250830Y2006050D01*
X4250343Y2005465D01*
X4249855Y2004782D01*
X4249172Y2003904D01*
X4248587Y2002929D01*
X4248002Y2001856D01*
X4247417Y2000685D01*
X4246831Y1999417D01*
X4246344Y1997954D01*
X4245856Y1996491D01*
X4245564Y1994931D01*
X4245368Y1993370D01*
X4245271Y1991615D01*
Y1990737D01*
X4245368Y1990054D01*
X4245466Y1989176D01*
X4245661Y1988298D01*
X4245856Y1987225D01*
X4246149Y1986055D01*
X4246929Y1983617D01*
X4247417Y1982251D01*
X4248099Y1980983D01*
X4248880Y1979618D01*
X4249758Y1978350D01*
X4250733Y1977082D01*
X4251903Y1975911D01*
X4252001Y1975814D01*
X4252196Y1975619D01*
X4252586Y1975326D01*
X4253171Y1974936D01*
X4253854Y1974448D01*
X4254732Y1973960D01*
X4255707Y1973375D01*
X4256780Y1972790D01*
X4258146Y1972205D01*
X4259511Y1971620D01*
X4261072Y1971132D01*
X4262827Y1970644D01*
X4264681Y1970254D01*
X4266631Y1969962D01*
X4268777Y1969766D01*
X4271020Y1969669D01*
X4271118D01*
X4271411D01*
X4271801D01*
X4272288D01*
X4272971Y1969766D01*
X4273849D01*
X4275702Y1969962D01*
X4277750Y1970352D01*
X4280091Y1970839D01*
X4282432Y1971522D01*
X4284675Y1972400D01*
X4284773D01*
X4284968Y1972497D01*
X4285261Y1972693D01*
X4285651Y1972888D01*
X4286724Y1973473D01*
X4287992Y1974351D01*
X4289455Y1975424D01*
X4291015Y1976789D01*
X4292478Y1978350D01*
X4293746Y1980105D01*
Y1980203D01*
X4293844Y1980300D01*
X4294039Y1980593D01*
X4294234Y1980983D01*
X4294722Y1982056D01*
X4295404Y1983421D01*
X4295990Y1985080D01*
X4296477Y1987030D01*
X4296867Y1989176D01*
X4296965Y1991517D01*
Y1992395D01*
X4296867Y1992980D01*
X4296770Y1993760D01*
X4296672Y1994736D01*
X4296477Y1995711D01*
X4296185Y1996784D01*
X4295404Y1999222D01*
X4294917Y2000490D01*
X4294332Y2001758D01*
X4293649Y2003124D01*
X4292771Y2004392D01*
X4291796Y2005660D01*
X4290723Y2006928D01*
X4290625Y2007025D01*
X4290430Y2007220D01*
X4290040Y2007513D01*
X4289552Y2007903D01*
X4288870Y2008391D01*
X4287992Y2008976D01*
X4287016Y2009561D01*
X4285846Y2010146D01*
X4284480Y2010732D01*
X4283017Y2011317D01*
X4281359Y2011902D01*
X4279409Y2012390D01*
X4277360Y2012780D01*
X4275214Y2013072D01*
X4272776Y2013267D01*
X4270143Y2013365D01*
D02*
G37*
G36*
X4295697Y1941481D02*
X4272776D01*
Y1924217D01*
X4272874Y1923632D01*
Y1922949D01*
X4272971Y1922266D01*
X4273166Y1920511D01*
X4273556Y1918560D01*
X4274044Y1916609D01*
X4274824Y1914854D01*
X4275312Y1914073D01*
X4275800Y1913391D01*
X4275897Y1913196D01*
X4276385Y1912805D01*
X4277068Y1912318D01*
X4278043Y1911635D01*
X4279213Y1910952D01*
X4280676Y1910465D01*
X4282432Y1910074D01*
X4284383Y1909879D01*
X4284578D01*
X4285066D01*
X4285846Y1909977D01*
X4286821Y1910172D01*
X4287894Y1910367D01*
X4289065Y1910757D01*
X4290235Y1911245D01*
X4291308Y1911928D01*
X4291405Y1912025D01*
X4291796Y1912318D01*
X4292283Y1912708D01*
X4292868Y1913391D01*
X4293454Y1914171D01*
X4294136Y1915049D01*
X4294624Y1916122D01*
X4295112Y1917292D01*
Y1917390D01*
X4295209Y1917682D01*
X4295307Y1918267D01*
X4295404Y1919048D01*
X4295502Y1920121D01*
X4295599Y1921486D01*
X4295697Y1923242D01*
Y1941481D01*
D02*
G37*
G36*
X4894046Y2646371D02*
X4893948D01*
X4893655D01*
X4893265D01*
X4892778D01*
X4892095Y2646274D01*
X4891217D01*
X4889364Y2646079D01*
X4887316Y2645689D01*
X4884975Y2645201D01*
X4882634Y2644518D01*
X4880391Y2643640D01*
X4880293D01*
X4880098Y2643543D01*
X4879805Y2643348D01*
X4879415Y2643153D01*
X4878342Y2642567D01*
X4877074Y2641690D01*
X4875611Y2640617D01*
X4874051Y2639251D01*
X4872588Y2637691D01*
X4871320Y2635935D01*
Y2635838D01*
X4871222Y2635740D01*
X4871027Y2635447D01*
X4870832Y2635057D01*
X4870344Y2633984D01*
X4869662Y2632619D01*
X4869076Y2630961D01*
X4868589Y2629010D01*
X4868199Y2626864D01*
X4868101Y2624523D01*
Y2623646D01*
X4868199Y2623060D01*
X4868296Y2622280D01*
X4868394Y2621305D01*
X4868589Y2620329D01*
X4868881Y2619256D01*
X4869662Y2616818D01*
X4870149Y2615550D01*
X4870734Y2614282D01*
X4871417Y2612917D01*
X4872295Y2611649D01*
X4873270Y2610381D01*
X4874343Y2609113D01*
X4874441Y2609015D01*
X4874636Y2608820D01*
X4875026Y2608527D01*
X4875514Y2608137D01*
X4876196Y2607650D01*
X4877074Y2607064D01*
X4878050Y2606479D01*
X4879220Y2605894D01*
X4880586Y2605309D01*
X4882049Y2604724D01*
X4883707Y2604138D01*
X4885657Y2603651D01*
X4887706Y2603260D01*
X4889852Y2602968D01*
X4892290Y2602773D01*
X4894923Y2602675D01*
X4895021D01*
X4895411D01*
X4895996D01*
X4896874Y2602773D01*
X4897849Y2602870D01*
X4898922Y2602968D01*
X4900190Y2603163D01*
X4901556Y2603456D01*
X4904482Y2604138D01*
X4905945Y2604724D01*
X4907506Y2605309D01*
X4908969Y2605991D01*
X4910432Y2606772D01*
X4911895Y2607747D01*
X4913163Y2608820D01*
X4913260Y2608918D01*
X4913455Y2609113D01*
X4913748Y2609503D01*
X4914236Y2609990D01*
X4914723Y2610576D01*
X4915211Y2611258D01*
X4915894Y2612136D01*
X4916479Y2613112D01*
X4917064Y2614185D01*
X4917649Y2615355D01*
X4918235Y2616623D01*
X4918722Y2618086D01*
X4919210Y2619549D01*
X4919502Y2621110D01*
X4919698Y2622670D01*
X4919795Y2624426D01*
Y2625304D01*
X4919698Y2625986D01*
X4919600Y2626864D01*
X4919405Y2627742D01*
X4919210Y2628815D01*
X4918917Y2629985D01*
X4918137Y2632424D01*
X4917649Y2633789D01*
X4916967Y2635057D01*
X4916186Y2636423D01*
X4915308Y2637691D01*
X4914333Y2638959D01*
X4913163Y2640129D01*
X4913065Y2640227D01*
X4912870Y2640422D01*
X4912480Y2640714D01*
X4911895Y2641104D01*
X4911212Y2641592D01*
X4910334Y2642080D01*
X4909359Y2642665D01*
X4908286Y2643250D01*
X4906920Y2643835D01*
X4905555Y2644421D01*
X4903994Y2644908D01*
X4902239Y2645396D01*
X4900385Y2645786D01*
X4898435Y2646079D01*
X4896289Y2646274D01*
X4894046Y2646371D01*
D02*
G37*
G36*
X4907408Y2576048D02*
X4907213D01*
X4906823D01*
X4906140Y2575950D01*
X4905360Y2575853D01*
X4904384Y2575560D01*
X4903312Y2575268D01*
X4902239Y2574780D01*
X4901263Y2574097D01*
X4901166Y2574000D01*
X4900776Y2573805D01*
X4900385Y2573317D01*
X4899800Y2572732D01*
X4899117Y2572049D01*
X4898532Y2571171D01*
X4897947Y2570196D01*
X4897459Y2569025D01*
X4897362Y2568830D01*
X4897264Y2568440D01*
X4897069Y2567660D01*
X4896874Y2566684D01*
X4896679Y2565319D01*
X4896582Y2563758D01*
X4896386Y2561808D01*
Y2544934D01*
X4918430D01*
Y2563076D01*
X4918332Y2565026D01*
X4918235Y2565904D01*
X4918137Y2566587D01*
Y2566684D01*
X4918039Y2567075D01*
X4917942Y2567660D01*
X4917747Y2568343D01*
X4917259Y2569903D01*
X4916479Y2571464D01*
X4916381Y2571561D01*
X4916284Y2571854D01*
X4915991Y2572146D01*
X4915504Y2572634D01*
X4915016Y2573219D01*
X4914431Y2573707D01*
X4913650Y2574292D01*
X4912870Y2574780D01*
X4912772Y2574878D01*
X4912480Y2574975D01*
X4911992Y2575170D01*
X4911309Y2575463D01*
X4910529Y2575658D01*
X4909554Y2575853D01*
X4908578Y2575950D01*
X4907408Y2576048D01*
D02*
G37*
G36*
X4879318Y2573317D02*
X4879220D01*
X4878732D01*
X4878147Y2573219D01*
X4877367Y2573122D01*
X4876489Y2572927D01*
X4875611Y2572634D01*
X4874636Y2572244D01*
X4873661Y2571756D01*
X4873563Y2571659D01*
X4873270Y2571464D01*
X4872880Y2571074D01*
X4872295Y2570586D01*
X4871807Y2570001D01*
X4871222Y2569220D01*
X4870734Y2568343D01*
X4870344Y2567367D01*
Y2567270D01*
X4870149Y2566782D01*
X4870052Y2566099D01*
X4869857Y2565124D01*
X4869662Y2563758D01*
X4869564Y2562100D01*
X4869369Y2560052D01*
Y2544934D01*
X4888876D01*
Y2560637D01*
X4888779Y2561808D01*
X4888681Y2563173D01*
X4888584Y2564539D01*
X4888388Y2565709D01*
X4888193Y2566782D01*
X4888096Y2566880D01*
X4887998Y2567270D01*
X4887803Y2567855D01*
X4887413Y2568635D01*
X4887023Y2569415D01*
X4886438Y2570196D01*
X4885755Y2570976D01*
X4884975Y2571659D01*
X4884877Y2571756D01*
X4884585Y2571951D01*
X4884097Y2572146D01*
X4883414Y2572537D01*
X4882634Y2572829D01*
X4881659Y2573024D01*
X4880586Y2573219D01*
X4879318Y2573317D01*
D02*
G37*
G36*
X4894046Y2357957D02*
X4893948D01*
X4893655D01*
X4893265D01*
X4892778D01*
X4892095Y2357860D01*
X4891217D01*
X4889364Y2357665D01*
X4887316Y2357275D01*
X4884975Y2356787D01*
X4882634Y2356104D01*
X4880391Y2355226D01*
X4880293D01*
X4880098Y2355129D01*
X4879805Y2354934D01*
X4879415Y2354739D01*
X4878342Y2354154D01*
X4877074Y2353276D01*
X4875611Y2352203D01*
X4874051Y2350837D01*
X4872588Y2349277D01*
X4871320Y2347521D01*
Y2347424D01*
X4871222Y2347326D01*
X4871027Y2347033D01*
X4870832Y2346643D01*
X4870344Y2345570D01*
X4869662Y2344205D01*
X4869076Y2342547D01*
X4868589Y2340596D01*
X4868199Y2338450D01*
X4868101Y2336109D01*
Y2335232D01*
X4868199Y2334646D01*
X4868296Y2333866D01*
X4868394Y2332891D01*
X4868589Y2331915D01*
X4868881Y2330842D01*
X4869662Y2328404D01*
X4870149Y2327136D01*
X4870734Y2325868D01*
X4871417Y2324503D01*
X4872295Y2323235D01*
X4873270Y2321967D01*
X4874343Y2320699D01*
X4874441Y2320601D01*
X4874636Y2320406D01*
X4875026Y2320113D01*
X4875514Y2319723D01*
X4876196Y2319236D01*
X4877074Y2318650D01*
X4878050Y2318065D01*
X4879220Y2317480D01*
X4880586Y2316895D01*
X4882049Y2316310D01*
X4883707Y2315724D01*
X4885657Y2315237D01*
X4887706Y2314847D01*
X4889852Y2314554D01*
X4892290Y2314359D01*
X4894923Y2314261D01*
X4895021D01*
X4895411D01*
X4895996D01*
X4896874Y2314359D01*
X4897849Y2314456D01*
X4898922Y2314554D01*
X4900190Y2314749D01*
X4901556Y2315042D01*
X4904482Y2315724D01*
X4905945Y2316310D01*
X4907506Y2316895D01*
X4908969Y2317578D01*
X4910432Y2318358D01*
X4911895Y2319333D01*
X4913163Y2320406D01*
X4913260Y2320504D01*
X4913455Y2320699D01*
X4913748Y2321089D01*
X4914236Y2321577D01*
X4914723Y2322162D01*
X4915211Y2322844D01*
X4915894Y2323722D01*
X4916479Y2324698D01*
X4917064Y2325771D01*
X4917649Y2326941D01*
X4918235Y2328209D01*
X4918722Y2329672D01*
X4919210Y2331135D01*
X4919502Y2332696D01*
X4919698Y2334256D01*
X4919795Y2336012D01*
Y2336890D01*
X4919698Y2337572D01*
X4919600Y2338450D01*
X4919405Y2339328D01*
X4919210Y2340401D01*
X4918917Y2341571D01*
X4918137Y2344010D01*
X4917649Y2345375D01*
X4916967Y2346643D01*
X4916186Y2348009D01*
X4915308Y2349277D01*
X4914333Y2350545D01*
X4913163Y2351715D01*
X4913065Y2351813D01*
X4912870Y2352008D01*
X4912480Y2352300D01*
X4911895Y2352690D01*
X4911212Y2353178D01*
X4910334Y2353666D01*
X4909359Y2354251D01*
X4908286Y2354836D01*
X4906920Y2355422D01*
X4905555Y2356007D01*
X4903994Y2356494D01*
X4902239Y2356982D01*
X4900385Y2357372D01*
X4898435Y2357665D01*
X4896289Y2357860D01*
X4894046Y2357957D01*
D02*
G37*
%LPD*%
D40*
X4551375Y1420484D02*
X4551376Y3190484D01*
X3891376Y1420484D02*
X4551375Y1420484D01*
X3891375Y3190484D02*
X3891376Y1420484D01*
X3891375Y3190484D02*
X4551376Y3190484D01*
X4613691Y1420484D02*
Y3190484D01*
X5273691D01*
Y1420484D02*
Y3190484D01*
X4613691Y1420484D02*
X5273691D01*
%TF.MD5,54e5a4699f552f8f6ba568b7e140f7ab*%
M02*
