%TF.GenerationSoftware,Altium Limited,Altium Designer,23.3.1 (30)*%
G04 Layer_Color=0*
%FSLAX45Y45*%
%MOMM*%
%TF.SameCoordinates,3FCD108A-851F-4062-9BED-621BEB009867*%
%TF.FilePolarity,Positive*%
%TF.FileFunction,NonPlated,1,2,NPTH,Drill*%
%TF.Part,Single*%
G01*
G75*
G36*
X2825179Y3691061D02*
X2790487D01*
X2721696Y3700117D01*
X2654675Y3718075D01*
X2590572Y3744628D01*
X2530484Y3779320D01*
X2475437Y3821559D01*
X2426375Y3870621D01*
X2384136Y3925667D01*
X2349444Y3985756D01*
X2322891Y4049859D01*
X2304933Y4116879D01*
X2295877Y4185671D01*
Y4220363D01*
Y4255055D01*
X2304933Y4323846D01*
X2322891Y4390867D01*
X2349444Y4454969D01*
X2384136Y4515058D01*
X2426375Y4570105D01*
X2475437Y4619167D01*
X2530484Y4661406D01*
X2590572Y4696098D01*
X2654675Y4722650D01*
X2721696Y4740609D01*
X2790487Y4749665D01*
X2825179D01*
X2859871D01*
X2928662Y4740609D01*
X2995683Y4722650D01*
X3059786Y4696098D01*
X3119875Y4661406D01*
X3174921Y4619167D01*
X3223983Y4570105D01*
X3266222Y4515058D01*
X3300914Y4454969D01*
X3327467Y4390867D01*
X3345425Y4323846D01*
X3354481Y4255055D01*
Y4220363D01*
Y4185671D01*
X3345425Y4116879D01*
X3327467Y4049859D01*
X3300914Y3985756D01*
X3266222Y3925667D01*
X3223983Y3870621D01*
X3174921Y3821559D01*
X3119875Y3779320D01*
X3059786Y3744628D01*
X2995683Y3718075D01*
X2928662Y3700117D01*
X2859871Y3691061D01*
X2825179D01*
D01*
D02*
G37*
G36*
X7076838Y4702963D02*
Y4677666D01*
X7086708Y4628045D01*
X7106069Y4581303D01*
X7134177Y4539236D01*
X7169952Y4503461D01*
X7212019Y4475353D01*
X7258761Y4455992D01*
X7308382Y4446121D01*
X7333679D01*
X7358976D01*
X7408597Y4455992D01*
X7455339Y4475353D01*
X7497406Y4503461D01*
X7533181Y4539236D01*
X7561289Y4581303D01*
X7580650Y4628045D01*
X7590521Y4677666D01*
Y4702963D01*
Y4728260D01*
X7580650Y4777881D01*
X7561289Y4824623D01*
X7533181Y4866690D01*
X7497406Y4902465D01*
X7455339Y4930573D01*
X7408597Y4949934D01*
X7358976Y4959804D01*
X7333679D01*
X7308382D01*
X7258761Y4949934D01*
X7212019Y4930573D01*
X7169952Y4902465D01*
X7134177Y4866690D01*
X7106069Y4824623D01*
X7086708Y4777881D01*
X7076838Y4728260D01*
Y4702963D01*
D01*
D02*
G37*
G36*
X5419366Y1394907D02*
Y1369610D01*
X5429236Y1319988D01*
X5448597Y1273246D01*
X5476706Y1231179D01*
X5512480Y1195405D01*
X5554547Y1167296D01*
X5601290Y1147935D01*
X5650911Y1138065D01*
X5676208D01*
X5701504D01*
X5751125Y1147935D01*
X5797868Y1167296D01*
X5839934Y1195405D01*
X5875709Y1231179D01*
X5903818Y1273246D01*
X5923179Y1319988D01*
X5933049Y1369610D01*
Y1394907D01*
Y1420203D01*
X5923179Y1469824D01*
X5903818Y1516566D01*
X5875709Y1558633D01*
X5839934Y1594408D01*
X5797868Y1622516D01*
X5751125Y1641878D01*
X5701504Y1651748D01*
X5676208D01*
X5650911D01*
X5601290Y1641878D01*
X5554547Y1622516D01*
X5512480Y1594408D01*
X5476706Y1558633D01*
X5448597Y1516566D01*
X5429236Y1469824D01*
X5419366Y1420203D01*
Y1394907D01*
D01*
D02*
G37*
G36*
X2939479Y2688735D02*
X2911510D01*
X2856050Y2696037D01*
X2802018Y2710515D01*
X2750337Y2731921D01*
X2701893Y2759890D01*
X2657514Y2793944D01*
X2617960Y2833498D01*
X2583907Y2877877D01*
X2555937Y2926321D01*
X2534531Y2978001D01*
X2520053Y3032034D01*
X2512752Y3087494D01*
Y3115463D01*
Y3143432D01*
X2520053Y3198892D01*
X2534531Y3252924D01*
X2555937Y3304605D01*
X2583907Y3353049D01*
X2617960Y3397428D01*
X2657514Y3436982D01*
X2701893Y3471035D01*
X2750337Y3499004D01*
X2802018Y3520411D01*
X2856050Y3534889D01*
X2911510Y3542191D01*
X2939479D01*
X2967448D01*
X3022908Y3534889D01*
X3076941Y3520411D01*
X3128621Y3499004D01*
X3177065Y3471035D01*
X3221444Y3436982D01*
X3260998Y3397428D01*
X3295052Y3353049D01*
X3323021Y3304605D01*
X3344427Y3252924D01*
X3358905Y3198892D01*
X3366207Y3143432D01*
Y3115463D01*
Y3087494D01*
X3358905Y3032034D01*
X3344427Y2978001D01*
X3323021Y2926321D01*
X3295052Y2877877D01*
X3260998Y2833498D01*
X3221444Y2793944D01*
X3177065Y2759890D01*
X3128621Y2731921D01*
X3076941Y2710515D01*
X3022908Y2696037D01*
X2967448Y2688735D01*
X2939479D01*
D01*
D02*
G37*
G36*
X3505200Y3403600D02*
Y4787900D01*
X4241800D01*
X4572000Y5080000D01*
X5765800D01*
Y4699000D01*
X5521325Y4454525D01*
X5359400Y4292600D01*
Y3403600D01*
X3505200D01*
D02*
G37*
%TF.MD5,fb456f191fb0066a0edaebc32b0b72d8*%
M02*
