%TF.GenerationSoftware,Altium Limited,Altium Designer,22.7.1 (60)*%
G04 Layer_Color=32896*
%FSLAX45Y45*%
%MOMM*%
%TF.SameCoordinates,2E8CAF61-F9F5-4988-A97D-765C0E49F6B8*%
%TF.FilePolarity,Positive*%
%TF.FileFunction,Legend,Bot*%
%TF.Part,Single*%
G01*
G75*
%TA.AperFunction,NonConductor*%
%ADD38C,0.25000*%
%ADD39C,0.20000*%
%ADD40C,0.30000*%
D38*
X-1252121Y1502263D02*
G03*
X-1252121Y1502263I-12500J0D01*
G01*
X1747879Y1502263D02*
G03*
X1747879Y1502263I-12500J0D01*
G01*
D39*
X-1724621Y1396263D02*
X-1314621Y1396263D01*
X1275379D02*
X1685379D01*
D40*
X1347379Y2224594D02*
Y2114630D01*
X1292397D01*
X1274070Y2132957D01*
Y2206267D01*
X1292397Y2224594D01*
X1347379D01*
X1182432Y2114630D02*
X1219087D01*
X1237415Y2132957D01*
Y2169612D01*
X1219087Y2187939D01*
X1182432D01*
X1164105Y2169612D01*
Y2151284D01*
X1237415D01*
X1127450Y2114630D02*
X1072468D01*
X1054141Y2132957D01*
X1072468Y2151284D01*
X1109123D01*
X1127450Y2169612D01*
X1109123Y2187939D01*
X1054141D01*
X1017486Y2114630D02*
X980831D01*
X999159D01*
Y2187939D01*
X1017486D01*
X889194Y2077975D02*
X870866D01*
X852539Y2096302D01*
Y2187939D01*
X907521D01*
X925849Y2169612D01*
Y2132957D01*
X907521Y2114630D01*
X852539D01*
X815884D02*
Y2187939D01*
X760902D01*
X742575Y2169612D01*
Y2114630D01*
X650937D02*
X687592D01*
X705920Y2132957D01*
Y2169612D01*
X687592Y2187939D01*
X650937D01*
X632610Y2169612D01*
Y2151284D01*
X705920D01*
X522646Y2224594D02*
Y2114630D01*
X577628D01*
X595955Y2132957D01*
Y2169612D01*
X577628Y2187939D01*
X522646D01*
X376026Y2224594D02*
Y2114630D01*
X321044D01*
X302717Y2132957D01*
Y2151284D01*
X321044Y2169612D01*
X376026D01*
X321044D01*
X302717Y2187939D01*
Y2206267D01*
X321044Y2224594D01*
X376026D01*
X266062Y2187939D02*
Y2132957D01*
X247735Y2114630D01*
X192752D01*
Y2096302D01*
X211080Y2077975D01*
X229407D01*
X192752Y2114630D02*
Y2187939D01*
X-27177Y2206267D02*
X-8849Y2224594D01*
X27806D01*
X46133Y2206267D01*
Y2187939D01*
X27806Y2169612D01*
X-8849D01*
X-27177Y2151284D01*
Y2132957D01*
X-8849Y2114630D01*
X27806D01*
X46133Y2132957D01*
X-63831Y2224594D02*
X-137141D01*
X-100486D01*
Y2114630D01*
X-173796Y2224594D02*
Y2114630D01*
Y2151284D01*
X-247106Y2224594D01*
X-192123Y2169612D01*
X-247106Y2114630D01*
X1347379Y1983982D02*
Y1874018D01*
Y1910672D01*
X1274070Y1983982D01*
X1329052Y1929000D01*
X1274070Y1874018D01*
X1219087Y1947327D02*
X1182432D01*
X1164105Y1929000D01*
Y1874018D01*
X1219087D01*
X1237415Y1892345D01*
X1219087Y1910672D01*
X1164105D01*
X1072468Y1874018D02*
X1109123D01*
X1127450Y1892345D01*
Y1929000D01*
X1109123Y1947327D01*
X1072468D01*
X1054141Y1929000D01*
Y1910672D01*
X1127450D01*
X999159Y1965655D02*
Y1947327D01*
X1017486D01*
X980831D01*
X999159D01*
Y1892345D01*
X980831Y1874018D01*
X925849Y1947327D02*
X852539D01*
X925849Y1874018D01*
X852539D01*
X760902D02*
X797557D01*
X815884Y1892345D01*
Y1929000D01*
X797557Y1947327D01*
X760902D01*
X742575Y1929000D01*
Y1910672D01*
X815884D01*
X705920Y1874018D02*
X669265D01*
X687592D01*
Y1983982D01*
X705920D01*
X504318D02*
Y1874018D01*
X431009D01*
X376026Y1947327D02*
X339371D01*
X321044Y1929000D01*
Y1874018D01*
X376026D01*
X394354Y1892345D01*
X376026Y1910672D01*
X321044D01*
X284389Y1983982D02*
Y1874018D01*
X229407D01*
X211080Y1892345D01*
Y1910672D01*
Y1929000D01*
X229407Y1947327D01*
X284389D01*
X156097Y1855690D02*
X137770Y1874018D01*
Y1892345D01*
X156097D01*
Y1874018D01*
X137770D01*
X156097Y1855690D01*
X174425Y1837363D01*
X-45504Y1983982D02*
Y1892345D01*
X-63831Y1874018D01*
X-100486D01*
X-118814Y1892345D01*
Y1983982D01*
X-155469Y1874018D02*
X-192123D01*
X-173796D01*
Y1983982D01*
X-155469D01*
X-247106Y1874018D02*
Y1947327D01*
X-265433D01*
X-283760Y1929000D01*
Y1874018D01*
Y1929000D01*
X-302088Y1947327D01*
X-320415Y1929000D01*
Y1874018D01*
X-467035Y1983982D02*
Y1892345D01*
X-485362Y1874018D01*
X-522017D01*
X-540344Y1892345D01*
Y1983982D01*
X-576999Y1874018D02*
Y1947327D01*
X-631981D01*
X-650309Y1929000D01*
Y1874018D01*
X-686964D02*
X-723618D01*
X-705291D01*
Y1947327D01*
X-686964D01*
X-778601D02*
X-815255Y1874018D01*
X-851910Y1947327D01*
X-943548Y1874018D02*
X-906893D01*
X-888565Y1892345D01*
Y1929000D01*
X-906893Y1947327D01*
X-943548D01*
X-961875Y1929000D01*
Y1910672D01*
X-888565D01*
X-998530Y1947327D02*
Y1874018D01*
Y1910672D01*
X-1016857Y1929000D01*
X-1035184Y1947327D01*
X-1053512D01*
X-1108494Y1874018D02*
X-1163476D01*
X-1181804Y1892345D01*
X-1163476Y1910672D01*
X-1126821D01*
X-1108494Y1929000D01*
X-1126821Y1947327D01*
X-1181804D01*
X-1218459Y1874018D02*
X-1255113D01*
X-1236786D01*
Y1947327D01*
X-1218459D01*
X-1328423Y1965655D02*
Y1947327D01*
X-1310096D01*
X-1346750D01*
X-1328423D01*
Y1892345D01*
X-1346750Y1874018D01*
X-1401733Y1947327D02*
Y1892345D01*
X-1420060Y1874018D01*
X-1475043D01*
Y1855690D01*
X-1456715Y1837363D01*
X-1438388D01*
X-1475043Y1874018D02*
Y1947327D01*
X954507Y1642448D02*
Y1722423D01*
Y1682435D01*
X1007823D01*
Y1642448D01*
Y1722423D01*
X1034481D02*
Y1669106D01*
X1061139Y1642448D01*
X1087797Y1669106D01*
Y1722423D01*
Y1682435D01*
X1034481D01*
X1114455Y1642448D02*
Y1722423D01*
X1167771D01*
X1194429Y1642448D02*
Y1722423D01*
X1247745D01*
X1274403Y1735752D02*
X1327719D01*
X1354378Y1642448D02*
Y1722423D01*
X1394365D01*
X1407694Y1709093D01*
Y1695764D01*
X1394365Y1682435D01*
X1354378D01*
X1394365D01*
X1407694Y1669106D01*
Y1655777D01*
X1394365Y1642448D01*
X1354378D01*
X-1728914Y1251111D02*
Y1331085D01*
Y1291098D01*
X-1675598D01*
Y1251111D01*
Y1331085D01*
X-1648940D02*
Y1277769D01*
X-1622282Y1251111D01*
X-1595624Y1277769D01*
Y1331085D01*
Y1291098D01*
X-1648940D01*
X-1568966Y1251111D02*
Y1331085D01*
X-1515650D01*
X-1488992Y1251111D02*
Y1331085D01*
X-1435676D01*
X-1409018Y1344414D02*
X-1355701D01*
X-1329043Y1331085D02*
Y1277769D01*
X-1302385Y1251111D01*
X-1275727Y1277769D01*
Y1331085D01*
Y1291098D01*
X-1329043D01*
%TF.MD5,b2f8c92cf99698db986e8c76c7c8915d*%
M02*
