%TF.GenerationSoftware,Altium Limited,Altium Designer,22.7.1 (60)*%
G04 Layer_Physical_Order=1*
G04 Layer_Color=255*
%FSLAX45Y45*%
%MOMM*%
%TF.SameCoordinates,7EA997FE-DDDF-495E-A45D-074EEB3093BC*%
%TF.FilePolarity,Positive*%
%TF.FileFunction,Copper,L1,Top,Signal*%
%TF.Part,Single*%
G01*
G75*
%TA.AperFunction,Conductor*%
%ADD10C,0.25000*%
%TA.AperFunction,SMDPad,CuDef*%
%ADD11R,0.38100X0.76200*%
%ADD12R,0.38100X1.01600*%
%ADD13R,0.76200X0.38100*%
%ADD14R,1.01600X0.38100*%
%TA.AperFunction,Conductor*%
%ADD15C,0.76200*%
%ADD16C,0.38100*%
%ADD17C,0.25400*%
%ADD18C,0.50800*%
%ADD19C,0.20320*%
%ADD20C,0.30000*%
%ADD21C,0.63500*%
%ADD22C,1.50000*%
%TA.AperFunction,ComponentPad*%
%ADD23C,1.40000*%
%ADD24C,1.80000*%
%ADD25C,1.55000*%
%ADD26C,1.30000*%
%ADD27R,1.30000X1.30000*%
%ADD28R,1.40000X1.40000*%
%ADD29R,1.40000X1.40000*%
%ADD30C,2.25000*%
%ADD31C,2.55000*%
%ADD32R,1.15000X1.15000*%
%ADD33C,1.15000*%
%TA.AperFunction,ViaPad*%
%ADD34C,0.45000*%
%ADD35C,4.00000*%
%ADD36C,0.80000*%
G36*
X5403279Y6544463D02*
X6000179Y6379363D01*
X6657404Y6014238D01*
X6725569Y5946073D01*
X6725800Y5933810D01*
X6703418Y5878421D01*
X6697773Y5877298D01*
X6695417Y5876322D01*
X6692915Y5875825D01*
X6665617Y5864517D01*
X6663496Y5863100D01*
X6661140Y5862124D01*
X6636572Y5845708D01*
X6634769Y5843905D01*
X6632647Y5842488D01*
X6611754Y5821595D01*
X6610337Y5819474D01*
X6608534Y5817670D01*
X6592118Y5793102D01*
X6591142Y5790746D01*
X6589725Y5788625D01*
X6578417Y5761327D01*
X6577920Y5758825D01*
X6576944Y5756469D01*
X6571179Y5727489D01*
Y5724938D01*
X6570682Y5722437D01*
Y5692889D01*
X6571179Y5690387D01*
Y5687837D01*
X6576944Y5658857D01*
X6577920Y5656501D01*
X6578417Y5653999D01*
X6589725Y5626701D01*
X6591142Y5624580D01*
X6592118Y5622223D01*
X6608534Y5597656D01*
X6610337Y5595852D01*
X6611754Y5593731D01*
X6632647Y5572838D01*
X6634769Y5571421D01*
X6636572Y5569617D01*
X6661140Y5553201D01*
X6663496Y5552225D01*
X6665617Y5550808D01*
X6692915Y5539501D01*
X6695417Y5539003D01*
X6697773Y5538027D01*
X6726753Y5532263D01*
X6729304D01*
X6731805Y5531765D01*
X6761353D01*
X6763855Y5532263D01*
X6766405D01*
X6795385Y5538027D01*
X6797741Y5539003D01*
X6800243Y5539501D01*
X6827541Y5550808D01*
X6829662Y5552225D01*
X6832019Y5553201D01*
X6856586Y5569617D01*
X6858390Y5571421D01*
X6860511Y5572838D01*
X6881404Y5593731D01*
X6882821Y5595852D01*
X6884625Y5597656D01*
X6889179Y5604472D01*
X6952679Y5585209D01*
Y5058563D01*
X6883930Y4989814D01*
X6820039Y4973477D01*
X6802277Y4991239D01*
X6780523Y5003798D01*
X6756260Y5010300D01*
X6731140D01*
X6706877Y5003798D01*
X6685123Y4991239D01*
X6667361Y4973477D01*
X6654802Y4951723D01*
X6648300Y4927460D01*
Y4902340D01*
X6654802Y4878077D01*
X6667361Y4856323D01*
X6681021Y4842663D01*
X6679347Y4824337D01*
X6661004Y4779163D01*
X5810396D01*
X5792053Y4824337D01*
X5790379Y4842663D01*
X5804039Y4856323D01*
X5816598Y4878077D01*
X5823100Y4902340D01*
Y4927460D01*
X5816598Y4951723D01*
X5804039Y4973477D01*
X5786277Y4991239D01*
X5764523Y5003798D01*
X5740260Y5010300D01*
X5715140D01*
X5690877Y5003798D01*
X5669123Y4991239D01*
X5651361Y4973477D01*
X5593779Y4944263D01*
X4857179D01*
X4806379Y4995063D01*
X4196779D01*
X4018979Y4817263D01*
X3433690D01*
X3428998Y4834772D01*
X3416439Y4856526D01*
X3398677Y4874288D01*
X3390225Y4879168D01*
Y4891170D01*
X3386283Y4910991D01*
X3385848Y4911642D01*
X3404190Y4960287D01*
X3417510Y4975142D01*
X3980879D01*
X3998223Y4978592D01*
X4012926Y4988416D01*
X4139352Y5114842D01*
X4632579D01*
X4649923Y5118292D01*
X4664626Y5128116D01*
X4798673Y5262164D01*
X4806857Y5257439D01*
X4836207Y5249574D01*
X4866593D01*
X4895943Y5257439D01*
X4922257Y5272631D01*
X4943743Y5294117D01*
X5013057Y5294117D01*
X5034543Y5272632D01*
X5060857Y5257439D01*
X5090207Y5249574D01*
X5120593D01*
X5149943Y5257439D01*
X5176257Y5272632D01*
X5197743Y5294117D01*
X5267057D01*
X5288543Y5272632D01*
X5314857Y5257439D01*
X5344207Y5249574D01*
X5374593D01*
X5403075Y5257206D01*
X5468664Y5191617D01*
X5468664Y5191616D01*
X5483367Y5181792D01*
X5500711Y5178342D01*
X6233647D01*
X6237043Y5172461D01*
X6252478Y5157026D01*
X6271381Y5146112D01*
X6292466Y5140463D01*
X6314293D01*
X6335378Y5146112D01*
X6354281Y5157026D01*
X6368379Y5171124D01*
X6382477Y5157027D01*
X6401381Y5146113D01*
X6417527Y5141786D01*
X6420680Y5140941D01*
Y5223363D01*
Y5305785D01*
X6401381Y5300614D01*
X6382477Y5289700D01*
X6368379Y5275602D01*
X6354281Y5289699D01*
X6335378Y5300613D01*
X6314293Y5306263D01*
X6292466D01*
X6271381Y5300613D01*
X6252478Y5289699D01*
X6237043Y5274265D01*
X6233994Y5268984D01*
X5519483D01*
X5467168Y5321299D01*
X5474800Y5349782D01*
Y5380167D01*
X5466935Y5409517D01*
X5451742Y5435831D01*
X5430257Y5457317D01*
X5403942Y5472510D01*
X5374593Y5480374D01*
X5344207D01*
X5314857Y5472510D01*
X5288543Y5457317D01*
X5220552Y5476860D01*
X5201844Y5499332D01*
Y6274271D01*
X5256664Y6303370D01*
X5272903Y6297275D01*
X5277117Y6293061D01*
X5300581Y6279513D01*
X5326752Y6272501D01*
X5353847D01*
X5380017Y6279513D01*
X5403481Y6293061D01*
X5422640Y6312219D01*
X5436187Y6335683D01*
X5443199Y6361854D01*
Y6388948D01*
X5436187Y6415119D01*
X5422640Y6438583D01*
X5403481Y6457741D01*
X5380017Y6471289D01*
X5353847Y6478301D01*
X5326752D01*
X5300581Y6471289D01*
X5277117Y6457741D01*
X5272902Y6453526D01*
X5240098Y6441214D01*
X5195808Y6447738D01*
X5195807Y6447738D01*
X5191392Y6450287D01*
X5175193Y6459640D01*
X5152202Y6465800D01*
X5128399D01*
X5105407Y6459640D01*
X5084793Y6447738D01*
X5079373Y6442318D01*
X5040300Y6435637D01*
X5001227Y6442318D01*
X4995807Y6447738D01*
X4975193Y6459639D01*
X4953000Y6465586D01*
Y6375400D01*
Y6285214D01*
X4975193Y6291161D01*
X4995807Y6303062D01*
X5001227Y6308482D01*
X5014856Y6310812D01*
X5072356Y6271038D01*
Y5484791D01*
X5065445Y5474449D01*
X5065296Y5473699D01*
X5060857Y5472510D01*
X5034543Y5457317D01*
X5013058Y5435832D01*
X4943742Y5435831D01*
X4922257Y5457317D01*
X4895943Y5472510D01*
X4866593Y5480374D01*
X4836207D01*
X4806857Y5472510D01*
X4780543Y5457317D01*
X4759057Y5435831D01*
X4689743Y5435831D01*
X4668257Y5457317D01*
X4641943Y5472510D01*
X4612593Y5480374D01*
X4582207D01*
X4552857Y5472510D01*
X4526543Y5457317D01*
X4505057Y5435831D01*
X4489865Y5409517D01*
X4482000Y5380167D01*
Y5349782D01*
X4489865Y5320432D01*
X4505057Y5294117D01*
X4526543Y5272632D01*
X4532861Y5268984D01*
X4515846Y5205484D01*
X4120579D01*
X4103236Y5202034D01*
X4088533Y5192210D01*
X4088532Y5192209D01*
X3962107Y5065784D01*
X3441065D01*
X3435148Y5076962D01*
X3473383Y5140462D01*
X3480480D01*
Y5140463D01*
X3646279D01*
Y5306263D01*
X3480479D01*
X3480479Y5306263D01*
X3446079Y5306263D01*
Y5223362D01*
X3420679D01*
Y5305784D01*
X3401381Y5300613D01*
X3382477Y5289699D01*
X3368379Y5275601D01*
X3354281Y5289699D01*
X3335377Y5300613D01*
X3314293Y5306263D01*
X3292465D01*
X3271381Y5300613D01*
X3252477Y5289699D01*
X3237043Y5274265D01*
X3226129Y5255361D01*
X3220479Y5234277D01*
Y5212449D01*
X3226129Y5191365D01*
X3237043Y5172461D01*
X3252477Y5157027D01*
X3255527Y5120884D01*
X3251584Y5101063D01*
Y4926221D01*
X3197383Y4887822D01*
X3066479Y4982363D01*
X2990279Y5033163D01*
X2888679Y5363363D01*
X2809450Y5555776D01*
X2825179Y5579263D01*
X2977579Y5731663D01*
Y5769763D01*
X3180779Y5972963D01*
X3206179Y5998363D01*
X3367046Y6121129D01*
X3504629Y6176163D01*
X3536379Y6201563D01*
X3688779Y6315863D01*
X4196779Y6480963D01*
X4437844Y6513835D01*
X4473617Y6461263D01*
X4474064Y6454687D01*
X4457960Y6438582D01*
X4444412Y6415118D01*
X4437400Y6388947D01*
Y6361853D01*
X4444412Y6335682D01*
X4457960Y6312218D01*
X4477118Y6293060D01*
X4500582Y6279512D01*
X4526753Y6272500D01*
X4553847D01*
X4580018Y6279512D01*
X4587003Y6283545D01*
X4649900Y6285000D01*
X4680250Y6285000D01*
X4817065D01*
X4830700Y6285000D01*
X4894200Y6297631D01*
X4905407Y6291161D01*
X4927600Y6285214D01*
Y6375400D01*
Y6465586D01*
X4905407Y6459639D01*
X4894200Y6453169D01*
X4830700Y6465800D01*
X4817065Y6465800D01*
X4680250D01*
X4649900Y6465800D01*
X4641967Y6465984D01*
X4633411Y6476416D01*
X4660001Y6544129D01*
X4941846Y6582563D01*
X5403279Y6544463D01*
D02*
G37*
%LPC*%
G36*
X6446080Y5306263D02*
Y5223363D01*
Y5140462D01*
X6480480D01*
Y5140463D01*
X6646279D01*
Y5306263D01*
X6480479D01*
X6480479Y5306263D01*
X6446080D01*
D02*
G37*
%LPD*%
D10*
X7161049Y3226176D02*
G03*
X7131049Y3256176I-30000J0D01*
G01*
X7161049Y3221881D02*
G03*
X7221049Y3221881I30000J0D01*
G01*
X7281049Y3299304D02*
G03*
X7221049Y3299304I-30000J0D01*
G01*
X7281049Y3221881D02*
G03*
X7341049Y3221881I30000J0D01*
G01*
X7371049Y3256176D02*
G03*
X7341049Y3226176I0J-30000D01*
G01*
X4191376Y1525751D02*
G03*
X4221376Y1555751I0J30000D01*
G01*
X4187081Y1525751D02*
G03*
X4187081Y1465751I0J-30000D01*
G01*
X4264504Y1405751D02*
G03*
X4264504Y1465751I0J30000D01*
G01*
X4187081Y1405751D02*
G03*
X4187081Y1345751I0J-30000D01*
G01*
X4221376Y1315751D02*
G03*
X4191376Y1345751I-30000J0D01*
G01*
X7034178Y3256176D02*
X7131049D01*
X7161049Y3221881D02*
Y3226176D01*
X7221049Y3221881D02*
Y3299304D01*
X7281049Y3221881D02*
Y3299304D01*
X7341049Y3221881D02*
Y3226176D01*
X7371049Y3256176D02*
X7378412D01*
X7383550Y3261313D01*
X7034178Y3256176D02*
X7034178D01*
X4221376Y1555751D02*
Y1652622D01*
X4187081Y1525751D02*
X4191376D01*
X4187081Y1465751D02*
X4264504D01*
X4187081Y1405751D02*
X4264504D01*
X4187081Y1345751D02*
X4191376D01*
X4221376Y1308388D02*
Y1315751D01*
Y1308388D02*
X4226514Y1303250D01*
X4497333Y1144499D02*
X4498708Y1143124D01*
Y840241D02*
Y1143124D01*
Y840241D02*
X4500083Y838866D01*
X4625232Y1075739D02*
Y1143601D01*
X4620537Y980924D02*
Y1071044D01*
X4625232Y1075739D01*
X4620537Y980924D02*
X4623941Y977521D01*
X4490783Y1265350D02*
X4497333Y1258800D01*
X4490783Y1265350D02*
Y1318921D01*
X4445847Y1363857D02*
X4490783Y1318921D01*
X4430804Y1371357D02*
X4438304Y1363857D01*
X4426745Y1371357D02*
X4430804D01*
X4438304Y1363857D02*
X4445847D01*
X4624333Y1258800D02*
Y1353195D01*
X4600243Y1377286D02*
X4624333Y1353195D01*
X4598933Y1377286D02*
X4600243D01*
X4690189Y1038897D02*
X4692546Y1036541D01*
X4690189Y1038897D02*
Y1139602D01*
X4686562Y1143229D02*
X4690189Y1139602D01*
X4562792Y918100D02*
X4564752Y916140D01*
X4562792Y918100D02*
Y1142025D01*
X4563050Y1142282D01*
X4787063Y1680484D02*
X4943691D01*
X4659759Y1807788D02*
X4787063Y1680484D01*
X4121404Y1807788D02*
X4659759D01*
X4030296Y1716681D02*
X4121404Y1807788D01*
X4030296Y1291168D02*
Y1716681D01*
Y1291168D02*
X4150645Y1170819D01*
X4424943D01*
X4433833Y1144500D02*
Y1161929D01*
X4424943Y1170819D02*
X4433833Y1161929D01*
X7542301Y3532133D02*
X7543676Y3533508D01*
X7846559Y3533508D01*
X7847934Y3534883D01*
X7543199Y3660032D02*
X7611061D01*
X7615756Y3655337D02*
X7705876Y3655338D01*
X7611061Y3660032D02*
X7615756Y3655337D01*
X7705876Y3655338D02*
X7709279Y3658741D01*
X7322943Y3480647D02*
X7367879Y3525583D01*
X7421450D01*
X7428000Y3532133D01*
X7315443Y3465604D02*
X7315444Y3461545D01*
X7315443Y3465604D02*
X7322943Y3473104D01*
X7322943Y3480647D01*
X7333605Y3659133D02*
X7428000Y3659133D01*
X7309514Y3635042D02*
X7333605Y3659133D01*
X7309514Y3633733D02*
Y3635042D01*
X7547198Y3724989D02*
X7647903D01*
X7650259Y3727346D01*
X7543571Y3721362D02*
X7547198Y3724989D01*
X7544775Y3597592D02*
X7768700Y3597593D01*
X7770660Y3599552D01*
X7544518Y3597850D02*
X7544775Y3597592D01*
X7006316Y3821863D02*
Y3978491D01*
X6879012Y3694559D02*
X7006316Y3821863D01*
X6879012Y3156204D02*
X6879012Y3694559D01*
X6879012Y3156204D02*
X6970119Y3065096D01*
X7395632Y3065097D01*
X7515981Y3185446D01*
X7515981Y3459743D01*
X7524871Y3468633D01*
X7542300D01*
X4270963Y1258800D02*
X4433833D01*
X4263324Y1266439D02*
X4270963Y1258800D01*
X4226514Y1303250D02*
X4263324Y1266439D01*
X4221376Y1652622D02*
Y1680484D01*
X4554283Y1265350D02*
X4560833Y1258800D01*
X4554283Y1265350D02*
Y1335940D01*
X4529407Y1360816D02*
X4554283Y1335940D01*
X4529407Y1360816D02*
Y1366228D01*
X4687832Y1258800D02*
X4691691Y1262659D01*
Y1407054D01*
X4583301Y1515444D02*
X4691691Y1407054D01*
X7428000Y3305763D02*
Y3468633D01*
X7383550Y3261313D02*
X7420361Y3298124D01*
X7420361Y3298124D02*
X7428000Y3305763D01*
X7006316Y3256175D02*
X7034178Y3256176D01*
X7350860Y3589083D02*
X7421449D01*
X7428000Y3595633D01*
X7325985Y3564207D02*
X7350860Y3589083D01*
X7320573Y3564207D02*
X7325985Y3564207D01*
X7424141Y3726491D02*
X7428000Y3722632D01*
X7279746Y3726491D02*
X7424141D01*
X7171356Y3618101D02*
X7279746Y3726491D01*
D11*
X4433833Y1144500D02*
D03*
X4497332D02*
D03*
X4560833Y1144499D02*
D03*
X4624333Y1144500D02*
D03*
X4687833D02*
D03*
X4751333D02*
D03*
D12*
X4433833Y1258800D02*
D03*
X4497333D02*
D03*
X4560833Y1258800D02*
D03*
X4624333Y1258800D02*
D03*
X4687832Y1258800D02*
D03*
X4751333Y1258800D02*
D03*
D13*
X7542301Y3468633D02*
D03*
X7542300Y3532133D02*
D03*
Y3595633D02*
D03*
X7542301Y3659133D02*
D03*
Y3722633D02*
D03*
Y3786132D02*
D03*
D14*
X7428000Y3468633D02*
D03*
Y3532133D02*
D03*
X7428000Y3595633D02*
D03*
X7428000Y3659133D02*
D03*
X7428000Y3722632D02*
D03*
X7428000Y3786133D02*
D03*
D15*
X5125261Y5384835D02*
Y5449672D01*
X5105400Y5364974D02*
X5125261Y5384835D01*
X5137100Y5461511D02*
Y6375400D01*
X5125261Y5449672D02*
X5137100Y5461511D01*
D16*
X5500711Y5223663D02*
X6303079D01*
X5359400Y5364974D02*
X5500711Y5223663D01*
X4120579Y5160163D02*
X4632579D01*
X4835779Y5363363D01*
X3980879Y5020463D02*
X4120579Y5160163D01*
X3383980Y5020463D02*
X3980879D01*
X3303379Y5101063D02*
Y5223363D01*
Y5101063D02*
X3383980Y5020463D01*
D17*
X6303079Y5223663D02*
X6303380Y5223363D01*
X3338430Y4818851D02*
X3365500Y4791781D01*
X6212704Y1954349D02*
X6216614D01*
X5822379Y2340763D02*
X5826290D01*
D18*
X3338430Y4818851D02*
Y4891170D01*
X3303379Y4926221D02*
Y5101063D01*
Y4926221D02*
X3338430Y4891170D01*
D19*
X4497332Y1144500D02*
X4497333Y1144499D01*
X4624333Y1144500D02*
X4625232Y1143601D01*
X4686562Y1143229D02*
X4687833Y1144500D01*
X4560833Y1144499D02*
X4563050Y1142282D01*
X7542300Y3532133D02*
X7542301Y3532133D01*
X7542300Y3659133D02*
X7543199Y3660032D01*
X7542300Y3722633D02*
X7543571Y3721362D01*
X7542300Y3595633D02*
X7544518Y3597850D01*
D20*
X4751333Y1144500D02*
Y1163265D01*
X4757683Y1169615D01*
X4861199D01*
X5182347Y1490763D01*
Y2838733D01*
X5090596Y2930484D02*
X5182347Y2838733D01*
X4943691Y2930484D02*
X5090596D01*
X4751333Y1258800D02*
Y1286435D01*
X4757683Y1292785D01*
X4790279D01*
X5090938Y1593444D01*
Y2721940D01*
X5016694Y2796184D02*
X5090938Y2721940D01*
X4672676Y2796184D02*
X5016694D01*
X4538376Y2930484D02*
X4672676Y2796184D01*
X4221376Y2930484D02*
X4538376D01*
X7523535Y3786133D02*
X7542301Y3786132D01*
X7517185Y3792483D02*
X7523535Y3786133D01*
X7517185Y3792483D02*
X7517186Y3895998D01*
X7196037Y4217147D02*
X7517186Y3895998D01*
X5848067Y4217147D02*
X7196037Y4217147D01*
X5756316Y4125396D02*
X5848067Y4217147D01*
X5756316Y3978491D02*
Y4125396D01*
X7400365Y3786133D02*
X7428001D01*
X7394015Y3792483D02*
X7400365Y3786133D01*
X7394015Y3792483D02*
Y3825079D01*
X7093355Y4125738D02*
X7394015Y3825079D01*
X5964860Y4125738D02*
X7093355Y4125738D01*
X5890616Y4051494D02*
X5964860Y4125738D01*
X5890616Y3707476D02*
Y4051494D01*
X5756316Y3573176D02*
X5890616Y3707476D01*
X5756316Y3256176D02*
Y3573176D01*
D21*
X5826290Y2340763D02*
X6212704Y1954349D01*
D22*
X5568379Y2607462D02*
X5616215Y2559628D01*
X6211572Y2318604D02*
X6575825Y1954350D01*
X5568379Y2607462D02*
X5616215Y2559628D01*
X5852360Y1959393D02*
X6216614Y1595137D01*
X5616215Y2559628D02*
X5964174Y2559627D01*
X5616214Y2211669D02*
X5616215Y2559628D01*
X5616214Y2211669D02*
X5852360Y1975524D01*
X5852360Y1959393D02*
X5852360Y1975524D01*
X6205197Y2318603D02*
X6211572Y2318604D01*
X5964174Y2559627D02*
X6205197Y2318603D01*
D23*
X5727700Y4914900D02*
D03*
X6743700D02*
D03*
X3340100Y4797949D02*
D03*
X4356100D02*
D03*
X4943691Y2680484D02*
D03*
Y2430484D02*
D03*
Y2180484D02*
D03*
Y1930484D02*
D03*
Y1680484D02*
D03*
X4221375Y1930485D02*
D03*
X4221376Y2180484D02*
D03*
Y2430484D02*
D03*
Y2680484D02*
D03*
Y2930484D02*
D03*
X6006316Y3978491D02*
D03*
X6256316D02*
D03*
X6506316D02*
D03*
X6756316Y3978490D02*
D03*
X7006316Y3978491D02*
D03*
X6756315Y3256175D02*
D03*
X6506316Y3256176D02*
D03*
X6256316Y3256175D02*
D03*
X6006316Y3256176D02*
D03*
X5756316Y3256176D02*
D03*
D24*
X4597400Y5364974D02*
D03*
X4851400Y5364974D02*
D03*
X5105400Y5364974D02*
D03*
X5359400D02*
D03*
D25*
X5340299Y6375401D02*
D03*
X4540300Y6375400D02*
D03*
D26*
X5140300Y6375400D02*
D03*
X4940300Y6375400D02*
D03*
D27*
X4740300D02*
D03*
D28*
X4943691Y2930484D02*
D03*
X4221376Y1680484D02*
D03*
D29*
X5756316Y3978491D02*
D03*
X7006316Y3256175D02*
D03*
D30*
X6216614Y1954349D02*
D03*
D31*
X5857403Y1954349D02*
D03*
X6216615Y1595138D02*
D03*
X6575826Y1954347D02*
D03*
X6216615Y2313559D02*
D03*
D32*
X3563379Y5223363D02*
D03*
X6563379D02*
D03*
D33*
X3433379Y5223363D02*
D03*
X3303379D02*
D03*
X6303380D02*
D03*
X6433379Y5223363D02*
D03*
D34*
X4500083Y838866D02*
D03*
X4623941Y977521D02*
D03*
X4426745Y1371357D02*
D03*
X4598933Y1377286D02*
D03*
X4692546Y1036541D02*
D03*
X4564752Y916140D02*
D03*
X7847934Y3534883D02*
D03*
X7709279Y3658741D02*
D03*
X7315444Y3461545D02*
D03*
X7309514Y3633733D02*
D03*
X7650259Y3727346D02*
D03*
X7770660Y3599552D02*
D03*
X4529407Y1366228D02*
D03*
X4581309Y1515444D02*
D03*
X7320573Y3564207D02*
D03*
X7171356Y3616109D02*
D03*
D35*
X5568379Y2607462D02*
D03*
D36*
X5822379Y2340763D02*
D03*
%TF.MD5,9c8e8b546a7d545b8c07f0f828b481c2*%
M02*
