%TF.GenerationSoftware,Altium Limited,Altium Designer,22.7.1 (60)*%
G04 Layer_Color=8388736*
%FSLAX45Y45*%
%MOMM*%
%TF.SameCoordinates,61DBAAF2-DE87-4E8A-AD11-02536D302051*%
%TF.FilePolarity,Negative*%
%TF.FileFunction,Soldermask,Top*%
%TF.Part,Single*%
G01*
G75*
%TA.AperFunction,SMDPad,CuDef*%
%ADD11R,1.70000X0.95000*%
%TA.AperFunction,ComponentPad*%
%ADD22C,1.55000*%
%ADD23C,1.30000*%
%ADD24R,1.30000X1.30000*%
%ADD30C,1.40000*%
%ADD31R,1.40000X1.40000*%
%ADD32R,1.40000X1.40000*%
%ADD44R,1.62820X1.62820*%
%ADD45C,1.62820*%
%ADD46C,2.00320*%
%ADD47R,4.20320X2.00320*%
%ADD48R,2.00320X4.20320*%
%ADD49C,2.45320*%
%ADD50C,2.75320*%
%ADD51C,1.80320*%
%ADD52R,1.80320X1.80320*%
%ADD53R,2.00320X2.00320*%
%TA.AperFunction,ViaPad*%
%ADD54C,0.58420*%
%ADD55C,0.76320*%
%ADD56C,0.65320*%
%ADD57C,5.20320*%
%ADD58C,1.00320*%
%TA.AperFunction,SMDPad,CuDef*%
%ADD68R,1.80320X3.20320*%
%ADD69R,6.00320X6.40320*%
%ADD70R,0.58420X0.96520*%
%ADD71R,0.58420X1.21920*%
D11*
X1452359Y6617000D02*
D03*
X1452358Y6337000D02*
D03*
X2635250Y6617000D02*
D03*
Y6337000D02*
D03*
D22*
X1039858Y6105500D02*
D03*
X1039858Y5305500D02*
D03*
D23*
X1039857Y5905500D02*
D03*
X1039858Y5705501D02*
D03*
D24*
X1039857Y5505501D02*
D03*
D30*
X1853535Y1313751D02*
D03*
X1853535Y1563751D02*
D03*
X1853535Y1813750D02*
D03*
X1857535Y2825750D02*
D03*
X1607535D02*
D03*
X1357536D02*
D03*
X4671975Y2615485D02*
D03*
Y2365485D02*
D03*
Y2115485D02*
D03*
Y1865485D02*
D03*
Y1615485D02*
D03*
X3949660Y1865485D02*
D03*
X3949660Y2115485D02*
D03*
Y2365485D02*
D03*
Y2615485D02*
D03*
Y2865485D02*
D03*
X5410160Y1865485D02*
D03*
X5410160Y2115485D02*
D03*
Y2365485D02*
D03*
Y2615485D02*
D03*
Y2865485D02*
D03*
X6132475Y2615485D02*
D03*
Y2365485D02*
D03*
Y2115485D02*
D03*
Y1865485D02*
D03*
Y1615485D02*
D03*
D31*
X1853535Y2063750D02*
D03*
X4671975Y2865485D02*
D03*
X3949660Y1615485D02*
D03*
X5410160D02*
D03*
X6132475Y2865485D02*
D03*
D32*
X2107535Y2825750D02*
D03*
D44*
X5517961Y4762500D02*
D03*
X4265961Y4762499D02*
D03*
D45*
X5517961Y5016500D02*
D03*
Y5270501D02*
D03*
X5517962Y5524499D02*
D03*
X5517960Y5778500D02*
D03*
X5517961Y6032501D02*
D03*
X5517961Y6286499D02*
D03*
X5517962Y6540502D02*
D03*
X4265961Y5016501D02*
D03*
Y5270501D02*
D03*
X4265960Y5524501D02*
D03*
X4265959Y5778500D02*
D03*
X4265961Y6032501D02*
D03*
X4265961Y6286499D02*
D03*
X4265962Y6540500D02*
D03*
D46*
X6178888Y4838061D02*
D03*
X6178888Y5092061D02*
D03*
X6178888Y5346061D02*
D03*
X6178887Y5600060D02*
D03*
X1153107Y1746250D02*
D03*
D47*
X3444785Y5796000D02*
D03*
X3444786Y6376001D02*
D03*
D48*
X2964785Y6096000D02*
D03*
D49*
X2942284Y1555750D02*
D03*
D50*
X2688284Y1809750D02*
D03*
Y1301750D02*
D03*
X3196284Y1301749D02*
D03*
X3196285Y1809750D02*
D03*
D51*
X2586800Y3351441D02*
D03*
X2332801Y3351440D02*
D03*
X1824800Y3351441D02*
D03*
X1316800Y3351440D02*
D03*
X1570801Y3351441D02*
D03*
X2078801D02*
D03*
X2586799Y4876268D02*
D03*
X2332800Y4876267D02*
D03*
X1824800Y4876267D02*
D03*
X1316800D02*
D03*
X1570800D02*
D03*
X2078800D02*
D03*
D52*
X1062801Y3351441D02*
D03*
X1062800Y4876267D02*
D03*
D53*
X1153108Y2000250D02*
D03*
D54*
X1651000Y6508750D02*
D03*
Y6191250D02*
D03*
Y6032500D02*
D03*
Y5778500D02*
D03*
Y5651500D02*
D03*
X2508250Y6159500D02*
D03*
Y6000750D02*
D03*
X2540000Y5715000D02*
D03*
X2635250Y5619750D02*
D03*
X1472535Y6032500D02*
D03*
X4615785Y5619750D02*
D03*
X4044285Y5238750D02*
D03*
X4011051Y6637233D02*
D03*
X5822285Y6096000D02*
D03*
X2647285Y3892551D02*
D03*
X1948785Y4095750D02*
D03*
X2635250Y5397500D02*
D03*
Y5270500D02*
D03*
X2476500D02*
D03*
X2298035D02*
D03*
X2015300D02*
D03*
X1790035D02*
D03*
X1651000D02*
D03*
X2159000D02*
D03*
X1905000D02*
D03*
D55*
X1039858Y6286500D02*
D03*
D56*
X4225199Y784618D02*
D03*
X4411991Y974404D02*
D03*
X4353142Y921779D02*
D03*
X4290333Y869721D02*
D03*
X5881330Y971541D02*
D03*
X5787718Y1312286D02*
D03*
X5718192Y1301228D02*
D03*
X5812725Y912521D02*
D03*
X5753537Y851140D02*
D03*
X5688868Y773866D02*
D03*
X4267839Y1313562D02*
D03*
X4313732Y1373099D02*
D03*
X4308771Y1499617D02*
D03*
X4155030Y1306357D02*
D03*
X5615530D02*
D03*
X5770094Y1450444D02*
D03*
D57*
X2942284Y2508250D02*
D03*
D58*
Y2127250D02*
D03*
D68*
X1821785Y6445250D02*
D03*
X2278784Y6445249D02*
D03*
D69*
X2050284Y5727250D02*
D03*
D70*
X4162118Y1079500D02*
D03*
X4225617D02*
D03*
X4289118Y1079500D02*
D03*
X4352618Y1079500D02*
D03*
X4416118D02*
D03*
X4479618D02*
D03*
X5622618D02*
D03*
X5686117D02*
D03*
X5749618Y1079500D02*
D03*
X5813118Y1079500D02*
D03*
X5876618D02*
D03*
X5940118D02*
D03*
D71*
X4162118Y1193800D02*
D03*
X4225618D02*
D03*
X4289118Y1193801D02*
D03*
X4352618Y1193800D02*
D03*
X4416117Y1193801D02*
D03*
X4479618Y1193800D02*
D03*
X5622618D02*
D03*
X5686118D02*
D03*
X5749618Y1193801D02*
D03*
X5813118Y1193800D02*
D03*
X5876617Y1193801D02*
D03*
X5940118Y1193800D02*
D03*
%TF.MD5,633df0dd09de5f7db1da65852b27e8b8*%
M02*
