%TF.GenerationSoftware,Altium Limited,Altium Designer,22.7.1 (60)*%
G04 Layer_Color=255*
%FSLAX45Y45*%
%MOMM*%
%TF.SameCoordinates,61DBAAF2-DE87-4E8A-AD11-02536D302051*%
%TF.FilePolarity,Positive*%
%TF.FileFunction,Pads,Bot*%
%TF.Part,Single*%
G01*
G75*
%TA.AperFunction,ComponentPad*%
%ADD22C,1.55000*%
%ADD23C,1.30000*%
%ADD24R,1.30000X1.30000*%
%ADD25R,1.42500X1.42500*%
%ADD26C,1.42500*%
%ADD27C,1.80000*%
%ADD28R,4.00000X1.80000*%
%ADD29R,1.80000X4.00000*%
%ADD30C,1.40000*%
%ADD31R,1.40000X1.40000*%
%ADD32R,1.40000X1.40000*%
%ADD33C,2.25000*%
%ADD34C,2.55000*%
%ADD35C,1.60000*%
%ADD36R,1.60000X1.60000*%
%ADD37R,1.80000X1.80000*%
D22*
X1039858Y6105500D02*
D03*
X1039858Y5305500D02*
D03*
D23*
X1039857Y5905500D02*
D03*
X1039858Y5705501D02*
D03*
D24*
X1039857Y5505501D02*
D03*
D25*
X5517961Y4762500D02*
D03*
X4265961Y4762499D02*
D03*
D26*
X5517961Y5016500D02*
D03*
Y5270501D02*
D03*
X5517962Y5524499D02*
D03*
X5517960Y5778500D02*
D03*
X5517961Y6032501D02*
D03*
X5517961Y6286499D02*
D03*
X5517962Y6540502D02*
D03*
X4265961Y5016501D02*
D03*
Y5270501D02*
D03*
X4265960Y5524501D02*
D03*
X4265959Y5778500D02*
D03*
X4265961Y6032501D02*
D03*
X4265961Y6286499D02*
D03*
X4265962Y6540500D02*
D03*
D27*
X6178888Y4838061D02*
D03*
X6178888Y5092061D02*
D03*
X6178888Y5346061D02*
D03*
X6178887Y5600060D02*
D03*
X1153107Y1746250D02*
D03*
D28*
X3444785Y5796000D02*
D03*
X3444786Y6376001D02*
D03*
D29*
X2964785Y6096000D02*
D03*
D30*
X1853535Y1313751D02*
D03*
X1853535Y1563751D02*
D03*
X1853535Y1813750D02*
D03*
X1857535Y2825750D02*
D03*
X1607535D02*
D03*
X1357536D02*
D03*
X4671975Y2615485D02*
D03*
Y2365485D02*
D03*
Y2115485D02*
D03*
Y1865485D02*
D03*
Y1615485D02*
D03*
X3949660Y1865485D02*
D03*
X3949660Y2115485D02*
D03*
Y2365485D02*
D03*
Y2615485D02*
D03*
Y2865485D02*
D03*
X5410160Y1865485D02*
D03*
X5410160Y2115485D02*
D03*
Y2365485D02*
D03*
Y2615485D02*
D03*
Y2865485D02*
D03*
X6132475Y2615485D02*
D03*
Y2365485D02*
D03*
Y2115485D02*
D03*
Y1865485D02*
D03*
Y1615485D02*
D03*
D31*
X1853535Y2063750D02*
D03*
X4671975Y2865485D02*
D03*
X3949660Y1615485D02*
D03*
X5410160D02*
D03*
X6132475Y2865485D02*
D03*
D32*
X2107535Y2825750D02*
D03*
D33*
X2942284Y1555750D02*
D03*
D34*
X2688284Y1809750D02*
D03*
Y1301750D02*
D03*
X3196284Y1301749D02*
D03*
X3196285Y1809750D02*
D03*
D35*
X2586800Y3351441D02*
D03*
X2332801Y3351440D02*
D03*
X1824800Y3351441D02*
D03*
X1316800Y3351440D02*
D03*
X1570801Y3351441D02*
D03*
X2078801D02*
D03*
X2586799Y4876268D02*
D03*
X2332800Y4876267D02*
D03*
X1824800Y4876267D02*
D03*
X1316800D02*
D03*
X1570800D02*
D03*
X2078800D02*
D03*
D36*
X1062801Y3351441D02*
D03*
X1062800Y4876267D02*
D03*
D37*
X1153108Y2000250D02*
D03*
%TF.MD5,469780ed66bdc89a7b234d80128f1056*%
M02*
