%TF.GenerationSoftware,Altium Limited,Altium Designer,22.7.1 (60)*%
G04 Layer_Color=0*
%FSLAX45Y45*%
%MOMM*%
%TF.SameCoordinates,61DBAAF2-DE87-4E8A-AD11-02536D302051*%
%TF.FilePolarity,Positive*%
%TF.FileFunction,NonPlated,1,2,NPTH,Drill*%
%TF.Part,Single*%
G01*
G75*
G36*
X6544168Y911869D02*
X6529281Y911525D01*
X6499946Y916660D01*
X6472176Y927419D01*
X6447039Y943389D01*
X6425500Y963956D01*
X6408389Y988330D01*
X6396360Y1015574D01*
X6389878Y1044641D01*
X6389535Y1059527D01*
X6389534D01*
X6389877Y1074414D01*
X6396357Y1103481D01*
X6408384Y1130726D01*
X6425495Y1155101D01*
X6447032Y1175669D01*
X6472168Y1191640D01*
X6499937Y1202401D01*
X6529272Y1207537D01*
X6544159Y1207194D01*
X6544161Y1207199D01*
X6558705Y1207199D01*
X6587235Y1201525D01*
X6614109Y1190393D01*
X6638295Y1174233D01*
X6658863Y1153664D01*
X6675024Y1129478D01*
X6686155Y1102604D01*
X6691829Y1074074D01*
X6691829Y1059530D01*
X6691829Y1059531D01*
X6691830Y1044987D01*
X6686156Y1016459D01*
X6675024Y989586D01*
X6658865Y965401D01*
X6638297Y944833D01*
X6614112Y928673D01*
X6587239Y917542D01*
X6558711Y911868D01*
X6544168Y911869D01*
D01*
D02*
G37*
G36*
X6510320Y6413832D02*
X6495434Y6413489D01*
X6466099Y6418624D01*
X6438329Y6429383D01*
X6413192Y6445353D01*
X6391653Y6465920D01*
X6374541Y6490294D01*
X6362513Y6517538D01*
X6356031Y6546605D01*
X6355688Y6561491D01*
X6355687D01*
X6356030Y6576378D01*
X6362510Y6605445D01*
X6374537Y6632690D01*
X6391648Y6657064D01*
X6413185Y6677633D01*
X6438321Y6693604D01*
X6466090Y6704365D01*
X6495425Y6709501D01*
X6510312Y6709158D01*
X6510314Y6709163D01*
X6524858Y6709163D01*
X6553388Y6703488D01*
X6580262Y6692357D01*
X6604448Y6676196D01*
X6625016Y6655628D01*
X6641177Y6631442D01*
X6652308Y6604567D01*
X6657982Y6576038D01*
X6657982Y6561494D01*
X6657982Y6561494D01*
X6657983Y6546951D01*
X6652309Y6518423D01*
X6641177Y6491550D01*
X6625018Y6467365D01*
X6604450Y6446797D01*
X6580265Y6430637D01*
X6553392Y6419506D01*
X6524864Y6413832D01*
X6510320Y6413832D01*
D01*
D02*
G37*
G36*
X1044831Y6416265D02*
X1029945Y6415922D01*
X1000610Y6421057D01*
X972840Y6431816D01*
X947703Y6447786D01*
X926164Y6468353D01*
X909052Y6492727D01*
X897024Y6519970D01*
X890542Y6549038D01*
X890198Y6563924D01*
X890198D01*
X890541Y6578811D01*
X897021Y6607878D01*
X909048Y6635123D01*
X926159Y6659497D01*
X947696Y6680065D01*
X972832Y6696037D01*
X1000601Y6706797D01*
X1029936Y6711934D01*
X1044822Y6711591D01*
X1044825Y6711595D01*
X1059369Y6711596D01*
X1087899Y6705921D01*
X1114772Y6694790D01*
X1138959Y6678629D01*
X1159527Y6658061D01*
X1175688Y6633874D01*
X1186819Y6607000D01*
X1192493Y6578471D01*
X1192492Y6563927D01*
X1192493Y6563927D01*
X1192493Y6549384D01*
X1186819Y6520855D01*
X1175688Y6493982D01*
X1159529Y6469798D01*
X1138961Y6449230D01*
X1114776Y6433070D01*
X1087903Y6421939D01*
X1059375Y6416265D01*
X1044831Y6416265D01*
D01*
D02*
G37*
G36*
X1043994Y912772D02*
X1029107Y912429D01*
X999772Y917563D01*
X972002Y928323D01*
X946866Y944292D01*
X925327Y964860D01*
X908215Y989233D01*
X896186Y1016477D01*
X889704Y1045545D01*
X889361Y1060431D01*
X889360D01*
X889703Y1075317D01*
X896184Y1104385D01*
X908211Y1131629D01*
X925321Y1156004D01*
X946859Y1176572D01*
X971995Y1192543D01*
X999764Y1203304D01*
X1029098Y1208441D01*
X1043985Y1208098D01*
X1043987Y1208102D01*
X1058532Y1208102D01*
X1087061Y1202428D01*
X1113935Y1191297D01*
X1138121Y1175136D01*
X1158690Y1154567D01*
X1174850Y1130381D01*
X1185981Y1103507D01*
X1191655Y1074978D01*
X1191655Y1060433D01*
X1191656Y1060434D01*
X1191656Y1045890D01*
X1185982Y1017362D01*
X1174851Y990489D01*
X1158691Y966304D01*
X1138123Y945737D01*
X1113938Y929577D01*
X1087065Y918446D01*
X1058537Y912772D01*
X1043994Y912772D01*
D01*
D02*
G37*
G36*
X1313785Y1235250D02*
X1300981D01*
X1275865Y1240246D01*
X1252206Y1250045D01*
X1230914Y1264272D01*
X1212807Y1282380D01*
X1198580Y1303672D01*
X1188780Y1327330D01*
X1183785Y1352446D01*
Y1365250D01*
Y1378054D01*
X1188780Y1403169D01*
X1198580Y1426828D01*
X1212807Y1448120D01*
X1230914Y1466227D01*
X1252206Y1480454D01*
X1275865Y1490254D01*
X1300981Y1495250D01*
X1313785D01*
X1326588D01*
X1351704Y1490254D01*
X1375363Y1480454D01*
X1396655Y1466227D01*
X1414762Y1448120D01*
X1428989Y1426828D01*
X1438789Y1403169D01*
X1443785Y1378054D01*
Y1365250D01*
Y1352446D01*
X1438789Y1327330D01*
X1428989Y1303672D01*
X1414762Y1282380D01*
X1396655Y1264272D01*
X1375363Y1250045D01*
X1351704Y1240246D01*
X1326588Y1235250D01*
X1313785D01*
D01*
D02*
G37*
G36*
X5946285Y6223000D02*
Y6210196D01*
X5951280Y6185080D01*
X5961080Y6161422D01*
X5975307Y6140130D01*
X5993414Y6122022D01*
X6014706Y6107795D01*
X6038365Y6097996D01*
X6063481Y6093000D01*
X6076285D01*
X6089088D01*
X6114204Y6097996D01*
X6137863Y6107795D01*
X6159155Y6122022D01*
X6177262Y6140130D01*
X6191489Y6161422D01*
X6201289Y6185080D01*
X6206285Y6210196D01*
Y6223000D01*
Y6235804D01*
X6201289Y6260919D01*
X6191489Y6284578D01*
X6177262Y6305870D01*
X6159155Y6323977D01*
X6137863Y6338204D01*
X6114204Y6348004D01*
X6089088Y6353000D01*
X6076285D01*
X6063481D01*
X6038365Y6348004D01*
X6014706Y6338204D01*
X5993414Y6323977D01*
X5975307Y6305870D01*
X5961080Y6284578D01*
X5951280Y6260919D01*
X5946285Y6235804D01*
Y6223000D01*
D01*
D02*
G37*
G36*
X3568035Y3395750D02*
X3533646D01*
X3465199Y3402491D01*
X3397743Y3415909D01*
X3331927Y3435874D01*
X3268385Y3462194D01*
X3207728Y3494616D01*
X3150542Y3532826D01*
X3097376Y3576458D01*
X3048743Y3625092D01*
X3005111Y3678257D01*
X2966900Y3735444D01*
X2934479Y3796100D01*
X2908159Y3859643D01*
X2888194Y3925458D01*
X2874776Y3992915D01*
X2868034Y4061361D01*
Y4095750D01*
Y4130139D01*
X2874776Y4198585D01*
X2888194Y4266041D01*
X2908159Y4331857D01*
X2934479Y4395399D01*
X2966900Y4456056D01*
X3005111Y4513242D01*
X3048743Y4566408D01*
X3097376Y4615041D01*
X3150542Y4658673D01*
X3207728Y4696884D01*
X3268385Y4729306D01*
X3331927Y4755626D01*
X3397743Y4775591D01*
X3465199Y4789009D01*
X3533646Y4795750D01*
X3568035D01*
X3602423D01*
X3670870Y4789009D01*
X3738326Y4775591D01*
X3804142Y4755626D01*
X3867684Y4729306D01*
X3928340Y4696884D01*
X3985527Y4658673D01*
X4038693Y4615041D01*
X4087326Y4566408D01*
X4130958Y4513242D01*
X4169169Y4456056D01*
X4201590Y4395399D01*
X4227910Y4331857D01*
X4247875Y4266041D01*
X4261293Y4198585D01*
X4268035Y4130139D01*
Y4095750D01*
Y4061361D01*
X4261293Y3992915D01*
X4247875Y3925458D01*
X4227910Y3859643D01*
X4201590Y3796100D01*
X4169169Y3735444D01*
X4130958Y3678257D01*
X4087326Y3625092D01*
X4038693Y3576458D01*
X3985527Y3532826D01*
X3928340Y3494616D01*
X3867684Y3462194D01*
X3804142Y3435874D01*
X3738326Y3415909D01*
X3670870Y3402491D01*
X3602423Y3395750D01*
X3568035D01*
D01*
D02*
G37*
G36*
X3067215Y2857597D02*
X3042592D01*
X2994293Y2867204D01*
X2948795Y2886049D01*
X2907849Y2913409D01*
X2873027Y2948231D01*
X2845668Y2989177D01*
X2826822Y3034674D01*
X2817215Y3082974D01*
Y3107597D01*
Y3132219D01*
X2826822Y3180519D01*
X2845668Y3226016D01*
X2873027Y3266962D01*
X2907849Y3301784D01*
X2948795Y3329143D01*
X2994293Y3347989D01*
X3042592Y3357597D01*
X3067215D01*
X3091838D01*
X3140137Y3347989D01*
X3185634Y3329143D01*
X3226581Y3301784D01*
X3261403Y3266962D01*
X3288762Y3226016D01*
X3307608Y3180519D01*
X3317215Y3132219D01*
Y3107597D01*
Y3082974D01*
X3307608Y3034674D01*
X3288762Y2989177D01*
X3261403Y2948231D01*
X3226581Y2913409D01*
X3185634Y2886049D01*
X3140137Y2867204D01*
X3091838Y2857597D01*
X3067215D01*
D01*
D02*
G37*
G36*
X6985000Y3778250D02*
X3937000D01*
Y4159250D01*
X6985000D01*
Y3778250D01*
D02*
G37*
%TF.MD5,e75aa53ef8cad5c0a322951bb867c22f*%
M02*
