%TF.GenerationSoftware,Altium Limited,Altium Designer,22.7.1 (60)*%
G04 Layer_Physical_Order=1*
G04 Layer_Color=255*
%FSLAX45Y45*%
%MOMM*%
%TF.SameCoordinates,61DBAAF2-DE87-4E8A-AD11-02536D302051*%
%TF.FilePolarity,Positive*%
%TF.FileFunction,Copper,L1,Top,Signal*%
%TF.Part,Single*%
G01*
G75*
%TA.AperFunction,Conductor*%
%ADD10C,0.25000*%
%TA.AperFunction,SMDPad,CuDef*%
%ADD11R,1.70000X0.95000*%
%ADD12R,1.60000X3.00000*%
%ADD13R,5.80000X6.20000*%
%ADD14R,0.38100X0.76200*%
%ADD15R,0.38100X1.01600*%
%TA.AperFunction,Conductor*%
%ADD16C,1.00000*%
%ADD17C,0.50000*%
%ADD18C,0.25400*%
%ADD19C,0.30000*%
%ADD20C,0.20320*%
%ADD21C,1.50000*%
%TA.AperFunction,ComponentPad*%
%ADD22C,1.55000*%
%ADD23C,1.30000*%
%ADD24R,1.30000X1.30000*%
%ADD25R,1.42500X1.42500*%
%ADD26C,1.42500*%
%ADD27C,1.80000*%
%ADD28R,4.00000X1.80000*%
%ADD29R,1.80000X4.00000*%
%ADD30C,1.40000*%
%ADD31R,1.40000X1.40000*%
%ADD32R,1.40000X1.40000*%
%ADD33C,2.25000*%
%ADD34C,2.55000*%
%ADD35C,1.60000*%
%ADD36R,1.60000X1.60000*%
%ADD37R,1.80000X1.80000*%
%TA.AperFunction,ViaPad*%
%ADD38C,0.38100*%
%ADD39C,0.56000*%
%ADD40C,0.45000*%
%ADD41C,5.00000*%
%ADD42C,0.80000*%
G36*
X6716244Y6730532D02*
X6740397Y6706729D01*
X6759497Y6678710D01*
X6772825Y6647529D01*
X6779879Y6614359D01*
X6780135Y6597407D01*
X6780691Y6594821D01*
X6780569Y6592178D01*
X6780701Y6591303D01*
Y4198097D01*
X4300376D01*
X4299953Y4202393D01*
X4299393Y4204237D01*
Y4206164D01*
X4285975Y4273620D01*
X4285238Y4275400D01*
X4285049Y4277318D01*
X4265084Y4343134D01*
X4264176Y4344834D01*
X4263800Y4346723D01*
X4237480Y4410265D01*
X4236409Y4411867D01*
X4235850Y4413712D01*
X4203428Y4474368D01*
X4202206Y4475858D01*
X4201468Y4477638D01*
X4163258Y4534824D01*
X4161895Y4536187D01*
X4160987Y4537887D01*
X4117354Y4591052D01*
X4115865Y4592275D01*
X4114794Y4593877D01*
X4066161Y4642510D01*
X4064559Y4643580D01*
X4063337Y4645070D01*
X4010171Y4688702D01*
X4008471Y4689611D01*
X4007109Y4690973D01*
X3949922Y4729184D01*
X3948142Y4729921D01*
X3946653Y4731144D01*
X3885996Y4763565D01*
X3884152Y4764125D01*
X3882550Y4765195D01*
X3819008Y4791515D01*
X3817118Y4791891D01*
X3815418Y4792800D01*
X3749603Y4812765D01*
X3753253Y4837421D01*
X4051954D01*
X4154344Y4735031D01*
X4166947Y4726611D01*
X4169311Y4726140D01*
Y4665849D01*
X4362611D01*
Y4859149D01*
X4169311D01*
Y4859150D01*
X4148656Y4850594D01*
X4095514Y4903736D01*
X4082911Y4912157D01*
X4068045Y4915114D01*
X2685508D01*
X2685016Y4916951D01*
X2671140Y4940985D01*
X2651517Y4960609D01*
X2627482Y4974485D01*
X2600676Y4981668D01*
X2572923D01*
X2546117Y4974485D01*
X2522082Y4960609D01*
X2502459Y4940985D01*
X2488583Y4916951D01*
X2481400Y4890144D01*
Y4862392D01*
X2488583Y4835585D01*
X2502459Y4811551D01*
X2522082Y4791927D01*
X2546117Y4778051D01*
X2572923Y4770868D01*
X2600676D01*
X2627482Y4778051D01*
X2651517Y4791927D01*
X2671140Y4811551D01*
X2685016Y4835585D01*
X2685508Y4837421D01*
X3382815D01*
X3386466Y4812764D01*
X3320650Y4792800D01*
X3318950Y4791891D01*
X3317061Y4791515D01*
X3253519Y4765195D01*
X3251917Y4764125D01*
X3250073Y4763565D01*
X3189416Y4731144D01*
X3187927Y4729921D01*
X3186147Y4729184D01*
X3128960Y4690973D01*
X3127598Y4689611D01*
X3125898Y4688702D01*
X3072732Y4645070D01*
X3071509Y4643580D01*
X3069908Y4642510D01*
X3021274Y4593877D01*
X3020204Y4592275D01*
X3018714Y4591052D01*
X2975082Y4537887D01*
X2974174Y4536187D01*
X2972811Y4534824D01*
X2934600Y4477638D01*
X2933863Y4475858D01*
X2932641Y4474368D01*
X2900219Y4413712D01*
X2899660Y4411867D01*
X2898589Y4410265D01*
X2872269Y4346723D01*
X2871893Y4344833D01*
X2870985Y4343134D01*
X2851020Y4277318D01*
X2850831Y4275400D01*
X2850094Y4273620D01*
X2836676Y4206164D01*
Y4204237D01*
X2836116Y4202393D01*
X2829375Y4133946D01*
X2829564Y4132028D01*
X2829188Y4130139D01*
Y4061361D01*
X2829564Y4059472D01*
X2829375Y4057554D01*
X2836116Y3989107D01*
X2836676Y3987263D01*
Y3985336D01*
X2850094Y3917880D01*
X2850831Y3916099D01*
X2851020Y3914182D01*
X2870985Y3848366D01*
X2871893Y3846666D01*
X2872269Y3844777D01*
X2898589Y3781235D01*
X2899660Y3779632D01*
X2900219Y3777788D01*
X2932641Y3717132D01*
X2933863Y3715642D01*
X2934600Y3713862D01*
X2972811Y3656675D01*
X2974174Y3655313D01*
X2975082Y3653613D01*
X3018714Y3600447D01*
X3020204Y3599225D01*
X3021274Y3597623D01*
X3069907Y3548990D01*
X3054553Y3529731D01*
X2231903Y2707080D01*
Y825500D01*
X959085Y825500D01*
X955743Y826160D01*
X924370Y839030D01*
X896073Y857719D01*
X871921Y881521D01*
X852822Y909539D01*
X839493Y940721D01*
X832440Y973890D01*
X832183Y990842D01*
X835694Y995998D01*
X842312Y997268D01*
X862730Y993272D01*
X864496Y992076D01*
X872678Y973544D01*
X874876Y970413D01*
X876421Y966912D01*
X893533Y942539D01*
X896300Y939897D01*
X898499Y936765D01*
X920038Y916198D01*
X923267Y914146D01*
X926034Y911504D01*
X951171Y895534D01*
X954739Y894151D01*
X957968Y892100D01*
X985738Y881341D01*
X989506Y880681D01*
X993074Y879298D01*
X1022409Y874164D01*
X1026235Y874252D01*
X1030003Y873593D01*
X1044438Y873926D01*
X1058536Y873925D01*
X1062289Y874672D01*
X1066115D01*
X1094643Y880346D01*
X1098178Y881810D01*
X1101931Y882556D01*
X1128804Y893687D01*
X1131986Y895813D01*
X1135520Y897277D01*
X1159705Y913437D01*
X1162411Y916142D01*
X1165592Y918268D01*
X1186160Y938836D01*
X1188285Y942017D01*
X1190991Y944723D01*
X1207150Y968907D01*
X1208615Y972442D01*
X1210740Y975623D01*
X1221871Y1002496D01*
X1222618Y1006249D01*
X1224082Y1009784D01*
X1229756Y1038313D01*
Y1042139D01*
X1230502Y1045891D01*
X1230502Y1060435D01*
X1230501Y1060439D01*
X1230502Y1074977D01*
X1229756Y1078729D01*
Y1082556D01*
X1224081Y1111085D01*
X1222617Y1114620D01*
X1221871Y1118372D01*
X1210740Y1145246D01*
X1208615Y1148427D01*
X1207150Y1151963D01*
X1190989Y1176149D01*
X1188284Y1178855D01*
X1186158Y1182036D01*
X1165590Y1202605D01*
X1162408Y1204730D01*
X1159703Y1207436D01*
X1135517Y1223596D01*
X1131981Y1225061D01*
X1128801Y1227186D01*
X1101927Y1238318D01*
X1098174Y1239064D01*
X1094639Y1240528D01*
X1066109Y1246203D01*
X1062283D01*
X1058531Y1246949D01*
X1044239Y1246949D01*
X1029992Y1247277D01*
X1026223Y1246617D01*
X1022398Y1246705D01*
X993064Y1241569D01*
X989496Y1240186D01*
X985727Y1239526D01*
X957958Y1228765D01*
X954730Y1226714D01*
X951162Y1225331D01*
X926026Y1209360D01*
X923258Y1206717D01*
X920029Y1204666D01*
X898492Y1184097D01*
X896294Y1180966D01*
X893527Y1178324D01*
X876416Y1153949D01*
X874871Y1150449D01*
X872673Y1147317D01*
X860646Y1120073D01*
X859813Y1116339D01*
X858268Y1112838D01*
X857018Y1107231D01*
X831618Y1110028D01*
Y6518094D01*
X857018Y6520891D01*
X859109Y6511515D01*
X860654Y6508015D01*
X861487Y6504281D01*
X873515Y6477037D01*
X875714Y6473906D01*
X877259Y6470406D01*
X894371Y6446032D01*
X897138Y6443390D01*
X899337Y6440258D01*
X920875Y6419691D01*
X924105Y6417639D01*
X926871Y6414997D01*
X952009Y6399027D01*
X955576Y6397645D01*
X958806Y6395593D01*
X986575Y6384834D01*
X990343Y6384174D01*
X993912Y6382792D01*
X1023247Y6377657D01*
X1024669Y6377690D01*
X1028845Y6373049D01*
X1031837Y6365118D01*
X1032952Y6351728D01*
X1015389Y6334165D01*
X1009609Y6331770D01*
X994587Y6316749D01*
X986458Y6297122D01*
Y6275878D01*
X994587Y6256251D01*
X1009609Y6241230D01*
X1026151Y6234378D01*
X1029235Y6233100D01*
X1027546Y6208400D01*
X1026311D01*
X1000140Y6201387D01*
X976676Y6187840D01*
X957517Y6168682D01*
X943970Y6145218D01*
X936958Y6119047D01*
Y6091953D01*
X943970Y6065782D01*
X957517Y6042318D01*
X976676Y6023159D01*
X995675Y6012190D01*
X995683Y6012169D01*
X997664Y5995150D01*
X995836Y5984469D01*
X984350Y5977838D01*
X967519Y5961007D01*
X955618Y5940393D01*
X949457Y5917401D01*
Y5893599D01*
X955618Y5870607D01*
X967519Y5849993D01*
X984350Y5833162D01*
X1004964Y5821261D01*
X1014714Y5818648D01*
Y5792352D01*
X1004965Y5789740D01*
X984351Y5777839D01*
X967520Y5761008D01*
X955618Y5740394D01*
X949458Y5717402D01*
Y5693599D01*
X955618Y5670608D01*
X967520Y5649994D01*
X984351Y5633163D01*
X1004964Y5621261D01*
X1001474Y5595901D01*
X949458D01*
Y5415101D01*
X973092D01*
X979897Y5389701D01*
X976676Y5387841D01*
X957518Y5368682D01*
X943970Y5345218D01*
X936958Y5319048D01*
Y5291953D01*
X943970Y5265782D01*
X957518Y5242318D01*
X976676Y5223160D01*
X1000140Y5209613D01*
X1021326Y5203936D01*
X1028516Y5189268D01*
X1030511Y5177200D01*
X1026464Y5173153D01*
X1015325Y5156482D01*
X1011413Y5136817D01*
Y4981667D01*
X957400D01*
Y4770868D01*
X1168200D01*
Y4981667D01*
X1114188D01*
Y5115532D01*
X1242836Y5244181D01*
X1253976Y5260852D01*
X1257887Y5280517D01*
Y5429250D01*
X1253976Y5448915D01*
X1242836Y5465586D01*
X1186904Y5521518D01*
X1170233Y5532658D01*
X1150568Y5536569D01*
X1130257D01*
Y5595901D01*
X1078242D01*
X1074751Y5621261D01*
X1095365Y5633163D01*
X1112196Y5649994D01*
X1124097Y5670608D01*
X1130258Y5693599D01*
Y5717402D01*
X1124097Y5740394D01*
X1112196Y5761008D01*
X1095365Y5777839D01*
X1074751Y5789740D01*
X1065001Y5792352D01*
Y5818649D01*
X1074750Y5821261D01*
X1095364Y5833162D01*
X1112195Y5849993D01*
X1124097Y5870607D01*
X1130257Y5893599D01*
Y5917401D01*
X1124097Y5940393D01*
X1112195Y5961007D01*
X1095364Y5977838D01*
X1083878Y5984469D01*
X1082051Y5995151D01*
X1084032Y6012170D01*
X1084040Y6012190D01*
X1103040Y6023159D01*
X1122198Y6042318D01*
X1135745Y6065782D01*
X1142758Y6091953D01*
Y6119047D01*
X1135745Y6145218D01*
X1122198Y6168682D01*
X1103040Y6187840D01*
X1079576Y6201387D01*
X1053405Y6208400D01*
X1052170D01*
X1050480Y6233100D01*
X1053564Y6234377D01*
X1070106Y6241230D01*
X1085128Y6256251D01*
X1086760Y6260190D01*
X1093432Y6266863D01*
X1341958D01*
Y6264100D01*
X1431324D01*
X1432674Y6263541D01*
X1452358Y6260950D01*
X1766784D01*
X1786468Y6263541D01*
X1801699Y6269850D01*
X1927184D01*
Y6620650D01*
X1716385D01*
Y6413051D01*
X1452358D01*
X1432674Y6410460D01*
X1431324Y6409900D01*
X1341958D01*
Y6369637D01*
X1129520D01*
X1124468Y6395037D01*
X1129641Y6397180D01*
X1132823Y6399306D01*
X1136358Y6400770D01*
X1160543Y6416930D01*
X1163248Y6419636D01*
X1166429Y6421761D01*
X1186997Y6442329D01*
X1189123Y6445510D01*
X1191828Y6448216D01*
X1207988Y6472401D01*
X1209452Y6475935D01*
X1211578Y6479117D01*
X1222709Y6505990D01*
X1223455Y6509742D01*
X1224920Y6513278D01*
X1230594Y6541806D01*
Y6545632D01*
X1231340Y6549384D01*
X1231340Y6563928D01*
X1231339Y6563932D01*
X1231339Y6578470D01*
X1230593Y6582222D01*
Y6586049D01*
X1224919Y6614578D01*
X1223454Y6618113D01*
X1222708Y6621866D01*
X1211577Y6648740D01*
X1209452Y6651920D01*
X1207987Y6655456D01*
X1191827Y6679642D01*
X1189121Y6682348D01*
X1186996Y6685529D01*
X1166925Y6705600D01*
X1167124Y6712771D01*
X1167689Y6718184D01*
X1170432Y6724332D01*
X1175353Y6731000D01*
X5559588Y6731000D01*
X6372816D01*
X6386279Y6708976D01*
X6386224Y6705600D01*
X6364819Y6685158D01*
X6362621Y6682027D01*
X6359853Y6679384D01*
X6342743Y6655009D01*
X6341198Y6651509D01*
X6338999Y6648378D01*
X6326972Y6621133D01*
X6326140Y6617399D01*
X6324595Y6613899D01*
X6318114Y6584831D01*
X6318026Y6581006D01*
X6317194Y6577272D01*
X6316851Y6562385D01*
X6316929Y6561937D01*
X6316841Y6561491D01*
X6316930Y6561043D01*
X6316851Y6560595D01*
X6317195Y6545709D01*
X6318028Y6541974D01*
X6318116Y6538150D01*
X6324598Y6509082D01*
X6326143Y6505582D01*
X6326976Y6501848D01*
X6339005Y6474604D01*
X6341203Y6471473D01*
X6342748Y6467973D01*
X6359860Y6443599D01*
X6362627Y6440957D01*
X6364826Y6437825D01*
X6386364Y6417258D01*
X6389594Y6415206D01*
X6392361Y6412564D01*
X6417498Y6396594D01*
X6421066Y6395212D01*
X6424295Y6393160D01*
X6452065Y6382401D01*
X6455833Y6381741D01*
X6459401Y6380359D01*
X6488736Y6375224D01*
X6492562Y6375313D01*
X6496330Y6374653D01*
X6510764Y6374986D01*
X6524863Y6374986D01*
X6528615Y6375732D01*
X6532442D01*
X6560970Y6381406D01*
X6564505Y6382870D01*
X6568258Y6383617D01*
X6595131Y6394747D01*
X6598312Y6396873D01*
X6601847Y6398337D01*
X6626032Y6414497D01*
X6628737Y6417203D01*
X6631919Y6419329D01*
X6652486Y6439896D01*
X6654612Y6443077D01*
X6657317Y6445783D01*
X6673477Y6469968D01*
X6674941Y6473502D01*
X6677067Y6476684D01*
X6688198Y6503557D01*
X6688944Y6507310D01*
X6690409Y6510845D01*
X6696083Y6539373D01*
Y6543199D01*
X6696829Y6546952D01*
X6696829Y6561495D01*
X6696828Y6561499D01*
X6696829Y6576037D01*
X6696082Y6579789D01*
Y6583616D01*
X6690408Y6612146D01*
X6688944Y6615680D01*
X6688197Y6619433D01*
X6677066Y6646307D01*
X6674941Y6649488D01*
X6673477Y6653024D01*
X6657316Y6677210D01*
X6654610Y6679916D01*
X6652485Y6683096D01*
X6631917Y6703665D01*
X6628735Y6705791D01*
X6630670Y6717170D01*
X6638069Y6731000D01*
X6715534D01*
X6716244Y6730532D01*
D02*
G37*
%LPC*%
G36*
X1562759Y6689900D02*
X1465059D01*
Y6629700D01*
X1562759D01*
Y6689900D01*
D02*
G37*
G36*
X2745650Y6689900D02*
X2647950D01*
Y6629700D01*
X2745650D01*
Y6689900D01*
D02*
G37*
G36*
X1439659Y6689900D02*
X1341959D01*
Y6629700D01*
X1439659D01*
Y6689900D01*
D02*
G37*
G36*
X2622550Y6689900D02*
X2524850D01*
Y6629700D01*
X2622550D01*
Y6689900D01*
D02*
G37*
G36*
X2745650Y6604300D02*
X2647950D01*
Y6544100D01*
X2745650D01*
Y6604300D01*
D02*
G37*
G36*
X2622550D02*
X2524850D01*
Y6544100D01*
X2622550D01*
Y6604300D01*
D02*
G37*
G36*
X1562759D02*
X1465059D01*
Y6544100D01*
X1562759D01*
Y6604300D01*
D02*
G37*
G36*
X1439659D02*
X1341959D01*
Y6544100D01*
X1439659D01*
Y6604300D01*
D02*
G37*
G36*
X5530686Y6637152D02*
X5505238D01*
X5480657Y6630565D01*
X5458617Y6617841D01*
X5440623Y6599847D01*
X5427899Y6577808D01*
X5421312Y6553226D01*
Y6527778D01*
X5427899Y6503197D01*
X5440623Y6481157D01*
X5458617Y6463163D01*
X5480657Y6450439D01*
X5505238Y6443852D01*
X5530686D01*
X5555268Y6450439D01*
X5577307Y6463163D01*
X5595301Y6481157D01*
X5608025Y6503197D01*
X5614612Y6527778D01*
Y6553226D01*
X5608025Y6577808D01*
X5595301Y6599847D01*
X5577307Y6617841D01*
X5555268Y6630565D01*
X5530686Y6637152D01*
D02*
G37*
G36*
X4278686Y6637150D02*
X4253238D01*
X4228657Y6630563D01*
X4206617Y6617839D01*
X4188623Y6599845D01*
X4175899Y6577805D01*
X4169312Y6553224D01*
Y6527776D01*
X4175559Y6504462D01*
X3941281Y6270184D01*
X3932861Y6257581D01*
X3929903Y6242715D01*
Y5333057D01*
X3747443Y5150597D01*
X2286000D01*
X2271134Y5147639D01*
X2258531Y5139219D01*
X2099225Y4979912D01*
X2092676Y4981667D01*
X2064924D01*
X2038117Y4974484D01*
X2014083Y4960608D01*
X1994459Y4940985D01*
X1980583Y4916950D01*
X1973400Y4890144D01*
Y4862391D01*
X1980583Y4835584D01*
X1994459Y4811550D01*
X2014083Y4791926D01*
X2038117Y4778050D01*
X2064924Y4770868D01*
X2092676D01*
X2119483Y4778050D01*
X2143517Y4791926D01*
X2163141Y4811550D01*
X2177017Y4835584D01*
X2184200Y4862391D01*
Y4890144D01*
X2177017Y4916950D01*
X2165714Y4936527D01*
X2302091Y5072903D01*
X3763534D01*
X3778400Y5075861D01*
X3791003Y5084281D01*
X3996219Y5289497D01*
X4004639Y5302100D01*
X4007597Y5316966D01*
Y6226625D01*
X4230827Y6449855D01*
X4253238Y6443850D01*
X4278686D01*
X4303267Y6450437D01*
X4325307Y6463161D01*
X4343301Y6481155D01*
X4356025Y6503195D01*
X4362612Y6527776D01*
Y6553224D01*
X4356025Y6577805D01*
X4343301Y6599845D01*
X4325307Y6617839D01*
X4303267Y6630563D01*
X4278686Y6637150D01*
D02*
G37*
G36*
X3670185Y6491401D02*
X3457486D01*
Y6388701D01*
X3670185D01*
Y6491401D01*
D02*
G37*
G36*
X3432086D02*
X3219386D01*
Y6388701D01*
X3432086D01*
Y6491401D01*
D02*
G37*
G36*
X5530685Y6383149D02*
X5530661D01*
Y6299199D01*
X5614611D01*
Y6299223D01*
X5608025Y6323805D01*
X5595300Y6345844D01*
X5577306Y6363838D01*
X5555267Y6376563D01*
X5530685Y6383149D01*
D02*
G37*
G36*
X5505261D02*
X5505237D01*
X5480656Y6376563D01*
X5458617Y6363838D01*
X5440622Y6345844D01*
X5427898Y6323805D01*
X5421311Y6299223D01*
Y6299199D01*
X5505261D01*
Y6383149D01*
D02*
G37*
G36*
X3670185Y6363301D02*
X3457486D01*
Y6260601D01*
X3670185D01*
Y6363301D01*
D02*
G37*
G36*
X3432086D02*
X3219386D01*
Y6260601D01*
X3432086D01*
Y6363301D01*
D02*
G37*
G36*
X4278685Y6383150D02*
X4253237D01*
X4228655Y6376563D01*
X4206616Y6363839D01*
X4188622Y6345844D01*
X4175898Y6323805D01*
X4169311Y6299224D01*
Y6273775D01*
X4175898Y6249194D01*
X4188622Y6227155D01*
X4206616Y6209160D01*
X4228655Y6196436D01*
X4253237Y6189849D01*
X4278685D01*
X4303266Y6196436D01*
X4325306Y6209160D01*
X4343300Y6227155D01*
X4356024Y6249194D01*
X4362611Y6273775D01*
Y6299224D01*
X4356024Y6323805D01*
X4343300Y6345844D01*
X4325306Y6363839D01*
X4303266Y6376563D01*
X4278685Y6383150D01*
D02*
G37*
G36*
X5614611Y6273799D02*
X5530661D01*
Y6189849D01*
X5530685D01*
X5555267Y6196436D01*
X5577306Y6209160D01*
X5595300Y6227155D01*
X5608025Y6249194D01*
X5614611Y6273775D01*
Y6273799D01*
D02*
G37*
G36*
X5505261D02*
X5421311D01*
Y6273775D01*
X5427898Y6249194D01*
X5440622Y6227155D01*
X5458617Y6209160D01*
X5480656Y6196436D01*
X5505237Y6189849D01*
X5505261D01*
Y6273799D01*
D02*
G37*
G36*
X6089088Y6391847D02*
X6063481D01*
X6059728Y6391100D01*
X6055902D01*
X6030786Y6386104D01*
X6027251Y6384640D01*
X6023499Y6383894D01*
X5999840Y6374094D01*
X5996660Y6371968D01*
X5993124Y6370504D01*
X5971832Y6356277D01*
X5969126Y6353571D01*
X5965946Y6351446D01*
X5947838Y6333339D01*
X5945713Y6330158D01*
X5943007Y6327452D01*
X5928780Y6306160D01*
X5927316Y6302625D01*
X5925190Y6299444D01*
X5915391Y6275785D01*
X5914645Y6272033D01*
X5913180Y6268498D01*
X5908184Y6243382D01*
Y6239555D01*
X5907438Y6235804D01*
Y6210196D01*
X5908185Y6206443D01*
Y6202618D01*
X5913180Y6177502D01*
X5914645Y6173966D01*
X5915391Y6170214D01*
X5925190Y6146556D01*
X5927316Y6143375D01*
X5928780Y6139840D01*
X5943007Y6118548D01*
X5945713Y6115842D01*
X5947838Y6112661D01*
X5965946Y6094554D01*
X5969126Y6092429D01*
X5971832Y6089723D01*
X5993124Y6075496D01*
X5996659Y6074031D01*
X5999841Y6071906D01*
X6023499Y6062106D01*
X6027251Y6061360D01*
X6030787Y6059895D01*
X6055902Y6054900D01*
X6059729D01*
X6063481Y6054153D01*
X6089088D01*
X6092841Y6054900D01*
X6096666D01*
X6121782Y6059895D01*
X6125318Y6061360D01*
X6129070Y6062106D01*
X6152728Y6071906D01*
X6155909Y6074031D01*
X6159445Y6075496D01*
X6180737Y6089723D01*
X6183442Y6092429D01*
X6186623Y6094554D01*
X6204731Y6112661D01*
X6206856Y6115842D01*
X6209562Y6118548D01*
X6223789Y6139840D01*
X6225253Y6143375D01*
X6227379Y6146556D01*
X6237178Y6170214D01*
X6237925Y6173967D01*
X6239389Y6177502D01*
X6244385Y6202618D01*
Y6206443D01*
X6245131Y6210196D01*
Y6235804D01*
X6244385Y6239556D01*
Y6243382D01*
X6239389Y6268498D01*
X6237925Y6272033D01*
X6237178Y6275785D01*
X6227378Y6299444D01*
X6225253Y6302625D01*
X6223789Y6306160D01*
X6209562Y6327452D01*
X6206856Y6330158D01*
X6204731Y6333339D01*
X6186623Y6351446D01*
X6183442Y6353571D01*
X6180737Y6356277D01*
X6159445Y6370504D01*
X6155909Y6371968D01*
X6152728Y6374094D01*
X6129070Y6383894D01*
X6125317Y6384640D01*
X6121783Y6386104D01*
X6096667Y6391100D01*
X6092841D01*
X6089088Y6391847D01*
D02*
G37*
G36*
X4278685Y6129151D02*
X4253237D01*
X4228656Y6122564D01*
X4206617Y6109840D01*
X4188622Y6091845D01*
X4175898Y6069806D01*
X4169311Y6045225D01*
Y6019776D01*
X4175898Y5995195D01*
X4188622Y5973156D01*
X4206617Y5955161D01*
X4228656Y5942437D01*
X4253237Y5935850D01*
X4278685D01*
X4303267Y5942437D01*
X4325306Y5955161D01*
X4343300Y5973156D01*
X4356025Y5995195D01*
X4362611Y6019776D01*
Y6045225D01*
X4356025Y6069806D01*
X4343300Y6091845D01*
X4325306Y6109840D01*
X4303267Y6122564D01*
X4278685Y6129151D01*
D02*
G37*
G36*
X3080184Y6321400D02*
X2849385D01*
Y5870600D01*
X3080184D01*
Y6321400D01*
D02*
G37*
G36*
X2365684Y6062650D02*
X2062984D01*
Y5739950D01*
X2365684D01*
Y6062650D01*
D02*
G37*
G36*
X2037584D02*
X1734884D01*
Y5739950D01*
X2037584D01*
Y6062650D01*
D02*
G37*
G36*
X4278683Y5875150D02*
X4253235D01*
X4228654Y5868563D01*
X4206615Y5855839D01*
X4188620Y5837845D01*
X4175896Y5815805D01*
X4169309Y5791224D01*
Y5765776D01*
X4175896Y5741195D01*
X4188620Y5719155D01*
X4206615Y5701161D01*
X4228654Y5688437D01*
X4253235Y5681850D01*
X4278683D01*
X4303265Y5688437D01*
X4325304Y5701161D01*
X4343298Y5719155D01*
X4356023Y5741195D01*
X4362609Y5765776D01*
Y5791224D01*
X4356023Y5815805D01*
X4343298Y5837845D01*
X4325304Y5855839D01*
X4303265Y5868563D01*
X4278683Y5875150D01*
D02*
G37*
G36*
X2384183Y6620649D02*
X2173384D01*
Y6269849D01*
X2384183D01*
Y6273949D01*
X2524850D01*
Y6264100D01*
X2559199D01*
Y5842000D01*
X2561791Y5822317D01*
X2569388Y5803975D01*
X2581474Y5788224D01*
X2708474Y5661224D01*
X2724225Y5649138D01*
X2742567Y5641541D01*
X2762250Y5638949D01*
X3253785D01*
X3273468Y5641541D01*
X3291810Y5649138D01*
X3307561Y5661224D01*
X3326937Y5680601D01*
X3589844D01*
X3594785Y5679950D01*
X3599726Y5680601D01*
X3670185D01*
Y5751059D01*
X3670835Y5756000D01*
X3670185Y5760941D01*
Y5911400D01*
X3219385D01*
Y5791051D01*
X2793751D01*
X2711301Y5873501D01*
Y6264100D01*
X2745650D01*
Y6409900D01*
X2681045D01*
X2673275Y6415862D01*
X2654933Y6423459D01*
X2635250Y6426051D01*
X2384183D01*
Y6620649D01*
D02*
G37*
G36*
X4278684Y5621151D02*
X4253236D01*
X4228654Y5614564D01*
X4206615Y5601840D01*
X4188621Y5583846D01*
X4175897Y5561807D01*
X4169310Y5537225D01*
Y5511777D01*
X4175897Y5487196D01*
X4188621Y5465156D01*
X4206615Y5447162D01*
X4228654Y5434438D01*
X4253236Y5427851D01*
X4278684D01*
X4303265Y5434438D01*
X4325305Y5447162D01*
X4343299Y5465156D01*
X4356023Y5487196D01*
X4362610Y5511777D01*
Y5537225D01*
X4356023Y5561807D01*
X4343299Y5583846D01*
X4325305Y5601840D01*
X4303265Y5614564D01*
X4278684Y5621151D01*
D02*
G37*
G36*
X5530685Y6129151D02*
X5505237D01*
X5480656Y6122564D01*
X5458616Y6109840D01*
X5440622Y6091845D01*
X5427898Y6069806D01*
X5421311Y6045225D01*
Y6019776D01*
X5427898Y5995195D01*
X5440622Y5973156D01*
X5458616Y5955161D01*
X5480656Y5942437D01*
X5505237Y5935850D01*
X5530685D01*
X5555267Y5942437D01*
X5577306Y5955161D01*
X5595300Y5973156D01*
X5596198Y5974710D01*
X5627648Y5978384D01*
X6035098Y5570934D01*
X6048461Y5562005D01*
X6064224Y5558869D01*
X6070454D01*
X6071352Y5555518D01*
X6086544Y5529203D01*
X6108030Y5507718D01*
X6134344Y5492525D01*
X6160251Y5485583D01*
X6160254Y5460539D01*
X6134345Y5453596D01*
X6108031Y5438404D01*
X6086545Y5416918D01*
X6084193Y5412843D01*
X6059010Y5409528D01*
X5671796Y5796742D01*
X5658433Y5805671D01*
X5642669Y5808807D01*
X5609899D01*
X5608023Y5815805D01*
X5595299Y5837845D01*
X5577305Y5855839D01*
X5555265Y5868563D01*
X5530684Y5875150D01*
X5505236D01*
X5480655Y5868563D01*
X5458615Y5855839D01*
X5440621Y5837845D01*
X5427897Y5815805D01*
X5421310Y5791224D01*
Y5765776D01*
X5427897Y5741195D01*
X5440621Y5719155D01*
X5458615Y5701161D01*
X5480655Y5688437D01*
X5505236Y5681850D01*
X5530684D01*
X5555265Y5688437D01*
X5577305Y5701161D01*
X5595299Y5719155D01*
X5599496Y5726424D01*
X5625607D01*
X6035097Y5316934D01*
X6048461Y5308005D01*
X6064224Y5304870D01*
X6070455D01*
X6071353Y5301518D01*
X6086545Y5275204D01*
X6108031Y5253718D01*
X6134345Y5238525D01*
X6160256Y5231583D01*
X6160257Y5206539D01*
X6134346Y5199596D01*
X6108031Y5184404D01*
X6086546Y5162918D01*
X6084193Y5158843D01*
X6059010Y5155528D01*
X5660912Y5553626D01*
X5647549Y5562555D01*
X5631785Y5565691D01*
X5605782D01*
X5595301Y5583844D01*
X5577307Y5601838D01*
X5555268Y5614563D01*
X5530686Y5621149D01*
X5505238D01*
X5480657Y5614563D01*
X5458617Y5601838D01*
X5440623Y5583844D01*
X5427899Y5561805D01*
X5421312Y5537223D01*
Y5511775D01*
X5427899Y5487194D01*
X5440623Y5465155D01*
X5458617Y5447160D01*
X5480657Y5434436D01*
X5505238Y5427849D01*
X5530686D01*
X5555268Y5434436D01*
X5577307Y5447160D01*
X5595301Y5465155D01*
X5596199Y5466709D01*
X5627649Y5470382D01*
X6035097Y5062934D01*
X6048460Y5054005D01*
X6064224Y5050870D01*
X6070455D01*
X6071353Y5047518D01*
X6086546Y5021204D01*
X6108031Y4999718D01*
X6134346Y4984525D01*
X6160257Y4977582D01*
X6160256Y4952539D01*
X6134345Y4945596D01*
X6108031Y4930404D01*
X6086545Y4908918D01*
X6079653Y4896981D01*
X6048912Y4891937D01*
X5641559Y5299290D01*
X5628195Y5308219D01*
X5612432Y5311355D01*
X5605976D01*
X5595300Y5329846D01*
X5577306Y5347840D01*
X5555267Y5360564D01*
X5530685Y5367151D01*
X5505237D01*
X5480656Y5360564D01*
X5458617Y5347840D01*
X5440622Y5329846D01*
X5427898Y5307807D01*
X5421311Y5283225D01*
Y5257777D01*
X5427898Y5233196D01*
X5440622Y5211156D01*
X5458617Y5193162D01*
X5480656Y5180438D01*
X5505237Y5173851D01*
X5530685D01*
X5555267Y5180438D01*
X5577306Y5193162D01*
X5595300Y5211156D01*
X5611105Y5213237D01*
X6015408Y4808934D01*
X6028772Y4800005D01*
X6044535Y4796870D01*
X6070455D01*
X6071353Y4793518D01*
X6086545Y4767204D01*
X6108031Y4745718D01*
X6134345Y4730525D01*
X6163695Y4722661D01*
X6194081D01*
X6223431Y4730525D01*
X6249745Y4745718D01*
X6271231Y4767204D01*
X6286424Y4793518D01*
X6294288Y4822868D01*
Y4853254D01*
X6286424Y4882604D01*
X6271231Y4908918D01*
X6249745Y4930404D01*
X6223431Y4945596D01*
X6197519Y4952539D01*
X6197520Y4977583D01*
X6223431Y4984525D01*
X6249745Y4999718D01*
X6271231Y5021204D01*
X6286424Y5047518D01*
X6294288Y5076868D01*
Y5107254D01*
X6286424Y5136604D01*
X6271231Y5162918D01*
X6249745Y5184404D01*
X6223431Y5199596D01*
X6197520Y5206539D01*
X6197519Y5231582D01*
X6223431Y5238525D01*
X6249745Y5253718D01*
X6271231Y5275204D01*
X6286424Y5301518D01*
X6294288Y5330868D01*
Y5361254D01*
X6286424Y5390604D01*
X6271231Y5416918D01*
X6249745Y5438404D01*
X6223431Y5453596D01*
X6197524Y5460538D01*
X6197521Y5485583D01*
X6223430Y5492525D01*
X6249744Y5507718D01*
X6271230Y5529203D01*
X6286423Y5555518D01*
X6294287Y5584868D01*
Y5615253D01*
X6286423Y5644603D01*
X6271230Y5670918D01*
X6249744Y5692403D01*
X6223430Y5707596D01*
X6194080Y5715460D01*
X6163694D01*
X6134344Y5707596D01*
X6108030Y5692403D01*
X6086544Y5670918D01*
X6084192Y5666844D01*
X6059009Y5663529D01*
X5660911Y6061627D01*
X5647548Y6070556D01*
X5631784Y6073692D01*
X5605781D01*
X5595300Y6091845D01*
X5577306Y6109840D01*
X5555267Y6122564D01*
X5530685Y6129151D01*
D02*
G37*
G36*
X2365684Y5714550D02*
X2062984D01*
Y5391851D01*
X2365684D01*
Y5714550D01*
D02*
G37*
G36*
X2037584D02*
X1734884D01*
Y5391851D01*
X2037584D01*
Y5714550D01*
D02*
G37*
G36*
X4278685Y5367151D02*
X4253237D01*
X4228655Y5360564D01*
X4206616Y5347840D01*
X4188622Y5329845D01*
X4175897Y5307806D01*
X4169311Y5283225D01*
Y5257776D01*
X4175897Y5233195D01*
X4188622Y5211156D01*
X4206616Y5193161D01*
X4228655Y5180437D01*
X4253237Y5173850D01*
X4278685D01*
X4303266Y5180437D01*
X4325305Y5193161D01*
X4343300Y5211156D01*
X4356024Y5233195D01*
X4362611Y5257776D01*
Y5283225D01*
X4356024Y5307806D01*
X4343300Y5329845D01*
X4325305Y5347840D01*
X4303266Y5360564D01*
X4278685Y5367151D01*
D02*
G37*
G36*
Y5113151D02*
X4253237D01*
X4228655Y5106564D01*
X4206616Y5093840D01*
X4188622Y5075846D01*
X4175897Y5053807D01*
X4169311Y5029225D01*
Y5003777D01*
X4175897Y4979196D01*
X4188622Y4957156D01*
X4206616Y4939162D01*
X4228655Y4926438D01*
X4253237Y4919851D01*
X4278685D01*
X4303266Y4926438D01*
X4325305Y4939162D01*
X4343300Y4957156D01*
X4356024Y4979196D01*
X4362611Y5003777D01*
Y5029225D01*
X4356024Y5053807D01*
X4343300Y5075846D01*
X4325305Y5093840D01*
X4303266Y5106564D01*
X4278685Y5113151D01*
D02*
G37*
G36*
X5530685Y5113150D02*
X5505237D01*
X5480656Y5106564D01*
X5458617Y5093839D01*
X5440622Y5075845D01*
X5427898Y5053806D01*
X5421311Y5029224D01*
Y5003776D01*
X5427898Y4979195D01*
X5440622Y4957156D01*
X5458617Y4939161D01*
X5480656Y4926437D01*
X5505237Y4919850D01*
X5530685D01*
X5555267Y4926437D01*
X5577306Y4939161D01*
X5595300Y4957156D01*
X5608025Y4979195D01*
X5614611Y5003776D01*
Y5029224D01*
X5608025Y5053806D01*
X5595300Y5075845D01*
X5577306Y5093839D01*
X5555267Y5106564D01*
X5530685Y5113150D01*
D02*
G37*
G36*
X1330676Y4981667D02*
X1329500D01*
Y4888967D01*
X1422200D01*
Y4890144D01*
X1415017Y4916950D01*
X1401141Y4940985D01*
X1381517Y4960608D01*
X1357483Y4974484D01*
X1330676Y4981667D01*
D02*
G37*
G36*
X1304100D02*
X1302924D01*
X1276117Y4974484D01*
X1252083Y4960608D01*
X1232459Y4940985D01*
X1218583Y4916950D01*
X1211400Y4890144D01*
Y4888967D01*
X1304100D01*
Y4981667D01*
D02*
G37*
G36*
X5614611Y4859150D02*
X5530661D01*
Y4775200D01*
X5614611D01*
Y4859150D01*
D02*
G37*
G36*
X5505261D02*
X5421311D01*
Y4775200D01*
X5505261D01*
Y4859150D01*
D02*
G37*
G36*
X1838676Y4981667D02*
X1810924D01*
X1784117Y4974484D01*
X1760083Y4960608D01*
X1740459Y4940985D01*
X1726583Y4916950D01*
X1719400Y4890144D01*
Y4862391D01*
X1726583Y4835584D01*
X1740459Y4811550D01*
X1760083Y4791926D01*
X1784117Y4778050D01*
X1810924Y4770868D01*
X1838676D01*
X1865483Y4778050D01*
X1889517Y4791926D01*
X1909141Y4811550D01*
X1923017Y4835584D01*
X1930200Y4862391D01*
Y4890144D01*
X1923017Y4916950D01*
X1909141Y4940985D01*
X1889517Y4960608D01*
X1865483Y4974484D01*
X1838676Y4981667D01*
D02*
G37*
G36*
X1422200Y4863567D02*
X1329500D01*
Y4770868D01*
X1330676D01*
X1357483Y4778050D01*
X1381517Y4791926D01*
X1401141Y4811550D01*
X1415017Y4835584D01*
X1422200Y4862391D01*
Y4863567D01*
D02*
G37*
G36*
X1304100D02*
X1211400D01*
Y4862391D01*
X1218583Y4835584D01*
X1232459Y4811550D01*
X1252083Y4791926D01*
X1276117Y4778050D01*
X1302924Y4770868D01*
X1304100D01*
Y4863567D01*
D02*
G37*
G36*
X2346677Y4981667D02*
X2318924D01*
X2292117Y4974484D01*
X2268083Y4960608D01*
X2248459Y4940984D01*
X2234583Y4916950D01*
X2227400Y4890143D01*
Y4862391D01*
X2234583Y4835584D01*
X2248459Y4811550D01*
X2268083Y4791926D01*
X2292117Y4778050D01*
X2318924Y4770867D01*
X2346677D01*
X2373483Y4778050D01*
X2397517Y4791926D01*
X2417141Y4811550D01*
X2431017Y4835584D01*
X2438200Y4862391D01*
Y4890143D01*
X2431017Y4916950D01*
X2417141Y4940984D01*
X2397517Y4960608D01*
X2373483Y4974484D01*
X2346677Y4981667D01*
D02*
G37*
G36*
X5614611Y4749800D02*
X5530661D01*
Y4665850D01*
X5614611D01*
Y4749800D01*
D02*
G37*
G36*
X5505261D02*
X5421311D01*
Y4665850D01*
X5505261D01*
Y4749800D01*
D02*
G37*
G36*
X1584676Y4981667D02*
X1556923D01*
X1530117Y4974484D01*
X1506083Y4960608D01*
X1486459Y4940985D01*
X1472583Y4916950D01*
X1465400Y4890144D01*
Y4862391D01*
X1468453Y4850996D01*
Y3829106D01*
X1416780Y3777433D01*
X1408359Y3764830D01*
X1405402Y3749964D01*
Y3447817D01*
X1386656Y3438371D01*
X1380002Y3436656D01*
X1357483Y3449657D01*
X1330676Y3456840D01*
X1302924D01*
X1276117Y3449657D01*
X1252083Y3435781D01*
X1232459Y3416157D01*
X1218583Y3392123D01*
X1211400Y3365316D01*
Y3337564D01*
X1218583Y3310757D01*
X1219534Y3309111D01*
X1210781Y3300359D01*
X1202361Y3287756D01*
X1199403Y3272890D01*
Y3179056D01*
X1095816Y3075469D01*
X1087395Y3062866D01*
X1084438Y3048000D01*
Y2381250D01*
X1087395Y2366384D01*
X1095816Y2353781D01*
X1663316Y1786282D01*
X1675918Y1777861D01*
X1690784Y1774904D01*
X1765805D01*
X1777196Y1755173D01*
X1794958Y1737411D01*
X1816712Y1724852D01*
X1840975Y1718350D01*
X1866094D01*
X1890358Y1724852D01*
X1912112Y1737411D01*
X1929874Y1755173D01*
X1942433Y1776927D01*
X1948935Y1801191D01*
Y1826310D01*
X1942433Y1850573D01*
X1929874Y1872327D01*
X1912112Y1890089D01*
X1890358Y1902649D01*
X1866094Y1909150D01*
X1840975D01*
X1816712Y1902649D01*
X1794958Y1890089D01*
X1777196Y1872327D01*
X1765805Y1852597D01*
X1706875D01*
X1162131Y2397341D01*
Y3031909D01*
X1265719Y3135497D01*
X1274139Y3148100D01*
X1277097Y3162965D01*
Y3232098D01*
X1297248Y3247561D01*
X1302924Y3246040D01*
X1330676D01*
X1357483Y3253223D01*
X1380002Y3266224D01*
X1386656Y3264510D01*
X1405402Y3255063D01*
Y3194555D01*
X1330067Y3119220D01*
X1321646Y3106617D01*
X1318689Y3091751D01*
Y2913480D01*
X1298959Y2902089D01*
X1281197Y2884327D01*
X1268637Y2862573D01*
X1262136Y2838310D01*
Y2813190D01*
X1268637Y2788927D01*
X1281197Y2767173D01*
X1298959Y2749411D01*
X1320713Y2736852D01*
X1344976Y2730350D01*
X1370095D01*
X1394359Y2736852D01*
X1416113Y2749411D01*
X1424837Y2758135D01*
X1450237Y2747614D01*
Y2650451D01*
X1453194Y2635586D01*
X1461615Y2622983D01*
X1901981Y2182616D01*
X1892261Y2159150D01*
X1758135D01*
Y1968350D01*
X1948934D01*
Y2102476D01*
X1972401Y2112196D01*
X2068688Y2015910D01*
Y1425092D01*
X1996194Y1352598D01*
X1941265D01*
X1929874Y1372328D01*
X1912112Y1390090D01*
X1890358Y1402650D01*
X1866095Y1409151D01*
X1840975D01*
X1816712Y1402650D01*
X1794958Y1390090D01*
X1777196Y1372328D01*
X1764637Y1350574D01*
X1758135Y1326311D01*
Y1301192D01*
X1764637Y1276929D01*
X1777196Y1255175D01*
X1794958Y1237413D01*
X1816712Y1224853D01*
X1840975Y1218352D01*
X1866095D01*
X1890358Y1224853D01*
X1912112Y1237413D01*
X1929874Y1255175D01*
X1941265Y1274905D01*
X2012285D01*
X2027150Y1277862D01*
X2039753Y1286283D01*
X2135003Y1381533D01*
X2143424Y1394136D01*
X2146381Y1409001D01*
Y2032000D01*
X2143424Y2046866D01*
X2135003Y2059469D01*
X1527930Y2666542D01*
Y2733228D01*
X1553330Y2744920D01*
X1556919Y2742522D01*
X1562980Y2741316D01*
X1570712Y2736852D01*
X1594976Y2730350D01*
X1620095D01*
X1644358Y2736852D01*
X1666112Y2749411D01*
X1683874Y2767173D01*
X1696434Y2788927D01*
X1702935Y2813190D01*
Y2838310D01*
X1697039Y2860316D01*
X2080515Y3243792D01*
X2082017Y3246041D01*
X2092677D01*
X2119483Y3253224D01*
X2143518Y3267100D01*
X2163141Y3286723D01*
X2177017Y3310758D01*
X2184200Y3337564D01*
Y3365317D01*
X2177017Y3392124D01*
X2163141Y3416158D01*
X2143518Y3435782D01*
X2119483Y3449658D01*
X2092677Y3456840D01*
X2064924D01*
X2038118Y3449658D01*
X2014083Y3435782D01*
X1994460Y3416158D01*
X1980584Y3392124D01*
X1973401Y3365317D01*
Y3337564D01*
X1980584Y3310758D01*
X1994460Y3286723D01*
X2004016Y3277167D01*
X1642101Y2915253D01*
X1620095Y2921150D01*
X1594976D01*
X1570712Y2914648D01*
X1553330Y2904613D01*
X1538095Y2909783D01*
X1527930Y2916981D01*
Y2993943D01*
X1604973Y3070986D01*
X1613394Y3083589D01*
X1616351Y3098455D01*
Y3256034D01*
X1635518Y3267100D01*
X1655141Y3286723D01*
X1669017Y3310758D01*
X1676200Y3337564D01*
Y3365317D01*
X1669017Y3392124D01*
X1655141Y3416158D01*
X1635518Y3435782D01*
X1611483Y3449658D01*
X1584677Y3456840D01*
X1556924D01*
X1530118Y3449658D01*
X1508495Y3437174D01*
X1498650Y3439963D01*
X1483095Y3448714D01*
Y3733873D01*
X1534768Y3785546D01*
X1543189Y3798149D01*
X1546146Y3813015D01*
Y4762598D01*
X1556924Y4770868D01*
X1584676D01*
X1611483Y4778050D01*
X1635517Y4791926D01*
X1655141Y4811550D01*
X1669017Y4835584D01*
X1676200Y4862391D01*
Y4890144D01*
X1669017Y4916950D01*
X1655141Y4940985D01*
X1635517Y4960608D01*
X1611483Y4974484D01*
X1584676Y4981667D01*
D02*
G37*
G36*
X1168201Y3456841D02*
X957401D01*
Y3246042D01*
X957401D01*
X955872Y3221274D01*
X905316Y3170719D01*
X896895Y3158116D01*
X893938Y3143250D01*
Y2220574D01*
X896895Y2205708D01*
X905316Y2193105D01*
X1037709Y2060713D01*
Y1884850D01*
X1126362D01*
X1129706Y1859450D01*
X1108565Y1853785D01*
X1082250Y1838592D01*
X1060765Y1817107D01*
X1045572Y1790792D01*
X1037708Y1761443D01*
Y1758950D01*
X1153107D01*
X1268507D01*
Y1761443D01*
X1260643Y1790792D01*
X1245450Y1817107D01*
X1223965Y1838592D01*
X1197650Y1853785D01*
X1176508Y1859450D01*
X1179853Y1884850D01*
X1268508D01*
Y2115650D01*
X1092646D01*
X971631Y2236665D01*
Y3127159D01*
X1026769Y3182298D01*
X1035190Y3194900D01*
X1038147Y3209766D01*
Y3246041D01*
X1168201D01*
Y3456841D01*
D02*
G37*
G36*
X1838677Y3456841D02*
X1810924D01*
X1784117Y3449658D01*
X1760083Y3435782D01*
X1740459Y3416158D01*
X1726583Y3392124D01*
X1719400Y3365317D01*
Y3337565D01*
X1726583Y3310758D01*
X1740459Y3286724D01*
X1760083Y3267100D01*
X1784117Y3253224D01*
X1810924Y3246041D01*
X1838677D01*
X1865483Y3253224D01*
X1889517Y3267100D01*
X1909141Y3286724D01*
X1923017Y3310758D01*
X1930200Y3337565D01*
Y3365317D01*
X1923017Y3392124D01*
X1909141Y3416158D01*
X1889517Y3435782D01*
X1865483Y3449658D01*
X1838677Y3456841D01*
D02*
G37*
G36*
X2600676Y3456840D02*
X2572924D01*
X2546117Y3449658D01*
X2522083Y3435782D01*
X2502459Y3416158D01*
X2488583Y3392124D01*
X2481400Y3365317D01*
Y3337564D01*
X2488583Y3310758D01*
X2502459Y3286723D01*
X2522083Y3267100D01*
X2546117Y3253224D01*
X2572924Y3246041D01*
X2600676D01*
X2627483Y3253224D01*
X2651517Y3267100D01*
X2671141Y3286723D01*
X2685017Y3310758D01*
X2692200Y3337564D01*
Y3365317D01*
X2685017Y3392124D01*
X2671141Y3416158D01*
X2651517Y3435782D01*
X2627483Y3449658D01*
X2600676Y3456840D01*
D02*
G37*
G36*
X1870235Y2921112D02*
Y2838450D01*
X1952897D01*
X1946433Y2862573D01*
X1933874Y2884327D01*
X1916112Y2902089D01*
X1894358Y2914648D01*
X1870235Y2921112D01*
D02*
G37*
G36*
X1844835D02*
X1820712Y2914648D01*
X1798958Y2902089D01*
X1781196Y2884327D01*
X1768637Y2862573D01*
X1762173Y2838450D01*
X1844835D01*
Y2921112D01*
D02*
G37*
G36*
X1952897Y2813050D02*
X1870235D01*
Y2730388D01*
X1894358Y2736852D01*
X1916112Y2749411D01*
X1933874Y2767173D01*
X1946433Y2788927D01*
X1952897Y2813050D01*
D02*
G37*
G36*
X1844835D02*
X1762173D01*
X1768637Y2788927D01*
X1781196Y2767173D01*
X1798958Y2749411D01*
X1820712Y2736852D01*
X1844835Y2730388D01*
Y2813050D01*
D02*
G37*
G36*
X2346677Y3456840D02*
X2318924D01*
X2292118Y3449657D01*
X2268083Y3435781D01*
X2248460Y3416158D01*
X2234584Y3392123D01*
X2227401Y3365317D01*
Y3337564D01*
X2234584Y3310757D01*
X2248460Y3286723D01*
X2268083Y3267099D01*
X2292118Y3253223D01*
X2293954Y3252731D01*
Y3185095D01*
X2077195Y2968336D01*
X2068774Y2955733D01*
X2065817Y2940868D01*
Y2921150D01*
X2012135D01*
Y2730350D01*
X2202934D01*
Y2921150D01*
X2175804D01*
X2165283Y2946550D01*
X2360269Y3141536D01*
X2368690Y3154139D01*
X2371647Y3169005D01*
Y3252731D01*
X2373483Y3253223D01*
X2397518Y3267099D01*
X2417141Y3286723D01*
X2431017Y3310757D01*
X2438200Y3337564D01*
Y3365317D01*
X2431017Y3392123D01*
X2417141Y3416158D01*
X2397518Y3435781D01*
X2373483Y3449657D01*
X2346677Y3456840D01*
D02*
G37*
G36*
X1268507Y1733550D02*
X1165807D01*
Y1630850D01*
X1168300D01*
X1197650Y1638714D01*
X1223965Y1653907D01*
X1245450Y1675393D01*
X1260643Y1701707D01*
X1268507Y1731057D01*
Y1733550D01*
D02*
G37*
G36*
X1140407D02*
X1037708D01*
Y1731057D01*
X1045572Y1701707D01*
X1060765Y1675393D01*
X1082250Y1653907D01*
X1108565Y1638714D01*
X1137915Y1630850D01*
X1140407D01*
Y1733550D01*
D02*
G37*
G36*
X1866235Y1659113D02*
Y1576451D01*
X1948897D01*
X1942433Y1600574D01*
X1929873Y1622328D01*
X1912111Y1640090D01*
X1890357Y1652649D01*
X1866235Y1659113D01*
D02*
G37*
G36*
X1840835D02*
X1816712Y1652649D01*
X1794958Y1640090D01*
X1777196Y1622328D01*
X1764636Y1600574D01*
X1758172Y1576451D01*
X1840835D01*
Y1659113D01*
D02*
G37*
G36*
X1948897Y1551051D02*
X1866235D01*
Y1468388D01*
X1890357Y1474852D01*
X1912111Y1487412D01*
X1929873Y1505174D01*
X1942433Y1526928D01*
X1948897Y1551051D01*
D02*
G37*
G36*
X1840835D02*
X1758172D01*
X1764636Y1526928D01*
X1777196Y1505174D01*
X1794958Y1487412D01*
X1816712Y1474852D01*
X1840835Y1468388D01*
Y1551051D01*
D02*
G37*
G36*
X1326588Y1534096D02*
X1300981D01*
X1297228Y1533350D01*
X1293402D01*
X1268286Y1528354D01*
X1264751Y1526890D01*
X1260999Y1526144D01*
X1237340Y1516344D01*
X1234160Y1514218D01*
X1230624Y1512754D01*
X1209332Y1498527D01*
X1206626Y1495821D01*
X1203446Y1493696D01*
X1185338Y1475589D01*
X1183213Y1472408D01*
X1180507Y1469702D01*
X1166280Y1448410D01*
X1164816Y1444875D01*
X1162690Y1441694D01*
X1152891Y1418035D01*
X1152145Y1414283D01*
X1150680Y1410748D01*
X1145684Y1385632D01*
Y1381805D01*
X1144938Y1378054D01*
Y1352446D01*
X1145685Y1348693D01*
Y1344868D01*
X1150680Y1319752D01*
X1152145Y1316216D01*
X1152891Y1312464D01*
X1162690Y1288806D01*
X1164816Y1285625D01*
X1166280Y1282090D01*
X1180507Y1260798D01*
X1183213Y1258092D01*
X1185338Y1254911D01*
X1203446Y1236804D01*
X1206626Y1234679D01*
X1209332Y1231973D01*
X1230624Y1217746D01*
X1234159Y1216281D01*
X1237341Y1214156D01*
X1260999Y1204356D01*
X1264751Y1203610D01*
X1268287Y1202145D01*
X1293402Y1197150D01*
X1297229D01*
X1300981Y1196403D01*
X1326588D01*
X1330341Y1197150D01*
X1334166D01*
X1359282Y1202145D01*
X1362818Y1203610D01*
X1366570Y1204356D01*
X1390228Y1214156D01*
X1393409Y1216281D01*
X1396945Y1217746D01*
X1418237Y1231973D01*
X1420942Y1234679D01*
X1424123Y1236804D01*
X1442231Y1254911D01*
X1444356Y1258092D01*
X1447062Y1260798D01*
X1461289Y1282090D01*
X1462753Y1285625D01*
X1464879Y1288806D01*
X1474678Y1312464D01*
X1475425Y1316217D01*
X1476889Y1319752D01*
X1481885Y1344868D01*
Y1348693D01*
X1482631Y1352446D01*
Y1378054D01*
X1481885Y1381806D01*
Y1385632D01*
X1476889Y1410748D01*
X1475425Y1414283D01*
X1474678Y1418035D01*
X1464878Y1441694D01*
X1462753Y1444875D01*
X1461289Y1448410D01*
X1447062Y1469702D01*
X1444356Y1472408D01*
X1442231Y1475589D01*
X1424123Y1493696D01*
X1420942Y1495821D01*
X1418237Y1498527D01*
X1396945Y1512754D01*
X1393409Y1514218D01*
X1390228Y1516344D01*
X1366570Y1526144D01*
X1362817Y1526890D01*
X1359283Y1528354D01*
X1334167Y1533350D01*
X1330341D01*
X1326588Y1534096D01*
D02*
G37*
%LPD*%
D10*
X5380160Y1460751D02*
G03*
X5410160Y1490751I0J30000D01*
G01*
X5375866Y1460751D02*
G03*
X5375866Y1400751I0J-30000D01*
G01*
X5453289Y1340751D02*
G03*
X5453289Y1400751I0J30000D01*
G01*
X5375866Y1340751D02*
G03*
X5375866Y1280751I0J-30000D01*
G01*
X5410160Y1250751D02*
G03*
X5380160Y1280751I-30000J0D01*
G01*
X3919660Y1460751D02*
G03*
X3949660Y1490751I0J30000D01*
G01*
X3915366Y1460751D02*
G03*
X3915366Y1400751I0J-30000D01*
G01*
X3992789Y1340751D02*
G03*
X3992789Y1400751I0J30000D01*
G01*
X3915366Y1340751D02*
G03*
X3915366Y1280751I0J-30000D01*
G01*
X3949660Y1250751D02*
G03*
X3919660Y1280751I-30000J0D01*
G01*
X4225618Y785037D02*
Y1079499D01*
X4225199Y784618D02*
X4225618Y785037D01*
X5410160Y1490751D02*
Y1587622D01*
X5375866Y1460751D02*
X5380160D01*
X5375866Y1400751D02*
X5453289D01*
X5375866Y1340751D02*
X5453289D01*
X5375866Y1280751D02*
X5380160D01*
X5410160Y1243388D02*
Y1250751D01*
Y1243388D02*
X5415298Y1238250D01*
X3949660Y1490751D02*
Y1587622D01*
X3915366Y1460751D02*
X3919660D01*
X3915366Y1400751D02*
X3992789D01*
X3915366Y1340751D02*
X3992789D01*
X3915366Y1280751D02*
X3919660D01*
X3949660Y1243388D02*
Y1250751D01*
Y1243388D02*
X3954798Y1238250D01*
X4414054Y976467D02*
Y1077437D01*
X4414847Y1078229D01*
X4411991Y974404D02*
X4414054Y976467D01*
X4352880Y922041D02*
Y1077965D01*
X4353517Y1078602D01*
X4352880Y922041D02*
X4353142Y921779D01*
X4289725Y1075673D02*
X4291335Y1077283D01*
X4289725Y870328D02*
Y1075673D01*
Y870328D02*
X4290333Y869721D01*
X5878974Y973897D02*
Y1074602D01*
Y973897D02*
X5881330Y971541D01*
X5875347Y1078229D02*
X5878974Y1074602D01*
X5718192Y1295816D02*
Y1301228D01*
Y1295816D02*
X5743068Y1270940D01*
X5787718Y1312286D02*
X5789027D01*
X5813118Y1288196D01*
X5743068Y1200351D02*
Y1270940D01*
Y1200351D02*
X5749618Y1193801D01*
X5809322Y1006044D02*
X5814017Y1010739D01*
Y1078602D01*
X5809322Y915924D02*
Y1006044D01*
Y915924D02*
X5812725Y912521D01*
X5751577Y1077026D02*
X5751835Y1077283D01*
X5751577Y853100D02*
Y1077026D01*
Y853100D02*
X5753537Y851140D01*
X5687493Y775242D02*
Y1078125D01*
X5686118Y1079499D02*
X5687493Y1078125D01*
Y775242D02*
X5688868Y773866D01*
X4267839Y1309503D02*
X4289118Y1288223D01*
X4267839Y1309503D02*
Y1313562D01*
X4289118Y1193801D02*
Y1288223D01*
X4313732Y1369554D02*
X4352618Y1330668D01*
X4313732Y1369554D02*
Y1373099D01*
X4352618Y1288196D02*
Y1330668D01*
Y1193800D02*
Y1288196D01*
X4308771Y1499617D02*
X4416117Y1392271D01*
Y1193801D02*
Y1392271D01*
X4388044Y1742788D02*
X4515348Y1615485D01*
X4671975D01*
X3849689Y1742788D02*
X4388044D01*
X3758581Y1651681D02*
X3849689Y1742788D01*
X4153228Y1105820D02*
X4162118Y1096930D01*
Y1079500D02*
Y1096930D01*
X3999248Y1193800D02*
X4162118D01*
X3991609Y1201439D02*
X3999248Y1193800D01*
X3758581Y1226169D02*
X3878930Y1105820D01*
X4153228D01*
X3758581Y1226169D02*
Y1651681D01*
X3954798Y1238250D02*
X3991609Y1201439D01*
X3949660Y1587622D02*
Y1615485D01*
X4159088Y1306357D02*
X4166588Y1298857D01*
X4174132D02*
X4219068Y1253922D01*
Y1200350D02*
X4225618Y1193800D01*
X4155030Y1306357D02*
X4159088D01*
X4166588Y1298857D02*
X4174132D01*
X4219068Y1200350D02*
Y1253922D01*
X5679568Y1200350D02*
Y1253922D01*
X5627088Y1298857D02*
X5634632D01*
X5615530Y1306357D02*
X5619588D01*
X5679568Y1200350D02*
X5686118Y1193800D01*
X5634632Y1298857D02*
X5679568Y1253922D01*
X5619588Y1306357D02*
X5627088Y1298857D01*
X5813118Y1193800D02*
Y1288196D01*
X5410160Y1587622D02*
Y1615485D01*
X5415298Y1238250D02*
X5452109Y1201439D01*
X5219081Y1226169D02*
Y1651681D01*
X5339430Y1105820D02*
X5613728D01*
X5219081Y1226169D02*
X5339430Y1105820D01*
X5452109Y1201439D02*
X5459748Y1193800D01*
X5622618D01*
X5880476Y1197660D02*
Y1342054D01*
X5772086Y1450444D02*
X5880476Y1342054D01*
X5622618Y1079500D02*
Y1096930D01*
X5876617Y1193801D02*
X5880476Y1197660D01*
X5613728Y1105820D02*
X5622618Y1096930D01*
X5219081Y1651681D02*
X5310189Y1742788D01*
X5848544D01*
X5975848Y1615485D02*
X6132475D01*
X5848544Y1742788D02*
X5975848Y1615485D01*
D11*
X1452359Y6617000D02*
D03*
X1452358Y6337000D02*
D03*
X2635250Y6617000D02*
D03*
Y6337000D02*
D03*
D12*
X1821785Y6445250D02*
D03*
X2278784Y6445249D02*
D03*
D13*
X2050284Y5727250D02*
D03*
D14*
X4162118Y1079500D02*
D03*
X4225617D02*
D03*
X4289118Y1079500D02*
D03*
X4352618Y1079500D02*
D03*
X4416118D02*
D03*
X4479618D02*
D03*
X5622618D02*
D03*
X5686117D02*
D03*
X5749618Y1079500D02*
D03*
X5813118Y1079500D02*
D03*
X5876618D02*
D03*
X5940118D02*
D03*
D15*
X4162118Y1193800D02*
D03*
X4225618D02*
D03*
X4289118Y1193801D02*
D03*
X4352618Y1193800D02*
D03*
X4416117Y1193801D02*
D03*
X4479618Y1193800D02*
D03*
X5622618D02*
D03*
X5686118D02*
D03*
X5749618Y1193801D02*
D03*
X5813118Y1193800D02*
D03*
X5876617Y1193801D02*
D03*
X5940118Y1193800D02*
D03*
D16*
X2308784Y6350000D02*
X2635250D01*
X2606000Y6334499D02*
X2635250Y6305249D01*
Y5842000D02*
Y6305249D01*
Y5842000D02*
X2762250Y5715000D01*
X3253785D01*
X1452358Y6337000D02*
X1766784D01*
X2278784Y6380000D02*
X2308784Y6350000D01*
X2278784Y6380000D02*
Y6445249D01*
X3444785Y5796000D02*
X3554785D01*
X3334785D02*
X3444785D01*
X3253785Y5715000D02*
X3334785Y5796000D01*
X1791785Y6372750D02*
X1821785Y6402750D01*
Y6445250D01*
X3554785Y5796000D02*
X3594785Y5756000D01*
D17*
X1766784Y6337000D02*
X1821785Y6392000D01*
Y6445250D01*
X1433607Y6318250D02*
X1452358Y6337000D01*
X1072147Y6318250D02*
X1433607D01*
X1040397Y6286500D02*
X1072147Y6318250D01*
X1039858Y6286500D02*
X1040397D01*
X1150568Y5485182D02*
X1206500Y5429250D01*
Y5280517D02*
Y5429250D01*
X1039857Y5505501D02*
X1060176Y5485182D01*
X1150568D01*
X1062800Y4876267D02*
Y5136817D01*
X1206500Y5280517D01*
X2942284Y1562000D02*
Y2101570D01*
D18*
X4181813Y4762500D02*
X4286250D01*
X2586799Y4876268D02*
X4068045D01*
X2559722D02*
X2586799D01*
X4068045D02*
X4181813Y4762500D01*
X3763534Y5111750D02*
X3968750Y5316966D01*
Y6242715D02*
X4266248Y6540214D01*
X3968750Y5316966D02*
Y6242715D01*
X1238250Y3162965D02*
Y3272890D01*
X1123285Y3048000D02*
X1238250Y3162965D01*
Y3272890D02*
X1316800Y3351440D01*
X2078800Y4876267D02*
Y4904550D01*
X2286000Y5111750D02*
X3763534D01*
X2078800Y4904550D02*
X2286000Y5111750D01*
X2104664Y2828621D02*
Y2940868D01*
Y2828621D02*
X2107535Y2825750D01*
X2104664Y2940868D02*
X2332801Y3169005D01*
Y3351440D01*
X2053046Y3325686D02*
X2078801Y3351441D01*
X2053046Y3271261D02*
Y3325686D01*
X1607535Y2825750D02*
X2053046Y3271261D01*
X1577504Y3098455D02*
Y3344737D01*
X1489083Y2650451D02*
Y3010034D01*
X1577504Y3098455D01*
X1570801Y3351441D02*
X1577504Y3344737D01*
X1489083Y2650451D02*
X2107535Y2032000D01*
X1444249Y3178464D02*
Y3749964D01*
X1357536Y3091751D02*
X1444249Y3178464D01*
Y3749964D02*
X1507300Y3813015D01*
X1357536Y2825750D02*
Y3091751D01*
X1507300Y3813015D02*
Y4876267D01*
X2107535Y1409001D02*
Y2032000D01*
X1853535Y1313751D02*
X2012285D01*
X2107535Y1409001D01*
X1123285Y2381250D02*
X1690784Y1813750D01*
X1853535D01*
X1123285Y2381250D02*
Y3048000D01*
X1571785Y2778411D02*
X1585386Y2792012D01*
X932785Y2220574D02*
Y3143250D01*
Y2220574D02*
X1153108Y2000250D01*
X932785Y3143250D02*
X999301Y3209766D01*
Y3351441D01*
D19*
X5517961Y6032501D02*
X5631784D01*
X5528845Y5767615D02*
X5642669D01*
X5517960Y5778500D02*
X5528845Y5767615D01*
X5518299Y5270163D02*
X5612432D01*
X5517961Y5270501D02*
X5518299Y5270163D01*
X5517962Y5524499D02*
X5631785D01*
X6044535Y4838061D02*
X6178888D01*
X5612432Y5270163D02*
X6044535Y4838061D01*
X6064224Y5092061D02*
X6178888D01*
X5631784Y6032501D02*
X6064224Y5600060D01*
X5642669Y5767615D02*
X6064224Y5346061D01*
X5631785Y5524499D02*
X6064224Y5092061D01*
X6064224Y5346061D02*
X6178888D01*
X6064224Y5600060D02*
X6178887D01*
X4671975Y2865485D02*
X4818880D01*
X3949660D02*
X4266661D01*
X4400961Y2731185D01*
X4744979D01*
X4819223Y2656941D01*
X4818880Y2865485D02*
X4910632Y2773733D01*
X4819223Y1528445D02*
Y2656941D01*
X4910632Y1425763D02*
Y2773733D01*
X4479618Y1221435D02*
X4485968Y1227785D01*
X4479618Y1193800D02*
Y1221435D01*
X4485968Y1104615D02*
X4589483D01*
X4479618Y1098265D02*
X4485968Y1104615D01*
X4479618Y1079500D02*
Y1098265D01*
X4518563Y1227785D02*
X4819223Y1528445D01*
X4589483Y1104615D02*
X4910632Y1425763D01*
X4485968Y1227785D02*
X4518563D01*
X5946468D02*
X5979063D01*
X6049983Y1104615D02*
X6371132Y1425763D01*
X5979063Y1227785D02*
X6279723Y1528445D01*
X5940118Y1079500D02*
Y1098265D01*
X5946468Y1104615D01*
X6049983D01*
X5940118Y1193800D02*
Y1221435D01*
X5946468Y1227785D01*
X6371132Y1425763D02*
Y2773733D01*
X6279723Y1528445D02*
Y2656941D01*
X6279380Y2865485D02*
X6371132Y2773733D01*
X6205479Y2731185D02*
X6279723Y2656941D01*
X5861461Y2731185D02*
X6205479D01*
X5727161Y2865485D02*
X5861461Y2731185D01*
X5410160Y2865485D02*
X5727161D01*
X6132475D02*
X6279380D01*
D20*
X4352618Y1079500D02*
X4353517Y1078602D01*
X4225617Y1079500D02*
X4225618Y1079499D01*
X4414847Y1078229D02*
X4416118Y1079500D01*
X4289118Y1079500D02*
X4291335Y1077283D01*
X5749618Y1079500D02*
X5751835Y1077283D01*
X5875347Y1078229D02*
X5876618Y1079500D01*
X5686117D02*
X5686118Y1079499D01*
X5813118Y1079500D02*
X5814017Y1078602D01*
D21*
X2942284Y2499383D02*
Y2508250D01*
X3196284Y1301749D02*
X3196285Y1301750D01*
Y1809749D02*
X3196285Y1809750D01*
X3196285Y1301750D02*
Y1809749D01*
X3196285Y1809750D02*
Y2216424D01*
X2688284Y1301750D02*
Y1809750D01*
Y2245382D01*
X2942284Y2470425D02*
Y2508250D01*
Y2470425D02*
X3196285Y2216424D01*
X2688284Y2245382D02*
X2942284Y2499383D01*
D22*
X1039858Y6105500D02*
D03*
X1039858Y5305500D02*
D03*
D23*
X1039857Y5905500D02*
D03*
X1039858Y5705501D02*
D03*
D24*
X1039857Y5505501D02*
D03*
D25*
X5517961Y4762500D02*
D03*
X4265961Y4762499D02*
D03*
D26*
X5517961Y5016500D02*
D03*
Y5270501D02*
D03*
X5517962Y5524499D02*
D03*
X5517960Y5778500D02*
D03*
X5517961Y6032501D02*
D03*
X5517961Y6286499D02*
D03*
X5517962Y6540502D02*
D03*
X4265961Y5016501D02*
D03*
Y5270501D02*
D03*
X4265960Y5524501D02*
D03*
X4265959Y5778500D02*
D03*
X4265961Y6032501D02*
D03*
X4265961Y6286499D02*
D03*
X4265962Y6540500D02*
D03*
D27*
X6178888Y4838061D02*
D03*
X6178888Y5092061D02*
D03*
X6178888Y5346061D02*
D03*
X6178887Y5600060D02*
D03*
X1153107Y1746250D02*
D03*
D28*
X3444785Y5796000D02*
D03*
X3444786Y6376001D02*
D03*
D29*
X2964785Y6096000D02*
D03*
D30*
X1853535Y1313751D02*
D03*
X1853535Y1563751D02*
D03*
X1853535Y1813750D02*
D03*
X1857535Y2825750D02*
D03*
X1607535D02*
D03*
X1357536D02*
D03*
X4671975Y2615485D02*
D03*
Y2365485D02*
D03*
Y2115485D02*
D03*
Y1865485D02*
D03*
Y1615485D02*
D03*
X3949660Y1865485D02*
D03*
X3949660Y2115485D02*
D03*
Y2365485D02*
D03*
Y2615485D02*
D03*
Y2865485D02*
D03*
X5410160Y1865485D02*
D03*
X5410160Y2115485D02*
D03*
Y2365485D02*
D03*
Y2615485D02*
D03*
Y2865485D02*
D03*
X6132475Y2615485D02*
D03*
Y2365485D02*
D03*
Y2115485D02*
D03*
Y1865485D02*
D03*
Y1615485D02*
D03*
D31*
X1853535Y2063750D02*
D03*
X4671975Y2865485D02*
D03*
X3949660Y1615485D02*
D03*
X5410160D02*
D03*
X6132475Y2865485D02*
D03*
D32*
X2107535Y2825750D02*
D03*
D33*
X2942284Y1555750D02*
D03*
D34*
X2688284Y1809750D02*
D03*
Y1301750D02*
D03*
X3196284Y1301749D02*
D03*
X3196285Y1809750D02*
D03*
D35*
X2586800Y3351441D02*
D03*
X2332801Y3351440D02*
D03*
X1824800Y3351441D02*
D03*
X1316800Y3351440D02*
D03*
X1570801Y3351441D02*
D03*
X2078801D02*
D03*
X2586799Y4876268D02*
D03*
X2332800Y4876267D02*
D03*
X1824800Y4876267D02*
D03*
X1316800D02*
D03*
X1570800D02*
D03*
X2078800D02*
D03*
D36*
X1062801Y3351441D02*
D03*
X1062800Y4876267D02*
D03*
D37*
X1153108Y2000250D02*
D03*
D38*
X1651000Y6508750D02*
D03*
Y6191250D02*
D03*
Y6032500D02*
D03*
Y5778500D02*
D03*
Y5651500D02*
D03*
X2508250Y6159500D02*
D03*
Y6000750D02*
D03*
X2540000Y5715000D02*
D03*
X2635250Y5619750D02*
D03*
X1472535Y6032500D02*
D03*
X4615785Y5619750D02*
D03*
X4044285Y5238750D02*
D03*
X4011051Y6637233D02*
D03*
X5822285Y6096000D02*
D03*
X2647285Y3892551D02*
D03*
X1948785Y4095750D02*
D03*
X2635250Y5397500D02*
D03*
Y5270500D02*
D03*
X2476500D02*
D03*
X2298035D02*
D03*
X2015300D02*
D03*
X1790035D02*
D03*
X1651000D02*
D03*
X2159000D02*
D03*
X1905000D02*
D03*
D39*
X1039858Y6286500D02*
D03*
D40*
X4225199Y784618D02*
D03*
X4411991Y974404D02*
D03*
X4353142Y921779D02*
D03*
X4290333Y869721D02*
D03*
X5881330Y971541D02*
D03*
X5787718Y1312286D02*
D03*
X5718192Y1301228D02*
D03*
X5812725Y912521D02*
D03*
X5753537Y851140D02*
D03*
X5688868Y773866D02*
D03*
X4267839Y1313562D02*
D03*
X4313732Y1373099D02*
D03*
X4308771Y1499617D02*
D03*
X4155030Y1306357D02*
D03*
X5615530D02*
D03*
X5770094Y1450444D02*
D03*
D41*
X2942284Y2508250D02*
D03*
D42*
Y2127250D02*
D03*
%TF.MD5,fbf0b0da1d4e4a2ca227e4f21123469a*%
M02*
