%TF.GenerationSoftware,Altium Limited,Altium Designer,22.7.1 (60)*%
G04 Layer_Color=0*
%FSLAX45Y45*%
%MOMM*%
%TF.SameCoordinates,61DBAAF2-DE87-4E8A-AD11-02536D302051*%
%TF.FilePolarity,Positive*%
%TF.FileFunction,Plated,1,2,PTH,Drill*%
%TF.Part,Single*%
G01*
G75*
%TA.AperFunction,ComponentDrill*%
%ADD76C,1.00000*%
%ADD77C,0.80000*%
%ADD78C,0.95000*%
%ADD79C,1.20000*%
%ADD80O,3.00000X0.80000*%
%ADD81O,0.80000X3.00000*%
%ADD82C,0.90000*%
%ADD83C,0.90000*%
%ADD84C,1.50000*%
%ADD85C,1.70000*%
%ADD86C,1.10000*%
%TA.AperFunction,ViaDrill,NotFilled*%
%ADD87C,0.20320*%
%ADD88C,0.30000*%
%ADD89C,3.50000*%
%ADD90C,0.50000*%
D76*
X1039858Y6105500D02*
D03*
X1039858Y5305500D02*
D03*
D77*
X1039857Y5905500D02*
D03*
X1039858Y5705501D02*
D03*
X1039857Y5505501D02*
D03*
D78*
X5517961Y4762500D02*
D03*
X5517961Y5016500D02*
D03*
Y5270501D02*
D03*
X5517962Y5524499D02*
D03*
X5517960Y5778500D02*
D03*
X5517961Y6032501D02*
D03*
X5517961Y6286499D02*
D03*
X5517962Y6540502D02*
D03*
X4265961Y4762499D02*
D03*
X4265961Y5016501D02*
D03*
Y5270501D02*
D03*
X4265960Y5524501D02*
D03*
X4265959Y5778500D02*
D03*
X4265961Y6032501D02*
D03*
X4265961Y6286499D02*
D03*
X4265962Y6540500D02*
D03*
D79*
X6178888Y4838061D02*
D03*
X6178888Y5092061D02*
D03*
X6178888Y5346061D02*
D03*
X6178887Y5600060D02*
D03*
X1153107Y1746250D02*
D03*
X1153108Y2000250D02*
D03*
D80*
X3444785Y5796000D02*
D03*
X3444786Y6376001D02*
D03*
D81*
X2964785Y6096000D02*
D03*
D82*
X1853535Y1313751D02*
D03*
X1853535Y1563751D02*
D03*
X1853535Y1813750D02*
D03*
X1853535Y2063750D02*
D03*
X4671975Y2865485D02*
D03*
Y2615485D02*
D03*
Y2365485D02*
D03*
Y2115485D02*
D03*
Y1865485D02*
D03*
Y1615485D02*
D03*
X3949660D02*
D03*
X3949660Y1865485D02*
D03*
X3949660Y2115485D02*
D03*
Y2365485D02*
D03*
Y2615485D02*
D03*
Y2865485D02*
D03*
X5410160Y1615485D02*
D03*
X5410160Y1865485D02*
D03*
X5410160Y2115485D02*
D03*
Y2365485D02*
D03*
Y2615485D02*
D03*
Y2865485D02*
D03*
X6132475D02*
D03*
Y2615485D02*
D03*
Y2365485D02*
D03*
Y2115485D02*
D03*
Y1865485D02*
D03*
Y1615485D02*
D03*
D83*
X2107535Y2825750D02*
D03*
X1857535D02*
D03*
X1607535D02*
D03*
X1357536D02*
D03*
D84*
X2942284Y1555750D02*
D03*
D85*
X2688284Y1809750D02*
D03*
Y1301750D02*
D03*
X3196284Y1301749D02*
D03*
X3196285Y1809750D02*
D03*
D86*
X2586800Y3351441D02*
D03*
X2332801Y3351440D02*
D03*
X1824800Y3351441D02*
D03*
X1316800Y3351440D02*
D03*
X1570801Y3351441D02*
D03*
X2078801D02*
D03*
X1062801Y3351441D02*
D03*
X2586799Y4876268D02*
D03*
X2332800Y4876267D02*
D03*
X1824800Y4876267D02*
D03*
X1316800D02*
D03*
X1062800D02*
D03*
X1570800D02*
D03*
X2078800D02*
D03*
D87*
X1651000Y6508750D02*
D03*
Y6191250D02*
D03*
Y6032500D02*
D03*
Y5778500D02*
D03*
Y5651500D02*
D03*
X2508250Y6159500D02*
D03*
Y6000750D02*
D03*
X2540000Y5715000D02*
D03*
X2635250Y5619750D02*
D03*
X1472535Y6032500D02*
D03*
X4615785Y5619750D02*
D03*
X4044285Y5238750D02*
D03*
X4011051Y6637233D02*
D03*
X5822285Y6096000D02*
D03*
X2647285Y3892551D02*
D03*
X1948785Y4095750D02*
D03*
X2635250Y5397500D02*
D03*
Y5270500D02*
D03*
X2476500D02*
D03*
X2298035D02*
D03*
X2015300D02*
D03*
X1790035D02*
D03*
X1651000D02*
D03*
X2159000D02*
D03*
X1905000D02*
D03*
D88*
X1039858Y6286500D02*
D03*
X4225199Y784618D02*
D03*
X4411991Y974404D02*
D03*
X4353142Y921779D02*
D03*
X4290333Y869721D02*
D03*
X5881330Y971541D02*
D03*
X5787718Y1312286D02*
D03*
X5718192Y1301228D02*
D03*
X5812725Y912521D02*
D03*
X5753537Y851140D02*
D03*
X5688868Y773866D02*
D03*
X4267839Y1313562D02*
D03*
X4313732Y1373099D02*
D03*
X4308771Y1499617D02*
D03*
X4155030Y1306357D02*
D03*
X5615530D02*
D03*
X5770094Y1450444D02*
D03*
D89*
X2942284Y2508250D02*
D03*
D90*
Y2127250D02*
D03*
%TF.MD5,2cecbf104351a5a402f2be2236941efa*%
M02*
