%TF.GenerationSoftware,Altium Limited,Altium Designer,22.7.1 (60)*%
G04 Layer_Color=16711935*
%FSLAX45Y45*%
%MOMM*%
%TF.SameCoordinates,61DBAAF2-DE87-4E8A-AD11-02536D302051*%
%TF.FilePolarity,Positive*%
%TF.FileFunction,Other,Top_3D_Body*%
%TF.Part,Single*%
G01*
G75*
%TA.AperFunction,NonConductor*%
%ADD61C,0.20000*%
%ADD63C,0.10000*%
D61*
X1362358Y6307000D02*
X1542358Y6307000D01*
X1542358Y6647000D01*
X1362358Y6647000D02*
X1542358Y6647000D01*
X1362358Y6307000D02*
X1362358Y6647000D01*
X2545250Y6307000D02*
X2725250D01*
Y6647000D01*
X2545250D02*
X2725250D01*
X2545250Y6307000D02*
Y6647000D01*
X804858Y5265501D02*
X1574858Y5265501D01*
X1574857Y6145500D02*
X1574858Y5265501D01*
X804858Y6145501D02*
X1574857Y6145500D01*
X804858Y5265501D02*
Y6145501D01*
X5853888Y4688061D02*
X5853888Y5750061D01*
X6503888D01*
X6503889Y4688061D01*
X5853888D02*
X6503889D01*
X1725285Y5558248D02*
X2375285Y5558250D01*
X2375282Y6168249D02*
X2375285Y5558250D01*
X1725285Y6168250D02*
X2375282Y6168249D01*
X1725285Y5558248D02*
X1725285Y6168250D01*
X1533534Y1063749D02*
X2173535Y1063750D01*
X2173536Y2313751D01*
X1533535Y2313751D02*
X2173536Y2313751D01*
X1533534Y1063749D02*
X1533535Y2313751D01*
X1107535Y3145751D02*
X2357535Y3145750D01*
X2357535Y2505750D02*
X2357535Y3145750D01*
X1107535Y2505750D02*
X2357535Y2505750D01*
X1107535Y2505750D02*
Y3145751D01*
X2592284Y1905749D02*
X2592285Y395750D01*
X3292285D01*
X3292284Y1905750D02*
X3292285Y395750D01*
X2592284Y1905749D02*
X3292284Y1905750D01*
X828108Y2150250D02*
X1478109D01*
X828108Y1596250D02*
X828108Y2150250D01*
X828108Y1596250D02*
X1478108Y1596250D01*
X1478109Y2150250D01*
X4351975Y1365485D02*
Y3115485D01*
X4991976D01*
Y1365485D02*
Y3115485D01*
X4351975Y1365485D02*
X4991976D01*
X4269661Y1365484D02*
X4269661Y3115484D01*
X3629660Y1365485D02*
X4269661Y1365484D01*
X3629660Y1365485D02*
Y3115485D01*
X4269661Y3115484D01*
X5730161Y1365484D02*
X5730161Y3115484D01*
X5090160Y1365485D02*
X5730161Y1365484D01*
X5090160Y1365485D02*
Y3115485D01*
X5730161Y3115484D01*
X5812475Y1365485D02*
Y3115485D01*
X6452476D01*
Y1365485D02*
Y3115485D01*
X5812475Y1365485D02*
X6452476D01*
D63*
X5339961Y4635501D02*
X5695961Y4635499D01*
X5339961Y6667499D02*
X5339961Y4635501D01*
X5339961Y6667499D02*
X5695960Y6667501D01*
X5695961Y4635499D01*
X4087962Y4635500D02*
X4443960Y4635498D01*
X4087960Y6667499D02*
X4087962Y4635500D01*
X4087960Y6667499D02*
X4443961Y6667501D01*
X4443960Y4635498D02*
X4443961Y6667501D01*
X3894785Y5706002D02*
X3894785Y7156001D01*
X2994785D02*
X3894785D01*
X2994785Y5706001D02*
Y7156001D01*
Y5706001D02*
X3894785Y5706002D01*
X2713800Y3224440D02*
X2713800Y3478441D01*
X935800Y3224440D02*
X935801Y3478440D01*
X935800Y3224440D02*
X2713800Y3224440D01*
X935801Y3478440D02*
X2713800Y3478441D01*
X2713799Y4749268D02*
X2713800Y5003268D01*
X935800Y4749267D02*
X935800Y5003267D01*
X935800Y4749267D02*
X2713799Y4749268D01*
X935800Y5003267D02*
X2713800Y5003268D01*
%TF.MD5,d97879b8cd527582bf003d62554aba0f*%
M02*
