%TF.GenerationSoftware,Altium Limited,Altium Designer,22.7.1 (60)*%
G04 Layer_Color=65535*
%FSLAX45Y45*%
%MOMM*%
%TF.SameCoordinates,61DBAAF2-DE87-4E8A-AD11-02536D302051*%
%TF.FilePolarity,Positive*%
%TF.FileFunction,Legend,Top*%
%TF.Part,Single*%
G01*
G75*
%TA.AperFunction,NonConductor*%
%ADD59C,0.25000*%
%ADD60C,0.06800*%
%ADD61C,0.20000*%
%ADD62C,0.25400*%
%ADD63C,0.10000*%
%ADD64C,0.35000*%
%ADD65C,0.40000*%
%ADD66C,0.30000*%
%ADD67C,0.50000*%
D59*
X764858Y5505500D02*
G03*
X764858Y5505500I-12500J0D01*
G01*
X1868535Y2391250D02*
G03*
X1868535Y2391250I-12500J0D01*
G01*
X2447535Y2823251D02*
G03*
X2447535Y2823251I-12500J0D01*
G01*
X4684476Y3175485D02*
G03*
X4684476Y3175485I-12500J0D01*
G01*
X3962160Y1305485D02*
G03*
X3962160Y1305485I-12500J0D01*
G01*
X5422660D02*
G03*
X5422660Y1305485I-12500J0D01*
G01*
X6144976Y3175485D02*
G03*
X6144976Y3175485I-12500J0D01*
G01*
D60*
X2281084Y6679849D02*
G03*
X2281084Y6673049I0J-3400D01*
G01*
D02*
G03*
X2281084Y6679849I0J3400D01*
G01*
D61*
X2942284Y1985749D02*
G03*
X2942284Y1975749I0J-5000D01*
G01*
D02*
G03*
X2942284Y1985749I0J5000D01*
G01*
D02*
G03*
X2942284Y1975749I0J-5000D01*
G01*
X4048904Y6735060D02*
X5715194D01*
X4048904Y4635060D02*
X5715194D01*
X4048904D02*
Y6735060D01*
X5715194Y4635060D02*
Y6735060D01*
X1542358Y6532000D02*
X1542359Y6422000D01*
X1362358Y6532000D02*
X1362358Y6422000D01*
X2725250Y6422000D02*
Y6532000D01*
X2545250Y6422000D02*
Y6532000D01*
X1154858Y5265500D02*
X1274858Y5265501D01*
X1274858Y6145500D02*
X1274858Y5265501D01*
X1154858Y6145500D02*
X1274858D01*
X804858Y5265501D02*
X924858D01*
X804858Y6145501D02*
X924858Y6145500D01*
X804858Y5265501D02*
Y6145501D01*
X5695960Y6667501D02*
X5695961Y4762500D01*
X5339961Y6667499D02*
X5695960Y6667501D01*
X5339961Y6667499D02*
X5339961Y4635501D01*
X5517961Y4635500D01*
X4443961Y6667501D02*
X4443962Y4762499D01*
X4087960Y6667499D02*
X4443961Y6667501D01*
X4087960Y6667499D02*
X4087962Y4635500D01*
X4265960Y4635499D01*
X2994785Y5866001D02*
X2994785Y5706001D01*
Y7156001D02*
X2994786Y6326001D01*
X2994785Y5706001D02*
X3214785Y5706000D01*
X3674785Y5706002D02*
X3894785Y5706002D01*
X2994785Y7156001D02*
X3894785D01*
X3894785Y5706002D02*
X3894785Y7156001D01*
X1533534Y1063749D02*
X2173535Y1063750D01*
X2173536Y2313751D01*
X1533535Y2313751D02*
X2173536Y2313751D01*
X1533534Y1063749D02*
X1533535Y2313751D01*
X1107535Y3145751D02*
X2357535Y3145750D01*
X2357535Y2505750D02*
X2357535Y3145750D01*
X1107535Y2505750D02*
X2357535Y2505750D01*
X1107535Y2505750D02*
Y3145751D01*
X920800Y3216940D02*
X2728800D01*
X920800D02*
Y3485940D01*
X2728800Y3485940D01*
X2728800Y3216940D02*
X2728800Y3485940D01*
X920800Y4741767D02*
X2728800D01*
X920800D02*
X920801Y5010767D01*
X2728800Y5010767D01*
X2728800Y4741767D01*
X4351975Y1365485D02*
Y3115485D01*
X4991976D01*
Y1365485D02*
Y3115485D01*
X4351975Y1365485D02*
X4991976D01*
X4269661Y1365484D02*
X4269661Y3115484D01*
X3629660Y1365485D02*
X4269661Y1365484D01*
X3629660Y1365485D02*
Y3115485D01*
X4269661Y3115484D01*
X5730161Y1365484D02*
X5730161Y3115484D01*
X5090160Y1365485D02*
X5730161Y1365484D01*
X5090160Y1365485D02*
Y3115485D01*
X5730161Y3115484D01*
X5812475Y1365485D02*
Y3115485D01*
X6452476D01*
Y1365485D02*
Y3115485D01*
X5812475Y1365485D02*
X6452476D01*
X5112034Y5481000D02*
X5135360D01*
X5123697D01*
Y5550977D01*
X5112034Y5539315D01*
X5170349Y5550977D02*
Y5481000D01*
X5205338D01*
X5217001Y5492663D01*
Y5504326D01*
X5205338Y5515989D01*
X5170349D01*
X5205338D01*
X5217001Y5527652D01*
Y5539315D01*
X5205338Y5550977D01*
X5170349D01*
X5158686Y5227000D02*
X5112034D01*
X5158686Y5273652D01*
Y5285315D01*
X5147023Y5296977D01*
X5123697D01*
X5112034Y5285315D01*
X5182012Y5296977D02*
Y5227000D01*
X5217001D01*
X5228664Y5238663D01*
Y5250326D01*
X5217001Y5261989D01*
X5182012D01*
X5217001D01*
X5228664Y5273652D01*
Y5285315D01*
X5217001Y5296977D01*
X5182012D01*
X5112034Y5042977D02*
Y4996326D01*
X5135360Y4973000D01*
X5158686Y4996326D01*
Y5042977D01*
X5182012D02*
X5205338D01*
X5193675D01*
Y4973000D01*
X5182012D01*
X5205338D01*
X5275315Y5042977D02*
X5251989D01*
X5240327Y5031315D01*
Y4984663D01*
X5251989Y4973000D01*
X5275315D01*
X5286978Y4984663D01*
Y5031315D01*
X5275315Y5042977D01*
X5112034Y5735000D02*
X5135360D01*
X5123697D01*
Y5804977D01*
X5112034Y5793315D01*
X5170349Y5735000D02*
Y5781652D01*
X5193675Y5804977D01*
X5217001Y5781652D01*
Y5735000D01*
Y5769989D01*
X5170349D01*
X5158686Y5989000D02*
X5112034D01*
X5158686Y6035652D01*
Y6047315D01*
X5147023Y6058977D01*
X5123697D01*
X5112034Y6047315D01*
X5182012Y5989000D02*
Y6035652D01*
X5205338Y6058977D01*
X5228664Y6035652D01*
Y5989000D01*
Y6023989D01*
X5182012D01*
X5158686Y6301315D02*
X5147023Y6312977D01*
X5123697D01*
X5112034Y6301315D01*
Y6254663D01*
X5123697Y6243000D01*
X5147023D01*
X5158686Y6254663D01*
Y6277989D01*
X5135360D01*
X5182012Y6243000D02*
Y6312977D01*
X5228664Y6243000D01*
Y6312977D01*
X5251989D02*
Y6243000D01*
X5286978D01*
X5298641Y6254663D01*
Y6301315D01*
X5286978Y6312977D01*
X5251989D01*
X2495398Y3571257D02*
X2645350D01*
Y3646233D01*
X2620358Y3671225D01*
X2520390D01*
X2495398Y3646233D01*
Y3571257D01*
Y3821176D02*
X2520390Y3771193D01*
X2570374Y3721209D01*
X2620358D01*
X2645350Y3746201D01*
Y3796184D01*
X2620358Y3821176D01*
X2595366D01*
X2570374Y3796184D01*
Y3721209D01*
X2241399Y3571257D02*
X2391350D01*
Y3646233D01*
X2366358Y3671225D01*
X2266390D01*
X2241399Y3646233D01*
Y3571257D01*
Y3821176D02*
Y3721208D01*
X2316374D01*
X2291383Y3771192D01*
Y3796184D01*
X2316374Y3821176D01*
X2366358D01*
X2391350Y3796184D01*
Y3746200D01*
X2366358Y3721208D01*
X1987399Y3571257D02*
X2137350D01*
Y3646233D01*
X2112358Y3671225D01*
X2012390D01*
X1987399Y3646233D01*
Y3571257D01*
X2137350Y3796184D02*
X1987399D01*
X2062374Y3721208D01*
Y3821176D01*
X1733399Y3571257D02*
X1883350D01*
Y3646233D01*
X1858358Y3671225D01*
X1758390D01*
X1733399Y3646233D01*
Y3571257D01*
X1758390Y3721208D02*
X1733399Y3746200D01*
Y3796184D01*
X1758390Y3821176D01*
X1783383D01*
X1808374Y3796184D01*
Y3771192D01*
Y3796184D01*
X1833366Y3821176D01*
X1858358D01*
X1883350Y3796184D01*
Y3746200D01*
X1858358Y3721208D01*
X1479398Y3571257D02*
X1629350D01*
Y3646232D01*
X1604358Y3671224D01*
X1504390D01*
X1479398Y3646232D01*
Y3571257D01*
X1629350Y3821176D02*
Y3721208D01*
X1529382Y3821176D01*
X1504390D01*
X1479398Y3796184D01*
Y3746200D01*
X1504390Y3721208D01*
X1225399Y3571257D02*
X1375350D01*
Y3646233D01*
X1350358Y3671225D01*
X1250390D01*
X1225399Y3646233D01*
Y3571257D01*
X1375350Y3721208D02*
Y3771192D01*
Y3746200D01*
X1225399D01*
X1250390Y3721208D01*
X971399Y3571257D02*
X1121351D01*
Y3646233D01*
X1096359Y3671225D01*
X996391D01*
X971399Y3646233D01*
Y3571257D01*
X996391Y3721209D02*
X971399Y3746201D01*
Y3796184D01*
X996391Y3821176D01*
X1096359D01*
X1121351Y3796184D01*
Y3746201D01*
X1096359Y3721209D01*
X996391D01*
X2539073Y4501468D02*
X2659034D01*
Y4561448D01*
X2639041Y4581442D01*
X2559067D01*
X2539073Y4561448D01*
Y4501468D01*
Y4621429D02*
Y4701403D01*
X2559067D01*
X2639041Y4621429D01*
X2659034D01*
X2285073Y4501468D02*
X2405035D01*
Y4561448D01*
X2385041Y4581442D01*
X2305067D01*
X2285073Y4561448D01*
Y4501468D01*
X2305067Y4621429D02*
X2285073Y4641423D01*
Y4681409D01*
X2305067Y4701403D01*
X2325060D01*
X2345054Y4681409D01*
X2365048Y4701403D01*
X2385041D01*
X2405035Y4681409D01*
Y4641423D01*
X2385041Y4621429D01*
X2365048D01*
X2345054Y4641423D01*
X2325060Y4621429D01*
X2305067D01*
X2345054Y4641423D02*
Y4681409D01*
X2031073Y4501468D02*
X2151035D01*
Y4561448D01*
X2131041Y4581442D01*
X2051067D01*
X2031073Y4561448D01*
Y4501468D01*
X2131041Y4621429D02*
X2151035Y4641423D01*
Y4681409D01*
X2131041Y4701403D01*
X2051067D01*
X2031073Y4681409D01*
Y4641423D01*
X2051067Y4621429D01*
X2071060D01*
X2091054Y4641423D01*
Y4701403D01*
X1777073Y4401500D02*
X1897034D01*
Y4461480D01*
X1877041Y4481474D01*
X1797067D01*
X1777073Y4461480D01*
Y4401500D01*
X1897034Y4521461D02*
Y4561448D01*
Y4541454D01*
X1777073D01*
X1797067Y4521461D01*
Y4621429D02*
X1777073Y4641422D01*
Y4681409D01*
X1797067Y4701403D01*
X1877041D01*
X1897034Y4681409D01*
Y4641422D01*
X1877041Y4621429D01*
X1797067D01*
X1511317Y4369750D02*
X1491323Y4389743D01*
Y4429730D01*
X1511317Y4449724D01*
X1531310D01*
X1551304Y4429730D01*
Y4409737D01*
Y4429730D01*
X1571297Y4449724D01*
X1591291D01*
X1611284Y4429730D01*
Y4389743D01*
X1591291Y4369750D01*
X1491323Y4489711D02*
X1571297D01*
X1611284Y4529698D01*
X1571297Y4569685D01*
X1491323D01*
X1511317Y4609672D02*
X1491323Y4629666D01*
Y4669653D01*
X1511317Y4689646D01*
X1531310D01*
X1551304Y4669653D01*
Y4649659D01*
Y4669653D01*
X1571297Y4689646D01*
X1591291D01*
X1611284Y4669653D01*
Y4629666D01*
X1591291Y4609672D01*
X1257317Y4449724D02*
X1237323Y4429730D01*
Y4389743D01*
X1257317Y4369750D01*
X1337291D01*
X1357284Y4389743D01*
Y4429730D01*
X1337291Y4449724D01*
X1297304D01*
Y4409737D01*
X1357284Y4489711D02*
X1237323D01*
X1357284Y4569685D01*
X1237323D01*
Y4609672D02*
X1357284D01*
Y4669653D01*
X1337291Y4689646D01*
X1257317D01*
X1237323Y4669653D01*
Y4609672D01*
X983323Y4449724D02*
Y4369750D01*
X1043304D01*
X1023310Y4409737D01*
Y4429730D01*
X1043304Y4449724D01*
X1083291D01*
X1103284Y4429730D01*
Y4389743D01*
X1083291Y4369750D01*
X983323Y4489711D02*
X1063297D01*
X1103284Y4529698D01*
X1063297Y4569685D01*
X983323D01*
X3720389Y3231280D02*
X3693730D01*
X3680401Y3217951D01*
Y3164635D01*
X3693730Y3151306D01*
X3720389D01*
X3733717Y3164635D01*
Y3217951D01*
X3720389Y3231280D01*
X3813692D02*
X3760376D01*
Y3151306D01*
X3813692D01*
X3760376Y3191293D02*
X3787034D01*
X3893666Y3151306D02*
X3840350D01*
X3893666Y3204622D01*
Y3217951D01*
X3880337Y3231280D01*
X3853679D01*
X3840350Y3217951D01*
X3920324Y3137976D02*
X3973640D01*
X4000298Y3231280D02*
X4053614D01*
X4026956D01*
Y3151306D01*
X4120259Y3231280D02*
X4093601D01*
X4080272Y3217951D01*
Y3164635D01*
X4093601Y3151306D01*
X4120259D01*
X4133588Y3164635D01*
Y3217951D01*
X4120259Y3231280D01*
X4160246Y3151306D02*
Y3231280D01*
X4200234D01*
X4213563Y3217951D01*
Y3191293D01*
X4200234Y3177964D01*
X4160246D01*
X4450040Y3231280D02*
X4423382D01*
X4410053Y3217951D01*
Y3164635D01*
X4423382Y3151306D01*
X4450040D01*
X4463369Y3164635D01*
Y3217951D01*
X4450040Y3231280D01*
X4543343D02*
X4490027D01*
Y3151306D01*
X4543343D01*
X4490027Y3191293D02*
X4516685D01*
X4623317Y3151306D02*
X4570001D01*
X4623317Y3204622D01*
Y3217951D01*
X4609988Y3231280D01*
X4583330D01*
X4570001Y3217951D01*
X4649975Y3137976D02*
X4703291D01*
X4729949Y3231280D02*
Y3151306D01*
X4769937D01*
X4783266Y3164635D01*
Y3177964D01*
X4769937Y3191293D01*
X4729949D01*
X4769937D01*
X4783266Y3204622D01*
Y3217951D01*
X4769937Y3231280D01*
X4729949D01*
X4849911D02*
X4823253D01*
X4809924Y3217951D01*
Y3164635D01*
X4823253Y3151306D01*
X4849911D01*
X4863240Y3164635D01*
Y3217951D01*
X4849911Y3231280D01*
X4889898D02*
X4943214D01*
X4916556D01*
Y3151306D01*
X5917204Y3231280D02*
X5890546D01*
X5877217Y3217951D01*
Y3164635D01*
X5890546Y3151306D01*
X5917204D01*
X5930533Y3164635D01*
Y3217951D01*
X5917204Y3231280D01*
X6010507D02*
X5957191D01*
Y3151306D01*
X6010507D01*
X5957191Y3191293D02*
X5983849D01*
X6037165Y3151306D02*
X6063824D01*
X6050495D01*
Y3231280D01*
X6037165Y3217951D01*
X6103811Y3137976D02*
X6157127D01*
X6183785Y3231280D02*
Y3151306D01*
X6223772D01*
X6237101Y3164635D01*
Y3177964D01*
X6223772Y3191293D01*
X6183785D01*
X6223772D01*
X6237101Y3204622D01*
Y3217951D01*
X6223772Y3231280D01*
X6183785D01*
X6303746D02*
X6277088D01*
X6263759Y3217951D01*
Y3164635D01*
X6277088Y3151306D01*
X6303746D01*
X6317075Y3164635D01*
Y3217951D01*
X6303746Y3231280D01*
X6343733D02*
X6397049D01*
X6370391D01*
Y3151306D01*
X5187553Y3231280D02*
X5160895D01*
X5147566Y3217951D01*
Y3164635D01*
X5160895Y3151306D01*
X5187553D01*
X5200882Y3164635D01*
Y3217951D01*
X5187553Y3231280D01*
X5280856D02*
X5227540D01*
Y3151306D01*
X5280856D01*
X5227540Y3191293D02*
X5254198D01*
X5307514Y3151306D02*
X5334172D01*
X5320843D01*
Y3231280D01*
X5307514Y3217951D01*
X5374159Y3137976D02*
X5427476D01*
X5454134Y3231280D02*
X5507450D01*
X5480792D01*
Y3151306D01*
X5574095Y3231280D02*
X5547437D01*
X5534108Y3217951D01*
Y3164635D01*
X5547437Y3151306D01*
X5574095D01*
X5587424Y3164635D01*
Y3217951D01*
X5574095Y3231280D01*
X5614082Y3151306D02*
Y3231280D01*
X5654069D01*
X5667398Y3217951D01*
Y3191293D01*
X5654069Y3177964D01*
X5614082D01*
D62*
X1443785Y1365250D02*
G03*
X1443785Y1365250I-130000J0D01*
G01*
X6206285Y6223000D02*
G03*
X6206285Y6223000I-130000J0D01*
G01*
X1246674Y6528837D02*
X1235011Y6517174D01*
Y6493848D01*
X1246674Y6482185D01*
X1293325D01*
X1304988Y6493848D01*
Y6517174D01*
X1293325Y6528837D01*
X1304988Y6598815D02*
Y6552163D01*
X1258337Y6598815D01*
X1246674D01*
X1235011Y6587152D01*
Y6563826D01*
X1246674Y6552163D01*
X1320825Y5226033D02*
X1295433Y5251425D01*
X1244650D01*
X1219258Y5226033D01*
Y5200642D01*
X1244650Y5175250D01*
X1295433D01*
X1320825Y5149858D01*
Y5124467D01*
X1295433Y5099075D01*
X1244650D01*
X1219258Y5124467D01*
X1371608Y5251425D02*
Y5099075D01*
X1422392Y5149858D01*
X1473176Y5099075D01*
Y5251425D01*
X1523959Y5099075D02*
X1574743D01*
X1549351D01*
Y5251425D01*
X1523959Y5226033D01*
X3683042Y1155675D02*
X3632259D01*
X3606867Y1130283D01*
Y1028717D01*
X3632259Y1003325D01*
X3683042D01*
X3708434Y1028717D01*
Y1130283D01*
X3683042Y1155675D01*
X3860785D02*
X3759218D01*
Y1003325D01*
X3860785D01*
X3759218Y1079500D02*
X3810001D01*
X4013135Y1003325D02*
X3911568D01*
X4013135Y1104892D01*
Y1130283D01*
X3987744Y1155675D01*
X3936960D01*
X3911568Y1130283D01*
X5865655Y6021048D02*
X5852326Y6034377D01*
X5825668D01*
X5812339Y6021048D01*
Y6007719D01*
X5825668Y5994390D01*
X5852326D01*
X5865655Y5981061D01*
Y5967732D01*
X5852326Y5954403D01*
X5825668D01*
X5812339Y5967732D01*
X5905642Y6021048D02*
Y6007719D01*
X5892313D01*
X5918971D01*
X5905642D01*
Y5967732D01*
X5918971Y5954403D01*
X5998945D02*
X5972287D01*
X5958958Y5967732D01*
Y5994390D01*
X5972287Y6007719D01*
X5998945D01*
X6012274Y5994390D01*
Y5981061D01*
X5958958D01*
X6038932Y5927745D02*
Y6007719D01*
X6078920D01*
X6092248Y5994390D01*
Y5967732D01*
X6078920Y5954403D01*
X6038932D01*
X6118906Y5927745D02*
Y6007719D01*
X6158894D01*
X6172223Y5994390D01*
Y5967732D01*
X6158894Y5954403D01*
X6118906D01*
X6238868D02*
X6212210D01*
X6198881Y5967732D01*
Y5994390D01*
X6212210Y6007719D01*
X6238868D01*
X6252197Y5994390D01*
Y5981061D01*
X6198881D01*
X6278855Y6007719D02*
Y5954403D01*
Y5981061D01*
X6292184Y5994390D01*
X6305513Y6007719D01*
X6318842D01*
X6398816Y6034377D02*
X6372158D01*
X6358829Y6021048D01*
Y5967732D01*
X6372158Y5954403D01*
X6398816D01*
X6412145Y5967732D01*
Y6021048D01*
X6398816Y6034377D01*
X6438803Y6007719D02*
Y5967732D01*
X6452132Y5954403D01*
X6492119D01*
Y6007719D01*
X6532107Y6021048D02*
Y6007719D01*
X6518777D01*
X6545435D01*
X6532107D01*
Y5967732D01*
X6545435Y5954403D01*
X2619524Y1973592D02*
Y2053566D01*
X2646182Y2026908D01*
X2672840Y2053566D01*
Y1973592D01*
X2699498D02*
X2726156D01*
X2712827D01*
Y2026908D01*
X2699498D01*
X2766144Y1973592D02*
Y2026908D01*
X2806131D01*
X2819460Y2013579D01*
Y1973592D01*
X2846118D02*
X2872776D01*
X2859447D01*
Y2026908D01*
X2846118D01*
X2966079Y2040237D02*
X2952750Y2053566D01*
X2926092D01*
X2912763Y2040237D01*
Y2026908D01*
X2926092Y2013579D01*
X2952750D01*
X2966079Y2000250D01*
Y1986921D01*
X2952750Y1973592D01*
X2926092D01*
X2912763Y1986921D01*
X3046053Y2026908D02*
X3006066D01*
X2992737Y2013579D01*
Y1986921D01*
X3006066Y1973592D01*
X3046053D01*
X3086041D02*
X3112699D01*
X3126028Y1986921D01*
Y2013579D01*
X3112699Y2026908D01*
X3086041D01*
X3072711Y2013579D01*
Y1986921D01*
X3086041Y1973592D01*
X3152686Y1946934D02*
Y2026908D01*
X3192673D01*
X3206002Y2013579D01*
Y1986921D01*
X3192673Y1973592D01*
X3152686D01*
X3272647D02*
X3245989D01*
X3232660Y1986921D01*
Y2013579D01*
X3245989Y2026908D01*
X3272647D01*
X3285976Y2013579D01*
Y2000250D01*
X3232660D01*
X2837785Y6685734D02*
X2804462D01*
X2821123D01*
Y6602427D01*
X2804462Y6585766D01*
X2787801D01*
X2771139Y6602427D01*
X2871107Y6585766D02*
X2904430D01*
X2887769D01*
Y6685734D01*
X2871107Y6669073D01*
X1434359Y5618202D02*
Y5668985D01*
Y5643594D01*
X1586710D01*
Y5618202D01*
Y5668985D01*
X1459751Y5846728D02*
X1434359Y5821336D01*
Y5770553D01*
X1459751Y5745161D01*
X1561318D01*
X1586710Y5770553D01*
Y5821336D01*
X1561318Y5846728D01*
X1586710Y5897511D02*
Y5948295D01*
Y5922903D01*
X1434359D01*
X1459751Y5897511D01*
X2849076Y6477000D02*
X2860739Y6488663D01*
Y6511988D01*
X2849076Y6523651D01*
X2802424D01*
X2790761Y6511988D01*
Y6488663D01*
X2802424Y6477000D01*
X2790761Y6453674D02*
Y6430348D01*
Y6442011D01*
X2860739D01*
X2849076Y6453674D01*
X5147096Y1170512D02*
X5096313D01*
X5070921Y1145120D01*
Y1043553D01*
X5096313Y1018161D01*
X5147096D01*
X5172488Y1043553D01*
Y1145120D01*
X5147096Y1170512D01*
X5324839D02*
X5223272D01*
Y1018161D01*
X5324839D01*
X5223272Y1094336D02*
X5274055D01*
X5375622Y1018161D02*
X5426406D01*
X5401014D01*
Y1170512D01*
X5375622Y1145120D01*
D63*
X1144379Y3624102D02*
Y4624103D01*
X763379Y3624102D02*
Y4624103D01*
X1144379D01*
X763379Y3624102D02*
X1144379D01*
X5853888Y4688061D02*
X5853888Y5750061D01*
X6503888D01*
X6503889Y4688061D01*
X5853888D02*
X6503889D01*
X1725285Y5558248D02*
X1725285Y6168250D01*
X2375282Y6168249D01*
X2375285Y5558250D01*
X2592284Y1130750D02*
X2592285Y395750D01*
X3292285D01*
X3292284Y1130750D02*
X3292285Y395750D01*
X828108Y2150250D02*
X1478109D01*
X828108Y1596250D02*
X828108Y2150250D01*
X828108Y1596250D02*
X1478108Y1596250D01*
X1478109Y2150250D01*
D64*
X4384750Y4385948D02*
Y4265987D01*
X4444730D01*
X4464724Y4285980D01*
Y4365954D01*
X4444730Y4385948D01*
X4384750D01*
X4564691Y4265987D02*
X4524704D01*
X4504711Y4285980D01*
Y4325967D01*
X4524704Y4345961D01*
X4564691D01*
X4584685Y4325967D01*
Y4305974D01*
X4504711D01*
X4624672Y4265987D02*
X4684653D01*
X4704646Y4285980D01*
X4684653Y4305974D01*
X4644666D01*
X4624672Y4325967D01*
X4644666Y4345961D01*
X4704646D01*
X4744633Y4265987D02*
X4784620D01*
X4764627D01*
Y4345961D01*
X4744633D01*
X4884588Y4226000D02*
X4904582D01*
X4924575Y4245993D01*
Y4345961D01*
X4864595D01*
X4844601Y4325967D01*
Y4285980D01*
X4864595Y4265987D01*
X4924575D01*
X4964562D02*
Y4345961D01*
X5024543D01*
X5044536Y4325967D01*
Y4265987D01*
X5144504D02*
X5104517D01*
X5084523Y4285980D01*
Y4325967D01*
X5104517Y4345961D01*
X5144504D01*
X5164497Y4325967D01*
Y4305974D01*
X5084523D01*
X5284459Y4385948D02*
Y4265987D01*
X5224478D01*
X5204484Y4285980D01*
Y4325967D01*
X5224478Y4345961D01*
X5284459D01*
X5444407Y4385948D02*
Y4265987D01*
X5504387D01*
X5524381Y4285980D01*
Y4305974D01*
X5504387Y4325967D01*
X5444407D01*
X5504387D01*
X5524381Y4345961D01*
Y4365954D01*
X5504387Y4385948D01*
X5444407D01*
X5564368Y4345961D02*
Y4285980D01*
X5584361Y4265987D01*
X5644342D01*
Y4245993D01*
X5624348Y4226000D01*
X5604355D01*
X5644342Y4265987D02*
Y4345961D01*
X5884264Y4365954D02*
X5864271Y4385948D01*
X5824284D01*
X5804290Y4365954D01*
Y4345961D01*
X5824284Y4325967D01*
X5864271D01*
X5884264Y4305974D01*
Y4285980D01*
X5864271Y4265987D01*
X5824284D01*
X5804290Y4285980D01*
X5924251Y4385948D02*
X6004225D01*
X5964238D01*
Y4265987D01*
X6044212Y4385948D02*
Y4265987D01*
Y4305974D01*
X6124187Y4385948D01*
X6064206Y4325967D01*
X6124187Y4265987D01*
X4236590Y3724900D02*
Y3604939D01*
Y3644926D01*
X4316564Y3724900D01*
X4256584Y3664920D01*
X4316564Y3604939D01*
X4376545Y3684913D02*
X4416532D01*
X4436525Y3664920D01*
Y3604939D01*
X4376545D01*
X4356551Y3624933D01*
X4376545Y3644926D01*
X4436525D01*
X4536493Y3604939D02*
X4496506D01*
X4476512Y3624933D01*
Y3664920D01*
X4496506Y3684913D01*
X4536493D01*
X4556486Y3664920D01*
Y3644926D01*
X4476512D01*
X4616467Y3704907D02*
Y3684913D01*
X4596473D01*
X4636460D01*
X4616467D01*
Y3624933D01*
X4636460Y3604939D01*
X4696441Y3684913D02*
X4776415D01*
X4696441Y3604939D01*
X4776415D01*
X4876383D02*
X4836396D01*
X4816402Y3624933D01*
Y3664920D01*
X4836396Y3684913D01*
X4876383D01*
X4896377Y3664920D01*
Y3644926D01*
X4816402D01*
X4936364Y3604939D02*
X4976350D01*
X4956357D01*
Y3724900D01*
X4936364D01*
X5156292D02*
Y3604939D01*
X5236267D01*
X5296247Y3684913D02*
X5336234D01*
X5356228Y3664920D01*
Y3604939D01*
X5296247D01*
X5276254Y3624933D01*
X5296247Y3644926D01*
X5356228D01*
X5396215Y3724900D02*
Y3604939D01*
X5456195D01*
X5476189Y3624933D01*
Y3644926D01*
Y3664920D01*
X5456195Y3684913D01*
X5396215D01*
X5536170Y3584946D02*
X5556163Y3604939D01*
Y3624933D01*
X5536170D01*
Y3604939D01*
X5556163D01*
X5536170Y3584946D01*
X5516176Y3564952D01*
X4236590Y3496948D02*
Y3396980D01*
X4256584Y3376987D01*
X4296571D01*
X4316564Y3396980D01*
Y3496948D01*
X4356551Y3376987D02*
X4396538D01*
X4376545D01*
Y3496948D01*
X4356551D01*
X4456519Y3376987D02*
Y3456961D01*
X4476513D01*
X4496506Y3436967D01*
Y3376987D01*
Y3436967D01*
X4516499Y3456961D01*
X4536493Y3436967D01*
Y3376987D01*
X4696441Y3496948D02*
Y3396980D01*
X4716435Y3376987D01*
X4756422D01*
X4776415Y3396980D01*
Y3496948D01*
X4816402Y3376987D02*
Y3456961D01*
X4876383D01*
X4896377Y3436967D01*
Y3376987D01*
X4936364D02*
X4976350D01*
X4956357D01*
Y3456961D01*
X4936364D01*
X5036331D02*
X5076318Y3376987D01*
X5116305Y3456961D01*
X5216273Y3376987D02*
X5176286D01*
X5156292Y3396980D01*
Y3436967D01*
X5176286Y3456961D01*
X5216273D01*
X5236267Y3436967D01*
Y3416974D01*
X5156292D01*
X5276254Y3456961D02*
Y3376987D01*
Y3416974D01*
X5296247Y3436967D01*
X5316241Y3456961D01*
X5336234D01*
X5396215Y3376987D02*
X5456195D01*
X5476189Y3396980D01*
X5456195Y3416974D01*
X5416208D01*
X5396215Y3436967D01*
X5416208Y3456961D01*
X5476189D01*
X5516176Y3376987D02*
X5556163D01*
X5536170D01*
Y3456961D01*
X5516176D01*
X5636137Y3476954D02*
Y3456961D01*
X5616144D01*
X5656131D01*
X5636137D01*
Y3396980D01*
X5656131Y3376987D01*
X5716112Y3456961D02*
Y3396980D01*
X5736105Y3376987D01*
X5796086D01*
Y3356993D01*
X5776092Y3337000D01*
X5756098D01*
X5796086Y3376987D02*
Y3456961D01*
D65*
X2191961Y2595250D02*
X2072000D01*
Y2535270D01*
X2091994Y2515276D01*
X2171968D01*
X2191961Y2535270D01*
Y2595250D01*
Y2395315D02*
Y2475289D01*
X2131980D01*
X2151974Y2435302D01*
Y2415308D01*
X2131980Y2395315D01*
X2091994D01*
X2072000Y2415308D01*
Y2455295D01*
X2091994Y2475289D01*
X1913253Y2515276D02*
X1933246Y2535270D01*
Y2575256D01*
X1913253Y2595250D01*
X1833279D01*
X1813285Y2575256D01*
Y2535270D01*
X1833279Y2515276D01*
X1873266D01*
Y2555263D01*
X1813285Y2475289D02*
X1933246D01*
X1813285Y2395315D01*
X1933246D01*
Y2355328D02*
X1813285D01*
Y2295347D01*
X1833279Y2275354D01*
X1913253D01*
X1933246Y2295347D01*
Y2355328D01*
X1652253Y2515276D02*
X1672246Y2535270D01*
Y2575256D01*
X1652253Y2595250D01*
X1632259D01*
X1612266Y2575256D01*
Y2535270D01*
X1592272Y2515276D01*
X1572279D01*
X1552285Y2535270D01*
Y2575256D01*
X1572279Y2595250D01*
X1672246Y2475289D02*
X1552285D01*
Y2415308D01*
X1572279Y2395315D01*
X1652253D01*
X1672246Y2415308D01*
Y2475289D01*
X1552285Y2355328D02*
X1632259D01*
X1672246Y2315341D01*
X1632259Y2275354D01*
X1552285D01*
X1612266D01*
Y2355328D01*
X1346468Y2595250D02*
X1366461Y2575256D01*
Y2535270D01*
X1346468Y2515276D01*
X1326474D01*
X1306480Y2535270D01*
Y2555263D01*
Y2535270D01*
X1286487Y2515276D01*
X1266494D01*
X1246500Y2535270D01*
Y2575256D01*
X1266494Y2595250D01*
X1326474Y2475289D02*
X1246500Y2435302D01*
X1326474Y2395315D01*
X1346468Y2355328D02*
X1366461Y2335334D01*
Y2295347D01*
X1346468Y2275354D01*
X1326474D01*
X1306480Y2295347D01*
Y2315341D01*
Y2295347D01*
X1286487Y2275354D01*
X1266494D01*
X1246500Y2295347D01*
Y2335334D01*
X1266494Y2355328D01*
X2310724Y2096711D02*
X2230750D01*
Y2036730D01*
X2270737Y2056724D01*
X2290730D01*
X2310724Y2036730D01*
Y1996744D01*
X2290730Y1976750D01*
X2250744D01*
X2230750Y1996744D01*
X2350711Y2096711D02*
Y2016737D01*
X2390698Y1976750D01*
X2430685Y2016737D01*
Y2096711D01*
X2230750Y1874461D02*
Y1754500D01*
X2290730D01*
X2310724Y1774494D01*
Y1854468D01*
X2290730Y1874461D01*
X2230750D01*
X2350711Y1754500D02*
X2390698D01*
X2370705D01*
Y1874461D01*
X2350711Y1854468D01*
X2310724Y1632218D02*
X2290730Y1652211D01*
X2250744D01*
X2230750Y1632218D01*
Y1552244D01*
X2250744Y1532250D01*
X2290730D01*
X2310724Y1552244D01*
Y1592230D01*
X2270737D01*
X2350711Y1532250D02*
Y1652211D01*
X2430685Y1532250D01*
Y1652211D01*
X2470672D02*
Y1532250D01*
X2530653D01*
X2550646Y1552244D01*
Y1632218D01*
X2530653Y1652211D01*
X2470672D01*
X2230750Y1429961D02*
Y1310000D01*
X2290730D01*
X2310724Y1329994D01*
Y1409968D01*
X2290730Y1429961D01*
X2230750D01*
X2430685Y1310000D02*
X2350711D01*
X2430685Y1389974D01*
Y1409968D01*
X2410692Y1429961D01*
X2370705D01*
X2350711Y1409968D01*
X6602573Y4801083D02*
X6522599D01*
X6602573Y4881057D01*
Y4901051D01*
X6582580Y4921044D01*
X6542593D01*
X6522599Y4901051D01*
X6642560Y4921044D02*
Y4801083D01*
X6702541D01*
X6722534Y4821077D01*
Y4841070D01*
X6702541Y4861064D01*
X6642560D01*
X6702541D01*
X6722534Y4881057D01*
Y4901051D01*
X6702541Y4921044D01*
X6642560D01*
X6522599Y5055083D02*
X6562586D01*
X6542593D01*
Y5175044D01*
X6522599Y5155051D01*
X6622567Y5175044D02*
Y5055083D01*
X6682547D01*
X6702541Y5075077D01*
Y5095070D01*
X6682547Y5115064D01*
X6622567D01*
X6682547D01*
X6702541Y5135057D01*
Y5155051D01*
X6682547Y5175044D01*
X6622567D01*
X6522599Y5309083D02*
X6562586D01*
X6542593D01*
Y5429044D01*
X6522599Y5409051D01*
X6622567Y5309083D02*
Y5389057D01*
X6662554Y5429044D01*
X6702541Y5389057D01*
Y5309083D01*
Y5369064D01*
X6622567D01*
X6602573Y5563083D02*
X6522599D01*
X6602573Y5643057D01*
Y5663051D01*
X6582580Y5683044D01*
X6542593D01*
X6522599Y5663051D01*
X6642560Y5563083D02*
Y5643057D01*
X6682547Y5683044D01*
X6722534Y5643057D01*
Y5563083D01*
Y5623064D01*
X6642560D01*
D66*
X4803039Y4887750D02*
Y4967724D01*
Y4927737D01*
X4923000D01*
Y5007711D02*
X4803039D01*
X4843026Y5047698D01*
X4803039Y5087685D01*
X4923000D01*
X4823032Y5207646D02*
X4803039Y5187653D01*
Y5147666D01*
X4823032Y5127672D01*
X4903006D01*
X4923000Y5147666D01*
Y5187653D01*
X4903006Y5207646D01*
X4923000Y5327607D02*
Y5247633D01*
X4843026Y5327607D01*
X4823032D01*
X4803039Y5307614D01*
Y5267627D01*
X4823032Y5247633D01*
X4923000Y5447568D02*
Y5367594D01*
X4843026Y5447568D01*
X4823032D01*
X4803039Y5427575D01*
Y5387588D01*
X4823032Y5367594D01*
Y5487555D02*
X4803039Y5507549D01*
Y5547536D01*
X4823032Y5567530D01*
X4903006D01*
X4923000Y5547536D01*
Y5507549D01*
X4903006Y5487555D01*
X4823032D01*
X4903006Y5607517D02*
X4923000Y5627510D01*
Y5667497D01*
X4903006Y5687491D01*
X4823032D01*
X4803039Y5667497D01*
Y5627510D01*
X4823032Y5607517D01*
X4843026D01*
X4863019Y5627510D01*
Y5687491D01*
X4923000Y5867433D02*
Y5907419D01*
X4903006Y5927413D01*
X4863019D01*
X4843026Y5907419D01*
Y5867433D01*
X4863019Y5847439D01*
X4903006D01*
X4923000Y5867433D01*
X4843026Y5967400D02*
X4923000D01*
X4883013D01*
X4863019Y5987394D01*
X4843026Y6007387D01*
Y6027381D01*
X4923000Y6287297D02*
Y6207322D01*
X4843026Y6287297D01*
X4823032D01*
X4803039Y6267303D01*
Y6227316D01*
X4823032Y6207322D01*
X4923000Y6407258D02*
Y6327284D01*
X4843026Y6407258D01*
X4823032D01*
X4803039Y6387264D01*
Y6347277D01*
X4823032Y6327284D01*
Y6447245D02*
X4803039Y6467238D01*
Y6507225D01*
X4823032Y6527219D01*
X4903006D01*
X4923000Y6507225D01*
Y6467238D01*
X4903006Y6447245D01*
X4823032D01*
Y6567206D02*
X4803039Y6587199D01*
Y6627186D01*
X4823032Y6647180D01*
X4843026D01*
X4863019Y6627186D01*
X4883013Y6647180D01*
X4903006D01*
X4923000Y6627186D01*
Y6587199D01*
X4903006Y6567206D01*
X4883013D01*
X4863019Y6587199D01*
X4843026Y6567206D01*
X4823032D01*
X4863019Y6587199D02*
Y6627186D01*
X3399528Y1935722D02*
X3472838D01*
X3436183D01*
Y1825758D01*
X3582802D02*
X3509492D01*
X3582802Y1899067D01*
Y1917395D01*
X3564475Y1935722D01*
X3527820D01*
X3509492Y1917395D01*
X3399528Y1669022D02*
X3472838D01*
X3436183D01*
Y1559058D01*
X3509492D02*
X3546147D01*
X3527820D01*
Y1669022D01*
X3509492Y1650695D01*
X3399528Y2735822D02*
X3472838D01*
X3436183D01*
Y2625858D01*
X3582802Y2735822D02*
X3509492D01*
Y2680840D01*
X3546147Y2699167D01*
X3564475D01*
X3582802Y2680840D01*
Y2644185D01*
X3564475Y2625858D01*
X3527820D01*
X3509492Y2644185D01*
X3399528Y2202422D02*
X3472838D01*
X3436183D01*
Y2092458D01*
X3509492Y2184095D02*
X3527820Y2202422D01*
X3564475D01*
X3582802Y2184095D01*
Y2165767D01*
X3564475Y2147440D01*
X3546147D01*
X3564475D01*
X3582802Y2129112D01*
Y2110785D01*
X3564475Y2092458D01*
X3527820D01*
X3509492Y2110785D01*
X3399528Y2469122D02*
X3472838D01*
X3436183D01*
Y2359158D01*
X3564475D02*
Y2469122D01*
X3509492Y2414140D01*
X3582802D01*
X3399528Y3002522D02*
X3472838D01*
X3436183D01*
Y2892558D01*
X3582802Y3002522D02*
X3546147Y2984195D01*
X3509492Y2947540D01*
Y2910885D01*
X3527820Y2892558D01*
X3564475D01*
X3582802Y2910885D01*
Y2929212D01*
X3564475Y2947540D01*
X3509492D01*
X6478118Y2668123D02*
Y2558159D01*
X6533100D01*
X6551428Y2576486D01*
Y2594813D01*
X6533100Y2613141D01*
X6478118D01*
X6533100D01*
X6551428Y2631468D01*
Y2649796D01*
X6533100Y2668123D01*
X6478118D01*
X6661392D02*
X6588082D01*
Y2613141D01*
X6624737Y2631468D01*
X6643065D01*
X6661392Y2613141D01*
Y2576486D01*
X6643065Y2558159D01*
X6606410D01*
X6588082Y2576486D01*
X6487742Y2922338D02*
Y2812373D01*
X6542724D01*
X6561051Y2830701D01*
Y2849028D01*
X6542724Y2867356D01*
X6487742D01*
X6542724D01*
X6561051Y2885683D01*
Y2904010D01*
X6542724Y2922338D01*
X6487742D01*
X6671016D02*
X6634361Y2904010D01*
X6597706Y2867356D01*
Y2830701D01*
X6616034Y2812373D01*
X6652688D01*
X6671016Y2830701D01*
Y2849028D01*
X6652688Y2867356D01*
X6597706D01*
X6478118Y1651265D02*
Y1541300D01*
X6533100D01*
X6551428Y1559628D01*
Y1577955D01*
X6533100Y1596283D01*
X6478118D01*
X6533100D01*
X6551428Y1614610D01*
Y1632937D01*
X6533100Y1651265D01*
X6478118D01*
X6588082Y1541300D02*
X6624737D01*
X6606410D01*
Y1651265D01*
X6588082Y1632937D01*
X6478118Y1905479D02*
Y1795515D01*
X6533100D01*
X6551428Y1813842D01*
Y1832170D01*
X6533100Y1850497D01*
X6478118D01*
X6533100D01*
X6551428Y1868825D01*
Y1887152D01*
X6533100Y1905479D01*
X6478118D01*
X6661392Y1795515D02*
X6588082D01*
X6661392Y1868825D01*
Y1887152D01*
X6643065Y1905479D01*
X6606410D01*
X6588082Y1887152D01*
X6478118Y2159694D02*
Y2049729D01*
X6533100D01*
X6551428Y2068057D01*
Y2086384D01*
X6533100Y2104712D01*
X6478118D01*
X6533100D01*
X6551428Y2123039D01*
Y2141367D01*
X6533100Y2159694D01*
X6478118D01*
X6588082Y2141367D02*
X6606410Y2159694D01*
X6643065D01*
X6661392Y2141367D01*
Y2123039D01*
X6643065Y2104712D01*
X6624737D01*
X6643065D01*
X6661392Y2086384D01*
Y2068057D01*
X6643065Y2049729D01*
X6606410D01*
X6588082Y2068057D01*
X6478118Y2413909D02*
Y2303944D01*
X6533100D01*
X6551428Y2322271D01*
Y2340599D01*
X6533100Y2358926D01*
X6478118D01*
X6533100D01*
X6551428Y2377254D01*
Y2395581D01*
X6533100Y2413909D01*
X6478118D01*
X6643065Y2303944D02*
Y2413909D01*
X6588082Y2358926D01*
X6661392D01*
X983068Y1616282D02*
X1008060Y1641274D01*
Y1691258D01*
X983068Y1716250D01*
X883100D01*
X858108Y1691258D01*
Y1641274D01*
X883100Y1616282D01*
X933084D01*
Y1666266D01*
X858108Y1566298D02*
X1008060D01*
X858108Y1466331D01*
X1008060D01*
Y1416347D02*
X858108D01*
Y1341371D01*
X883100Y1316379D01*
X983068D01*
X1008060Y1341371D01*
Y1416347D01*
X4411500Y4786818D02*
Y4666857D01*
X4471481D01*
X4491474Y4686851D01*
Y4766825D01*
X4471481Y4786818D01*
X4411500D01*
X4531461D02*
X4571448D01*
X4551455D01*
Y4666857D01*
X4531461D01*
X4571448D01*
X4631429D02*
Y4786818D01*
X4691409D01*
X4711403Y4766825D01*
Y4726838D01*
X4691409Y4706844D01*
X4631429D01*
X4671416D02*
X4711403Y4666857D01*
X4478145Y5066306D02*
X4461484Y5082968D01*
X4428161D01*
X4411500Y5066306D01*
Y5049645D01*
X4428161Y5032984D01*
X4461484D01*
X4478145Y5016322D01*
Y4999661D01*
X4461484Y4983000D01*
X4428161D01*
X4411500Y4999661D01*
X4511468Y5082968D02*
X4578113D01*
X4544790D01*
Y4983000D01*
X4678081Y5082968D02*
X4611436D01*
Y4983000D01*
X4678081D01*
X4611436Y5032984D02*
X4644758D01*
X4711403Y4983000D02*
Y5082968D01*
X4761387D01*
X4778048Y5066306D01*
Y5032984D01*
X4761387Y5016322D01*
X4711403D01*
X3585335Y5113500D02*
Y5076845D01*
Y5095173D01*
X3695299D01*
X3676972Y5113500D01*
X3585335Y4948553D02*
Y5021863D01*
X3658645Y4948553D01*
X3676972D01*
X3695299Y4966881D01*
Y5003536D01*
X3676972Y5021863D01*
X3695299Y4911898D02*
X3621990D01*
X3585335Y4875244D01*
X3621990Y4838589D01*
X3695299D01*
X3386037Y5113500D02*
X3286069D01*
X3236085Y5063516D01*
X3286069Y5013532D01*
X3386037D01*
X3236085Y4963548D02*
X3386037D01*
X3336053Y4913564D01*
X3386037Y4863581D01*
X3236085D01*
X3068537Y5013532D02*
Y5113500D01*
X2993561D01*
X3018553Y5063516D01*
Y5038524D01*
X2993561Y5013532D01*
X2943577D01*
X2918585Y5038524D01*
Y5088508D01*
X2943577Y5113500D01*
X3068537Y4963548D02*
X2968569D01*
X2918585Y4913564D01*
X2968569Y4863581D01*
X3068537D01*
X970734Y2384947D02*
X995726Y2409939D01*
Y2459923D01*
X970734Y2484915D01*
X870766D01*
X845774Y2459923D01*
Y2409939D01*
X870766Y2384947D01*
X920750D01*
Y2434931D01*
X845774Y2334964D02*
X995726D01*
Y2259988D01*
X970734Y2234996D01*
X920750D01*
X895758Y2259988D01*
Y2334964D01*
X995726Y2185012D02*
Y2135028D01*
Y2160020D01*
X845774D01*
Y2185012D01*
Y2135028D01*
X995726Y1985077D02*
Y2035061D01*
X970734Y2060053D01*
X870766D01*
X845774Y2035061D01*
Y1985077D01*
X870766Y1960085D01*
X970734D01*
X995726Y1985077D01*
X2405882Y3145460D02*
X2505850D01*
X2472527Y3112137D01*
X2505850Y3078815D01*
X2405882D01*
X2489189Y2978847D02*
X2505850Y2995508D01*
Y3028830D01*
X2489189Y3045492D01*
X2422544D01*
X2405882Y3028830D01*
Y2995508D01*
X2422544Y2978847D01*
X2505850Y2945524D02*
X2422544D01*
X2405882Y2928863D01*
Y2895540D01*
X2422544Y2878879D01*
X2505850D01*
X2389221Y2845556D02*
Y2778911D01*
X2505850Y2695604D02*
Y2728927D01*
X2489189Y2745588D01*
X2422544D01*
X2405882Y2728927D01*
Y2695604D01*
X2422544Y2678943D01*
X2489189D01*
X2505850Y2695604D01*
Y2645621D02*
X2422544D01*
X2405882Y2628959D01*
Y2595637D01*
X2422544Y2578976D01*
X2505850D01*
Y2545653D02*
Y2479008D01*
Y2512330D01*
X2405882D01*
Y2379040D02*
Y2445685D01*
X2472527Y2379040D01*
X2489189D01*
X2505850Y2395701D01*
Y2429024D01*
X2489189Y2445685D01*
X1433393Y902516D02*
Y1022478D01*
X1473380Y982491D01*
X1513367Y1022478D01*
Y902516D01*
X1633328Y1002484D02*
X1613334Y1022478D01*
X1573347D01*
X1553354Y1002484D01*
Y922510D01*
X1573347Y902516D01*
X1613334D01*
X1633328Y922510D01*
X1673315Y1022478D02*
Y922510D01*
X1693309Y902516D01*
X1733295D01*
X1753289Y922510D01*
Y1022478D01*
X1793276Y882523D02*
X1873250D01*
X1973218Y1022478D02*
X1933231D01*
X1913237Y1002484D01*
Y922510D01*
X1933231Y902516D01*
X1973218D01*
X1993211Y922510D01*
Y1002484D01*
X1973218Y1022478D01*
X2033198D02*
Y922510D01*
X2053192Y902516D01*
X2093179D01*
X2113173Y922510D01*
Y1022478D01*
X2153160D02*
X2233134D01*
X2193146D01*
Y902516D01*
X2273121D02*
X2313108D01*
X2293114D01*
Y1022478D01*
X2273121Y1002484D01*
D67*
X4593928Y6645201D02*
X4493961D01*
Y6495250D01*
X4593928D01*
X4493961Y6570226D02*
X4543945D01*
X4643912Y6495250D02*
Y6645201D01*
X4743880Y6495250D01*
Y6645201D01*
X4975967Y4810460D02*
X4950976Y4835451D01*
X4900992D01*
X4876000Y4810460D01*
Y4710492D01*
X4900992Y4685500D01*
X4950976D01*
X4975967Y4710492D01*
Y4760476D01*
X4925984D01*
X5025951Y4685500D02*
Y4835451D01*
X5125919Y4685500D01*
Y4835451D01*
X5175903D02*
Y4685500D01*
X5250878D01*
X5275870Y4710492D01*
Y4810460D01*
X5250878Y4835451D01*
X5175903D01*
X5003000Y6645201D02*
Y6545234D01*
X5052984Y6495250D01*
X5102967Y6545234D01*
Y6645201D01*
X5152951Y6495250D02*
Y6645201D01*
X5202935Y6595217D01*
X5252919Y6645201D01*
Y6495250D01*
X970750Y4250435D02*
X1104040Y4050500D01*
Y4250435D02*
X970750Y4050500D01*
X1170685Y4250435D02*
X1237331D01*
X1204008D01*
Y4050500D01*
X1170685D01*
X1237331D01*
X1337298D02*
Y4183790D01*
X1403943Y4250435D01*
X1470589Y4183790D01*
Y4050500D01*
Y4150468D01*
X1337298D01*
X1637202Y4250435D02*
X1570556D01*
X1537234Y4217113D01*
Y4083822D01*
X1570556Y4050500D01*
X1637202D01*
X1670524Y4083822D01*
Y4217113D01*
X1637202Y4250435D01*
%TF.MD5,b69eac7d21b2b770bbb2300d605857a1*%
M02*
