%TF.GenerationSoftware,Altium Limited,Altium Designer,22.7.1 (60)*%
G04 Layer_Color=8388736*
%FSLAX45Y45*%
%MOMM*%
%TF.SameCoordinates,61DBAAF2-DE87-4E8A-AD11-02536D302051*%
%TF.FilePolarity,Positive*%
%TF.FileFunction,Other,Top_Courtyard*%
%TF.Part,Single*%
G01*
G75*
%TA.AperFunction,NonConductor*%
%ADD61C,0.20000*%
D61*
X1352359Y6276999D02*
X1552359D01*
X1552358Y6677001D02*
X1552359Y6276999D01*
X1352358Y6677001D02*
X1552358D01*
X1352358D02*
X1352359Y6276999D01*
X2535250Y6277000D02*
X2735250D01*
Y6677000D01*
X2535250D02*
X2735250D01*
X2535250Y6277000D02*
Y6677000D01*
X794857Y5218000D02*
X1584858Y5218000D01*
X1584858Y6193000D01*
X794858Y6193000D02*
X1584858Y6193000D01*
X794857Y5218000D02*
X794858Y6193000D01*
X1523534Y1053751D02*
X2183534Y1053752D01*
X2183534Y2323751D01*
X1523535D02*
X2183534D01*
X1523534Y1053751D02*
X1523535Y2323751D01*
X1097536Y3155750D02*
X2367535Y3155750D01*
X2367535Y2495750D01*
X1097536Y2495750D02*
X2367535Y2495750D01*
X1097536Y2495750D02*
Y3155750D01*
X4341975Y1355485D02*
Y3125485D01*
X5001976D01*
Y1355485D02*
Y3125485D01*
X4341975Y1355485D02*
X5001976D01*
X4279660Y1355484D02*
X4279661Y3125485D01*
X3619660Y1355485D02*
X4279660Y1355484D01*
X3619660Y3125484D02*
X3619660Y1355485D01*
X3619660Y3125484D02*
X4279661Y3125485D01*
X5740160Y1355484D02*
X5740161Y3125485D01*
X5080160Y1355485D02*
X5740160Y1355484D01*
X5080160Y3125484D02*
X5080160Y1355485D01*
X5080160Y3125484D02*
X5740161Y3125485D01*
X5802475Y1355485D02*
Y3125485D01*
X6462476D01*
Y1355485D02*
Y3125485D01*
X5802475Y1355485D02*
X6462476D01*
%TF.MD5,261ef219fa3ade32f3e00ea9a533b294*%
M02*
