%TF.GenerationSoftware,Altium Limited,Altium Designer,22.7.1 (60)*%
G04 Layer_Color=128*
%FSLAX45Y45*%
%MOMM*%
%TF.SameCoordinates,61DBAAF2-DE87-4E8A-AD11-02536D302051*%
%TF.FilePolarity,Positive*%
%TF.FileFunction,Drillmap*%
%TF.Part,Single*%
G01*
G75*
%TA.AperFunction,NonConductor*%
%ADD92C,0.12700*%
D92*
X989858Y6105500D02*
X1089858D01*
X1039858Y6055500D02*
Y6155500D01*
X989858Y5305500D02*
X1089858D01*
X1039858Y5255501D02*
Y5355500D01*
X999857Y5905500D02*
X1079857D01*
X1039857Y5865500D02*
Y5945500D01*
X999858Y5705501D02*
X1079858D01*
X1039858Y5665501D02*
Y5745501D01*
X999858Y5505501D02*
X1079857D01*
X1039857Y5465501D02*
Y5545501D01*
X5470461Y4762500D02*
X5565461D01*
X5517961Y4715000D02*
Y4810000D01*
X5470461Y5016500D02*
X5565461D01*
X5517961Y4969000D02*
Y5064000D01*
X5470461Y5270501D02*
X5565461D01*
X5517961Y5223001D02*
Y5318001D01*
X5470462Y5524499D02*
X5565462D01*
X5517962Y5476999D02*
Y5571999D01*
X5470460Y5778500D02*
X5565460D01*
X5517960Y5731000D02*
Y5826000D01*
X5470461Y6032501D02*
X5565461D01*
X5517961Y5985000D02*
Y6080001D01*
X5470461Y6286499D02*
X5565461D01*
X5517961Y6238999D02*
Y6333999D01*
X5470462Y6540502D02*
X5565462D01*
X5517962Y6493002D02*
Y6588002D01*
X4218461Y4762499D02*
X4313461D01*
X4265961Y4714999D02*
Y4809999D01*
X4218461Y5016501D02*
X4313461D01*
X4265961Y4969001D02*
Y5064001D01*
X4218461Y5270501D02*
X4313461D01*
X4265961Y5223000D02*
Y5318001D01*
X4218460Y5524501D02*
X4313460D01*
X4265960Y5477001D02*
Y5572001D01*
X4218459Y5778500D02*
X4313459D01*
X4265959Y5731000D02*
Y5826000D01*
X4218461Y6032501D02*
X4313461D01*
X4265961Y5985000D02*
Y6080001D01*
X4218461Y6286499D02*
X4313461D01*
X4265961Y6238999D02*
Y6334000D01*
X4218462Y6540500D02*
X4313462D01*
X4265962Y6493000D02*
Y6588000D01*
X6118888Y4838061D02*
X6238888D01*
X6178888Y4778061D02*
Y4898061D01*
X6118888Y5092061D02*
X6238888D01*
X6178888Y5032061D02*
Y5152061D01*
X6118888Y5346061D02*
X6238888D01*
X6178888Y5286061D02*
Y5406061D01*
X6118887Y5600060D02*
X6238887D01*
X6178887Y5540061D02*
Y5660060D01*
X3404785Y5796000D02*
X3484785D01*
X3444785Y5756000D02*
Y5836000D01*
X3404786Y6376001D02*
X3484786D01*
X3444786Y6336001D02*
Y6416001D01*
X2924785Y6096000D02*
X3004784D01*
X2964785Y6056000D02*
Y6136000D01*
X1808535Y1313751D02*
X1898535D01*
X1853535Y1268752D02*
Y1358751D01*
X1808535Y1563751D02*
X1898534D01*
X1853535Y1518751D02*
Y1608751D01*
X1808535Y1813750D02*
X1898535D01*
X1853535Y1768750D02*
Y1858750D01*
X1808535Y2063750D02*
X1898534D01*
X1853535Y2018750D02*
Y2108750D01*
X2062535Y2825750D02*
X2152534D01*
X2107535Y2780750D02*
Y2870750D01*
X1812535Y2825750D02*
X1902535D01*
X1857535Y2780750D02*
Y2870750D01*
X1562535Y2825750D02*
X1652535D01*
X1607535Y2780750D02*
Y2870750D01*
X1312536Y2825750D02*
X1402536D01*
X1357536Y2780750D02*
Y2870750D01*
X2867285Y1555750D02*
X3017284D01*
X2942284Y1480750D02*
Y1630750D01*
X2603284Y1809750D02*
X2773284D01*
X2688284Y1724750D02*
Y1894750D01*
X2603284Y1301750D02*
X2773284D01*
X2688284Y1216750D02*
Y1386750D01*
X3111284Y1301749D02*
X3281284D01*
X3196284Y1216750D02*
Y1386749D01*
X3111285Y1809750D02*
X3281285D01*
X3196285Y1724750D02*
Y1894750D01*
X2531800Y3351441D02*
X2641800D01*
X2586800Y3296441D02*
Y3406440D01*
X2277801Y3351440D02*
X2387800D01*
X2332801Y3296440D02*
Y3406440D01*
X1769800Y3351441D02*
X1879800D01*
X1824800Y3296441D02*
Y3406441D01*
X1261800Y3351440D02*
X1371800D01*
X1316800Y3296440D02*
Y3406440D01*
X1515801Y3351441D02*
X1625800D01*
X1570801Y3296441D02*
Y3406440D01*
X2023801Y3351441D02*
X2133800D01*
X2078801Y3296441D02*
Y3406440D01*
X1007801Y3351441D02*
X1117801D01*
X1062801Y3296441D02*
Y3406441D01*
X2531800Y4876268D02*
X2641799D01*
X2586799Y4821268D02*
Y4931268D01*
X2277800Y4876267D02*
X2387800D01*
X2332800Y4821267D02*
Y4931267D01*
X1769800Y4876267D02*
X1879800D01*
X1824800Y4821267D02*
Y4931267D01*
X1261800Y4876267D02*
X1371800D01*
X1316800Y4821267D02*
Y4931267D01*
X1007800Y4876267D02*
X1117800D01*
X1062800Y4821267D02*
Y4931267D01*
X1515800Y4876267D02*
X1625800D01*
X1570800Y4821267D02*
Y4931267D01*
X2023800Y4876267D02*
X2133800D01*
X2078800Y4821267D02*
Y4931267D01*
X1093108Y1746250D02*
X1213107D01*
X1153107Y1686250D02*
Y1806250D01*
X1093109Y2000250D02*
X1213108D01*
X1153108Y1940250D02*
Y2060250D01*
X4626976Y2865485D02*
X4716975D01*
X4671975Y2820485D02*
Y2910485D01*
X4626976Y2615485D02*
X4716975D01*
X4671975Y2570485D02*
Y2660485D01*
X4626976Y2365485D02*
X4716975D01*
X4671975Y2320485D02*
Y2410485D01*
X4626976Y2115485D02*
X4716975D01*
X4671975Y2070485D02*
Y2160485D01*
X4626976Y1865485D02*
X4716975D01*
X4671975Y1820485D02*
Y1910485D01*
X4626976Y1615485D02*
X4716975D01*
X4671975Y1570485D02*
Y1660485D01*
X3904660Y1615485D02*
X3994660D01*
X3949660Y1570485D02*
Y1660485D01*
X3904660Y1865485D02*
X3994660D01*
X3949660Y1820485D02*
Y1910485D01*
X3904660Y2115485D02*
X3994660D01*
X3949660Y2070485D02*
Y2160485D01*
X3904660Y2365485D02*
X3994660D01*
X3949660Y2320485D02*
Y2410485D01*
X3904660Y2615485D02*
X3994660D01*
X3949660Y2570485D02*
Y2660485D01*
X3904660Y2865485D02*
X3994660D01*
X3949660Y2820485D02*
Y2910485D01*
X5365160Y1615485D02*
X5455160D01*
X5410160Y1570485D02*
Y1660485D01*
X5365160Y1865485D02*
X5455160D01*
X5410160Y1820485D02*
Y1910485D01*
X5365160Y2115485D02*
X5455160D01*
X5410160Y2070485D02*
Y2160485D01*
X5365160Y2365485D02*
X5455160D01*
X5410160Y2320485D02*
Y2410485D01*
X5365160Y2615485D02*
X5455160D01*
X5410160Y2570485D02*
Y2660485D01*
X5365160Y2865485D02*
X5455160D01*
X5410160Y2820485D02*
Y2910485D01*
X6087476Y2865485D02*
X6177475D01*
X6132475Y2820485D02*
Y2910485D01*
X6087476Y2615485D02*
X6177475D01*
X6132475Y2570485D02*
Y2660485D01*
X6087476Y2365485D02*
X6177475D01*
X6132475Y2320485D02*
Y2410485D01*
X6087476Y2115485D02*
X6177475D01*
X6132475Y2070485D02*
Y2160485D01*
X6087476Y1865485D02*
X6177475D01*
X6132475Y1820485D02*
Y1910485D01*
X6087476Y1615485D02*
X6177475D01*
X6132475Y1570485D02*
Y1660485D01*
X1640840Y6508750D02*
X1661160D01*
X1651000Y6498590D02*
Y6518910D01*
X1640840Y6191250D02*
X1661160D01*
X1651000Y6181090D02*
Y6201410D01*
X1640840Y6032500D02*
X1661160D01*
X1651000Y6022340D02*
Y6042660D01*
X1640840Y5778500D02*
X1661160D01*
X1651000Y5768340D02*
Y5788660D01*
X1640840Y5651500D02*
X1661160D01*
X1651000Y5641340D02*
Y5661660D01*
X2498090Y6159500D02*
X2518410D01*
X2508250Y6149340D02*
Y6169660D01*
X2498090Y6000750D02*
X2518410D01*
X2508250Y5990590D02*
Y6010910D01*
X2529840Y5715000D02*
X2550160D01*
X2540000Y5704840D02*
Y5725160D01*
X2625090Y5619750D02*
X2645410D01*
X2635250Y5609590D02*
Y5629910D01*
X1024858Y6286500D02*
X1054858D01*
X1039858Y6271500D02*
Y6301500D01*
X1462375Y6032500D02*
X1482695D01*
X1472535Y6022340D02*
Y6042660D01*
X4210199Y784618D02*
X4240199D01*
X4225199Y769618D02*
Y799618D01*
X4605625Y5619750D02*
X4625945D01*
X4615785Y5609590D02*
Y5629910D01*
X4034125Y5238750D02*
X4054445D01*
X4044285Y5228590D02*
Y5248910D01*
X4000891Y6637233D02*
X4021211D01*
X4011051Y6627073D02*
Y6647393D01*
X5812125Y6096000D02*
X5832445D01*
X5822285Y6085840D02*
Y6106160D01*
X4396991Y974404D02*
X4426991D01*
X4411991Y959404D02*
Y989404D01*
X4338142Y921779D02*
X4368142D01*
X4353142Y906779D02*
Y936779D01*
X4275333Y869721D02*
X4305333D01*
X4290333Y854721D02*
Y884721D01*
X5866330Y971541D02*
X5896330D01*
X5881330Y956541D02*
Y986541D01*
X5772718Y1312286D02*
X5802718D01*
X5787718Y1297286D02*
Y1327286D01*
X5703192Y1301228D02*
X5733192D01*
X5718192Y1286228D02*
Y1316228D01*
X5797726Y912521D02*
X5827725D01*
X5812725Y897521D02*
Y927521D01*
X5738537Y851140D02*
X5768537D01*
X5753537Y836140D02*
Y866140D01*
X5673868Y773866D02*
X5703868D01*
X5688868Y758866D02*
Y788866D01*
X4252839Y1313562D02*
X4282839D01*
X4267839Y1298562D02*
Y1328561D01*
X4298732Y1373099D02*
X4328732D01*
X4313732Y1358099D02*
Y1388099D01*
X4293771Y1499617D02*
X4323771D01*
X4308771Y1484617D02*
Y1514617D01*
X4140030Y1306357D02*
X4170030D01*
X4155030Y1291357D02*
Y1321357D01*
X5600530Y1306357D02*
X5630530D01*
X5615530Y1291357D02*
Y1321357D01*
X2767285Y2508250D02*
X3117284D01*
X2942284Y2333250D02*
Y2683250D01*
X5755094Y1450444D02*
X5785094D01*
X5770094Y1435444D02*
Y1465444D01*
X2917284Y2127250D02*
X2967284D01*
X2942284Y2102250D02*
Y2152250D01*
X2637125Y3892551D02*
X2657445D01*
X2647285Y3882391D02*
Y3902711D01*
X1938625Y4095750D02*
X1958945D01*
X1948785Y4085590D02*
Y4105910D01*
X2625090Y5397500D02*
X2645410D01*
X2635250Y5387340D02*
Y5407660D01*
X2625090Y5270500D02*
X2645410D01*
X2635250Y5260340D02*
Y5280660D01*
X2466340Y5270500D02*
X2486660D01*
X2476500Y5260340D02*
Y5280660D01*
X2287875Y5270500D02*
X2308195D01*
X2298035Y5260340D02*
Y5280660D01*
X2005140Y5270500D02*
X2025460D01*
X2015300Y5260340D02*
Y5280660D01*
X1779875Y5270500D02*
X1800195D01*
X1790035Y5260340D02*
Y5280660D01*
X1640840Y5270500D02*
X1661160D01*
X1651000Y5260340D02*
Y5280660D01*
X2148840Y5270500D02*
X2169160D01*
X2159000Y5260340D02*
Y5280660D01*
X1894840Y5270500D02*
X1915160D01*
X1905000Y5260340D02*
Y5280660D01*
%TF.MD5,d7febfb868d109b3838965c9efc23d01*%
M02*
