%TF.GenerationSoftware,Altium Limited,Altium Designer,22.7.1 (60)*%
G04 Layer_Color=32768*
%FSLAX45Y45*%
%MOMM*%
%TF.SameCoordinates,61DBAAF2-DE87-4E8A-AD11-02536D302051*%
%TF.FilePolarity,Positive*%
%TF.FileFunction,Other,Unrouted*%
%TF.Part,Single*%
G01*
G75*
%TA.AperFunction,NonConductor*%
%ADD63C,0.10000*%
%ADD74C,0.05000*%
D63*
X5753888Y4588061D02*
X5753888Y5850061D01*
X6603888Y5850061D01*
X6603888Y4588061D01*
X5753888D02*
X6603888D01*
X1625284Y5325249D02*
X2475284Y5325249D01*
X2475285Y6779849D01*
X1625285Y6779850D02*
X2475285Y6779849D01*
X1625284Y5325249D02*
X1625285Y6779850D01*
X3423784Y295749D02*
X3423785Y2037250D01*
X2460784Y295749D02*
X3423784Y295749D01*
X2460784Y2037249D02*
X2460784Y295749D01*
X2460784Y2037249D02*
X3423785Y2037250D01*
D74*
X5314960Y4610501D02*
X5720961D01*
X5314960D02*
X5314961Y6692499D01*
X5720963Y6692498D01*
X5720961Y4610501D02*
X5720963Y6692498D01*
X4062960Y4610501D02*
X4468961Y4610501D01*
X4062960Y4610501D02*
X4062961Y6692498D01*
X4468962Y6692500D01*
X4468961Y4610501D02*
X4468962Y6692500D01*
X3914785Y5686001D02*
Y7176001D01*
X2854785Y7176000D02*
X3914785Y7176001D01*
X2854785Y7176000D02*
X2854785Y5686000D01*
X3914785Y5686001D01*
X3444785Y6381001D02*
X3444785Y6481000D01*
X3394785Y6431001D02*
X3494785Y6431000D01*
X900800Y3196940D02*
Y3505941D01*
Y3196940D02*
X2748800Y3196940D01*
X2748800Y3505941D02*
X2748800Y3196940D01*
X900800Y3505941D02*
X2748800Y3505941D01*
X1824800Y3301440D02*
X1824800Y3401440D01*
X1774800Y3351440D02*
X1874800D01*
X900800Y5030767D02*
X900801Y4721767D01*
X2748800Y4721767D01*
Y5030768D01*
X900800Y5030767D02*
X2748800Y5030768D01*
X1824800Y4926267D02*
X1824801Y4826268D01*
X1774800Y4876267D02*
X1874801Y4876267D01*
%TF.MD5,89999eb5a2f7f5b97e8adc504b852800*%
M02*
